<?xml version="1.0" encoding="UTF-8"?>
<svg id="Camada_2" data-name="Camada 2" xmlns="http://www.w3.org/2000/svg" viewBox="0 0 153.08 120.06">
  <defs>
    <style>
      .cls-1 {
        stroke: #4d4d4d;
        stroke-dasharray: 2.22 1.33;
        stroke-width: .44px;
      }

      .cls-1, .cls-2, .cls-3, .cls-4, .cls-5, .cls-6 {
        fill: none;
        stroke-miterlimit: 22.93;
      }

      .cls-2 {
        stroke-width: .57px;
      }

      .cls-2, .cls-6 {
        stroke: #000;
      }

      .cls-7 {
        opacity: .97;
      }

      .cls-3 {
        stroke-width: .26px;
      }

      .cls-3, .cls-5 {
        stroke: #666;
      }

      .cls-4 {
        stroke: #808184;
      }

      .cls-4, .cls-6 {
        stroke-width: .58px;
      }

      .cls-8, .cls-9, .cls-10 {
        fill-rule: evenodd;
      }

      .cls-8, .cls-11 {
        fill: #d1d1d1;
      }

      .cls-5 {
        stroke-width: .26px;
      }

      .cls-10 {
        fill: #eaeaea;
        stroke: #fff;
        stroke-miterlimit: 10;
        stroke-width: .25px;
      }
    </style>
  </defs>
  <g id="_1.0_Americano" data-name="1.0 Americano">
    <g>
      <path class="cls-9" d="M3.49,90.57c-.3-.31-.58-.62-.83-.92.26.31.53.62.83.92ZM9.05,82.06c.01-.99.02-2.17.02-3.47-.05-24.45,2.51-74.86,67.43-74.5,69.91.39,66.94,59.49,67.44,76.54.01.45.02.87.03,1.25,2.88,1.14,5.76,2.35,8.65,3.64v2.89s.12,8.83.12,8.83c.09,13.87-16.33,16.04-26.44,18.29-7.65,1.7-11.35,1.79-11.38,2.05-.21-10.92-.32-16.95-.32-16.95,13.38-.94,23.28-3.05,29.68-6.32-3.66-1.61-7.33-3.09-11-4.44-55.59-26.8-84.4-11.67-118.86.27-2.56.94-5.13,1.93-7.69,2.98,6.24,3.96,16.83,6.47,31.78,7.51,0,0-.11,6.02-.32,16.95-.02-.27-3.73-.35-11.38-2.05-10.1-2.25-26.53-4.42-26.44-18.29,0,0,.05-3.81.16-11.43.25.78.58,1.53,1.01,2.25-.46-.83-.66-1.58-.58-2.24,2.69-1.33,5.39-2.58,8.09-3.76Z"/>
      <path class="cls-3" d="M3.49,90.57c-.3-.31-.58-.62-.83-.92.26.31.53.62.83.92ZM9.05,82.06c.01-.99.02-2.17.02-3.47-.05-24.45,2.51-74.86,67.43-74.5,69.91.39,66.94,59.49,67.44,76.54.01.45.02.87.03,1.25,2.88,1.14,5.76,2.35,8.65,3.64v2.89s.12,8.83.12,8.83c.09,13.87-16.33,16.04-26.44,18.29-7.65,1.7-11.35,1.79-11.38,2.05-.21-10.92-.32-16.95-.32-16.95,13.38-.94,23.28-3.05,29.68-6.32-3.66-1.61-7.33-3.09-11-4.44-55.59-26.8-84.4-11.67-118.86.27-2.56.94-5.13,1.93-7.69,2.98,6.24,3.96,16.83,6.47,31.78,7.51,0,0-.11,6.02-.32,16.95-.02-.27-3.73-.35-11.38-2.05-10.1-2.25-26.53-4.42-26.44-18.29,0,0,.05-3.81.16-11.43.25.78.58,1.53,1.01,2.25-.46-.83-.66-1.58-.58-2.24,2.69-1.33,5.39-2.58,8.09-3.76Z"/>
      <path class="cls-9" d="M3.49,90.57c-.3-.31-.58-.62-.83-.92.26.31.53.62.83.92ZM9.05,82.06c.01-.99.02-2.17.02-3.47-.05-24.45,2.51-74.86,67.43-74.5,69.91.39,66.94,59.49,67.44,76.54.01.45.02.87.03,1.25,2.88,1.14,5.76,2.35,8.65,3.64v2.89s.12,8.83.12,8.83c.09,13.87-16.33,16.04-26.44,18.29-7.65,1.7-11.35,1.79-11.38,2.05-.21-10.92-.32-16.95-.32-16.95,13.38-.94,23.28-3.05,29.68-6.32-3.66-1.61-7.33-3.09-11-4.44-55.59-26.8-84.4-11.67-118.86.27-2.56.94-5.13,1.93-7.69,2.98,6.24,3.96,16.83,6.47,31.78,7.51,0,0-.11,6.02-.32,16.95-.02-.27-3.73-.35-11.38-2.05-10.1-2.25-26.53-4.42-26.44-18.29,0,0,.05-3.81.16-11.43.25.78.58,1.53,1.01,2.25-.46-.83-.66-1.58-.58-2.24,2.69-1.33,5.39-2.58,8.09-3.76Z"/>
      <path class="cls-3" d="M3.49,90.57c-.3-.31-.58-.62-.83-.92.26.31.53.62.83.92ZM9.05,82.06c.01-.99.02-2.17.02-3.47-.05-24.45,2.51-74.86,67.43-74.5,69.91.39,66.94,59.49,67.44,76.54.01.45.02.87.03,1.25,2.88,1.14,5.76,2.35,8.65,3.64v2.89s.12,8.83.12,8.83c.09,13.87-16.33,16.04-26.44,18.29-7.65,1.7-11.35,1.79-11.38,2.05-.21-10.92-.32-16.95-.32-16.95,13.38-.94,23.28-3.05,29.68-6.32-3.66-1.61-7.33-3.09-11-4.44-55.59-26.8-84.4-11.67-118.86.27-2.56.94-5.13,1.93-7.69,2.98,6.24,3.96,16.83,6.47,31.78,7.51,0,0-.11,6.02-.32,16.95-.02-.27-3.73-.35-11.38-2.05-10.1-2.25-26.53-4.42-26.44-18.29,0,0,.05-3.81.16-11.43.25.78.58,1.53,1.01,2.25-.46-.83-.66-1.58-.58-2.24,2.69-1.33,5.39-2.58,8.09-3.76Z"/>
      <path class="cls-1" d="M8.48,81.58c22.78-8.32,45.4-17.66,67.85-17.66,22.71,0,45.26,9.45,67.63,17.97"/>
      <path class="cls-1" d="M8.48,85.17c22.78-8.32,45.4-17.66,67.85-17.66,22.71,0,45.26,9.45,67.63,17.97"/>
      <path class="cls-1" d="M8.48,88.76c22.78-8.32,45.4-17.66,67.85-17.66,22.71,0,45.26,9.45,67.63,17.97"/>
      <path class="cls-1" d="M8.48,92.75c22.78-8.32,45.4-17.66,67.85-17.66,22.71,0,45.26,9.45,67.63,17.97"/>
      <path class="cls-10" d="M20.9,87.57c1.22-.45,3.44-1.22,8.07-2.78,4.63-1.56,11.67-3.91,17.28-5.52,5.61-1.61,9.78-2.48,13.93-3.07,4.15-.59,8.27-.91,11.65-1.07,3.39-.16,6.04-.15,8.79-.04,2.76.11,5.62.31,9.24.81,3.62.5,8,1.3,12.08,2.29,4.09.98,7.88,2.15,11.49,3.32,3.61,1.17,7.04,2.36,10.22,3.5,3.18,1.14,6.11,2.23,7.65,2.85,1.54.62,1.69.77,1.78.99.09.22.14.53.02,1.13-.12.61-.39,1.52-.7,2.62-.31,1.1-.67,2.38-1.53,3.4-.87,1.02-2.25,1.77-3.73,2.11-1.48.34-3.07.26-4.93-.18-1.86-.43-4-1.23-6.06-2.14-2.06-.92-4.05-1.95-6.33-3.17-2.28-1.22-4.86-2.62-7.2-3.81-2.34-1.19-4.44-2.16-6.51-2.96-2.07-.8-4.1-1.43-5.62-1.85-1.52-.42-2.51-.63-4.17-.9-1.66-.26-4-.58-6.49-.77-2.5-.2-5.16-.27-7.63-.25-2.47.02-4.75.15-7.3.69-2.55.54-5.38,1.49-7.7,2.4-2.32.9-4.13,1.76-6.01,2.7s-3.81,1.97-5.78,3.03c-1.97,1.06-3.98,2.16-5.82,3.13-1.84.97-3.51,1.83-5.19,2.48-1.67.66-3.35,1.12-4.71,1.34-1.36.22-2.4.2-3.53-.18-1.13-.38-2.34-1.11-3.33-2.24-.99-1.14-1.75-2.67-2.31-3.94-.56-1.26-.92-2.25-1.1-2.74q-.18-.49-.07-.55c.11-.06.33-.17,1.56-.62Z"/>
      <path class="cls-4" d="M20.9,87.57c1.22-.45,3.44-1.22,8.07-2.78,4.63-1.56,11.67-3.91,17.28-5.52,5.61-1.61,9.78-2.48,13.93-3.07,4.15-.59,8.27-.91,11.65-1.07,3.39-.16,6.04-.15,8.79-.04,2.76.11,5.62.31,9.24.81,3.62.5,8,1.3,12.08,2.29,4.09.98,7.88,2.15,11.49,3.32,3.61,1.17,7.04,2.36,10.22,3.5,3.18,1.14,6.11,2.23,7.65,2.85,1.54.62,1.69.77,1.78.99.09.22.14.53.02,1.13-.12.61-.39,1.52-.7,2.62-.31,1.1-.67,2.38-1.53,3.4-.87,1.02-2.25,1.77-3.73,2.11-1.48.34-3.07.26-4.93-.18-1.86-.43-4-1.23-6.06-2.14-2.06-.92-4.05-1.95-6.33-3.17-2.28-1.22-4.86-2.62-7.2-3.81-2.34-1.19-4.44-2.16-6.51-2.96-2.07-.8-4.1-1.43-5.62-1.85-1.52-.42-2.51-.63-4.17-.9-1.66-.26-4-.58-6.49-.77-2.5-.2-5.16-.27-7.63-.25-2.47.02-4.75.15-7.3.69-2.55.54-5.38,1.49-7.7,2.4-2.32.9-4.13,1.76-6.01,2.7s-3.81,1.97-5.78,3.03c-1.97,1.06-3.98,2.16-5.82,3.13-1.84.97-3.51,1.83-5.19,2.48-1.67.66-3.35,1.12-4.71,1.34-1.36.22-2.4.2-3.53-.18-1.13-.38-2.34-1.11-3.33-2.24-.99-1.14-1.75-2.67-2.31-3.94-.56-1.26-.92-2.25-1.1-2.74q-.18-.49-.07-.55c.11-.06.33-.17,1.56-.62Z"/>
      <path class="cls-10" d="M38.2,117.47q-.07.42-1.65.12c-1.58-.3-4.74-.91-8.33-1.72-3.6-.81-7.64-1.83-11.05-2.74-3.41-.91-6.2-1.69-8.45-2.83-2.25-1.14-3.97-2.62-5.29-4.39-1.32-1.76-2.25-3.81-2.72-6.04-.46-2.23-.46-4.64-.37-8.33.09-3.69.28-8.66.7-15.37.42-6.71,1.07-15.16,1.63-20.78.56-5.62,1.02-8.4,2.34-11.93,1.32-3.53,3.51-7.8,5.87-11.56,2.37-3.76,4.92-7.01,7.43-9.8,2.51-2.79,4.97-5.11,8.4-7.24,3.44-2.14,7.85-4.09,13.16-5.85,5.32-1.76,11.54-3.34,17.06-4.27,5.53-.93,10.35-1.21,16.53-1.25,6.18-.05,13.7.14,19.64.81,5.94.67,10.31,1.83,14.67,3.11,4.36,1.28,8.73,2.67,12.72,4.6,3.99,1.93,7.61,4.39,10.89,7.17,3.27,2.79,6.2,5.9,8.59,8.89s4.25,5.87,5.87,9.26c1.63,3.39,3.02,7.29,3.97,12.54.95,5.25,1.46,11.84,1.93,19.22.46,7.38.88,15.55,1,20.89.12,5.34-.07,7.85-.42,9.94-.35,2.09-.86,3.76-1.67,5.25-.81,1.49-1.93,2.79-3.44,3.83-1.51,1.05-3.41,1.83-6.64,2.86-3.23,1.02-7.78,2.28-12.23,3.32-4.46,1.04-8.82,1.88-11,2.3q-2.18.42-2.28-2.04c-.09-2.46-.28-7.38-.51-12.14-.23-4.76-.51-9.36-1.16-13.23-.65-3.88-1.67-7.03-3.2-10.01-1.53-2.97-3.58-5.76-5.8-8.13-2.23-2.37-4.64-4.32-7.45-5.87-2.81-1.56-6.01-2.72-9.75-3.44-3.74-.72-8.01-1-12.14-.91-4.13.09-8.13.56-11.61,1.53-3.48.98-6.45,2.46-9.08,4.13-2.62,1.67-4.9,3.53-7.01,6.01-2.11,2.48-4.06,5.6-5.39,8.54-1.32,2.95-2.02,5.73-2.41,8.1-.39,2.37-.49,4.32-.6,7.73-.12,3.41-.26,8.29-.32,11.47-.07,3.18-.07,4.67-.14,5.83-.07,1.16-.21,2-.28,2.41Z"/>
      <path class="cls-6" d="M38.2,117.47q-.07.42-1.65.12c-1.58-.3-4.74-.91-8.33-1.72-3.6-.81-7.64-1.83-11.05-2.74-3.41-.91-6.2-1.69-8.45-2.83-2.25-1.14-3.97-2.62-5.29-4.39-1.32-1.76-2.25-3.81-2.72-6.04-.46-2.23-.46-4.64-.37-8.33.09-3.69.28-8.66.7-15.37.42-6.71,1.07-15.16,1.63-20.78.56-5.62,1.02-8.4,2.34-11.93,1.32-3.53,3.51-7.8,5.87-11.56,2.37-3.76,4.92-7.01,7.43-9.8,2.51-2.79,4.97-5.11,8.4-7.24,3.44-2.14,7.85-4.09,13.16-5.85,5.32-1.76,11.54-3.34,17.06-4.27,5.53-.93,10.35-1.21,16.53-1.25,6.18-.05,13.7.14,19.64.81,5.94.67,10.31,1.83,14.67,3.11,4.36,1.28,8.73,2.67,12.72,4.6,3.99,1.93,7.61,4.39,10.89,7.17,3.27,2.79,6.2,5.9,8.59,8.89s4.25,5.87,5.87,9.26c1.63,3.39,3.02,7.29,3.97,12.54.95,5.25,1.46,11.84,1.93,19.22.46,7.38.88,15.55,1,20.89.12,5.34-.07,7.85-.42,9.94-.35,2.09-.86,3.76-1.67,5.25-.81,1.49-1.93,2.79-3.44,3.83-1.51,1.05-3.41,1.83-6.64,2.86-3.23,1.02-7.78,2.28-12.23,3.32-4.46,1.04-8.82,1.88-11,2.3q-2.18.42-2.28-2.04c-.09-2.46-.28-7.38-.51-12.14-.23-4.76-.51-9.36-1.16-13.23-.65-3.88-1.67-7.03-3.2-10.01-1.53-2.97-3.58-5.76-5.8-8.13-2.23-2.37-4.64-4.32-7.45-5.87-2.81-1.56-6.01-2.72-9.75-3.44-3.74-.72-8.01-1-12.14-.91-4.13.09-8.13.56-11.61,1.53-3.48.98-6.45,2.46-9.08,4.13-2.62,1.67-4.9,3.53-7.01,6.01-2.11,2.48-4.06,5.6-5.39,8.54-1.32,2.95-2.02,5.73-2.41,8.1-.39,2.37-.49,4.32-.6,7.73-.12,3.41-.26,8.29-.32,11.47-.07,3.18-.07,4.67-.14,5.83-.07,1.16-.21,2-.28,2.41Z"/>
      <path class="cls-8" d="M74,57.69c0,2.01-.15,1.84.58,1.84.49,0,.29-.83.29-2.13-.62,0-.87-.09-.87.29"/>
      <path class="cls-8" d="M78.75,25.42c0,2.11-.21,1.84.87,1.84,0-2.32.17-2.13-.58-2.13-.22,0-.29.07-.29.29"/>
      <path class="cls-8" d="M74.2,25.42v1.84c1.09,0,.87.27.87-1.84,0-.43-.87-.43-.87,0"/>
      <path class="cls-8" d="M78.66,46.55c.4,0,.87.31.87-.19v-1.84h-.87v2.04Z"/>
      <path class="cls-8" d="M74.1,38.5c0,1.89-.2,1.65.87,1.65v-2.04l-.78-.1c-.05.22-.1.22-.1.48"/>
      <path class="cls-8" d="M78.85,14.07c0,.37.23.29.78.29.01-.59.39-2.13-.19-2.13h-.58v1.84Z"/>
      <rect class="cls-11" x="78.75" y="28.42" width=".87" height="2.04"/>
      <rect class="cls-11" x="74.1" y="41.31" width=".87" height="2.04"/>
      <rect class="cls-11" x="74.29" y="5.84" width=".87" height="2.04"/>
      <rect class="cls-11" x="78.85" y="9.03" width=".87" height="2.04"/>
      <path class="cls-8" d="M78.66,41.6v1.74h.87v-2.04h-.58c-.22,0-.29.07-.29.29"/>
      <path class="cls-8" d="M74.2,22.22v1.74h.87v-2.04h-.58c-.22,0-.29.07-.29.29"/>
      <path class="cls-8" d="M78.66,49.84h.78c0-.74.1-1.08.1-1.84,0-.22-.07-.29-.29-.29h-.58v2.13Z"/>
      <path class="cls-8" d="M74.29,11.07h.78c.05-.22.1-.22.1-.48v-1.55h-.87v2.04Z"/>
      <path class="cls-8" d="M78.85,6.51v1.36h.87v-2.04h-.78c-.03.3-.1.34-.1.68"/>
      <path class="cls-8" d="M78.66,57.79c0,1.73-.57,1.74.78,1.74v-2.13h-.78v.39Z"/>
      <path class="cls-8" d="M74.1,46.55l.77.11c0-2.13.56-2.15-.77-2.15v2.04Z"/>
      <rect class="cls-11" x="78.75" y="34.82" width=".78" height="2.13"/>
      <rect class="cls-11" x="74.1" y="47.71" width=".78" height="2.13"/>
      <rect class="cls-11" x="74.2" y="34.82" width=".78" height="2.13"/>
      <rect class="cls-11" x="74.29" y="12.23" width=".78" height="2.13"/>
      <path class="cls-8" d="M78.85,15.72v1.84h.78c0-2.18.17-2.13-.48-2.13-.22,0-.29.07-.29.29"/>
      <path class="cls-8" d="M74.29,17.56h.78v-1.84c0-.22-.07-.29-.29-.29h-.48v2.13Z"/>
      <path class="cls-8" d="M74.1,54.98c0,.59-.1.71-.1,1.26h.87v-2.04h-.78v.78Z"/>
      <path class="cls-8" d="M78.85,23.28c0,.33-.07.38-.1.68h.87v-2.04h-.78v1.36Z"/>
      <path class="cls-8" d="M78.75,40.15h.78v-2.04h-.29c-.26,0-.27-.05-.48-.1v2.13Z"/>
      <rect class="cls-11" x="78.75" y="31.62" width=".78" height="2.04"/>
      <rect class="cls-11" x="74.1" y="51.01" width=".78" height="2.04"/>
      <rect class="cls-11" x="78.66" y="51.01" width=".78" height="2.04"/>
      <rect class="cls-11" x="74.2" y="28.42" width=".78" height="2.04"/>
      <rect class="cls-11" x="78.85" y="18.73" width=".78" height="2.04"/>
      <rect class="cls-11" x="74.2" y="31.62" width=".78" height="2.04"/>
      <rect class="cls-11" x="74.29" y="18.73" width=".78" height="2.04"/>
      <rect class="cls-11" x="78.66" y="54.21" width=".78" height="2.04"/>
      <path class="cls-8" d="M74.29,4.38c0,.22.07.29.29.29h.58v-1.07h-.87v.78Z"/>
      <path class="cls-8" d="M74,61.47c0,.43.87.43.87,0v-.78h-.87v.78Z"/>
      <path class="cls-8" d="M78.56,61.47c0,.43.87.43.87,0v-.78h-.87v.78Z"/>
      <rect class="cls-11" x="78.95" y="3.61" width=".78" height="1.07"/>
      <path class="cls-10" d="M75.41.13h4.39c2.45,0,4.45,1.5,4.45,3.34h0c0,.06,0,.11,0,.16-2.2-.05-4.42-.07-6.64-.07s-4.43.03-6.64.07c0-.05,0-.11,0-.16h0c0-1.84,2-3.34,4.45-3.34Z"/>
      <path class="cls-5" d="M75.41.13h4.39c2.45,0,4.45,1.5,4.45,3.34h0c0,.06,0,.11,0,.16-2.2-.05-4.42-.07-6.64-.07s-4.43.03-6.64.07c0-.05,0-.11,0-.16h0c0-1.84,2-3.34,4.45-3.34Z"/>
      <g class="cls-7">
        <g>
          <path class="cls-10" d="M39.81,100.98c-.14,3.29-.56,8.78-.64,16.44,19.55,1.93,45.11,1.94,76.66.02-.24-6.05-.56-11.36-1-16.46-25.35,1.14-40.73,1.04-75.02,0Z"/>
          <path class="cls-2" d="M114.83,100.98c-25.35,1.14-40.73,1.04-75.02,0"/>
          <path class="cls-2" d="M39.17,117.43c19.55,1.93,45.11,1.94,76.66.02"/>
          <path class="cls-10" d="M97.44,107.13c3.48,0,3.23,6.2-.27,6.2-16.84.73-32.99.59-52.05-.39.05-4.09.07-6.14.07-6.14,19.67.85,37.09.97,52.26.34Z"/>
          <path class="cls-2" d="M97.44,107.13c3.48,0,3.23,6.2-.27,6.2-16.84.73-32.99.59-52.05-.39.05-4.09.07-6.14.07-6.14,19.67.85,37.09.97,52.26.34Z"/>
          <path class="cls-9" d="M48.42,108.76c.94,0,1.7.62,1.7,1.38s-.76,1.38-1.7,1.38-1.7-.62-1.7-1.38.76-1.38,1.7-1.38Z"/>
          <path class="cls-2" d="M48.42,108.76c.94,0,1.7.62,1.7,1.38s-.76,1.38-1.7,1.38-1.7-.62-1.7-1.38.76-1.38,1.7-1.38Z"/>
          <path class="cls-9" d="M56.14,109.01c.94,0,1.7.62,1.7,1.38s-.76,1.38-1.7,1.38-1.7-.62-1.7-1.38.76-1.38,1.7-1.38Z"/>
          <path class="cls-2" d="M56.14,109.01c.94,0,1.7.62,1.7,1.38s-.76,1.38-1.7,1.38-1.7-.62-1.7-1.38.76-1.38,1.7-1.38Z"/>
          <path class="cls-9" d="M64.15,109.26c.94,0,1.7.62,1.7,1.38s-.76,1.38-1.7,1.38-1.7-.62-1.7-1.38.76-1.38,1.7-1.38Z"/>
          <path class="cls-2" d="M64.15,109.26c.94,0,1.7.62,1.7,1.38s-.76,1.38-1.7,1.38-1.7-.62-1.7-1.38.76-1.38,1.7-1.38Z"/>
          <ellipse cx="72.31" cy="110.82" rx="1.7" ry="1.38"/>
          <ellipse class="cls-2" cx="72.31" cy="110.82" rx="1.7" ry="1.38"/>
          <path class="cls-9" d="M81.03,109.46c.94,0,1.7.62,1.7,1.38s-.76,1.38-1.7,1.38-1.7-.62-1.7-1.38.76-1.38,1.7-1.38Z"/>
          <path class="cls-2" d="M81.03,109.46c.94,0,1.7.62,1.7,1.38s-.76,1.38-1.7,1.38-1.7-.62-1.7-1.38.76-1.38,1.7-1.38Z"/>
          <path class="cls-9" d="M89.54,109.41c.94,0,1.7.62,1.7,1.38s-.76,1.38-1.7,1.38-1.7-.62-1.7-1.38.76-1.38,1.7-1.38Z"/>
          <path class="cls-2" d="M89.54,109.41c.94,0,1.7.62,1.7,1.38s-.76,1.38-1.7,1.38-1.7-.62-1.7-1.38.76-1.38,1.7-1.38Z"/>
          <path class="cls-9" d="M96.4,109.1c.94,0,1.7.62,1.7,1.38s-.76,1.38-1.7,1.38-1.7-.62-1.7-1.38.76-1.38,1.7-1.38Z"/>
          <path class="cls-2" d="M96.4,109.1c.94,0,1.7.62,1.7,1.38s-.76,1.38-1.7,1.38-1.7-.62-1.7-1.38.76-1.38,1.7-1.38Z"/>
          <path class="cls-9" d="M108.88,108.56c.94,0,1.7.62,1.7,1.38s-.76,1.38-1.7,1.38-1.7-.62-1.7-1.38.76-1.38,1.7-1.38Z"/>
          <path class="cls-2" d="M108.88,108.56c.94,0,1.7.62,1.7,1.38s-.76,1.38-1.7,1.38-1.7-.62-1.7-1.38.76-1.38,1.7-1.38Z"/>
          <path class="cls-2" d="M91.11,101.67c3.91-.22,7.65,1.35,9.69,4.06,2.04,2.71,2.04,6.12,0,8.83-2.04,2.71-5.63,4.09-9.69,4.02"/>
          <path class="cls-2" d="M93.93,101.67c3.91-.22,6.39,1.35,8.42,4.06,2.04,2.71,2.04,6.12,0,8.83-2.04,2.71-4.24,3.77-8.39,3.93"/>
        </g>
      </g>
    </g>
  </g>
</svg>