<?xml version="1.0" encoding="UTF-8"?>
<svg id="Camada_2" data-name="Camada 2" xmlns="http://www.w3.org/2000/svg" viewBox="0 0 152.1 119.31">
  <defs>
    <style>
      .cls-1 {
        stroke-width: .57px;
      }

      .cls-1, .cls-2, .cls-3, .cls-4, .cls-5, .cls-6 {
        fill: none;
        stroke-miterlimit: 22.93;
      }

      .cls-1, .cls-3 {
        stroke: #000;
      }

      .cls-2 {
        stroke: #4d4d4d;
        stroke-dasharray: 2.18 1.31;
        stroke-width: .44px;
      }

      .cls-7 {
        opacity: .97;
      }

      .cls-3 {
        stroke-width: .57px;
      }

      .cls-4 {
        stroke-width: .25px;
      }

      .cls-4, .cls-6 {
        stroke: #666;
      }

      .cls-8, .cls-9, .cls-10 {
        fill-rule: evenodd;
      }

      .cls-8, .cls-11 {
        fill: #d1d1d1;
      }

      .cls-5 {
        stroke: #d1d1d1;
        stroke-width: 1.5px;
      }

      .cls-6 {
        stroke-width: .25px;
      }

      .cls-10 {
        fill: #eaeaea;
      }
    </style>
  </defs>
  <g id="_1.2" data-name="1.2">
    <g>
      <path class="cls-9" d="M3.46,89.99c-.3-.31-.58-.61-.82-.91.26.31.53.61.82.91ZM8.99,81.54c.01-.98.02-2.15.02-3.44-.04-24.29,2.5-74.38,67-74.03,69.47.38,66.52,59.11,67.01,76.05.01.44.02.86.03,1.25,2.86,1.14,5.72,2.34,8.6,3.61v2.87s.11,8.77.11,8.77c.09,13.78-16.23,15.94-26.27,18.17-7.6,1.69-11.28,1.78-11.31,2.04-.21-10.85-.32-16.84-.32-16.84,13.3-.93,23.13-3.03,29.49-6.28-3.64-1.6-7.28-3.07-10.93-4.41-55.23-26.63-83.87-11.6-118.11.27-2.55.93-5.09,1.91-7.64,2.96,6.2,3.94,16.73,6.42,31.58,7.47,0,0-.11,5.98-.32,16.84-.02-.26-3.7-.35-11.31-2.04-10.04-2.24-26.36-4.39-26.27-18.17,0,0,.05-3.79.16-11.36.25.77.58,1.52,1,2.23-.46-.83-.65-1.57-.57-2.23,2.67-1.32,5.35-2.56,8.04-3.74Z"/>
      <path class="cls-6" d="M3.46,89.99c-.3-.31-.58-.61-.82-.91.26.31.53.61.82.91ZM8.99,81.54c.01-.98.02-2.15.02-3.44-.04-24.29,2.5-74.38,67-74.03,69.47.38,66.52,59.11,67.01,76.05.01.44.02.86.03,1.25,2.86,1.14,5.72,2.34,8.6,3.61v2.87s.11,8.77.11,8.77c.09,13.78-16.23,15.94-26.27,18.17-7.6,1.69-11.28,1.78-11.31,2.04-.21-10.85-.32-16.84-.32-16.84,13.3-.93,23.13-3.03,29.49-6.28-3.64-1.6-7.28-3.07-10.93-4.41-55.23-26.63-83.87-11.6-118.11.27-2.55.93-5.09,1.91-7.64,2.96,6.2,3.94,16.73,6.42,31.58,7.47,0,0-.11,5.98-.32,16.84-.02-.26-3.7-.35-11.31-2.04-10.04-2.24-26.36-4.39-26.27-18.17,0,0,.05-3.79.16-11.36.25.77.58,1.52,1,2.23-.46-.83-.65-1.57-.57-2.23,2.67-1.32,5.35-2.56,8.04-3.74Z"/>
      <path class="cls-9" d="M3.46,89.99c-.3-.31-.58-.61-.82-.91.26.31.53.61.82.91ZM8.99,81.54c.01-.98.02-2.15.02-3.44-.04-24.29,2.5-74.38,67-74.03,69.47.38,66.52,59.11,67.01,76.05.01.44.02.86.03,1.25,2.86,1.14,5.72,2.34,8.6,3.61v2.87s.11,8.77.11,8.77c.09,13.78-16.23,15.94-26.27,18.17-7.6,1.69-11.28,1.78-11.31,2.04-.21-10.85-.32-16.84-.32-16.84,13.3-.93,23.13-3.03,29.49-6.28-3.64-1.6-7.28-3.07-10.93-4.41-55.23-26.63-83.87-11.6-118.11.27-2.55.93-5.09,1.91-7.64,2.96,6.2,3.94,16.73,6.42,31.58,7.47,0,0-.11,5.98-.32,16.84-.02-.26-3.7-.35-11.31-2.04-10.04-2.24-26.36-4.39-26.27-18.17,0,0,.05-3.79.16-11.36.25.77.58,1.52,1,2.23-.46-.83-.65-1.57-.57-2.23,2.67-1.32,5.35-2.56,8.04-3.74Z"/>
      <path class="cls-6" d="M3.46,89.99c-.3-.31-.58-.61-.82-.91.26.31.53.61.82.91ZM8.99,81.54c.01-.98.02-2.15.02-3.44-.04-24.29,2.5-74.38,67-74.03,69.47.38,66.52,59.11,67.01,76.05.01.44.02.86.03,1.25,2.86,1.14,5.72,2.34,8.6,3.61v2.87s.11,8.77.11,8.77c.09,13.78-16.23,15.94-26.27,18.17-7.6,1.69-11.28,1.78-11.31,2.04-.21-10.85-.32-16.84-.32-16.84,13.3-.93,23.13-3.03,29.49-6.28-3.64-1.6-7.28-3.07-10.93-4.41-55.23-26.63-83.87-11.6-118.11.27-2.55.93-5.09,1.91-7.64,2.96,6.2,3.94,16.73,6.42,31.58,7.47,0,0-.11,5.98-.32,16.84-.02-.26-3.7-.35-11.31-2.04-10.04-2.24-26.36-4.39-26.27-18.17,0,0,.05-3.79.16-11.36.25.77.58,1.52,1,2.23-.46-.83-.65-1.57-.57-2.23,2.67-1.32,5.35-2.56,8.04-3.74Z"/>
      <path class="cls-2" d="M8.42,81.06c22.64-8.26,45.11-17.55,67.42-17.55,22.57,0,44.97,9.39,67.2,17.86"/>
      <path class="cls-2" d="M8.42,84.63c22.64-8.26,45.11-17.55,67.42-17.55,22.57,0,44.97,9.39,67.2,17.86"/>
      <path class="cls-2" d="M8.42,88.2c22.64-8.26,45.11-17.55,67.42-17.55,22.57,0,44.97,9.39,67.2,17.86"/>
      <path class="cls-2" d="M8.42,92.16c22.64-8.26,45.11-17.55,67.42-17.55,22.57,0,44.97,9.39,67.2,17.86"/>
      <path class="cls-10" d="M20.76,87.01c1.21-.44,3.42-1.21,8.02-2.76,4.6-1.55,11.6-3.89,17.17-5.49,5.57-1.6,9.72-2.46,13.84-3.05,4.12-.59,8.22-.91,11.58-1.06,3.36-.16,6-.15,8.74-.04,2.74.1,5.58.31,9.18.81,3.6.5,7.95,1.3,12.01,2.27,4.06.98,7.83,2.13,11.42,3.3,3.59,1.17,6.99,2.34,10.15,3.48,3.16,1.13,6.08,2.22,7.61,2.83,1.53.62,1.67.76,1.77.98.09.22.14.52.02,1.13-.12.6-.39,1.51-.7,2.6s-.66,2.37-1.52,3.38c-.86,1.01-2.24,1.76-3.71,2.1-1.47.34-3.05.26-4.9-.18s-3.97-1.22-6.02-2.13c-2.05-.91-4.02-1.94-6.29-3.15-2.27-1.21-4.83-2.6-7.16-3.78-2.33-1.18-4.41-2.15-6.47-2.95-2.06-.8-4.08-1.42-5.58-1.84-1.51-.42-2.49-.63-4.15-.89s-3.97-.57-6.45-.77c-2.48-.19-5.13-.27-7.58-.25-2.45.02-4.72.15-7.25.68-2.54.54-5.34,1.48-7.65,2.38-2.31.9-4.11,1.75-5.97,2.68-1.86.94-3.79,1.96-5.75,3.01-1.96,1.06-3.96,2.14-5.78,3.11-1.83.97-3.49,1.81-5.15,2.47-1.66.65-3.33,1.11-4.68,1.33s-2.39.2-3.51-.18c-1.12-.37-2.33-1.1-3.31-2.23-.98-1.13-1.74-2.66-2.29-3.91-.56-1.25-.91-2.23-1.09-2.72q-.18-.49-.07-.55c.11-.06.33-.17,1.55-.62Z"/>
      <path class="cls-1" d="M20.76,87.01c1.21-.44,3.42-1.21,8.02-2.76,4.6-1.55,11.6-3.89,17.17-5.49,5.57-1.6,9.72-2.46,13.84-3.05,4.12-.59,8.22-.91,11.58-1.06,3.36-.16,6-.15,8.74-.04,2.74.1,5.58.31,9.18.81,3.6.5,7.95,1.3,12.01,2.27,4.06.98,7.83,2.13,11.42,3.3,3.59,1.17,6.99,2.34,10.15,3.48,3.16,1.13,6.08,2.22,7.61,2.83,1.53.62,1.67.76,1.77.98.09.22.14.52.02,1.13-.12.6-.39,1.51-.7,2.6s-.66,2.37-1.52,3.38c-.86,1.01-2.24,1.76-3.71,2.1-1.47.34-3.05.26-4.9-.18s-3.97-1.22-6.02-2.13c-2.05-.91-4.02-1.94-6.29-3.15-2.27-1.21-4.83-2.6-7.16-3.78-2.33-1.18-4.41-2.15-6.47-2.95-2.06-.8-4.08-1.42-5.58-1.84-1.51-.42-2.49-.63-4.15-.89s-3.97-.57-6.45-.77c-2.48-.19-5.13-.27-7.58-.25-2.45.02-4.72.15-7.25.68-2.54.54-5.34,1.48-7.65,2.38-2.31.9-4.11,1.75-5.97,2.68-1.86.94-3.79,1.96-5.75,3.01-1.96,1.06-3.96,2.14-5.78,3.11-1.83.97-3.49,1.81-5.15,2.47-1.66.65-3.33,1.11-4.68,1.33s-2.39.2-3.51-.18c-1.12-.37-2.33-1.1-3.31-2.23-.98-1.13-1.74-2.66-2.29-3.91-.56-1.25-.91-2.23-1.09-2.72q-.18-.49-.07-.55c.11-.06.33-.17,1.55-.62Z"/>
      <path class="cls-10" d="M37.96,116.72q-.07.42-1.64.11c-1.57-.3-4.71-.9-8.28-1.71-3.58-.81-7.59-1.82-10.98-2.72-3.39-.9-6.16-1.68-8.4-2.81-2.24-1.13-3.94-2.61-5.26-4.36-1.32-1.75-2.24-3.78-2.7-6-.46-2.21-.46-4.61-.37-8.28.09-3.67.28-8.6.69-15.27.42-6.67,1.06-15.06,1.61-20.65.55-5.58,1.02-8.35,2.33-11.86,1.31-3.51,3.48-7.75,5.84-11.49,2.35-3.74,4.89-6.97,7.38-9.74,2.49-2.77,4.94-5.07,8.35-7.2,3.41-2.12,7.8-4.06,13.08-5.81,5.28-1.75,11.47-3.32,16.96-4.24,5.49-.92,10.29-1.2,16.43-1.25,6.14-.05,13.61.14,19.52.81,5.91.67,10.24,1.82,14.58,3.09,4.34,1.27,8.67,2.65,12.64,4.57,3.97,1.91,7.57,4.36,10.82,7.13,3.25,2.77,6.16,5.86,8.54,8.84,2.38,2.98,4.22,5.84,5.84,9.2,1.62,3.37,3,7.24,3.95,12.46.95,5.21,1.45,11.76,1.91,19.1.46,7.34.88,15.46.99,20.76.12,5.31-.07,7.8-.42,9.87-.35,2.08-.85,3.74-1.66,5.21-.81,1.48-1.92,2.77-3.41,3.81-1.5,1.04-3.39,1.82-6.6,2.84-3.21,1.02-7.73,2.26-12.16,3.3s-8.77,1.87-10.93,2.28q-2.17.42-2.26-2.03c-.09-2.45-.28-7.34-.51-12.06-.23-4.73-.51-9.3-1.15-13.15-.65-3.85-1.66-6.99-3.18-9.94-1.52-2.95-3.55-5.72-5.77-8.07-2.21-2.35-4.61-4.29-7.41-5.84-2.79-1.55-5.97-2.7-9.69-3.41-3.71-.71-7.96-.99-12.06-.9-4.11.09-8.07.55-11.53,1.52-3.46.97-6.41,2.45-9.02,4.11-2.61,1.66-4.87,3.51-6.97,5.97-2.1,2.47-4.04,5.56-5.35,8.49-1.32,2.93-2.01,5.7-2.4,8.05-.39,2.35-.48,4.29-.6,7.68-.12,3.39-.25,8.24-.32,11.4-.07,3.16-.07,4.64-.14,5.79-.07,1.15-.21,1.98-.28,2.4Z"/>
      <path class="cls-1" d="M37.96,116.72q-.07.42-1.64.11c-1.57-.3-4.71-.9-8.28-1.71-3.58-.81-7.59-1.82-10.98-2.72-3.39-.9-6.16-1.68-8.4-2.81-2.24-1.13-3.94-2.61-5.26-4.36-1.32-1.75-2.24-3.78-2.7-6-.46-2.21-.46-4.61-.37-8.28.09-3.67.28-8.6.69-15.27.42-6.67,1.06-15.06,1.61-20.65.55-5.58,1.02-8.35,2.33-11.86,1.31-3.51,3.48-7.75,5.84-11.49,2.35-3.74,4.89-6.97,7.38-9.74,2.49-2.77,4.94-5.07,8.35-7.2,3.41-2.12,7.8-4.06,13.08-5.81,5.28-1.75,11.47-3.32,16.96-4.24,5.49-.92,10.29-1.2,16.43-1.25,6.14-.05,13.61.14,19.52.81,5.91.67,10.24,1.82,14.58,3.09,4.34,1.27,8.67,2.65,12.64,4.57,3.97,1.91,7.57,4.36,10.82,7.13,3.25,2.77,6.16,5.86,8.54,8.84,2.38,2.98,4.22,5.84,5.84,9.2,1.62,3.37,3,7.24,3.95,12.46.95,5.21,1.45,11.76,1.91,19.1.46,7.34.88,15.46.99,20.76.12,5.31-.07,7.8-.42,9.87-.35,2.08-.85,3.74-1.66,5.21-.81,1.48-1.92,2.77-3.41,3.81-1.5,1.04-3.39,1.82-6.6,2.84-3.21,1.02-7.73,2.26-12.16,3.3s-8.77,1.87-10.93,2.28q-2.17.42-2.26-2.03c-.09-2.45-.28-7.34-.51-12.06-.23-4.73-.51-9.3-1.15-13.15-.65-3.85-1.66-6.99-3.18-9.94-1.52-2.95-3.55-5.72-5.77-8.07-2.21-2.35-4.61-4.29-7.41-5.84-2.79-1.55-5.97-2.7-9.69-3.41-3.71-.71-7.96-.99-12.06-.9-4.11.09-8.07.55-11.53,1.52-3.46.97-6.41,2.45-9.02,4.11-2.61,1.66-4.87,3.51-6.97,5.97-2.1,2.47-4.04,5.56-5.35,8.49-1.32,2.93-2.01,5.7-2.4,8.05-.39,2.35-.48,4.29-.6,7.68-.12,3.39-.25,8.24-.32,11.4-.07,3.16-.07,4.64-.14,5.79-.07,1.15-.21,1.98-.28,2.4Z"/>
      <path class="cls-10" d="M74.93.13h4.36c2.43,0,4.42,1.49,4.42,3.32h0c0,.05,0,.11,0,.16-2.19-.05-4.39-.07-6.59-.07s-4.4.02-6.59.07c0-.05,0-.11,0-.16h0c0-1.83,1.99-3.32,4.42-3.32Z"/>
      <path class="cls-4" d="M74.93.13h4.36c2.43,0,4.42,1.49,4.42,3.32h0c0,.05,0,.11,0,.16-2.19-.05-4.39-.07-6.59-.07s-4.4.02-6.59.07c0-.05,0-.11,0-.16h0c0-1.83,1.99-3.32,4.42-3.32Z"/>
      <path class="cls-8" d="M73.53,57.33c0,1.99-.15,1.83.58,1.83.48,0,.29-.82.29-2.12-.62,0-.87-.09-.87.29"/>
      <path class="cls-8" d="M78.25,25.25c0,2.1-.21,1.83.87,1.83,0-2.3.17-2.12-.58-2.12-.22,0-.29.07-.29.29"/>
      <path class="cls-8" d="M73.72,25.25v1.83c1.08,0,.87.27.87-1.83,0-.42-.87-.42-.87,0"/>
      <path class="cls-8" d="M78.15,46.25c.4,0,.87.31.87-.19v-1.83h-.87v2.02Z"/>
      <path class="cls-8" d="M73.63,38.26c0,1.88-.2,1.64.87,1.64v-2.02l-.77-.1c-.05.22-.1.22-.1.48"/>
      <path class="cls-8" d="M78.35,13.98c0,.36.22.29.77.29.01-.58.39-2.12-.19-2.12h-.58v1.83Z"/>
      <rect class="cls-11" x="78.25" y="28.24" width=".87" height="2.02"/>
      <rect class="cls-11" x="73.63" y="41.05" width=".87" height="2.02"/>
      <rect class="cls-11" x="73.82" y="5.8" width=".87" height="2.02"/>
      <rect class="cls-11" x="78.35" y="8.98" width=".87" height="2.02"/>
      <path class="cls-8" d="M78.15,41.34v1.73h.87v-2.02h-.58c-.22,0-.29.07-.29.29"/>
      <path class="cls-8" d="M73.72,22.07v1.73h.87v-2.02h-.58c-.22,0-.29.07-.29.29"/>
      <path class="cls-8" d="M78.15,49.53h.77c0-.73.1-1.07.1-1.83,0-.22-.07-.29-.29-.29h-.58v2.12Z"/>
      <path class="cls-8" d="M73.82,11h.77c.05-.22.1-.22.1-.48v-1.54h-.87v2.02Z"/>
      <path class="cls-8" d="M78.35,6.47v1.35h.87v-2.02h-.77c-.03.3-.1.34-.1.67"/>
      <path class="cls-8" d="M78.15,57.42c0,1.72-.56,1.73.77,1.73v-2.12h-.77v.39Z"/>
      <path class="cls-8" d="M73.63,46.25l.77.11c0-2.12.56-2.14-.77-2.14v2.02Z"/>
      <rect class="cls-11" x="78.25" y="34.6" width=".77" height="2.12"/>
      <rect class="cls-11" x="73.63" y="47.41" width=".77" height="2.12"/>
      <rect class="cls-11" x="73.72" y="34.6" width=".77" height="2.12"/>
      <rect class="cls-11" x="73.82" y="12.15" width=".77" height="2.12"/>
      <path class="cls-8" d="M78.35,15.62v1.83h.77c0-2.17.17-2.12-.48-2.12-.22,0-.29.07-.29.29"/>
      <path class="cls-8" d="M73.82,17.45h.77v-1.83c0-.22-.07-.29-.29-.29h-.48v2.12Z"/>
      <path class="cls-8" d="M73.63,54.63c0,.59-.1.7-.1,1.25h.87v-2.02h-.77v.77Z"/>
      <path class="cls-8" d="M78.35,23.13c0,.33-.07.37-.1.67h.87v-2.02h-.77v1.35Z"/>
      <path class="cls-8" d="M78.25,39.89h.77v-2.02h-.29c-.26,0-.27-.05-.48-.1v2.12Z"/>
      <rect class="cls-11" x="78.25" y="31.42" width=".77" height="2.02"/>
      <rect class="cls-11" x="73.63" y="50.68" width=".77" height="2.02"/>
      <rect class="cls-11" x="78.15" y="50.68" width=".77" height="2.02"/>
      <rect class="cls-11" x="73.72" y="28.24" width=".77" height="2.02"/>
      <rect class="cls-11" x="78.35" y="18.61" width=".77" height="2.02"/>
      <rect class="cls-11" x="73.72" y="31.42" width=".77" height="2.02"/>
      <rect class="cls-11" x="73.82" y="18.61" width=".77" height="2.02"/>
      <rect class="cls-11" x="78.15" y="53.86" width=".77" height="2.02"/>
      <path class="cls-8" d="M73.82,4.35c0,.22.07.29.29.29h.58v-1.06h-.87v.77Z"/>
      <path class="cls-8" d="M73.53,61.08c0,.42.87.42.87,0v-.77h-.87v.77Z"/>
      <path class="cls-8" d="M78.06,61.08c0,.42.87.42.87,0v-.77h-.87v.77Z"/>
      <rect class="cls-11" x="78.44" y="3.58" width=".77" height="1.06"/>
      <path class="cls-5" d="M105.86,20.95c.79,0,1.44.54,1.44,1.2s-.64,1.2-1.44,1.2-1.44-.54-1.44-1.2.64-1.2,1.44-1.2Z"/>
      <path class="cls-5" d="M43.44,21.74c.8,0,1.44.54,1.44,1.2s-.64,1.2-1.44,1.2-1.44-.54-1.44-1.2.64-1.2,1.44-1.2Z"/>
      <g class="cls-7">
        <g>
          <path class="cls-10" d="M38.63,100.6c-.14,3.32-.56,8.85-.64,16.57,19.71,1.95,45.46,1.95,77.26.02-.25-6.09-.56-11.45-1.01-16.59-25.55,1.15-41.05,1.05-75.6,0Z"/>
          <path class="cls-3" d="M114.23,100.6c-25.55,1.15-41.05,1.05-75.6,0"/>
          <path class="cls-3" d="M37.99,117.18c19.71,1.95,45.46,1.95,77.26.02"/>
          <path class="cls-10" d="M96.71,106.8c3.51,0,3.25,6.25-.28,6.25-16.97.73-33.25.6-52.46-.4.05-4.13.07-6.19.07-6.19,19.82.86,37.37.97,52.66.34Z"/>
          <path class="cls-3" d="M96.71,106.8c3.51,0,3.25,6.25-.28,6.25-16.97.73-33.25.6-52.46-.4.05-4.13.07-6.19.07-6.19,19.82.86,37.37.97,52.66.34Z"/>
          <path class="cls-9" d="M47.31,108.44c.95,0,1.72.62,1.72,1.39s-.77,1.39-1.72,1.39-1.72-.62-1.72-1.39.77-1.39,1.72-1.39Z"/>
          <path class="cls-3" d="M47.31,108.44c.95,0,1.72.62,1.72,1.39s-.77,1.39-1.72,1.39-1.72-.62-1.72-1.39.77-1.39,1.72-1.39Z"/>
          <path class="cls-9" d="M55.09,108.7c.95,0,1.72.62,1.72,1.39s-.77,1.39-1.72,1.39-1.72-.62-1.72-1.39.77-1.39,1.72-1.39Z"/>
          <path class="cls-3" d="M55.09,108.7c.95,0,1.72.62,1.72,1.39s-.77,1.39-1.72,1.39-1.72-.62-1.72-1.39.77-1.39,1.72-1.39Z"/>
          <path class="cls-9" d="M63.16,108.95c.95,0,1.72.62,1.72,1.39s-.77,1.39-1.72,1.39-1.72-.62-1.72-1.39.77-1.39,1.72-1.39Z"/>
          <path class="cls-3" d="M63.16,108.95c.95,0,1.72.62,1.72,1.39s-.77,1.39-1.72,1.39-1.72-.62-1.72-1.39.77-1.39,1.72-1.39Z"/>
          <ellipse cx="71.39" cy="110.52" rx="1.72" ry="1.39"/>
          <ellipse class="cls-3" cx="71.39" cy="110.52" rx="1.72" ry="1.39"/>
          <path class="cls-9" d="M80.17,109.15c.95,0,1.72.62,1.72,1.39s-.77,1.39-1.72,1.39-1.72-.62-1.72-1.39.77-1.39,1.72-1.39Z"/>
          <path class="cls-3" d="M80.17,109.15c.95,0,1.72.62,1.72,1.39s-.77,1.39-1.72,1.39-1.72-.62-1.72-1.39.77-1.39,1.72-1.39Z"/>
          <path class="cls-9" d="M88.75,109.09c.95,0,1.72.62,1.72,1.39s-.77,1.39-1.72,1.39-1.72-.62-1.72-1.39.77-1.39,1.72-1.39Z"/>
          <path class="cls-3" d="M88.75,109.09c.95,0,1.72.62,1.72,1.39s-.77,1.39-1.72,1.39-1.72-.62-1.72-1.39.77-1.39,1.72-1.39Z"/>
          <path class="cls-9" d="M95.66,108.78c.95,0,1.72.62,1.72,1.39s-.77,1.39-1.72,1.39-1.72-.62-1.72-1.39.77-1.39,1.72-1.39Z"/>
          <path class="cls-3" d="M95.66,108.78c.95,0,1.72.62,1.72,1.39s-.77,1.39-1.72,1.39-1.72-.62-1.72-1.39.77-1.39,1.72-1.39Z"/>
          <path class="cls-9" d="M108.24,108.24c.95,0,1.72.62,1.72,1.39s-.77,1.39-1.72,1.39-1.72-.62-1.72-1.39.77-1.39,1.72-1.39Z"/>
          <path class="cls-3" d="M108.24,108.24c.95,0,1.72.62,1.72,1.39s-.77,1.39-1.72,1.39-1.72-.62-1.72-1.39.77-1.39,1.72-1.39Z"/>
          <path class="cls-3" d="M90.33,101.3c3.94-.22,7.71,1.36,9.76,4.09,2.05,2.73,2.05,6.17,0,8.9-2.05,2.73-5.67,4.12-9.77,4.05"/>
          <path class="cls-3" d="M93.17,101.3c3.94-.22,6.44,1.36,8.49,4.09,2.05,2.73,2.05,6.17,0,8.9-2.05,2.73-4.28,3.8-8.46,3.96"/>
        </g>
      </g>
    </g>
  </g>
</svg>