<?xml version="1.0" encoding="UTF-8"?>
<svg id="Camada_2" data-name="Camada 2" xmlns="http://www.w3.org/2000/svg" viewBox="0 0 177.14 152.6">
  <defs>
    <style>
      .cls-1 {
        stroke: #000;
        stroke-width: .57px;
      }

      .cls-1, .cls-2, .cls-3, .cls-4, .cls-5, .cls-6 {
        fill: none;
      }

      .cls-1, .cls-2, .cls-3, .cls-4, .cls-6 {
        stroke-miterlimit: 22.93;
      }

      .cls-2 {
        stroke-width: .14px;
      }

      .cls-2, .cls-4 {
        stroke: #1a1a1a;
      }

      .cls-3 {
        stroke: #404041;
        stroke-width: .26px;
      }

      .cls-7, .cls-8, .cls-9 {
        fill-rule: evenodd;
      }

      .cls-7, .cls-10 {
        fill: #d1d1d1;
      }

      .cls-4 {
        stroke-width: .31px;
      }

      .cls-8 {
        fill: #404041;
      }

      .cls-5 {
        stroke: #a6a8ab;
        stroke-linecap: round;
        stroke-linejoin: round;
        stroke-width: .14px;
      }

      .cls-6 {
        stroke: #231f20;
        stroke-width: .26px;
      }

      .cls-9 {
        fill: #eaeaea;
      }
    </style>
  </defs>
  <g id="_1.1_Trucker" data-name="1.1 Trucker">
    <g>
      <path class="cls-1" d="M88.57,3.2c47.69,0,74.53,11.85,81.85,57.27,2.12,17.92,4.24,35.84,6.36,53.76-4.69-3.17-9.71-6.13-14.97-8.86.47-10.36,1.29-29.32-.34-48.19C156.58,14.61,123.83,3.2,88.57,3.2ZM6.72,60.47C14.04,15.05,40.88,3.2,88.57,3.2,53.31,3.2,20.56,14.61,15.66,57.18c-1.62,18.85-.81,37.8-.34,48.17-5.25,2.73-10.27,5.71-14.97,8.88,2.12-17.92,4.24-35.84,6.36-53.76Z"/>
      <path class="cls-8" d="M170.04,110.02c.37.21.73.43,1.1.64-.36-.22-.73-.43-1.1-.64ZM169.93,109.96h0s.04.02.04.02l-.04-.02ZM7.1,110.02c-.37.21-.73.43-1.1.64.36-.22.73-.43,1.1-.64ZM7.21,109.96h0s-.04.02-.04.02l.04-.02ZM.36,114.23c.03,1.58,2.61,1.56,5.16,1.32l.49-4.89c-1.93,1.14-3.81,2.33-5.64,3.57ZM176.78,114.23c-.03,1.58-2.61,1.56-5.16,1.32l-.49-4.89c1.93,1.14,3.81,2.33,5.64,3.57Z"/>
      <path class="cls-3" d="M170.04,110.02c.37.21.73.43,1.1.64-.36-.22-.73-.43-1.1-.64ZM169.93,109.96h0s.04.02.04.02l-.04-.02ZM7.1,110.02c-.37.21-.73.43-1.1.64.36-.22.73-.43,1.1-.64ZM7.21,109.96h0s-.04.02-.04.02l.04-.02ZM.36,114.23c.03,1.58,2.61,1.56,5.16,1.32l.49-4.89c-1.93,1.14-3.81,2.33-5.64,3.57ZM176.78,114.23c-.03,1.58-2.61,1.56-5.16,1.32l-.49-4.89c1.93,1.14,3.81,2.33,5.64,3.57Z"/>
      <path class="cls-8" d="M170.04,110.02c.37.21.73.43,1.1.64-.36-.22-.73-.43-1.1-.64ZM169.93,109.96h0s.04.02.04.02l-.04-.02ZM7.1,110.02c-.37.21-.73.43-1.1.64.36-.22.73-.43,1.1-.64ZM7.21,109.96h0s-.04.02-.04.02l.04-.02ZM.36,114.23c.03,1.58,2.61,1.56,5.16,1.32l.49-4.89c-1.93,1.14-3.81,2.33-5.64,3.57ZM176.78,114.23c-.03,1.58-2.61,1.56-5.16,1.32l-.49-4.89c1.93,1.14,3.81,2.33,5.64,3.57Z"/>
      <path class="cls-3" d="M170.04,110.02c.37.21.73.43,1.1.64-.36-.22-.73-.43-1.1-.64ZM169.93,109.96h0s.04.02.04.02l-.04-.02ZM7.1,110.02c-.37.21-.73.43-1.1.64.36-.22.73-.43,1.1-.64ZM7.21,109.96h0s-.04.02-.04.02l.04-.02ZM.36,114.23c.03,1.58,2.61,1.56,5.16,1.32l.49-4.89c-1.93,1.14-3.81,2.33-5.64,3.57ZM176.78,114.23c-.03,1.58-2.61,1.56-5.16,1.32l-.49-4.89c1.93,1.14,3.81,2.33,5.64,3.57Z"/>
      <path class="cls-9" d="M161.72,57.55C156.82,14.98,124.07,3.57,88.82,3.57S20.81,14.98,15.91,57.55c-1.64,19.04-.79,38.19-.32,48.48,46.08-25.79,104.32-25.66,146.46,0,.47-10.29,1.31-29.44-.32-48.48Z"/>
      <path class="cls-2" d="M161.72,57.55C156.82,14.98,124.07,3.57,88.82,3.57S20.81,14.98,15.91,57.55c-1.64,19.04-.79,38.19-.32,48.48,46.08-25.79,104.32-25.66,146.46,0,.47-10.29,1.31-29.44-.32-48.48Z"/>
      <path class="cls-9" d="M5.99,110.66c24.13-14.3,47.47-24.37,82.48-24.29,29.33-.57,58.55,8.53,82.66,24.29-.49,46.28-13.18,42.38-33.2,31.55-5.03-2.72-10.53-5.88-16.41-8.79-9.43-4.66-19.56-6.69-30.49-7.45-12.46-.86-23.27.98-33.22,5.63-31.39,14.66-50.82,37.87-51.81-20.94Z"/>
      <path class="cls-4" d="M5.99,110.66c24.13-14.3,47.47-24.37,82.48-24.29,29.33-.57,58.55,8.53,82.66,24.29-.49,46.28-13.18,42.38-33.2,31.55-5.03-2.72-10.53-5.88-16.41-8.79-9.43-4.66-19.56-6.69-30.49-7.45-12.46-.86-23.27.98-33.22,5.63-31.39,14.66-50.82,37.87-51.81-20.94Z"/>
      <path class="cls-10" d="M22.22,142.61c-.96,0-1.83-.16-2.59-.47l.29-.7c.97.4,2.15.51,3.54.33l.1.75c-.47.06-.92.09-1.34.09ZM155.21,142.6l-.12-.38.06-.38h0c1.34,0,2.49-.22,3.47-.66l.31.69c-1.08.49-2.34.73-3.73.73ZM152.76,142.38c-1.15-.2-2.4-.53-3.72-.99l.25-.72c1.28.44,2.5.77,3.6.96l-.13.75ZM155.08,142.22v-.38s0,.38,0,.38ZM25.83,142.02l-.22-.73c1.06-.31,2.23-.77,3.48-1.36l.32.69c-1.28.6-2.49,1.07-3.59,1.39ZM17.66,140.75c-.78-.8-1.52-1.88-2.21-3.21l.67-.35c.64,1.24,1.36,2.29,2.08,3.03l-.54.53ZM146.89,140.57c-1.09-.46-2.25-1-3.46-1.62l.34-.68c1.19.61,2.34,1.15,3.41,1.6l-.29.7ZM160.92,140.54l-.52-.55c.77-.74,1.45-1.75,2.03-3.01l.69.32c-.62,1.35-1.36,2.44-2.2,3.24ZM31.47,139.59l-.36-.67c1.01-.54,2.08-1.16,3.27-1.88l.4.65c-1.2.74-2.29,1.36-3.31,1.91ZM141.4,137.87c-1.02-.56-2.1-1.19-3.3-1.9l.39-.65c1.19.71,2.26,1.33,3.28,1.89l-.37.66ZM36.72,136.47l-.41-.64,1-.64c.55-.35,1.06-.68,1.52-.97l.69-.43.4.64-.69.43c-.46.28-.96.61-1.51.96l-1,.64ZM14.5,135.43c-.45-1.14-.78-2.28-.95-3.21l-.09-.5.75-.13.09.5c.16.89.48,1.98.91,3.08l-.71.28ZM163.95,135.13l-.72-.23c.34-1.09.64-2.31.87-3.64l.75.13c-.24,1.36-.54,2.62-.89,3.74ZM136.15,134.79l-.82-.5c-.88-.54-1.69-1.04-2.4-1.46l.36-.67.05.03c.69.4,1.5.9,2.39,1.45l.82.5-.4.65ZM41.85,133.25l-.4-.65c1.07-.66,2.16-1.31,3.25-1.96l.39.65c-1.09.65-2.17,1.3-3.24,1.96ZM130.96,131.67c-1.11-.64-2.22-1.25-3.31-1.83l.36-.67c1.1.59,2.2,1.2,3.32,1.84l-.38.66ZM47.05,130.14l-.38-.66c1.09-.63,2.2-1.25,3.32-1.86l.36.67c-1.11.6-2.21,1.22-3.3,1.85ZM13.08,129.46c-.2-1.25-.38-2.5-.54-3.76l.75-.1c.16,1.25.34,2.5.54,3.74l-.75.12ZM165.17,129.12l-.75-.09c.09-.79.17-1.61.22-2.45l.08-1.32.76.05-.08,1.32c-.05.85-.13,1.68-.22,2.48ZM125.64,128.79c-1.14-.58-2.28-1.14-3.39-1.66l.32-.69c1.12.52,2.27,1.09,3.42,1.67l-.35.67ZM52.35,127.23l-.35-.67c1.16-.6,2.3-1.17,3.41-1.69l.32.69c-1.1.52-2.23,1.08-3.38,1.68ZM120.19,126.19c-1.17-.51-2.34-1-3.49-1.45l.28-.71c1.15.45,2.34.94,3.52,1.46l-.3.69ZM57.8,124.6l-.31-.69c1.19-.53,2.37-1.02,3.52-1.45l.27.71c-1.14.44-2.31.92-3.49,1.44ZM114.58,123.95c-1.18-.42-2.39-.82-3.58-1.19l.22-.73c1.2.37,2.42.77,3.61,1.2l-.26.71ZM12.26,123.43c-.15-1.26-.28-2.52-.41-3.78l.75-.07c.12,1.26.26,2.51.4,3.76l-.75.09ZM165.61,123.04l-.76-.04c.07-1.26.14-2.53.2-3.79l.76.04c-.06,1.25-.13,2.53-.2,3.79ZM63.41,122.39l-.25-.72c1.23-.42,2.45-.8,3.65-1.13l.2.73c-1.18.32-2.39.7-3.6,1.11ZM108.83,122.13c-1.21-.33-2.44-.64-3.66-.91l.17-.74c1.24.28,2.48.59,3.7.92l-.2.73ZM102.95,120.76c-1.22-.24-2.47-.45-3.72-.64l.11-.75c1.26.19,2.52.4,3.75.64l-.14.74ZM69.2,120.73l-.17-.74c.78-.18,1.57-.34,2.37-.48.46-.08.92-.16,1.39-.23l.12.75c-.46.07-.92.15-1.37.23-.78.14-1.56.29-2.33.47ZM96.98,119.82c-1.21-.15-2.48-.28-3.76-.39l.07-.76c1.29.11,2.56.24,3.78.4l-.09.75ZM75.14,119.72l-.09-.75c1.24-.15,2.51-.28,3.79-.38l.06.76c-1.27.1-2.53.23-3.76.38ZM90.97,119.25l-.64-.04c-1.02-.06-2.07-.1-3.13-.12v-.76c1.09.02,2.15.06,3.18.12l.64.04-.05.76ZM81.16,119.2l-.04-.76c1.27-.07,2.55-.1,3.81-.12v.76c-1.24.01-2.51.05-3.77.11ZM11.64,117.38c-.11-1.26-.21-2.52-.31-3.78l.76-.06c.09,1.26.2,2.52.31,3.77l-.76.07ZM165.92,116.97l-.76-.04c.06-1.34.12-2.62.17-3.79l.76.03c-.05,1.17-.11,2.45-.17,3.79ZM11.17,111.33c-.09-1.27-.17-2.53-.25-3.79l.76-.05c.08,1.26.16,2.52.25,3.78l-.76.05ZM166.19,110.91l-.76-.03.15-3.79.76.03-.15,3.79Z"/>
      <path class="cls-10" d="M24.25,138.4l-.15-.74c.48-.1,1.03-.26,1.74-.5.56-.19,1.16-.42,1.79-.67l.29.7c-.64.26-1.25.49-1.83.69-.74.25-1.32.42-1.83.52ZM21.81,138.37c-.28-.09-.55-.21-.8-.36-.76-.45-1.48-1.23-2.14-2.31l.65-.4c.59.96,1.24,1.68,1.89,2.06.2.12.42.22.64.28l-.22.72ZM154.06,138.31v-.76c.91,0,1.63-.08,2.18-.25.44-.13.83-.33,1.18-.61l.47.59c-.43.34-.9.58-1.43.74-.63.19-1.39.28-2.4.28ZM151.72,138.13c-.23-.05-.46-.1-.7-.17-.9-.25-1.91-.68-2.88-1.09l.09-.38.16-.35-.16.35.16-.34c1,.42,1.98.84,2.84,1.08.22.06.44.11.65.15l-.15.74ZM30.01,136.28l-.32-.69c.98-.45,1.97-.95,2.95-1.48l.41-.22.37.66-.42.23c-.99.54-2,1.04-2.99,1.5ZM145.98,135.94c-.29-.13-.6-.27-.93-.43-.85-.41-1.71-.85-2.49-1.27l.36-.67c.77.42,1.61.85,2.46,1.25.32.16.63.3.91.43l-.31.69ZM159.39,135.39l-.67-.35c.29-.56.55-1.23.77-2.04.12-.44.24-.93.36-1.46l.74.16c-.12.55-.24,1.05-.37,1.5-.24.87-.52,1.58-.83,2.19ZM17.82,133.61c-.06-.15-.12-.31-.18-.46-.36-.96-.65-2.02-.91-3.24l.74-.16c.25,1.19.53,2.21.88,3.13.05.15.11.29.17.44l-.7.29ZM35.4,133.41l-.38-.65c1.14-.67,2.25-1.35,3.23-1.97l.4.64c-.99.62-2.1,1.31-3.25,1.98ZM140.58,133.07c-.81-.51-1.56-1.04-2.24-1.51l-.78-.54.24-.55.12-.12.86.6c.67.47,1.41.98,2.22,1.49l-.41.64ZM40.58,130.22l-.4-.64c1.32-.83,2.23-1.4,3.24-1.99l.39.65c-1,.59-1.9,1.16-3.22,1.98ZM135.53,129.72c-.27-.16-.56-.33-.87-.5-.69-.39-1.48-.82-2.44-1.32l.35-.67c.96.51,1.76.94,2.46,1.33.31.18.6.34.88.51l-.39.65ZM161.01,129.44l-.75-.12c.11-.66.2-1.35.3-2.05.07-.55.14-1.12.2-1.69l.75.08c-.06.57-.13,1.14-.2,1.7-.09.72-.19,1.41-.3,2.08ZM16.33,127.65c-.06-.4-.12-.81-.18-1.22-.12-.83-.23-1.68-.35-2.54l.75-.1c.11.86.23,1.71.34,2.53.06.41.12.81.18,1.21l-.75.12ZM45.76,127.11l-.37-.66c1.12-.62,2.22-1.2,3.37-1.77l.34.68c-1.14.56-2.23,1.14-3.34,1.76ZM130.21,126.85c-1.04-.53-2.21-1.13-3.38-1.71l.33-.68c1.17.58,2.35,1.18,3.39,1.71l-.35.67ZM51.14,124.38l-.32-.69c1.2-.56,2.41-1.11,3.46-1.58l.31.69c-1.04.47-2.25,1.01-3.45,1.57ZM124.79,124.16l-.36-.17c-1.04-.48-2.03-.9-3.1-1.33l.28-.71c1.09.43,2.09.86,3.14,1.34l.36.17-.32.69ZM161.75,123.4l-.75-.07c.1-.98.18-1.93.26-2.83l.09-.94.76.07-.09.94c-.08.9-.17,1.86-.26,2.84ZM56.67,121.89l-.3-.7c.97-.42,1.77-.76,2.72-1.15l.79-.31.28.71-.79.31c-.94.38-1.74.72-2.7,1.14ZM119.21,121.86c-1.19-.44-2.38-.87-3.56-1.27l.24-.72c1.19.4,2.39.83,3.58,1.27l-.26.71ZM15.52,121.63c-.11-.95-.22-1.9-.33-2.86l-.1-.91.75-.08.1.91c.1.95.21,1.91.32,2.85l-.75.09ZM113.49,119.91c-1.13-.34-2.24-.66-3.32-.95l-.31-.08.19-.73.31.08c1.09.29,2.21.61,3.35.95l-.22.73ZM62.27,119.63l-.26-.71c.56-.21,1.12-.41,1.66-.59.68-.23,1.33-.44,1.96-.62l.21.73c-.61.18-1.25.38-1.93.61-.53.18-1.09.38-1.65.58ZM107.66,118.32c-.59-.14-1.17-.28-1.74-.41-.65-.14-1.29-.28-1.94-.4l.15-.74c.65.13,1.3.26,1.96.41.58.13,1.16.26,1.76.41l-.18.74ZM68.03,117.84l-.19-.73c1.32-.34,2.47-.6,3.72-.85l.15.74c-1.23.25-2.37.5-3.67.84ZM162.3,117.35l-.76-.06c.08-.98.15-2,.22-3.19l.03-.59.76.04-.03.59c-.07,1.19-.14,2.22-.22,3.2ZM101.74,117.11c-1.23-.21-2.54-.41-3.74-.57l.1-.75c1.2.17,2.52.36,3.76.57l-.13.75ZM73.93,116.59l-.12-.75c.91-.15,1.77-.26,2.62-.35.38-.04.78-.08,1.17-.11l.06.76c-.39.03-.78.07-1.16.11-.84.09-1.68.2-2.58.34ZM95.76,116.25c-.72-.08-1.46-.16-2.31-.24-.45-.04-.94-.08-1.45-.12l.06-.76c.51.04,1,.08,1.46.12.86.08,1.6.16,2.33.24l-.09.75ZM79.92,115.99l-.04-.76c.67-.04,1.36-.07,2.05-.1l1.74-.08.03.76-1.73.08c-.69.03-1.38.07-2.05.1ZM89.74,115.75c-.53-.02-1.07-.04-1.61-.04h-.56c-.53,0-1.06,0-1.6.02l-.02-.76c.54-.01,1.08-.02,1.62-.02h.57c.55,0,1.1.03,1.64.05l-.03.76ZM14.86,115.59c-.13-1.33-.24-2.62-.33-3.79l.76-.06c.09,1.16.2,2.44.33,3.77l-.75.07ZM162.66,111.28l-.76-.03c.06-1.41.12-2.78.16-3.79l.76.03c-.04,1.01-.09,2.38-.16,3.79ZM14.39,109.52c-.07-1.34-.11-2.54-.14-3.74l.76-.08v.06c.04,1.19.07,2.39.15,3.72l-.76.04Z"/>
      <path class="cls-10" d="M24.54,134.7c-1,0-1.84-.31-2.49-.92l.52-.56c.76.7,1.81.88,3.23.56l.17.74c-.51.12-.99.18-1.43.18ZM152.28,134.19v-.76c.34,0,.65-.06.96-.16.43-.14.9-.39,1.35-.72.2-.14.45-.34.68-.63l.59.48c-.29.36-.59.6-.83.77-.51.37-1.05.66-1.56.82-.39.13-.78.19-1.2.2ZM149.94,133.82l-.17-.05c-.81-.24-1.78-.61-2.83-1.07-.19-.08-.39-.17-.59-.26l.32-.69c.19.09.39.18.58.26,1.02.45,1.97.8,2.74,1.04l.16.05-.21.73ZM28.19,133.77l-.3-.7c.97-.42,2.05-.98,3.31-1.74l.39.65c-1.29.77-2.41,1.35-3.4,1.78ZM20.75,131.75c-.51-1.21-.84-2.61-1.08-3.71l.74-.16c.21.98.55,2.41,1.03,3.57l-.7.29ZM144.29,131.43l-.52-.27c-.86-.46-1.73-.95-2.8-1.6l.39-.65c1.07.64,1.92,1.13,2.77,1.58l.51.27-.35.67ZM33.53,130.79l-.41-.64c.61-.39,1.23-.79,1.85-1.2l1.33-.87.41.64-1.33.87c-.62.41-1.24.81-1.85,1.2ZM156.89,130.21l-.73-.2c.21-.77.42-1.83.69-3.43l.04-.25.75.12-.04.25c-.27,1.63-.49,2.71-.71,3.5ZM139.02,128.37c-1.02-.62-2.13-1.31-3.24-1.96l.38-.65c1.12.65,2.24,1.34,3.25,1.96l-.4.65ZM38.63,127.51l-.4-.65c.26-.16.52-.32.78-.47.82-.49,1.66-.97,2.52-1.44l.37.67c-.85.46-1.68.94-2.49,1.42-.26.16-.52.31-.77.47ZM19.23,125.79c-.19-1.08-.34-2.11-.51-3.57l-.02-.21.75-.09.02.2c.17,1.44.32,2.47.5,3.53l-.75.13ZM133.8,125.3c-1.1-.6-2.2-1.17-3.36-1.72l.33-.68c1.17.56,2.27,1.13,3.39,1.74l-.36.67ZM43.89,124.54l-.35-.67c.88-.46,1.77-.91,2.64-1.35l.74-.37.34.68-.74.37c-.87.44-1.75.89-2.63,1.35ZM157.98,124.2l-.75-.11c.17-1.15.34-2.42.5-3.75l.75.09c-.16,1.34-.34,2.62-.51,3.77ZM128.39,122.62c-1.11-.51-2.27-1.01-3.46-1.52l.3-.7c1.19.51,2.36,1.02,3.48,1.53l-.31.69ZM49.3,121.82l-.33-.68c1.15-.56,2.29-1.1,3.44-1.61l.31.69c-1.14.51-2.28,1.05-3.42,1.61ZM122.84,120.21c-1.21-.51-2.4-1-3.5-1.45l.28-.7c1.1.44,2.3.94,3.51,1.45l-.29.7ZM18.45,119.75c-.12-1.13-.24-2.39-.36-3.78l.76-.07c.12,1.39.24,2.64.36,3.77l-.75.08ZM54.8,119.31l-.3-.7c1.19-.51,2.39-.99,3.53-1.43l.27.71c-1.13.44-2.32.92-3.5,1.42ZM158.75,118.17l-.75-.08c.09-.83.17-1.67.25-2.51.04-.42.07-.84.1-1.26l.76.06c-.03.42-.07.84-.1,1.27-.08.84-.16,1.69-.25,2.52ZM117.23,117.92c-1.26-.49-2.35-.89-3.54-1.31l.25-.72c1.2.42,2.3.82,3.57,1.31l-.27.71ZM60.43,117.09l-.26-.71c1.25-.46,2.46-.88,3.6-1.24l.23.72c-1.13.36-2.33.78-3.57,1.23ZM111.53,115.9c-1.05-.34-2.03-.62-2.99-.88l-.63-.16.19-.74.64.17c.97.26,1.96.55,3.03.89l-.23.72ZM66.16,115.2l-.21-.73c1.36-.39,2.59-.7,3.68-.97l.18.74c-1.08.27-2.3.58-3.65.96ZM105.71,114.33c-.89-.2-1.77-.38-2.61-.55l-1.09-.21.14-.75,1.1.21c.85.17,1.73.35,2.63.56l-.17.74ZM17.9,113.7c-.1-1.19-.2-2.47-.3-3.78l.76-.06c.1,1.32.2,2.59.3,3.78l-.76.06ZM72.02,113.69l-.17-.74c.65-.15,1.3-.3,1.92-.42.62-.12,1.22-.22,1.83-.31l.11.75c-.59.09-1.18.19-1.79.31-.62.12-1.25.26-1.9.41ZM99.78,113.16c-.41-.07-.79-.13-1.13-.19-.99-.16-1.75-.26-2.6-.35l.08-.75c.86.09,1.63.19,2.64.35.35.05.73.12,1.14.19l-.13.75ZM77.96,112.68l-.09-.75c1.49-.18,2.73-.29,3.8-.36l.05.76c-1.05.06-2.28.18-3.75.35ZM93.8,112.45c-.42-.02-.91-.04-1.47-.07-.68-.02-1.47-.05-2.31-.07l.02-.76c.83.02,1.64.04,2.32.07.57.02,1.06.04,1.49.07l-.04.76ZM87.75,112.28l-1.5-.02c-.58,0-1.1-.01-1.58-.01h-.7s0-.76,0-.76h.71c.48,0,1.01,0,1.59,0l1.5.02v.76ZM159.27,112.1l-.76-.05c.08-1.26.14-2.52.2-3.78l.76.03c-.06,1.26-.12,2.53-.2,3.79ZM17.42,107.65l-.28-3.78.76-.06.28,3.78-.76.06ZM159.56,106.03l-.76-.03.11-2.86.76.03-.11,2.86Z"/>
      <path class="cls-10" d="M27.18,130.08l-.19-.73c1.11-.29,2.33-.91,3.39-1.47l.36.67c-1.09.59-2.37,1.23-3.56,1.54ZM24.69,130.03l-.11-.05c-.88-.47-1.5-1.54-1.94-3.38l.74-.18c.38,1.58.89,2.53,1.56,2.88l-.25.72ZM149.73,129.25c-.68-.11-1.32-.3-2.08-.61-.46-.19-1-.44-1.57-.72l.34-.68c.56.27,1.08.52,1.53.7.91.37,1.5.5,1.91.57l-.12.75ZM152.18,129.24l-.27-.71s.07-.03.11-.05c.37-.18.72-.61,1-1.21.19-.41.3-.8.45-1.62l.75.13c-.16.88-.29,1.34-.51,1.81-.25.53-.69,1.23-1.35,1.56-.06.03-.12.06-.18.08ZM32.73,127.43l-.38-.66c1.1-.63,2.12-1.25,3.24-1.95l.4.65c-1.13.7-2.15,1.32-3.26,1.96ZM144.05,126.86l-.75-.41c-.88-.49-1.74-.97-2.57-1.45l.38-.66c.82.48,1.68.96,2.55,1.44l.75.41-.36.67ZM22.22,124.33c-.06-.37-.11-.74-.16-1.11-.12-.88-.23-1.76-.34-2.66l.75-.09c.11.89.22,1.77.34,2.65.05.37.1.74.16,1.1l-.75.11ZM37.93,124.28l-.4-.65c1.01-.62,2.1-1.28,3.27-1.95l.38.66c-1.16.67-2.25,1.32-3.25,1.94ZM138.77,123.84l-.74-.44c-.87-.52-1.69-1.02-2.52-1.48l.37-.66c.83.46,1.66.96,2.54,1.49l.74.44-.39.65ZM154.58,123.54l-.75-.11c.17-1.11.35-2.43.53-3.75l.75.1c-.18,1.33-.37,2.65-.53,3.76ZM43.16,121.23l-.36-.67.41-.22c.96-.51,1.97-1.02,2.98-1.52l.33.68c-1,.49-2,.99-2.95,1.51l-.41.22ZM133.51,120.89c-.7-.34-1.43-.67-2.22-1.04l-1.21-.56.32-.69,1.18.54c.82.38,1.56.72,2.26,1.06l-.33.68ZM48.56,118.53l-.32-.69c1.06-.5,2.09-.96,3.05-1.4l.4-.18.31.69-.4.18c-.96.43-1.99.9-3.04,1.39ZM128.01,118.34l-1.16-.53c-.85-.38-1.55-.69-2.29-1l.29-.7c.75.31,1.46.62,2.31,1.01l1.17.53-.31.69ZM21.46,118.29c-.12-1.19-.24-2.43-.35-3.79l.76-.06c.11,1.35.22,2.59.34,3.77l-.75.08ZM155.41,117.51l-.75-.09c.16-1.3.28-2.49.39-3.76l.76.06c-.11,1.28-.23,2.48-.39,3.79ZM54.09,116.05l-.3-.7c1.31-.56,2.46-1.04,3.52-1.45l.28.71c-1.05.41-2.19.88-3.49,1.44ZM122.45,115.98c-1.19-.45-2.4-.89-3.42-1.24l-.14-.05.24-.72.14.05c1.02.35,2.24.79,3.44,1.25l-.27.71ZM116.74,114.01l-3.63-1.1.22-.73,3.63,1.1-.22.73ZM59.7,113.82l-.25-.71c.99-.35,2.01-.68,3.21-1.05l.42-.13.22.73-.41.13c-1.19.36-2.19.69-3.18,1.04ZM110.93,112.26l-.79-.23c-1.01-.28-1.91-.52-2.85-.74l.17-.74c.95.22,1.87.46,2.88.74l.8.23-.21.73ZM20.95,112.23c-.08-1.21-.16-2.48-.23-3.79l.76-.04c.07,1.31.15,2.57.23,3.78l-.76.05ZM65.47,112.02l-.2-.73c.92-.25,1.89-.51,2.91-.75l.78-.18.17.74-.78.18c-1.02.24-1.97.49-2.88.74ZM155.96,111.45l-.76-.05c.08-1.17.14-2.44.21-3.78l.76.04c-.06,1.34-.13,2.62-.21,3.79ZM105.07,110.82c-1.26-.26-2.54-.5-3.71-.7l.13-.75c1.18.2,2.47.44,3.74.71l-.15.74ZM71.34,110.62l-.15-.74c1.12-.23,2.24-.44,3.27-.61l.47-.08.12.75-.47.08c-1.03.18-2.14.38-3.25.61ZM99.12,109.78c-.89-.12-1.84-.22-2.97-.32l-.78-.07.06-.76.79.07c1.15.1,2.1.2,3.01.32l-.1.75ZM77.3,109.59l-.11-.75c.88-.12,1.69-.22,2.46-.31.45-.05.89-.09,1.32-.13l.07.75c-.42.04-.86.08-1.31.13-.77.08-1.58.18-2.44.3ZM93.11,109.23c-1.29-.09-2.62-.16-3.78-.22l.03-.76c1.16.05,2.5.13,3.8.22l-.05.76ZM83.3,108.99l-.04-.76c.24-.01.47-.02.71-.03.95-.04,1.92-.05,3.11-.02l-.02.76c-1.17-.02-2.13-.01-3.07.02-.23,0-.46.02-.7.03ZM20.6,106.17l-.19-3.79.76-.04.19,3.79-.76.04ZM156.27,105.39l-.76-.03.14-3.35.76.03-.14,3.35Z"/>
      <path class="cls-10" d="M27.63,125.95c-.6,0-1.1-.23-1.48-.68-.03-.04-.07-.09-.1-.13l.61-.45.07.09c.54.64,1.35.55,2.89-.26l.35.67c-.98.51-1.72.75-2.34.75ZM148.74,124.38c-.14,0-.29,0-.45-.03-.53-.06-1.16-.23-1.93-.52l.26-.71c.71.26,1.3.42,1.76.48.64.08,1.07-.03,1.4-.39l.56.52c-.41.44-.93.65-1.6.65ZM31.96,124.03l-.4-.65.52-.32c.88-.54,1.79-1.06,2.77-1.61l.37.66c-.97.54-1.87,1.06-2.74,1.59l-.51.31ZM144.23,122.93c-.79-.37-1.64-.8-2.52-1.26l-.88-.46.35-.67.88.46c.87.45,1.71.88,2.49,1.24l-.32.69ZM25.23,122.86c-.18-.94-.31-2.16-.42-3.82l.76-.05c.1,1.63.23,2.81.41,3.72l-.75.14ZM151.33,121.51l-.74-.19c.24-.94.45-2.18.63-3.69l.75.09c-.18,1.57-.4,2.8-.64,3.78ZM37.21,121.04l-.36-.67c1.03-.55,2.14-1.12,3.38-1.74l.34.68c-1.23.62-2.34,1.19-3.36,1.74ZM138.82,120.15c-1.01-.53-2.12-1.09-3.38-1.69l.33-.68c1.27.61,2.38,1.18,3.4,1.7l-.35.67ZM42.6,118.29l-.34-.68c1.07-.53,2.21-1.08,3.42-1.65l.32.69c-1.2.57-2.34,1.12-3.41,1.65ZM133.39,117.5c-.72-.33-1.49-.67-2.31-1.02-.38-.16-.76-.32-1.16-.49l.29-.7c.4.17.79.33,1.17.49.83.35,1.6.69,2.32,1.02l-.31.69ZM24.69,116.76l-.09-1.94c-.03-.61-.06-1.22-.09-1.84l.76-.04c.03.62.06,1.23.09,1.85l.09,1.94-.76.03ZM48.07,115.69l-.31-.69c1.12-.51,2.28-1.02,3.48-1.53l.3.7c-1.2.51-2.35,1.02-3.46,1.52ZM152.2,115.45l-.76-.06c.05-.63.1-1.29.15-1.99.04-.57.07-1.17.11-1.78l.76.04c-.03.62-.07,1.22-.11,1.79-.05.7-.1,1.37-.15,2.01ZM127.82,115.14c-1.12-.45-2.31-.9-3.53-1.36l.26-.71c1.23.46,2.42.91,3.55,1.36l-.28.71ZM53.63,113.3l-.28-.7c.51-.21,1.03-.41,1.56-.62.65-.25,1.32-.5,1.99-.75l.26.71c-.67.25-1.33.5-1.98.75-.52.2-1.04.41-1.55.61ZM122.15,113.01c-1.17-.42-2.37-.83-3.58-1.23l.24-.72c1.22.4,2.42.81,3.6,1.23l-.25.71ZM59.29,111.18l-.25-.72c1.22-.42,2.44-.82,3.62-1.18l.22.73c-1.17.36-2.38.75-3.59,1.17ZM116.41,111.09c-1.21-.38-2.42-.74-3.63-1.07l.2-.73c1.21.34,2.43.7,3.65,1.08l-.23.72ZM24.39,110.71c-.07-1.25-.15-2.51-.23-3.78l.76-.05c.08,1.27.16,2.53.23,3.79l-.76.04ZM110.59,109.42c-1.23-.32-2.47-.61-3.67-.88l.16-.74c1.22.27,2.46.56,3.7.88l-.19.73ZM65.06,109.38l-.2-.73c1.24-.34,2.48-.66,3.69-.94l.17.74c-1.2.28-2.43.59-3.66.93ZM152.58,109.37l-.76-.03c.06-1.22.11-2.49.15-3.79l.76.03c-.05,1.3-.1,2.57-.15,3.79ZM104.7,108.09c-1.24-.24-2.49-.46-3.72-.65l.11-.75c1.24.19,2.5.41,3.75.65l-.15.74ZM70.93,107.96l-.15-.74c.76-.15,1.52-.29,2.28-.43.49-.08.98-.16,1.47-.24l.11.75c-.49.07-.97.15-1.46.23-.76.13-1.51.27-2.26.42ZM98.74,107.12c-1.24-.16-2.5-.29-3.75-.4l.06-.76c1.27.11,2.54.24,3.79.4l-.1.75ZM76.89,107.01l-.09-.75c1.24-.15,2.52-.27,3.79-.37l.06.76c-1.26.09-2.53.22-3.76.37ZM92.72,106.56c-1.26-.07-2.53-.12-3.77-.15v-.76c1.27.02,2.55.07,3.82.15l-.04.76ZM82.91,106.5l-.04-.76c1.26-.06,2.54-.09,3.81-.1v.76c-1.25,0-2.52.04-3.77.1ZM24.01,104.65l-.26-3.78.76-.05.26,3.78-.76.05ZM152.81,103.31l-.76-.03.1-3.16.76.02-.1,3.16Z"/>
      <path class="cls-10" d="M30.77,120.97l-.17-.74c.85-.19,2.07-.93,3.25-1.67l.4.64c-1.28.8-2.52,1.54-3.48,1.76ZM146.31,119.79c-.16,0-.33-.02-.52-.06l.16-.74c.14.03.25.01.36.04.1,0,.19-.01.27-.04.32-.13.51-.57.78-1.83l.1-.49.74.15-.1.5c-.26,1.21-.5,2.08-1.25,2.38-.17.07-.36.1-.55.1ZM142.22,118.2l-1.42-.73c-.61-.31-1.26-.65-1.95-1l.34-.68c.69.35,1.35.69,1.96,1l1.42.73-.34.68ZM28.17,118.19c-.03-.17-.05-.34-.07-.52-.11-.96-.17-2.02-.23-3.3l.76-.04c.06,1.27.11,2.32.22,3.25.02.17.04.33.07.49l-.75.11ZM37.47,117.21l-.39-.65c1.17-.7,2.26-1.31,3.34-1.86l.34.68c-1.06.54-2.14,1.14-3.29,1.83ZM135.45,114.8c-.53-.25-1.06-.49-1.6-.73-.61-.27-1.23-.53-1.86-.79l.29-.7c.63.26,1.26.53,1.88.8.54.24,1.08.49,1.61.73l-.32.69ZM44.17,113.79l-.3-.7c1.08-.46,2.24-.94,3.52-1.44l.28.71c-1.27.5-2.43.97-3.5,1.44ZM148.77,113.03l-.75-.08c.07-.6.13-1.26.19-1.97.05-.57.09-1.17.13-1.79l.76.05c-.04.62-.08,1.23-.13,1.8-.06.72-.12,1.39-.19,2ZM128.47,111.92c-1.16-.42-2.35-.84-3.57-1.26l.25-.72c1.23.42,2.42.84,3.58,1.26l-.26.71ZM51.2,110.99l-.27-.71c1.12-.42,2.32-.87,3.56-1.32l.26.71c-1.24.45-2.44.89-3.55,1.31ZM27.69,110.59c-.07-1.13-.15-2.41-.24-3.78l.76-.05c.09,1.38.17,2.66.24,3.79l-.76.04ZM121.31,109.45c-1.17-.39-2.37-.78-3.6-1.17l.23-.72c1.24.39,2.44.79,3.61,1.18l-.24.72ZM58.33,108.43l-.24-.72c1.19-.4,2.41-.79,3.62-1.16l.22.73c-1.21.36-2.41.75-3.6,1.15ZM114.09,107.18c-1.25-.36-2.47-.69-3.65-.98l.18-.74c1.18.3,2.42.63,3.67.99l-.21.73ZM65.56,106.26l-.19-.74c1.21-.31,2.46-.59,3.72-.84l.15.74c-1.25.25-2.49.53-3.68.83ZM149.3,105.44l-.76-.04c.05-1.11.1-2.16.13-3.02l.03-.77.76.04-.03.76c-.04.87-.08,1.91-.13,3.03ZM106.76,105.36c-1.21-.25-2.46-.48-3.72-.68l.12-.75c1.27.21,2.53.44,3.75.69l-.15.74ZM72.96,104.78l-.12-.75c1.2-.18,2.43-.35,3.77-.5l.09.75c-1.33.15-2.56.32-3.75.5ZM99.31,104.14c-1.27-.16-2.53-.29-3.76-.39l.06-.76c1.23.1,2.51.24,3.79.4l-.09.75ZM80.47,103.89l-.07-.76c1.36-.12,2.6-.22,3.79-.28l.04.76c-1.18.07-2.41.16-3.77.28ZM91.78,103.52c-1.29-.05-2.55-.06-3.77-.05v-.76c1.23-.01,2.49,0,3.8.05l-.03.76ZM27.19,103.03l-.27-3.78.76-.05.27,3.78-.76.05Z"/>
      <path class="cls-9" d="M3.86,109.39l-.95.95.95.95.95-.95-.95-.95ZM5.83,107.42l-.95.95.95.95.95-.95-.95-.95ZM3.86,105.45l-.95.95.95.95.95-.95-.95-.95ZM7.8,105.45l-.95.95.95.95.95-.95-.95-.95ZM5.83,103.49l-.95.95.95.95.95-.95-.95-.95ZM3.86,101.52l-.95.95.95.95.95-.95-.95-.95ZM9.76,103.49l-.95.95.95.95.95-.95-.95-.95ZM7.8,101.52l-.95.95.95.95.95-.95-.95-.95ZM5.83,99.55l-.95.95.95.95.95-.95-.95-.95ZM3.86,97.58l-.95.95.95.95.95-.95-.95-.95ZM13.7,103.49l-.95.95.95.95.95-.95-.95-.95ZM11.73,101.52l-.95.95.95.95.95-.95-.95-.95ZM9.76,99.55l-.95.95.95.95.95-.95-.95-.95ZM7.8,97.58l-.95.95.95.95.95-.95-.95-.95ZM5.83,95.61l-.95.95.95.95.95-.95-.95-.95ZM3.86,93.65l-.95.95.95.95.95-.95-.95-.95ZM13.7,99.55l-.95.95.95.95.95-.95-.95-.95ZM11.73,97.58l-.95.95.95.95.95-.95-.95-.95ZM9.76,95.61l-.95.95.95.95.95-.95-.95-.95ZM7.8,93.65l-.95.95.95.95.95-.95-.95-.95ZM5.83,91.68l-.95.95.95.95.95-.95-.95-.95ZM13.7,95.61l-.95.95.95.95.95-.95-.95-.95ZM11.73,93.65l-.95.95.95.95.95-.95-.95-.95ZM9.77,91.68l-.95.95.95.95.95-.95-.95-.95ZM7.8,89.71l-.95.95.95.95.95-.95-.95-.95ZM5.83,87.74l-.95.95.95.95.95-.95-.95-.95ZM13.7,91.68l-.95.95.95.95.95-.95-.95-.95ZM11.73,89.71l-.95.95.95.95.95-.95-.95-.95ZM9.76,87.74l-.95.95.95.95.95-.95-.95-.95ZM7.8,85.78l-.95.95.95.95.95-.95-.95-.95ZM5.83,83.81l-.95.95.95.95.95-.95-.95-.95ZM13.7,87.74l-.95.95.95.95.95-.95-.95-.95ZM11.73,85.78l-.95.95.95.95.95-.95-.95-.95ZM9.76,83.81l-.95.95.95.95.95-.95-.95-.95ZM7.8,81.84l-.95.95.95.95.95-.95-.95-.95ZM5.83,79.87l-.95.95.95.95.95-.95-.95-.95ZM13.7,83.81l-.95.95.95.95.95-.95-.95-.95ZM11.73,81.84l-.95.95.95.95.95-.95-.95-.95ZM9.76,79.87l-.95.95.95.95.95-.95-.95-.95ZM7.8,77.9l-.95.95.95.95.95-.95-.95-.95ZM5.83,75.94l-.95.95.95.95.95-.95-.95-.95ZM13.7,79.87l-.95.95.95.95.95-.95-.95-.95ZM11.73,77.9l-.95.95.95.95.95-.95-.95-.95ZM9.76,75.94l-.95.95.95.95.95-.95-.95-.95ZM7.8,73.97l-.95.95.95.95.95-.95-.95-.95ZM13.7,75.94l-.95.95.95.95.95-.95-.95-.95ZM11.73,73.97l-.95.95.95.95.95-.95-.95-.95ZM9.77,72l-.95.95.95.95.95-.95-.95-.95ZM7.8,70.03l-.95.95.95.95.95-.95-.95-.95ZM13.7,72l-.95.95.95.95.95-.95-.95-.95ZM11.73,70.03l-.95.95.95.95.95-.95-.95-.95ZM9.76,68.07l-.95.95.95.95.95-.95-.95-.95ZM7.8,66.1l-.95.95.95.95.95-.95-.95-.95ZM13.7,68.07l-.95.95.95.95.95-.95-.95-.95ZM11.73,66.1l-.95.95.95.95.95-.95-.95-.95ZM9.76,64.13l-.95.95.95.95.95-.95-.95-.95ZM7.8,62.16l-.95.95.95.95.95-.95-.95-.95ZM13.7,64.13l-.95.95.95.95.95-.95-.95-.95ZM11.73,62.16l-.95.95.95.95.95-.95-.95-.95ZM9.76,60.19l-.95.95.95.95.95-.95-.95-.95ZM13.7,60.19l-.95.95.95.95.95-.95-.95-.95ZM11.73,58.23l-.95.95.95.95.95-.95-.95-.95ZM9.76,56.26l-.95.95.95.95.95-.95-.95-.95ZM13.7,56.26l-.95.95.95.95.95-.95-.95-.95ZM11.73,54.29l-.95.95.95.95.95-.95-.95-.95ZM9.76,52.32l-.95.95.95.95.95-.95-.95-.95ZM13.7,52.32l-.95.95.95.95.95-.95-.95-.95ZM11.73,50.36l-.95.95.95.95.95-.95-.95-.95ZM13.7,48.39l-.95.95.95.95.95-.95-.95-.95ZM11.73,46.42l-.95.95.95.95.95-.95-.95-.95ZM15.67,46.42l-.95.95.95.95.95-.95-.95-.95ZM13.7,44.45l-.95.95.95.95.95-.95-.95-.95ZM15.67,42.48l-.95.95.95.95.95-.95-.95-.95ZM13.7,40.52l-.95.95.95.95.95-.95-.95-.95ZM17.64,40.52l-.95.95.95.95.95-.95-.95-.95ZM15.67,38.55l-.95.95.95.95.95-.95-.95-.95ZM17.64,36.58l-.95.95.95.95.95-.95-.95-.95ZM15.67,34.61l-.95.95.95.95.95-.95-.95-.95ZM19.6,34.61l-.95.95.95.95.95-.95-.95-.95ZM17.64,32.65l-.95.95.95.95.95-.95-.95-.95ZM21.57,32.65l-.95.95.95.95.95-.95-.95-.95ZM19.6,30.68l-.95.95.95.95.95-.95-.95-.95ZM21.57,28.71l-.95.95.95.95.95-.95-.95-.95ZM23.54,26.74l-.95.95.95.95.95-.95-.95-.95ZM21.57,24.77l-.95.95.95.95.95-.95-.95-.95ZM25.51,24.77l-.95.95.95.95.95-.95-.95-.95ZM23.54,22.81l-.95.95.95.95.95-.95-.95-.95ZM27.48,22.81l-.95.95.95.95.95-.95-.95-.95ZM25.51,20.84l-.95.95.95.95.95-.95-.95-.95ZM29.44,20.84l-.95.95.95.95.95-.95-.95-.95ZM27.48,18.87l-.95.95.95.95.95-.95-.95-.95ZM31.41,18.87l-.95.95.95.95.95-.95-.95-.95ZM33.38,16.9l-.95.95.95.95.95-.95-.95-.95ZM35.35,14.94l-.95.95.95.95.95-.95-.95-.95ZM37.31,12.97l-.95.95.95.95.95-.95-.95-.95ZM45.19,9.03l-.95.95.95.95.95-.95-.95-.95ZM51.09,7.06l-.95.95.95.95.95-.95-.95-.95ZM163.25,103.49l-.95.95.95.95.95-.95-.95-.95ZM173.09,109.39l-.95.95.95.95.95-.95-.95-.95ZM171.12,107.42l-.95.95.95.95.95-.95-.95-.95ZM169.16,105.45l-.95.95.95.95.95-.95-.95-.95ZM167.19,103.49l-.95.95.95.95.95-.95-.95-.95ZM165.22,101.52l-.95.95.95.95.95-.95-.95-.95ZM163.25,99.55l-.95.95.95.95.95-.95-.95-.95ZM175.06,107.42l-.95.95.95.95.95-.95-.95-.95ZM173.09,105.45l-.95.95.95.95.95-.95-.95-.95ZM171.12,103.49l-.95.95.95.95.95-.95-.95-.95ZM169.16,101.52l-.95.95.95.95.95-.95-.95-.95ZM167.19,99.55l-.95.95.95.95.95-.95-.95-.95ZM165.22,97.58l-.95.95.95.95.95-.95-.95-.95ZM163.25,95.61l-.95.95.95.95.95-.95-.95-.95ZM173.09,101.52l-.95.95.95.95.95-.95-.95-.95ZM171.12,99.55l-.95.95.95.95.95-.95-.95-.95ZM169.16,97.58l-.95.95.95.95.95-.95-.95-.95ZM167.19,95.61l-.95.95.95.95.95-.95-.95-.95ZM165.22,93.65l-.95.95.95.95.95-.95-.95-.95ZM163.25,91.68l-.95.95.95.95.95-.95-.95-.95ZM173.09,97.58l-.95.95.95.95.95-.95-.95-.95ZM171.12,95.61l-.95.95.95.95.95-.95-.95-.95ZM169.16,93.65l-.95.95.95.95.95-.95-.95-.95ZM167.19,91.68l-.95.95.95.95.95-.95-.95-.95ZM165.22,89.71l-.95.95.95.95.95-.95-.95-.95ZM173.09,93.65l-.95.95.95.95.95-.95-.95-.95ZM171.12,91.68l-.95.95.95.95.95-.95-.95-.95ZM169.16,89.71l-.95.95.95.95.95-.95-.95-.95ZM167.19,87.74l-.95.95.95.95.95-.95-.95-.95ZM165.22,85.78l-.95.95.95.95.95-.95-.95-.95ZM171.12,87.74l-.95.95.95.95.95-.95-.95-.95ZM169.16,85.78l-.95.95.95.95.95-.95-.95-.95ZM167.19,83.81l-.95.95.95.95.95-.95-.95-.95ZM165.22,81.84l-.95.95.95.95.95-.95-.95-.95ZM171.12,83.81l-.95.95.95.95.95-.95-.95-.95ZM169.16,81.84l-.95.95.95.95.95-.95-.95-.95ZM167.19,79.87l-.95.95.95.95.95-.95-.95-.95ZM165.22,77.9l-.95.95.95.95.95-.95-.95-.95ZM90.37,3.21h0c-.6,0-1.19,0-1.79,0,.6,0,1.2,0,1.8,0ZM171.12,79.87l-.95.95.95.95.95-.95-.95-.95ZM169.16,77.9l-.95.95.95.95.95-.95-.95-.95ZM167.19,75.94l-.95.95.95.95.95-.95-.95-.95ZM165.22,73.97l-.95.95.95.95.95-.95-.95-.95ZM94.25,3.26l-.04.04c-1.22-.05-2.45-.08-3.68-.09h0c1.26,0,2.5.02,3.73.05ZM171.12,75.94l-.95.95.95.95.95-.95-.95-.95ZM169.16,73.97l-.95.95.95.95.95-.95-.95-.95ZM167.19,72l-.95.95.95.95.95-.95-.95-.95ZM165.22,70.03l-.95.95.95.95.95-.95-.95-.95ZM163.25,68.07l-.95.95.95.95.95-.95-.95-.95ZM98.07,3.37l-.11.11c-1.12-.07-2.25-.13-3.39-.17l-.05-.05c1.2.03,2.38.06,3.55.11ZM169.16,70.03l-.95.95.95.95.95-.95-.95-.95ZM167.19,68.07l-.95.95.95.95.95-.95-.95-.95ZM165.22,66.1l-.95.95.95.95.95-.95-.95-.95ZM163.25,64.13l-.95.95.95.95.95-.95-.95-.95ZM101.83,3.55l-.22.22c-.96-.09-1.92-.16-2.88-.23l-.14-.14c1.09.04,2.18.1,3.24.16ZM169.16,66.1l-.95.95.95.95.95-.95-.95-.95ZM167.19,64.13l-.95.95.95.95.95-.95-.95-.95ZM165.22,62.16l-.95.95.95.95.95-.95-.95-.95ZM163.25,60.19l-.95.95.95.95.95-.95-.95-.95ZM105.52,3.8l-.28.28.1.1c-.77-.09-1.53-.18-2.3-.26l-.3-.3c.94.06,1.87.12,2.79.19ZM169.16,62.16l-.95.95.95.95.95-.95-.95-.95ZM167.19,60.19l-.95.95.95.95.95-.95-.95-.95ZM165.22,58.23l-.95.95.95.95.95-.95-.95-.95ZM163.25,56.26l-.95.95.95.95.95-.95-.95-.95ZM109.23,4.13l.72.72c-1.03-.17-2.07-.33-3.11-.48l.3-.3-.15-.15c.76.07,1.51.14,2.25.21ZM169.16,58.23l-.95.95.95.95.95-.95-.95-.95ZM167.19,56.26l-.95.95.95.95.95-.95-.95-.95ZM165.22,54.29l-.95.95.95.95.95-.95-.95-.95ZM163.25,52.32l-.95.95.95.95.95-.95-.95-.95ZM167.19,52.32l-.95.95.95.95.95-.95-.95-.95ZM165.22,50.36l-.95.95.95.95.95-.95-.95-.95ZM163.25,48.39l-.95.95.95.95.95-.95-.95-.95ZM161.29,46.42l-.95.95.95.95.95-.95-.95-.95ZM165.22,46.42l-.95.95.95.95.95-.95-.95-.95ZM163.25,44.45l-.95.95.95.95.95-.95-.95-.95ZM161.29,42.48l-.95.95.95.95.95-.95-.95-.95ZM159.32,40.52l-.95.95.95.95.95-.95-.95-.95ZM125.86,7.06l-.95.95.95.95.95-.95-.95-.95ZM165.22,42.48l-.95.95.95.95.95-.95-.95-.95ZM163.25,40.52l-.95.95.95.95.95-.95-.95-.95ZM161.29,38.55l-.95.95.95.95.95-.95-.95-.95ZM159.32,36.58l-.95.95.95.95.95-.95-.95-.95ZM157.35,34.61l-.95.95.95.95.95-.95-.95-.95ZM131.77,9.03l-.95.95.95.95.95-.95-.95-.95ZM161.28,34.61l-.95.95.95.95.95-.95-.95-.95ZM159.32,32.65l-.95.95.95.95.95-.95-.95-.95ZM157.35,30.68l-.95.95.95.95.95-.95-.95-.95ZM155.38,28.71l-.95.95.95.95.95-.95-.95-.95ZM153.41,26.74l-.95.95.95.95.95-.95-.95-.95ZM151.45,24.77l-.95.95.95.95.95-.95-.95-.95ZM149.48,22.81l-.95.95.95.95.95-.95-.95-.95ZM147.51,20.84l-.95.95.95.95.95-.95-.95-.95ZM145.54,18.87l-.95.95.95.95.95-.95-.95-.95ZM143.58,16.9l-.95.95.95.95.95-.95-.95-.95ZM141.61,14.94l-.95.95.95.95.95-.95-.95-.95ZM139.64,12.97l-.95.95.95.95.95-.95-.95-.95ZM155.38,24.77l-.95.95.95.95.95-.95-.95-.95ZM153.41,22.81l-.95.95.95.95.95-.95-.95-.95ZM151.45,20.84l-.95.95.95.95.95-.95-.95-.95ZM149.48,18.87l-.95.95.95.95.95-.95-.95-.95ZM147.51,16.9l-.95.95.95.95.95-.95-.95-.95ZM142.83,13.71l-.2.2.95.95.44-.44c.42.26.84.52,1.25.79l-.67.67.95.95.85-.85c4.5,3.13,8.41,6.94,11.74,11.55l-.78-.78-.95.95.95.95.92-.92c.28.4.56.8.84,1.2l-.74.74.95.95.54-.54c.26.41.52.83.78,1.26l-.3.3.95.95.05-.05c.8,1.41,1.56,2.88,2.27,4.42l-.36-.36-.95.95.95.95.73-.73c.21.47.42.94.62,1.42l-.32.32.78.78c.6,1.49,1.16,3.03,1.69,4.63l-.49.49.95.95h0c.29.94.57,1.9.83,2.87l-.83-.83-.95.95.95.95.88-.88c.14.53.28,1.07.42,1.62l-.28.28.47.47c.21.87.42,1.75.61,2.65l-.13-.13-.95.95.95.95.41-.41c.31,1.52.59,3.09.85,4.69l.05.38-.29.29.36.36.34,2.87-.7.7.89.89.27,2.32-.22-.22-.95.95.95.95.37-.37.37,3.16-.75-.75-.95.95.95.95.79-.79.63,5.34-.4.4.51.51.31,2.61-.82.82.95.95.07-.07.29,2.48-.36-.36-.95.95.95.95.49-.49.41,3.42-.89-.89-.95.95.95.95.9-.9.22,1.82-.1.1.13.13.39,3.29-.52.52.65.66.28,2.35-.93.93.95.95.19-.19.32,2.74-.51-.51-.95.95.95.95.6-.6.63,5.34-.21.21.27.27.36,3.03-.32.32c-.41-.27-.82-.54-1.23-.81l.85-.85-.95-.95-.95.95.47.48c-1.74-1.13-3.52-2.23-5.34-3.3l-.09-.09-.02.02c-.43-.25-.86-.5-1.29-.75l.29-.29-.95-.95-.55.55c-.44-.24-.87-.49-1.31-.73l.84-.84-.95-.95-.95.95.6.6c-1.01-.55-2.03-1.09-3.06-1.63.04-.81.08-1.68.12-2.6l.3-.3-.28-.28c.05-1.11.1-2.28.14-3.52l.14-.14-.13-.13c.11-2.92.21-6.16.27-9.64l.88.88.95-.95-.95-.95-.88.88c.02-1.22.04-2.47.05-3.74l.83.83.95-.95-.95-.95-.83.83c0-1.21.01-2.43.01-3.68l.82.82.95-.95-.95-.95-.82.82c0-1.22-.01-2.45-.03-3.7l.85.85.95-.95-.95-.95-.85.85c-.02-1.26-.04-2.53-.08-3.81l.92.92.95-.95-.95-.95-.93.93c-.05-1.9-.12-3.83-.2-5.77l.11-.11-.12-.12c-.05-1.17-.12-2.34-.19-3.51l.31-.31-.35-.35c-.06-1.01-.13-2.02-.21-3.04l.55-.55-.65-.65c-.04-.45-.07-.9-.11-1.35-.04-.35-.09-.7-.13-1.05l.89-.89-.95-.95-.17.17c-.14-.97-.3-1.92-.47-2.85l.64.64.95-.95-.95-.95-.74.74c-.11-.57-.22-1.14-.34-1.7l.06-.06-.1-.1c-.22-1.02-.46-2.03-.72-3.01l.83-.83-.95-.95-.29.29c-.45-1.55-.94-3.05-1.48-4.49l.75-.75-.95-.95-.34.34c-.7-1.75-1.47-3.42-2.3-5.01l.67.67.95-.95-.95-.95-.86.86c-.24-.44-.48-.88-.72-1.32l.56-.56-.95-.95-.32.32c-.26-.42-.52-.84-.78-1.26l.08-.08-.38-.38c-3.82-5.78-8.58-10.4-14.04-14.04l-.3-.3-.06.06c-.41-.27-.83-.53-1.25-.79l.29-.29-.95-.95-.52.52c-.43-.25-.86-.5-1.3-.74l.8-.8-.95-.95-.95.95.47.47c-1.52-.81-3.07-1.56-4.67-2.25l.19-.19-.95-.95-.58.58c-1.43-.58-2.9-1.12-4.39-1.61l-.93-.93-.48.48c-1.53-.48-3.1-.9-4.68-1.29l.21-.21-.95-.95-.79.79c-.98-.22-1.97-.43-2.97-.62l-.17-.17-.12.12c-.57-.11-1.15-.21-1.73-.31l.59-.59c.96.11,1.91.23,2.85.35l.36.36.28-.28c1.75.25,3.47.52,5.14.83l-.46.46.95.95.95-.95-.24-.24c.88.17,1.74.36,2.59.55l.64.64.4-.4c1.61.38,3.19.8,4.72,1.26l-.16.16.95.95.66-.66c1.51.48,2.98,1.01,4.4,1.57l-.11.11.95.95.51-.51c.48.2.95.41,1.42.62l-.91.91.95.95.95-.95-.84-.84c1.75.8,3.44,1.67,5.06,2.61ZM86.59,3.21c.66,0,1.32,0,1.98,0-.66,0-1.32,0-1.98.01h0ZM82.71,3.26c1.23-.03,2.47-.05,3.72-.06h0c-1.23.02-2.45.06-3.67.1l-.04-.04ZM78.89,3.38c1.17-.05,2.35-.08,3.54-.11l-.05.05c-1.13.05-2.25.1-3.37.18l-.12-.12ZM75.14,3.56c1.06-.06,2.14-.12,3.23-.16l-.15.15c-.95.07-1.9.14-2.85.23l-.22-.22ZM71.45,3.81c.91-.07,1.83-.14,2.76-.19l-.31.31c-.77.08-1.54.17-2.31.27l.13-.13-.26-.26ZM67.7,4.15c.74-.08,1.5-.15,2.25-.21l-.14.14.32.32c-1.06.15-2.12.31-3.17.49l.73-.73ZM6.72,60.47c.07-.41.14-.81.21-1.22l.87.87.95-.95-.95-.95-.84.84c.18-1.06.38-2.11.58-3.13l.25.25.95-.95-.88-.88c.21-.96.43-1.91.66-2.84l.22-.22-.13-.13c.14-.55.28-1.09.42-1.62l.73.73.95-.95-.95-.95-.58.58c.27-.98.55-1.94.85-2.89l.68-.68-.35-.35c.17-.52.34-1.02.52-1.52l.86.86.95-.95-.95-.95-.77.77c.4-1.12.81-2.22,1.24-3.29l.47-.47-.19-.19c.2-.48.41-.96.62-1.43l.6.6.95-.95-.95-.95h0c.7-1.47,1.43-2.88,2.21-4.24l.71-.71-.18-.18c.26-.43.51-.85.78-1.26l.43.43.95-.95-.63-.62c.27-.41.55-.81.83-1.21l.81.81.95-.95-.95-.95-.09.09c2.87-3.83,6.16-7.1,9.88-9.88l-.9.9.95.95.95-.95-.94-.94c.39-.29.79-.58,1.19-.86l.78.78.95-.95-.59-.59c.41-.27.82-.54,1.24-.8l.37.37.95-.95-.14-.14c1.55-.91,3.16-1.74,4.83-2.52l-.68.68.95.95.95-.95-.85-.85c.47-.21.94-.42,1.42-.62l.45.45.95-.95-.06-.06c1.42-.57,2.89-1.09,4.4-1.58l.62.62.95-.95-.12-.12c1.53-.46,3.1-.88,4.71-1.27l.36.36.58-.58c.85-.19,1.72-.38,2.59-.55l-.19.19.95.95.95-.95-.44-.44c1.67-.31,3.38-.59,5.14-.84l.25.25.33-.33c.96-.13,1.92-.25,2.9-.36l.6.6c-.58.1-1.15.2-1.73.31l-.14-.14-.21.21c-.97.19-1.94.4-2.9.61l-.83-.83-.95.95.24.24c-1.58.39-3.14.82-4.67,1.3l-.52-.52-.95.95.04.04c-1.48.49-2.94,1.03-4.36,1.61l-.63-.63-.95.95.25.25c-1.69.73-3.34,1.54-4.94,2.41l.69-.69-.95-.95-.95.95.87.87c-.44.24-.87.49-1.3.74l-.59-.59-.95.95.36.36c-.42.26-.83.53-1.24.8l-.13-.13-.69.69c-5.05,3.46-9.47,7.77-13.09,13.09h0s-.95.95-.95.95l.19.19c-.27.41-.53.83-.78,1.26l-.43-.43-.95.95.68.68c-.92,1.62-1.76,3.32-2.54,5.11l-.11.11.04.04c-.2.47-.4.96-.6,1.44l-.47-.47-.95.95.89.89c-.54,1.45-1.03,2.95-1.47,4.5l-.44-.44-.95.95.95.95.04-.04c-.23.88-.45,1.78-.65,2.69l-.34.34.21.22c-.12.56-.23,1.13-.34,1.7l-.89-.9-.95.95.95.95.87-.87c-.2,1.06-.38,2.14-.53,3.24l-.33-.33-.95.95.95.95.14-.14c-.05.38-.1.75-.14,1.13-.03.38-.06.77-.1,1.15l-.85.85.73.73c-.07.89-.13,1.78-.18,2.67l-.54.54.48.48c-.06,1.05-.12,2.1-.17,3.14l-.31.32.29.29c-.05,1.17-.1,2.34-.14,3.49l-.15.15.14.14c-.04,1.26-.07,2.51-.1,3.75l-.05.05.04.04c-.08,4.09-.08,8.04-.03,11.75h-.01s.01.03.01.03c.02,1.31.04,2.59.07,3.84l-.08.08.08.08c.03,1.26.06,2.49.1,3.67l-.18.18.19.19c.04,1.19.08,2.34.12,3.44l-.31.31.33.33c.04,1.1.08,2.15.13,3.15l-.46.46.5.5c.04.84.07,1.63.11,2.38-1.16.6-2.3,1.22-3.43,1.84l.79-.79-.95-.95-.95.95.9.9c-.44.24-.87.49-1.31.73l-.61-.61-.95.95.36.36c-.43.25-.86.5-1.29.75l-.09-.09-.34.34c-1.85,1.1-3.66,2.23-5.43,3.39l.82-.82-.95-.95-.95.95.92.92c-.41.27-.82.54-1.23.81l-.23-.23.4-3.41.06-.06-.05-.05.22-1.82.85.85.95-.95-.95-.95-.83.83.39-3.3.44.44.95-.95-.95-.95-.3.3.28-2.36.02.02.95-.95-.77-.77.32-2.72.44-.44-.35-.35.63-5.34.74.74.95-.95-.95-.95-.68.68.36-3.04.32.32.95-.95-.95-.95-.15.15.27-2.31.83-.83-.65-.65.35-2.99.3-.3-.24-.23.63-5.34.62.62.95-.95-.95-.95-.54.54.33-2.78.21.21.95-.95-.95-.95h0s.27-2.31.27-2.31l.68-.68-.54-.54.38-3.25.15-.15-.12-.12.06-.55Z"/>
      <path class="cls-9" d="M5.99,113.93l.08-.05c1.65,54.71,20.94,32.1,51.73,17.72,9.95-4.65,20.77-6.49,33.22-5.63,10.93.76,21.07,2.79,30.49,7.45,28.72,14.2,48.23,34.35,49.55-19.53l.06.04c-.62,57.91-20.33,37.24-49.61,22.76-9.43-4.66-19.56-6.69-30.49-7.45-12.46-.86-23.27.98-33.22,5.63-31.39,14.66-50.82,37.87-51.81-20.94Z"/>
      <path class="cls-6" d="M5.99,113.93l.08-.05c1.65,54.71,20.94,32.1,51.73,17.72,9.95-4.65,20.77-6.49,33.22-5.63,10.93.76,21.07,2.79,30.49,7.45,28.72,14.2,48.23,34.35,49.55-19.53l.06.04c-.62,57.91-20.33,37.24-49.61,22.76-9.43-4.66-19.56-6.69-30.49-7.45-12.46-.86-23.27.98-33.22,5.63-31.39,14.66-50.82,37.87-51.81-20.94Z"/>
      <path class="cls-7" d="M140.66,21.26c.87.58,1.66,1.69,2.23,2.07l.41-.46c-.24-.34-.76-.81-1.07-1.11-.23-.23-.98-.95-1.26-.98-.08.3-.15.23-.32.48"/>
      <path class="cls-7" d="M158.06,63.08c.7,0,.74.19.54-1.41-.06-.47-.14-1.13-.14-1.7-.79,0-.69-.02-.65.47l.25,2.64Z"/>
      <path class="cls-7" d="M36.27,20.38c.07.26.2.35.4.48l2.31-1.84c-.07-.24-.2-.37-.32-.56-.44.29-.79.59-1.23.92-.22.17-.36.28-.58.46-.23.18-.43.3-.58.53"/>
      <path class="cls-7" d="M17.43,83.51h.72c0-1.1-.08-1.92-.08-3.03h-.64v3.03Z"/>
      <path class="cls-7" d="M119.59,9.61c.37.18,2.65,1.03,2.95,1.04l.17-.55c-.4-.19-.94-.37-1.4-.53-.35-.13-1.17-.48-1.49-.51-.09.19-.14.36-.24.56"/>
      <path class="cls-7" d="M44.25,14.8c.1.19.18.33.24.56.33-.03,2.46-1.26,2.79-1.44-.14-.21-.2-.33-.32-.56l-2.71,1.44Z"/>
      <path class="cls-7" d="M19.51,49.51c.15.07.43.14.64.16.23-.98.49-1.98.72-2.95-.15-.07-.43-.14-.64-.16l-.37,1.47c-.13.52-.24,1-.35,1.49"/>
      <path class="cls-7" d="M48.56,12.48c.07.3.17.33.24.64.34-.08.98-.44,1.38-.62.46-.2.92-.47,1.41-.58-.02-.29-.1-.38-.16-.64-.58.05-2.4,1.16-2.87,1.2"/>
      <path class="cls-7" d="M29.4,27.33c.18.27.19.25.48.4.48-.71,1.61-1.87,1.92-2.31-.13-.2-.28-.27-.48-.4-.16.23-.31.33-.5.54-.27.3-1.32,1.41-1.42,1.78"/>
      <path class="cls-7" d="M152.15,36.58c.1.44,1.15,2.26,1.2,2.79.38-.03.25-.13.64-.16-.05-.56-1.06-2.29-1.2-2.87-.3.07-.33.17-.64.24"/>
      <path class="cls-7" d="M156.47,50.4c.07.83.41,2.17.48,3.02.38,0,.33-.05.64-.08,0-.37-.16-1.16-.23-1.53-.09-.52-.14-1.03-.25-1.5l-.64.09Z"/>
      <path class="cls-7" d="M17.83,64.12h.64c0-1.09.16-2.04.16-3.11h-.64c0,.38-.04.46-.07.73l-.09,2.38Z"/>
      <path class="cls-7" d="M100.84,4.74v.32c1.07,0,1.97.4,3.03.4l.09-.64c-.57,0-1.22-.16-1.76-.25-.25-.04-.58-.1-.83-.14-.43-.07-.54-.14-.54.31"/>
      <path class="cls-7" d="M157.82,101.95h.64c0-.34.08-.38.08-.8,0-.29,0-.59,0-.88.01-1.12.49-1.43-.56-1.43,0,.55-.08.89-.08,1.52,0,.66-.08.97-.08,1.6"/>
      <path class="cls-7" d="M128.61,13.36l2.7,1.31c.14-.21.23-.29.25-.59-.21-.11-.43-.21-.64-.32l-2.07-1.04c-.11.22-.21.34-.24.64"/>
      <path class="cls-7" d="M76.57,4.34c.08.16.11.44.16.64l2.45-.42c.83-.13.5-.01.5-.7-1.07,0-2.12.4-3.11.48"/>
      <path class="cls-7" d="M158.38,85.83v1.52h.64l.1-3.03h-.66c0,.61-.08.89-.08,1.52"/>
      <path class="cls-7" d="M158.46,82.48h.64c0-.4.08-.43.08-.88v-2.16h-.64c0,1.1-.08,1.92-.08,3.03"/>
      <path class="cls-7" d="M105.62,5.86c.65.01,2.38.54,3.03.56,0-.38.05-.33.08-.64-.42-.04-1.01-.19-1.47-.29-.47-.09-1.1-.27-1.56-.27-.03.31-.08.26-.08.64"/>
      <path class="cls-7" d="M110.33,6.81c.43.2,2.42.54,2.95.8.07-.15.14-.43.16-.64-.3-.14-1.06-.31-1.44-.4-.37-.09-1.24-.26-1.52-.4-.05.22-.11.42-.16.64"/>
      <path class="cls-7" d="M17.51,73.78c.71.06.65.46.64-1.44,0-.66.08-.97.08-1.6h-.72v3.03Z"/>
      <path class="cls-7" d="M115.04,8.09c.22.1.5.16.73.23.25.08.49.16.72.24.43.14,1.06.31,1.43.49.1-.2.14-.43.24-.64l-2.95-.96c-.06.26-.14.35-.16.64"/>
      <path class="cls-7" d="M157.42,55.18h-.24c.02.68.38,2.34.4,3.11.21-.12.27-.08.64-.08,0-.43-.12-1.09-.18-1.57-.06-.43-.18-1.1-.22-1.54-.18.04-.18.08-.4.08"/>
      <path class="cls-7" d="M149.84,32.35c.06.22.21.42.33.62l1.1,2.01c.3-.02.42-.13.64-.24l-1.12-1.99c-.12-.2-.33-.48-.39-.72-.21.14-.33.2-.56.32"/>
      <path class="cls-7" d="M124.14,11.36c.51.12,2.55,1.12,2.87,1.2.06-.26.14-.35.16-.64l-2.79-1.2c-.04.17-.17.49-.24.64"/>
      <path class="cls-7" d="M18.71,54.38c.38,0,.33.05.64.08,0-.5.27-1.98.38-2.58.1-.55.15-.53-.62-.53,0,.83-.4,2.02-.4,3.03"/>
      <path class="cls-7" d="M26.53,31.4c.22.11.34.21.64.24l1.6-2.55c-.24-.07-.37-.2-.56-.32l-1.68,2.63Z"/>
      <path class="cls-7" d="M71.86,5.38l.09.64c.47-.04,1.01-.22,1.5-.32.4-.08,1.12-.3,1.52-.31-.03-.31-.08-.26-.08-.64-.45,0-1.15.22-1.54.3-.48.1-1.07.3-1.5.34"/>
      <path class="cls-7" d="M91.18,4.02c.38,0,2.86.16,3.03.24.03-.31.08-.31.08-.72-1.09,0-2.04-.16-3.11-.16v.64Z"/>
      <path class="cls-7" d="M17.67,90.22v1.52c0,.63.08.91.08,1.52h.64l-.07-2.8c-.05-.48-.13-.23-.64-.23"/>
      <path class="cls-7" d="M96.05,4.1c0,.22-.36.25.45.35.18.02.6.06.86.1.54.07,1.21.19,1.72.19l.08-.64c-.7,0-2.05-.32-3.11-.32v.32Z"/>
      <path class="cls-7" d="M53.11,10.57c0,.42.08.3.16.64l1.43-.49c.44-.15.99-.36,1.45-.47,0-.29-.07-.44-.16-.64-.76.18-2.44.86-2.87.96"/>
      <path class="cls-7" d="M62.45,7.77c0,.38.05.33.08.64.75,0,2.25-.65,3.03-.72-.05-.22-.11-.42-.16-.64-.26.02-.48.1-.71.17-.23.07-.48.13-.76.2-.45.11-1.02.34-1.48.35"/>
      <path class="cls-7" d="M155.51,45.68l.64,2.95.64-.09c-.04-.45-.22-1.07-.31-1.51-.1-.48-.29-1.03-.33-1.51-.21.02-.49.09-.64.16"/>
      <path class="cls-7" d="M20.78,44.8c.2.09.35.15.64.16.05-.64.69-2.07.88-2.87-.2-.09-.35-.15-.64-.16-.11.45-.29.92-.45,1.39-.13.38-.4,1.1-.43,1.49"/>
      <path class="cls-7" d="M17.83,95.09c0,1.1.08,1.92.08,3.03.87,0,.67.05.64-.55l-.08-2.56c-.37,0-.33.05-.64.08"/>
      <path class="cls-7" d="M17.43,78.64h.64v-1.36c0-.68.08-1.02.08-1.68h-.72v3.03Z"/>
      <path class="cls-7" d="M158.38,67.95c.38,0,.33-.05.64-.08,0-1.04-.16-2.01-.16-3.03h-.64c0,.25-.01.55,0,.8.02.35.07.33.08.72l.08,1.6Z"/>
      <path class="cls-7" d="M154.07,41.05l.96,2.87c.21-.02.49-.09.64-.16-.19-.4-.32-1.01-.47-1.45-.16-.49-.38-.94-.49-1.43-.29,0-.44.06-.64.16"/>
      <path class="cls-7" d="M158.46,71.3c0,.63.08.91.08,1.52.31-.03.26-.08.64-.08l-.1-3.03h-.62s0,1.6,0,1.6Z"/>
      <path class="cls-7" d="M144.11,24.63l1.44,1.72c.23.27.24.37.54.58.23-.16.11-.16.4-.24-.04-.44-1.58-2.2-2-2.47l-.38.42Z"/>
      <path class="cls-7" d="M17.51,86.55c0,.73.08,1.12.08,1.84h.64c0-1.11-.08-1.93-.08-3.03h-.64v1.2Z"/>
      <path class="cls-7" d="M17.67,66.91c0,.78-.08,1.23-.08,2l.64.08.08-2.32c.01-.4.08-.4.08-.8h-.72v1.04Z"/>
      <path class="cls-7" d="M136.91,18.23c.63.33,1.81,1.39,2.47,1.84.08-.3.15-.23.32-.48-.15-.22-.33-.32-.54-.5l-1.85-1.42c-.19.14-.29.35-.4.56"/>
      <path class="cls-7" d="M24.3,35.71c.19.1.33.18.56.24l1.36-2.71c-.22-.11-.34-.22-.64-.24-.08.34-.66,1.33-.96,1.99-.11.25-.25.43-.32.72"/>
      <path class="cls-7" d="M158.06,97.08h.64c0-1.06.08-1.92.08-3.03l-.64-.08c0,1.12-.08,1.97-.08,3.11"/>
      <path class="cls-7" d="M18.15,59.25h.64c0-.72.3-2.34.32-3.03-.31-.03-.26-.08-.64-.08l-.32,3.11Z"/>
      <path class="cls-7" d="M67.16,6.57l.09.64,3.02-.8c-.08-.16-.12-.37-.16-.56-.48.01-2.33.57-2.95.72"/>
      <path class="cls-7" d="M132.92,15.51l2.55,1.68c.11-.21.21-.35.32-.56-.46-.31-2.21-1.5-2.63-1.6-.12.17-.18.23-.24.48"/>
      <path class="cls-7" d="M40.1,17.43c.13.2.2.35.4.48l2.55-1.6c-.14-.21-.2-.33-.32-.56l-2.63,1.68Z"/>
      <path class="cls-7" d="M147.13,28.36l1.76,2.47c.21-.06.29-.14.48-.24-.11-.46-1.36-2.08-1.68-2.55-.24.07-.37.2-.56.32"/>
      <rect class="cls-10" x="158.54" y="74.57" width=".64" height="3.03"/>
      <path class="cls-7" d="M22.38,40.26c.34.03.26.09.56.16l1.12-2.87c-.3-.07-.22-.13-.56-.16-.11.2-.19.43-.29.67-.21.48-.82,1.81-.83,2.21"/>
      <path class="cls-7" d="M57.74,9.05c0,.29.07.44.16.64l2.95-.8c-.04-.19-.08-.4-.16-.56-.67.01-2.38.71-2.95.72"/>
      <path class="cls-7" d="M18.71,100.27c0-.42,0-.4-.48-.4-.37,0-.15.26-.16,1.44,0,.63.08,1,.08,1.68h.64l-.08-2,2.71-1.36c-.05-.23-.14-.37-.24-.56l-2.47,1.2Z"/>
      <path class="cls-7" d="M158.7,100.59l2.71,1.44c.11-.22.21-.34.24-.64-.48-.25-2.34-1.33-2.71-1.36-.05.23-.14.37-.24.56"/>
      <path class="cls-7" d="M9.85,104.98c.07.3.17.33.24.64l2.71-1.44c-.07-.3-.17-.33-.24-.64-.44.23-.92.47-1.35.72l-1.36.71Z"/>
      <path class="cls-7" d="M83.76,83.35c0,.78.17.4,1.28.4h1.84c0-.75.06-.79-.59-.68-1.03.17-2.52-.22-2.52.28"/>
      <path class="cls-7" d="M69.23,84.39v.48c.64-.01,2.43-.32,3.11-.32-.03-.31-.08-.26-.08-.64-.57,0-1.11.09-1.61.15-.87.09-1.42-.02-1.42.33"/>
      <path class="cls-7" d="M5.62,107.38c.05.23.14.37.24.56.32-.07,2.35-1.24,2.71-1.44-.1-.19-.19-.33-.24-.56-.35.03-2.35,1.24-2.71,1.44"/>
      <path class="cls-7" d="M22.78,98.2c.07.3.17.33.24.64.34-.08,2.39-1.18,2.79-1.28-.07-.3-.17-.33-.24-.64-.42.22-.92.42-1.36.64l-1.44.64Z"/>
      <path class="cls-7" d="M40.74,90.78c.08.18.14.31.16.56.63-.01,2.32-.82,2.95-.88-.02-.29-.1-.38-.16-.64-.31.03-2.66.82-2.95.96"/>
      <path class="cls-7" d="M64.36,84.79c0,.38.05.33.08.64,1.08,0,1.93-.32,3.03-.32,0-.85.16-.73-1.33-.54-.52.07-1.17.22-1.78.22"/>
      <path class="cls-7" d="M93.49,83.27c0,.64,0,.48,1.6.48.4,0,.52.04.81.07.79.1.7-.06.7-.63l-1.68-.08c-1,0-1.44-.23-1.44.16"/>
      <path class="cls-7" d="M127.09,88.38c.31.15,1.03.29,1.43.41.34.1,1.16.38,1.53.39.06-.26.14-.35.16-.64-.27,0-2.73-.69-2.95-.8-.07.15-.14.43-.16.64"/>
      <path class="cls-7" d="M50.08,87.82c0,.29.07.44.16.64.61-.01,2.3-.66,2.95-.72-.02-.21-.09-.49-.16-.64-.63.05-2.35.71-2.95.72"/>
      <path class="cls-7" d="M45.37,89.26c.08.16.12.37.16.56.42,0,1.05-.25,1.47-.37.52-.15.96-.31,1.49-.43,0-.29-.07-.44-.16-.64-.52.12-.97.27-1.49.43-.29.09-.47.13-.74.22-.19.06-.56.15-.73.23"/>
      <path class="cls-7" d="M122.37,87.26c.7.02,2.36.63,2.97.64.07-.15.14-.43.16-.64-.6-.01-2.3-.64-3.03-.64l-.09.64Z"/>
      <path class="cls-7" d="M131.72,89.74l2.95.88c.07-.15.14-.43.16-.64l-2.95-.88c-.02.21-.09.49-.16.64"/>
      <path class="cls-7" d="M167.16,105.3c.24.16,2.43,1.53,2.71,1.6.08-.36.16-.26.24-.56l-2.63-1.6c-.12.23-.18.35-.32.56"/>
      <path class="cls-7" d="M112.89,85.03c0,.22-.04.22-.08.4.51.01,1.31.19,1.88.27,1.07.16,1.14.35,1.23-.04v-.36c-.01-.15-2.75-.52-3.04-.52v.24Z"/>
      <path class="cls-7" d="M145.53,94.45c.28.02,1.16.41,1.46.54.41.17,1.01.49,1.41.58.06-.26.14-.35.16-.64-.3-.07-2.34-1.01-2.79-1.12-.12.22-.17.36-.24.64"/>
      <path class="cls-7" d="M14.08,102.67c.1.19.18.33.24.56.5-.04,2.39-1.26,2.79-1.36-.08-.3-.16-.2-.24-.56-.52.04-2.3,1.24-2.79,1.36"/>
      <path class="cls-7" d="M171.31,107.85c.46.24.85.54,1.28.79.33.2,1.03.73,1.35.8.11-.16.21-.32.32-.48-.77-.52-1.83-1.25-2.63-1.68-.12.23-.18.35-.32.56"/>
      <path class="cls-7" d="M163.01,102.91c.42.28.86.48,1.32.75.45.27.86.53,1.31.76.12-.23.18-.35.32-.56-.4-.27-.86-.5-1.31-.76-.25-.15-.42-.24-.66-.38-.25-.14-.49-.32-.74-.37-.1.19-.19.33-.24.56"/>
      <path class="cls-7" d="M36.19,92.37c.02.29.1.38.16.64l2.87-1.04c-.02-.29-.1-.38-.16-.64l-2.87,1.04Z"/>
      <path class="cls-7" d="M108.02,84.79c.43,0,1.03.12,1.5.17.47.06,1.08.12,1.53.22l.08-.72c-1.03,0-2.04-.32-3.03-.32-.03.31-.08.26-.08.64"/>
      <path class="cls-7" d="M54.78,86.63c.02.21.09.49.16.64.35,0,1.12-.23,1.45-.3.52-.12,1-.22,1.5-.34l-.09-.64-1.5.32c-.37.09-1.16.31-1.52.32"/>
      <path class="cls-7" d="M74.02,83.75c.03.31.08.26.08.64l3.03-.24v-.64c-.36,0-.5.03-.74.06-.29.04-.56,0-.84.03l-1.53.15Z"/>
      <path class="cls-7" d="M78.89,83.59l.08.48c.35,0,.33-.07.72-.08l2.32-.08v-.64l-2.48.08c-.34,0-.63-.08-.63.24"/>
      <path class="cls-7" d="M117.6,86.23c.42.04,1.01.19,1.47.29.47.09,1.1.27,1.56.27l.08-.64c-.61-.01-2.24-.5-2.95-.56-.08.16-.11.44-.16.64"/>
      <path class="cls-7" d="M31.64,94.21c.07.3.17.33.24.64.39-.2.91-.4,1.35-.57.41-.17.99-.44,1.45-.55,0-.42-.08-.3-.16-.64-.46.11-1.03.38-1.45.55l-1.43.57Z"/>
      <path class="cls-7" d="M140.98,92.69l2.87,1.04c.12-.22.17-.36.24-.64-.38-.03-1.06-.36-1.43-.49-.37-.13-1.08-.46-1.53-.47-.03.34-.09.26-.16.56"/>
      <path class="cls-7" d="M59.57,85.59c0,.4.07.36.08.72.17-.08,2.69-.53,3.03-.56l-.09-.64c-.75.01-2.21.48-3.02.48"/>
      <path class="cls-7" d="M27.17,96.2c.1.19.18.33.24.56l2.79-1.2c-.02-.3-.13-.42-.24-.64-.42.22-.91.41-1.38.62-.49.21-.97.43-1.41.66"/>
      <path class="cls-7" d="M98.36,83.91l2.24.16c.4,0,.4.08.8.08.03-.31.08-.26.08-.64-.42-.04-1.1-.12-1.52-.16-.26-.02-.52.01-.78-.02-.28-.03-.41-.07-.81-.07v.64Z"/>
      <path class="cls-7" d="M103.23,83.99c0,.44-.45.23,1.26.41.57.06,1.1.15,1.77.15,0-.91.41-.53-1.25-.74-.51-.07-1.16-.14-1.78-.14v.32Z"/>
      <rect class="cls-10" x="88.62" y="83.03" width="3.11" height=".64"/>
      <path class="cls-7" d="M1.39,109.85c.06.21.14.29.24.48.3-.07.4-.2.69-.35.42-.21,1.7-1.02,2.02-1.09-.1-.19-.18-.33-.24-.56-.35.03-.49.18-.72.32l-1.33.75c-.33.18-.46.15-.66.45"/>
      <path class="cls-7" d="M154.39,98.36l2.78,1.39c.07-.26.15-.4.25-.59l-2.78-1.39c-.11.22-.15.39-.25.59"/>
      <path class="cls-7" d="M150,96.28l2.79,1.28c.11-.22.21-.34.24-.64-.55-.13-.9-.39-1.38-.61l-1.41-.58c-.1.2-.15.37-.24.56"/>
      <path class="cls-7" d="M136.43,91.17c.75.17,2.47.84,2.87.88.08-.17.14-.31.16-.56l-2.87-.96c-.09.2-.15.35-.16.64"/>
      <path class="cls-7" d="M158.22,92.21h.64l.08-3.03c-.49,0-.56-.23-.64.16-.04.18,0,.74,0,.96l-.08,1.91Z"/>
      <path class="cls-7" d="M32.6,23.73l.42.38,2.22-2.06c-.07-.26-.2-.35-.4-.48l-2.23,2.15Z"/>
      <path class="cls-7" d="M88.3,4.17h.72l.1-1.87h.78c0,1.29-.16,2.84-.16,4.17l-.08,6.14c0,1.32.08,2.47.08,3.78h.64V7.01c0-1.49.16-3.19.16-4.71h1.12v-.39h-3.11c0,.4-.16.86-.16,1.67,0,.28-.08.34-.08.59"/>
      <path class="cls-7" d="M88.27,7.82v.32h.72v-3.11h-.64c0,1.03-.08,1.76-.08,2.79"/>
      <path class="cls-7" d="M88.27,9.31l.08,2.87h.64v-3.11c-.51,0-.72-.07-.72.24"/>
      <path class="cls-7" d="M88.35,15.79c0,.31.2.24.72.24l-.08-3.11h-.64v2.87Z"/>
      <path class="cls-7" d="M89.98,17.46c-.36,0-.36-.3-.72-.4l-.42.38c.57.82,1.55.92,2.17.1.23-.3.42-.55.64-.88-.21-.14-.34-.29-.64-.32-.07.26-.64,1.12-1.04,1.12"/>
      <path class="cls-7" d="M83.67,2.39l.08.48c.97-.08,1.97-.24,3.03-.24v-.64c-.66,0-1.13.07-1.68.08-.4,0-.5.05-.81.07-.32.02-.63-.09-.63.25"/>
      <path class="cls-7" d="M163.26,100.31c0,.97-.09,1.05.42,1.05.37,0,.32-.26.32-.62,0-.35,0-.71,0-1.06-.25-.06-.31-.1-.63-.1-.03.33-.1.37-.1.73"/>
      <rect class="cls-10" x="13.02" y="84.07" width=".73" height="1.68"/>
      <path class="cls-7" d="M163.57,85.64h.42c.24,0,.31-.07.31-.31v-1.36h-.73v1.68Z"/>
      <path class="cls-7" d="M13.02,83.13h.73v-1.36c0-.24-.07-.31-.31-.31h-.42v1.68Z"/>
      <path class="cls-7" d="M163.57,83.02h.42c.24,0,.31-.07.31-.31v-1.36h-.73v1.68Z"/>
      <path class="cls-7" d="M13.02,88.05h0c0,.24.08.31.31.31h.42v-1.68h-.73v1.36Z"/>
      <path class="cls-7" d="M13.23,98.74h.73v-1.36c0-.24-.07-.31-.31-.31h-.42v1.68Z"/>
      <path class="cls-7" d="M163.47,74.85c0,.24.07.31.31.31h.42v-1.68h-.73v1.36Z"/>
      <path class="cls-7" d="M13.23,68.77v1.36c.9,0,.73.19.73-1.68-.51,0-.73-.07-.73.31"/>
      <path class="cls-7" d="M13.02,79.14v1.36h.73c0-1.54.15-1.68-.42-1.68-.24,0-.31.07-.31.3h0Z"/>
      <path class="cls-7" d="M163.47,93.5h.63c.05-.24.1-.24.1-.52v-1.15h-.73v1.68Z"/>
      <path class="cls-7" d="M74.42,4.24c.4-.03.34-.1.84-.1.98-.01.91.03.73-.73-2.2,0-1.58.34-1.57.84"/>
      <path class="cls-7" d="M110.77,5.07c.63,0,1.04.21,1.68.21,0-.32.05-.38.1-.63-1.88-.44-1.78-.36-1.78.42"/>
      <path class="cls-7" d="M16.69,44.36c.21.1.37.15.63.21l.51-1.58c-.22-.11-.4-.18-.72-.21-.05.6-.37.97-.42,1.57"/>
      <path class="cls-7" d="M109.83,4.86c.06-.25.1-.31.1-.63-.51-.01-1.17-.2-1.68-.21-.01.53-.67.84,1.57.84"/>
      <path class="cls-7" d="M66.56,4.34l.12.63c2.25.02,1.59-.37,1.56-.83-.59,0-1.12.2-1.68.21"/>
      <path class="cls-7" d="M133.09,11.99l1.47.73.32-.63-1.56-.77c-.09.36-.15.34-.23.67"/>
      <path class="cls-7" d="M162.95,61.75v.31h.73c-.16-1.9.01-1.68-.84-1.68,0,.6.1.72.1,1.36"/>
      <path class="cls-7" d="M14.8,52.01c.69.02.63.39.75-.39.06-.36.18-.78.19-1.18l-.63-.12c-.1.45-.31,1.23-.32,1.69"/>
      <path class="cls-7" d="M13.34,77.99h.42v-1.68c-.32,0-.38-.05-.63-.1,0,.49-.03.64-.08.97,0,.05-.02.1-.02.15v.45c.04.13.13.21.31.21"/>
      <path class="cls-7" d="M87.31,2.89v.61s1.67,0,1.67,0l.12-.62c-.42-.01-.52-.14-.75-.11l-1.05.12Z"/>
      <path class="cls-7" d="M80.49,3.08h-.94v.73l1.68-.1v-.73c-.33.03-.37.1-.73.1"/>
      <path class="cls-7" d="M163.37,97.27v1.47h.63c0-.73.1-1,.1-1.68-.33-.03-.73-.28-.73.21"/>
      <path class="cls-7" d="M162.63,57.98c0,.48.03.74.1,1.16.1.66.1.32.74.3l-.21-1.68c-.22,0-.63-.05-.63.21"/>
      <path class="cls-7" d="M13.13,92.14c0,1.66-.11,1.56.73,1.36l-.1-1.68c-.36,0-.63-.06-.63.31"/>
      <path class="cls-7" d="M14.7,54.63h.42c0-.64.16-1.12.21-1.68h-.73c0,.43-.05.6-.1.95-.07.43-.22.72.21.72"/>
      <path class="cls-7" d="M162.32,55.27c0,.39.12,1.31.21,1.66.32,0,.38-.05.63-.1,0-.5-.11-1.26-.21-1.68l-.62.12Z"/>
      <path class="cls-7" d="M115.9,6.02c.52,0,1.21.21,1.68.31,0-.32.05-.38.1-.63-.37-.18-1.21-.31-1.68-.42-.03.41-.09.27-.1.73"/>
      <path class="cls-7" d="M76.93,3.29v.42c0,.48.3.21.63.21h1.05v-.73c-.67,0-.94.1-1.68.1"/>
      <path class="cls-7" d="M72.11,3.71h-.31v.73c.46-.01.42-.09.95-.1.76-.01.73.08.73-.74-.6,0-.72.1-1.36.1"/>
      <path class="cls-7" d="M155.3,33.05c.13.57.5.9.63,1.47,1.02-.09.61-.44-.1-1.78-.23.12-.32.17-.52.31"/>
      <path class="cls-7" d="M15.96,46.88c.25.06.42.11.63.21.12-.53.37-1.15.42-1.68-.25-.06-.31-.1-.63-.1-.12.53-.37.98-.42,1.57"/>
      <path class="cls-7" d="M120.93,7.17c.29.07.54.13.83.22.28.09.44.19.85.2.06-.25.1-.31.1-.63-.47-.11-1.1-.38-1.57-.42-.12.25-.09.38-.21.63"/>
      <path class="cls-7" d="M100.4,3.61v.42c.73,0,1,.1,1.68.1,0-.9,0-.72-.84-.74-.52-.01-.84-.25-.84.21"/>
      <path class="cls-7" d="M13.34,66.78v.73c.32,0,.38.05.63.1.13-1.51.4-1.78-.52-1.78-.01.47-.1.42-.1.94"/>
      <path class="cls-7" d="M92.54,3.29c0,.47.54.31,1.68.31,0-.83-.04-.33.1-.63l-1.78-.1v.42Z"/>
      <path class="cls-7" d="M152.57,28.54c.11.46.6,1.01.84,1.47.27-.07.38-.18.63-.31-1.25-1.87-.68-1.39-1.47-1.15"/>
      <path class="cls-7" d="M161.48,50.12l.27,1.5c.22.39-.21.07.67.07,0-.21-.15-1.68-.42-1.68-.17,0-.4.06-.52.1"/>
      <path class="cls-7" d="M97.78,3.4v.42c.73,0,1,.1,1.68.1,0-.87.01-.73-.84-.74-.46,0-.84-.23-.84.21"/>
      <path class="cls-7" d="M159.38,42.58c.03.38.1.39.21.73.09.29.18.52.21.84.46-.01.33-.07.73-.1l-.54-1.67c-.19.09-.36.15-.61.2"/>
      <path class="cls-7" d="M13.76,65c.51,0,.43-.18.42-.73,0-.53,0-.54.1-.95-.66-.01-.71-.34-.74.52-.02.65-.31,1.16.21,1.16"/>
      <path class="cls-7" d="M163.26,66.05v1.26h.73l-.1-1.68c-.99,0-.63.03-.63.42"/>
      <path class="cls-7" d="M103.02,3.82v.42l1.67.13v-.65c-.41-.1-.42-.09-.95-.11-.5-.02-.73-.19-.73.21"/>
      <path class="cls-7" d="M125.96,8.84c.55.13,1.07.48,1.57.52l.12-.63c-.34-.16-1.17-.49-1.59-.53-.06.25-.1.31-.1.63"/>
      <path class="cls-7" d="M51.37,8.11c.09.18.11.52.31.52.42,0,.88-.37,1.47-.42-.03-.32-.1-.5-.21-.73-.5.24-1.09.38-1.57.63"/>
      <path class="cls-7" d="M56.4,6.43c0,.32.05.38.1.63.6-.01,1-.27,1.57-.31,0-.97.22-.76-1.68-.31"/>
      <path class="cls-7" d="M130.67,10.83c.52.12.99.49,1.58.63.13-.25.18-.27.21-.63l-1.47-.63-.32.63Z"/>
      <path class="cls-7" d="M128.37,9.79l1.47.63.32-.63c-.52-.12-.99-.49-1.58-.63-.13.25-.18.27-.21.63"/>
      <path class="cls-7" d="M158.44,40.17c.25.48.39,1.08.63,1.57.21-.1.37-.15.63-.21-.11-.24-.17-.48-.28-.76-.13-.31-.21-.43-.24-.81-.31.03-.51.1-.73.21"/>
      <path class="cls-7" d="M13.84,59.76h.65c.03-.35.08-.48.11-.94.03-.45.23-.73-.22-.73h-.42l-.13,1.67Z"/>
      <path class="cls-7" d="M13.13,72.75h.73v-1.68h-.63c0,.67-.1.94-.1,1.68"/>
      <path class="cls-7" d="M160.85,47.61c.1.21.17.53.23.82.19.87.04.83.82.65-.03-.39-.29-1.4-.42-1.68-.25.12-.38.09-.63.21"/>
      <path class="cls-7" d="M123.45,7.9l1.57.54c.14-.26.19-.29.22-.65l-1.57-.52c-.1.21-.15.37-.21.63"/>
      <path class="cls-7" d="M163.26,103.35c0,.33-.27.63.21.63h.42v-1.78h-.63v1.15Z"/>
      <path class="cls-7" d="M135.39,13.04c.18.26,1.24.84,1.26.84.34,0,.4-.3.52-.52-1.7-.9-1.48-.91-1.78-.31"/>
      <path class="cls-7" d="M160.22,45.2c0,.17.35,1.33.42,1.47l.63-.12c-.05-.57-.36-1-.42-1.66-.19.05-.63.11-.63.31"/>
      <path class="cls-7" d="M41.94,12.3c.11,1.31.87.19,1.68,0-.03-.36-.08-.38-.21-.63-.57.13-.9.5-1.47.63"/>
      <path class="cls-7" d="M95.16,3.61c.74.17.79.1,1.68.1,0-.83-.04-.33.1-.63l-1.78-.1v.63Z"/>
      <path class="cls-7" d="M58.91,5.81c0,.32.05.38.1.63.62-.01,1.11-.27,1.68-.31-.06-.25-.1-.31-.1-.63-.71,0-1.05.26-1.68.31"/>
      <path class="cls-7" d="M118.42,6.54c.62.05.97.31,1.68.31.06-.25.1-.31.1-.63-.56-.05-1.05-.3-1.68-.31,0,.32-.05.38-.1.63"/>
      <path class="cls-7" d="M21.72,32.42c.33.08.3.13.63.21.07-.25.21-.44.35-.7.17-.31.3-.41.38-.77-.75-.4-.57-.22-.99.48-.19.32-.28.39-.38.78"/>
      <path class="cls-7" d="M18.37,39.44c.23.11.41.18.73.21.04-.5.4-1.02.52-1.57-.25-.06-.42-.11-.63-.21-.08.35-.47,1.26-.63,1.57"/>
      <path class="cls-7" d="M17.53,41.95l.62.12c.14-.59.39-.99.53-1.59-.36-.03-.38-.08-.63-.21-.12.53-.47,1.07-.52,1.68"/>
      <path class="cls-7" d="M163.16,64.69h.63v-1.36c0-.24-.07-.31-.31-.31h-.42c0,.73.1,1,.1,1.68"/>
      <path class="cls-7" d="M61.43,5.28c.06.25.1.31.1.63l1.68-.31-.12-.63c-.34,0-1.42.2-1.66.31"/>
      <path class="cls-7" d="M39.63,13.77c.17.25.13.11.21.42.43-.04,1.03-.45,1.57-.73-.39-.74-.33-.6-1.12-.17-.29.15-.5.26-.66.49"/>
      <path class="cls-7" d="M137.7,14.5c.51.14.9.69,1.47.73.08-.31.04-.17.21-.42-.22-.33-1.11-.86-1.47-.94-.13.24-.18.27-.21.63"/>
      <path class="cls-7" d="M156.45,35.35c.12.52.51,1.05.63,1.57.25-.13.27-.18.63-.21-.16-.69-.5-1-.63-1.57-.32.03-.42.09-.63.21"/>
      <path class="cls-7" d="M143.96,18.88c.23.34.3.35.61.59.3.23.38.39.67.58l.4-.44c-.2-.32-.92-.92-1.23-1.13l-.44.4Z"/>
      <path class="cls-7" d="M162.42,54.31c.77,0,.23-.56.21-1.68h-.63c0,.66-.01,1.68.42,1.68"/>
      <path class="cls-7" d="M149.45,24.47l.92,1.24c.32-.07.4-.16.63-.31-.32-.47-.73-.89-1.05-1.36l-.51.44Z"/>
      <path class="cls-7" d="M15.33,49.39c.25.12.38.09.63.21.11-.46.24-1.31.42-1.68-.41-.03-.27-.09-.73-.1-.05.55-.27,1.05-.31,1.57"/>
      <path class="cls-7" d="M139.9,15.65c0,.3.09.22.58.57.29.21.42.38.78.48.14-.21.19-.29.31-.52-.46-.31-.89-.63-1.36-.94-.08.12-.31.35-.31.42"/>
      <path class="cls-7" d="M14.07,57.14c.46.01.33.07.73.1,0-.67.1-.94.1-1.68-.25-.06-.31-.1-.63-.1,0,.41-.13,1.33-.21,1.68"/>
      <path class="cls-7" d="M69.18,4.03v.63l1.67-.13v-.71c-.46.04-1.21.17-1.67.21"/>
      <path class="cls-7" d="M145.87,20.58l1.23,1.28.42-.47c-.09-.15-.97-1.13-1.13-1.13-.24,0-.32.17-.52.31"/>
      <path class="cls-7" d="M141.97,17.2c.27.39.95.97,1.39,1.07.14-.21.19-.29.31-.52-.51-.27-.81-.64-1.26-.94l-.44.4Z"/>
      <path class="cls-7" d="M23.08,30.11c.21.14.29.19.52.31.26-.5.57-.86.84-1.36-.16-.22-.3-.27-.52-.42-.24.45-.73,1-.84,1.47"/>
      <path class="cls-7" d="M46.55,10.1c.11.22.15.25.21.52.45-.04,1.23-.45,1.57-.63-.08-.33-.13-.3-.21-.63-.51.27-1.06.46-1.57.73"/>
      <path class="cls-7" d="M48.96,9.05c.09.19.12.34.21.52.63-.05,1.01-.39,1.57-.52-.06-.25-.11-.42-.21-.63-.35.08-1.26.47-1.57.63"/>
      <path class="cls-7" d="M53.88,7.17l.12.62c.4,0,1.09-.28,1.66-.42-.12-.25-.09-.38-.21-.63l-1.57.42Z"/>
      <path class="cls-7" d="M33.24,18.06c.07.32.16.4.31.63.22-.12,1.26-.89,1.26-1.05,0-.25-.17-.31-.31-.52-.52.35-.88.84-1.26.94"/>
      <path class="cls-7" d="M27.69,23.72l.4.44c.12-.09,1.07-1.13,1.07-1.18,0-.25-.17-.31-.31-.52-.48.32-.83.78-1.15,1.26"/>
      <path class="cls-7" d="M19.41,37.03c.75.4.59.22.91-.45.15-.32.27-.45.35-.8-.75-.4-.59-.22-.91.45-.15.32-.27.45-.35.8"/>
      <path class="cls-7" d="M13.44,103.45v.52h.63v-1.68h-.73c0,.53.1.57.1,1.15"/>
      <path class="cls-7" d="M163.37,69.92h.73c0-.53-.1-.57-.1-1.15v-.52h-.63v1.68Z"/>
      <path class="cls-7" d="M157.5,37.76c.22.46.39,1.02.63,1.47l.63-.12c-.06-.24-.53-1.56-.73-1.56-.16,0-.41.14-.52.21"/>
      <path class="cls-7" d="M24.44,27.91c.23.12.32.18.52.31.28-.21.72-.93.94-1.26l-.4-.44c-.36.25-.82,1.01-1.07,1.39"/>
      <path class="cls-7" d="M151.08,26.53c.19.33.72,1.1.97,1.28.23-.12.32-.18.52-.31-.2-.3-.8-1.18-1.05-1.36l-.44.4Z"/>
      <path class="cls-7" d="M82.59,2.98h-.42v.63h1.68c0-1.13-.13-.63-1.26-.63"/>
      <path class="cls-7" d="M153.94,30.74c.23.44.59,1.23.94,1.47.72-.38.47-.2-.31-1.68-.32.08-.3.13-.63.21"/>
      <path class="cls-7" d="M37.43,15.13c.17.25.13.11.21.42.56-.05.83-.56,1.47-.73-.08-.33-.13-.3-.21-.63-.44.1-1.25.62-1.47.94"/>
      <path class="cls-7" d="M147.73,22.55c.18.25.31.37.52.57.25.24.35.26.44.6.27-.07.38-.18.63-.31-.26-.5-.7-.95-1.15-1.26l-.44.4Z"/>
      <path class="cls-7" d="M20.57,34.72c.28.06.31.1.52.21l.74-1.47c-.23-.15-.31-.24-.63-.32-.14.59-.58.96-.63,1.57"/>
      <path class="cls-7" d="M113.39,5.49c1.35.03,1.68.81,1.68-.42-.62-.01-.9-.21-1.68-.21v.63Z"/>
      <path class="cls-7" d="M31.25,19.95l.4.44c.44-.3,1-.76,1.28-1.18l-.44-.4-1.23,1.13Z"/>
      <polygon class="cls-7" points="29.34 21.81 29.81 22.23 31.07 21.02 30.6 20.6 29.34 21.81"/>
      <path class="cls-7" d="M64.04,4.76v.63c.69,0,1.08-.2,1.68-.21v-.63c-.74,0-1.08.16-1.68.21"/>
      <path class="cls-7" d="M163.47,95.28c0,.44-.32.84.21.84h.42v-1.68h-.63v.84Z"/>
      <path class="cls-7" d="M13.34,101.36h.42c.53,0,.21-.4.21-.84v-.84h-.63v1.68Z"/>
      <path class="cls-7" d="M163.57,90.04c0,.44-.32.84.21.84h.42v-1.68h-.63v.84Z"/>
      <path class="cls-7" d="M35.23,16.49c.12.23.17.32.31.52.41-.09,1.17-.65,1.36-.94-.45-.85-.32-.3-1.68.42"/>
      <path class="cls-7" d="M44.24,11.15c.08.33.13.3.21.63.57-.13.9-.5,1.47-.63l-.12-.62c-.6.05-.96.49-1.56.62"/>
      <path class="cls-7" d="M163.57,80.4h.42c.48,0,.21-.3.21-.63v-1.05h-.63v1.68Z"/>
      <path class="cls-7" d="M84.79,3.61c.23-.05.24-.11.52-.11h1.15v-.63h-1.68v.73Z"/>
      <path class="cls-7" d="M13.13,75.37h.63v-1.15c0-.28.05-.29.1-.52h-.73v1.68Z"/>
      <path class="cls-7" d="M13.65,62.07v.31h.63l.1-1.68h-.63c0,.6-.1.72-.1,1.36"/>
      <path class="cls-7" d="M13.23,94.86v1.26h.63v-1.68h-.42c-.44,0-.21.16-.21.42"/>
      <rect class="cls-10" x="163.57" y="86.58" width=".63" height="1.68"/>
      <polygon class="cls-7" points="105.64 4.44 107.31 4.55 107.31 3.92 105.64 3.82 105.64 4.44"/>
      <rect class="cls-10" x="13.13" y="89.31" width=".63" height="1.68"/>
      <rect class="cls-10" x="163.47" y="70.87" width=".63" height="1.68"/>
      <rect class="cls-10" x="89.92" y="2.87" width="1.68" height=".63"/>
      <rect class="cls-10" x="163.57" y="76.11" width=".63" height="1.68"/>
      <path class="cls-7" d="M26.01,25.82c.23.15.31.24.63.31.09-.35-.01-.07.18-.35.28-.42.39-.39.66-.91l-.4-.44-1.07,1.39Z"/>
      <path class="cls-7" d="M163.16,105.76h.63c.04-.43.1-.23.1-.63,0-.24-.07-.31-.31-.31h-.42v.94Z"/>
      <path class="cls-7" d="M13.44,105.13v.63h.4c.35-.01.33-.09.33-.63,0-.45-.73-.45-.73,0"/>
      <path class="cls-5" d="M87.12.07h4.01c2.23,0,4.06,1.37,4.06,3.05h0c0,.05,0,.1,0,.15-2.01-.04-4.03-.07-6.06-.07s-4.05.02-6.06.07c0-.05,0-.1,0-.15h0c0-1.68,1.83-3.05,4.06-3.05Z"/>
      <path class="cls-9" d="M87.12.07h4.01c2.23,0,4.06,1.37,4.06,3.05h0c0,.05,0,.1,0,.15-2.01-.04-4.03-.07-6.06-.07s-4.05.02-6.06.07c0-.05,0-.1,0-.15h0c0-1.68,1.83-3.05,4.06-3.05"/>
    </g>
  </g>
</svg>