<svg id="Camada_2" data-name="Camada 2" xmlns="http://www.w3.org/2000/svg" viewBox="0 0 186.32 111.11">
  <defs>
    <style>
      .cls-1 {
        opacity: .97;
      }

      .cls-2 {
        stroke: #a6a8ab;
        stroke-width: .13px;
      }

      .cls-2, .cls-3 {
        stroke-linecap: round;
        stroke-linejoin: round;
      }

      .cls-2, .cls-3, .cls-4, .cls-5, .cls-6 {
        fill: none;
      }

      .cls-3 {
        stroke: #b2b2b2;
        stroke-width: .14px;
      }

      .cls-7, .cls-8, .cls-9 {
        fill-rule: evenodd;
      }

      .cls-7, .cls-10 {
        fill: #d1d1d1;
      }

      .cls-4 {
        stroke: #1a1a1a;
        stroke-width: .51px;
      }

      .cls-4, .cls-5, .cls-6 {
        stroke-miterlimit: 22.93;
      }

      .cls-5 {
        stroke: #58595b;
        stroke-width: .22px;
      }

      .cls-6 {
        stroke: #000;
        stroke-width: .23px;
      }

      .cls-9 {
        fill: #eaeaea;
        stroke: #fff;
        stroke-miterlimit: 10;
        stroke-width: .25px;
      }
    
    [data-part="copaFrente"]{fill:var(--c-copa-frente,#d7dade) !important}
    [data-part="copaLadosTras"]{fill:var(--c-copa-lados,#c9ccd1) !important}
    [data-part="abaCima"]{fill:var(--c-aba-cima,#c7cace) !important}
    [data-part="abaBaixo"]{fill:var(--c-aba-baixo,#b7bac0) !important}
    [data-part="botao"]{fill:var(--c-botao,#d7dade) !important}
  </style>
  </defs>
  <g id="_1.0_Americano" data-name="1.0 Americano">
    <g>
      <path class="cls-9" d="M67.18,3.21c-2.63-.07-7.82-.09-15.28,1.12-7.46,1.2-17.18,3.63-24.39,6.57-7.21,2.94-11.91,6.4-15.36,10.59-3.45,4.19-6.63,9.01-7.19,13.37l-2.83,22.11c-.05.4,10.28-1.84,10.58,12.06.14,6.62.53,8.05.3,11.22l-.45,5.99c-.18,2.4,15.56,2.21,27.49,3.24,11.93,1.02,24.7.77,33.76.72,9.06-.04,14.48-.45,18.55-.79-.8-.62-.72-.67-.66-.69.07-.03.33-.07,2.18-.41,1.85-.34,2.63-.27,6.08-1.06-.02-.75-.04-1.38-.1-2.91-.62-15.9-.81-46.59-4.72-57.03-4.12-11.02-12.33-20.07-25.1-23.79-.78-.23-1.98-.29-2.88-.31Z" data-part="copaLadosTras"></path>
      <path class="cls-6" d="M67.12,3.17c-2.63-.07-7.82-.09-15.28,1.12-7.46,1.2-17.18,3.63-24.39,6.57-7.21,2.94-11.91,6.4-15.36,10.59-3.45,4.19-6.63,9.01-7.19,13.37l-2.83,22.11c-.05.4,10.28-1.84,10.58,12.06.14,6.62.53,8.05.3,11.22l-.45,5.99c-.18,2.4,15.56,2.21,27.49,3.24,11.93,1.02,24.7.77,33.76.72,9.06-.04,14.48-.45,18.55-.79-.8-.62-.72-.67-.66-.69.07-.03.33-.07,2.18-.41,1.85-.34,2.63-.27,6.08-1.06-.02-.75-.04-1.38-.1-2.91-.62-15.9-.81-46.59-4.72-57.03-4.12-11.02-12.33-20.07-25.1-23.79-.78-.23-1.98-.29-2.88-.31Z"></path>
      <path class="cls-9" d="M98.37,87.54v.43c.91-.21,0,.04,2.8-.67,2.8-.71,13.32-4.11,17.7-5.64,4.38-1.53,7.91-3,10.67-4.41,2.75-1.41,4.72-2.76,6.05-3.96,1.33-1.2,2.01-2.26,2.35-2.79.16-.25.24-.38,1.15-.23-.35-4.31-.95-11.45-2.14-18.66-1.19-7.21-2.6-11.46-4.26-17.52-1.67-6.06-3.37-11.29-4.13-13.9-.97-3.35-2.17-4.63-5.02-6.89-1.56-1.23-3.41-2.18-6.12-3.14-10.68-3.8-35.67-8.3-46.48-7.06-1.11.13-1.54.18-1.7.23h.01s0,0,0,0h0s.01,0,.01,0h.01s.01,0,.01,0h.01s.01,0,.01,0h.01s.03,0,.03,0h.01s.01,0,.01,0h0s.01,0,.01,0h.01s.01,0,.01,0h0s0,0,0,0h.01s.01,0,.01,0h.01s0,0,0,0h.01s.01,0,.01,0h.02s0,0,0,0h.01s.02,0,.02,0h0s.01,0,.01,0h.01s.01,0,.01,0h0s0,0,0,0h.01s.01,0,.01,0h0s0,0,0,0h.01s.01,0,.01,0h.01s0,0,0,0h0s.01,0,.01,0h.01s.02,0,.02,0h.01s.01,0,.01,0h0s0,0,0,0h.01s.01,0,.01,0h0s0,0,0,0h.01s.01,0,.01,0h.01s0,0,0,0h.01s.01,0,.01,0h.01s0,0,0,0h0s.01,0,.01,0h.01s.01,0,.01,0h0s0,0,0,0h.01s.01,0,.01,0h0s0,0,0,0h.01s.01,0,.01,0h.01c12.77,3.72,20.98,12.78,25.1,23.8,3.9,10.44,4.1,41.13,4.72,57.03.06,1.53.08,2.16.1,2.91-.58.13-1.08.24-1.53.33Z" data-part="copaFrente"></path>
      <path class="cls-5" d="M98.37,87.54v.43c.91-.21,0,.04,2.8-.67,2.8-.71,13.32-4.11,17.7-5.64,4.38-1.53,7.91-3,10.67-4.41,2.75-1.41,4.72-2.76,6.05-3.96,1.33-1.2,2.01-2.26,2.35-2.79.16-.25.24-.38,1.15-.23-.35-4.31-.95-11.45-2.14-18.66-1.19-7.21-2.6-11.46-4.26-17.52-1.67-6.06-3.37-11.29-4.13-13.9-.97-3.35-2.17-4.63-5.02-6.89-1.56-1.23-3.41-2.18-6.12-3.14-10.68-3.8-35.67-8.3-46.48-7.06-1.11.13-1.54.18-1.7.23h.01s0,0,0,0h0s.01,0,.01,0h.01s.01,0,.01,0h.01s.01,0,.01,0h.01s.03,0,.03,0h.01s.01,0,.01,0h0s.01,0,.01,0h.01s.01,0,.01,0h0s0,0,0,0h.01s.01,0,.01,0h.01s0,0,0,0h.01s.01,0,.01,0h.02s0,0,0,0h.01s.02,0,.02,0h0s.01,0,.01,0h.01s.01,0,.01,0h0s0,0,0,0h.01s.01,0,.01,0h0s0,0,0,0h.01s.01,0,.01,0h.01s0,0,0,0h0s.01,0,.01,0h.01s.02,0,.02,0h.01s.01,0,.01,0h0s0,0,0,0h.01s.01,0,.01,0h0s0,0,0,0h.01s.01,0,.01,0h.01s0,0,0,0h.01s.01,0,.01,0h.01s0,0,0,0h0s.01,0,.01,0h.01s.01,0,.01,0h0s0,0,0,0h.01s.01,0,.01,0h0s0,0,0,0h.01s.01,0,.01,0h.01c12.77,3.72,20.98,12.78,25.1,23.8,3.9,10.44,4.1,41.13,4.72,57.03.06,1.53.08,2.16.1,2.91-.58.13-1.08.24-1.53.33Z"></path>
      <path class="cls-9" d="M92.64,89.36c1.16.87,3.57,2.55,7.56,4.72,18.32,9.8,44.48,21.18,65.7,15.01,8.51-2.47,19.14-12.43,20.11-21.61.16-1.85-.06-3.07-.18-3.88-.13-.81-.16-1.22-.18-1.43q-.02-.21-7.82-2.29c-7.8-2.08-23.4-6.25-31.2-8.34q-7.8-2.08-8.14-1.55c-.35.54-1.03,1.61-2.38,2.83-1.34,1.22-3.33,2.58-6.12,4.01-2.79,1.43-6.37,2.91-10.79,4.46-4.43,1.55-9.7,3.16-14.41,4.35-4.71,1.19-8.85,1.96-10.94,2.35-2.09.39-2.14.39-2.21.41-.07.03-.17.08.99.95Z" data-part="abaCima"></path>
      <path class="cls-4" d="M92.64,89.36c1.16.87,3.57,2.55,7.56,4.72,18.32,9.8,44.48,21.18,65.7,15.01,8.51-2.47,19.14-12.43,20.11-21.61.16-1.85-.06-3.07-.18-3.88-.13-.81-.16-1.22-.18-1.43q-.02-.21-7.82-2.29c-7.8-2.08-23.4-6.25-31.2-8.34q-7.8-2.08-8.14-1.55c-.35.54-1.03,1.61-2.38,2.83-1.34,1.22-3.33,2.58-6.12,4.01-2.79,1.43-6.37,2.91-10.79,4.46-4.43,1.55-9.7,3.16-14.41,4.35-4.71,1.19-8.85,1.96-10.94,2.35-2.09.39-2.14.39-2.21.41-.07.03-.17.08.99.95Z"></path>
      <path class="cls-10" d="M153.59,103.43c-.93,0-1.91-.04-2.91-.1l.03-.58c.99.06,1.96.09,2.88.1v.58ZM155.34,103.41l-.02-.58c.99-.03,1.95-.1,2.87-.19l.06.58c-.93.1-1.91.17-2.91.2ZM148.94,103.2c-.48-.04-.96-.09-1.45-.14-.48-.05-.96-.1-1.44-.16l.07-.58c.48.06.96.11,1.43.16.48.05.96.09,1.44.13l-.05.58ZM160,102.97l-.09-.57c.93-.15,1.83-.34,2.68-.57l.12-.03.16.56-.13.03c-.87.24-1.79.43-2.73.59ZM144.32,102.68c-.95-.13-1.91-.28-2.87-.45l.1-.57c.95.16,1.91.31,2.85.44l-.08.57ZM139.73,101.92c-.95-.18-1.9-.38-2.85-.59l.13-.57c.94.21,1.88.4,2.83.58l-.11.57ZM164.53,101.83l-.19-.55c.9-.32,1.79-.69,2.64-1.11l.25.52c-.87.43-1.78.81-2.7,1.13ZM135.18,100.94c-.96-.23-1.91-.48-2.81-.73l.16-.56c.92.26,1.85.5,2.79.73l-.14.56ZM168.79,99.87l-.29-.5c.82-.48,1.63-1,2.39-1.57l.35.47c-.78.58-1.6,1.12-2.45,1.61ZM130.7,99.72l-.22-.07c-.86-.26-1.71-.54-2.54-.83l.19-.55c.83.28,1.67.56,2.52.82l.22.07-.17.56ZM126.29,98.24c-.9-.33-1.81-.69-2.71-1.06l.22-.54c.89.37,1.79.72,2.69,1.05l-.2.54ZM172.61,97.16l-.38-.44c.45-.39.89-.8,1.31-1.22.25-.26.5-.52.73-.78l.43.39c-.24.27-.49.54-.75.8-.43.43-.88.85-1.34,1.25ZM121.97,96.5c-.9-.39-1.78-.79-2.64-1.2l.25-.52c.86.41,1.74.81,2.63,1.2l-.23.53ZM117.76,94.53c-.62-.31-1.24-.62-1.85-.94l-.74-.38.27-.51.73.38c.61.31,1.22.63,1.84.93l-.26.52ZM175.83,93.76l-.46-.36c.57-.73,1.12-1.52,1.64-2.35l.49.31c-.53.85-1.09,1.65-1.67,2.4ZM113.64,92.39c-.85-.46-1.7-.93-2.54-1.41l.29-.5c.84.47,1.68.94,2.53,1.4l-.28.51ZM109.59,90.12c-.84-.48-1.67-.97-2.5-1.46l.29-.5c.83.49,1.66.98,2.5,1.46l-.29.5ZM178.39,89.84l-.51-.28c.44-.8.86-1.64,1.29-2.57l.53.24c-.44.95-.87,1.8-1.31,2.6ZM105.59,87.77l-2.49-1.49.3-.5,2.49,1.49-.3.5ZM180.41,85.64l-.54-.22c.37-.89.7-1.74,1.02-2.69l.55.19c-.33.96-.66,1.82-1.03,2.72ZM181.99,81.25l-.55-.18.07-.21.55.17-.07.21Z" data-part="abaCima"></path>
      <path class="cls-10" d="M155.42,100.47v-.58c1.02-.01,1.95-.06,2.86-.16l.06.58c-.92.1-1.88.16-2.92.17ZM153.67,100.45c-.9-.03-1.85-.09-2.91-.18l.05-.58c1.05.09,1.99.15,2.88.18l-.02.58ZM149.03,100.1c-.39-.04-.79-.08-1.19-.13-.56-.06-1.13-.13-1.7-.2l.07-.58c.57.07,1.13.14,1.69.2.4.05.79.09,1.18.13l-.06.58ZM160.09,100.05l-.11-.57c.93-.18,1.86-.42,2.76-.71l.18.55c-.92.31-1.88.55-2.84.73ZM144.42,99.54c-.96-.13-1.92-.27-2.87-.43l.09-.57c.95.15,1.9.29,2.86.43l-.08.58ZM139.82,98.83c-.97-.17-1.93-.36-2.85-.55l.12-.57c.92.19,1.87.38,2.83.55l-.1.57ZM164.58,98.69l-.23-.53c.87-.37,1.73-.81,2.54-1.29l.3.5c-.84.5-1.72.95-2.62,1.33ZM135.27,97.89c-.95-.23-1.9-.47-2.81-.74l.16-.56c.9.26,1.84.51,2.79.73l-.13.56ZM130.78,96.65c-.9-.29-1.8-.6-2.75-.95l.2-.54c.94.35,1.83.66,2.72.94l-.18.55ZM168.67,96.4l-.34-.47c.15-.11.3-.22.45-.33.6-.45,1.19-.95,1.75-1.48l.4.42c-.58.55-1.18,1.06-1.8,1.52-.15.12-.31.23-.46.34ZM126.4,95.07c-.33-.13-.65-.26-.97-.39-.57-.23-1.14-.47-1.71-.72l.23-.53c.57.24,1.14.48,1.7.71.32.13.64.26.97.39l-.21.54ZM172.16,93.28l-.43-.39c.63-.69,1.24-1.43,1.82-2.21l.47.34c-.59.8-1.21,1.56-1.86,2.26ZM122.12,93.27c-.88-.39-1.76-.8-2.63-1.23l.25-.52c.87.42,1.74.83,2.62,1.22l-.24.53ZM117.92,91.27c-.61-.31-1.21-.62-1.81-.94-.25-.14-.51-.27-.76-.41l.28-.51c.25.14.5.27.76.41.59.32,1.19.63,1.8.94l-.26.52ZM175.02,89.57l-.49-.32c.21-.32.4-.63.59-.95.3-.51.59-1.01.85-1.52l.51.27c-.27.52-.56,1.03-.87,1.55-.19.33-.4.65-.61.97ZM113.83,89.06c-.84-.48-1.68-.97-2.51-1.46l.3-.5c.82.49,1.66.98,2.5,1.46l-.29.5ZM109.83,86.7c-.83-.5-1.65-1.01-2.47-1.51l.3-.49c.82.5,1.64,1.01,2.47,1.51l-.3.5ZM177.28,85.48l-.52-.25c.37-.79.74-1.63,1.16-2.64l.54.22c-.42,1.02-.79,1.86-1.17,2.66ZM179.1,81.2l-.54-.21.33-.84.54.21-.33.84Z" data-part="abaCima"></path>
      <path class="cls-10" d="M152.94,97.35c-.8,0-1.64-.02-2.5-.07l.03-.58c.85.04,1.68.06,2.47.06h.4s0,.58,0,.58h-.41ZM155.1,97.3l-.03-.58c.91-.05,1.79-.14,2.61-.25l.21-.03.11.57-.25.04c-.83.12-1.73.21-2.66.26ZM148.69,97.17l-.38-.03c-.85-.07-1.69-.16-2.51-.26l.07-.58c.82.1,1.64.19,2.49.26l.38.03-.05.58ZM159.74,96.68l-.13-.57c.94-.21,1.86-.47,2.75-.79l.19.55c-.91.32-1.86.59-2.82.81ZM144.06,96.64c-.95-.14-1.91-.31-2.86-.5l.11-.57c.94.19,1.9.35,2.84.5l-.09.57ZM139.49,95.78l-.08-.02c-.9-.2-1.83-.43-2.75-.67l.15-.56c.91.24,1.83.46,2.73.67l.07.02-.12.57ZM164.19,95.23l-.23-.53c.51-.22,1.01-.46,1.48-.71.36-.19.71-.39,1.05-.61l.31.49c-.35.22-.71.43-1.08.63-.48.26-1,.5-1.52.73ZM134.98,94.63c-.92-.26-1.86-.55-2.78-.85l.18-.55c.92.3,1.84.58,2.76.84l-.16.56ZM130.55,93.23c-.94-.33-1.84-.66-2.73-1.01l.21-.54c.88.35,1.77.67,2.7,1l-.19.55ZM168.23,92.83l-.37-.45c.71-.58,1.36-1.23,2-2.01l.45.37c-.66.81-1.34,1.49-2.08,2.09ZM126.2,91.57c-.85-.36-1.72-.74-2.66-1.18l.24-.53c.93.43,1.79.81,2.64,1.17l-.23.53ZM121.97,89.65c-.83-.4-1.7-.83-2.6-1.28l.26-.52c.9.45,1.77.88,2.6,1.27l-.25.52ZM171.37,89.33l-.48-.33c.48-.69.98-1.48,1.53-2.43l.5.29c-.56.96-1.07,1.77-1.55,2.47ZM117.81,87.58c-.84-.43-1.7-.87-2.58-1.32l.27-.52c.88.45,1.74.89,2.58,1.32l-.26.52ZM113.68,85.47l-2.57-1.33.27-.51,2.57,1.33-.27.52ZM173.78,85.34l-.51-.28c.45-.82.9-1.67,1.36-2.55l.51.27c-.46.88-.91,1.74-1.37,2.56ZM175.95,81.23l-.52-.26.79-1.56.52.26-.79,1.56Z" data-part="abaCima"></path>
      <path class="cls-10" d="M152.59,94.65c-.77,0-1.6-.03-2.45-.08l.04-.58c.84.05,1.65.08,2.41.08h.46s0,.58,0,.58h-.45s-.01,0-.02,0ZM154.81,94.57l-.04-.58c.73-.05,1.42-.13,2.08-.24.25-.04.51-.09.76-.14l.11.57c-.26.05-.52.1-.78.14-.67.11-1.38.19-2.13.24ZM148.4,94.43c-.97-.09-1.94-.21-2.89-.36l.09-.57c.94.14,1.9.26,2.86.35l-.06.58ZM143.78,93.78c-.94-.17-1.87-.37-2.85-.6l.13-.56c.97.23,1.89.42,2.82.59l-.11.57ZM159.43,93.77l-.16-.56c.92-.27,1.82-.6,2.67-1l.24.53c-.88.4-1.81.75-2.75,1.02ZM139.24,92.76c-.94-.25-1.87-.51-2.8-.78l.16-.56c.92.27,1.85.53,2.78.78l-.15.56ZM163.75,91.94l-.29-.5c.14-.08.28-.16.41-.24.69-.42,1.32-.87,1.93-1.37l.37.45c-.63.52-1.28.98-2,1.42-.14.09-.28.17-.42.25ZM134.78,91.47c-.62-.19-1.24-.38-1.84-.58l-.93-.3.18-.55.93.3c.6.19,1.21.38,1.83.57l-.17.55ZM130.35,90.05c-.96-.33-1.86-.66-2.73-1.01l.22-.54c.86.35,1.75.67,2.7,1l-.19.55ZM167.48,89.08l-.41-.41c.64-.65,1.24-1.36,1.84-2.18l.47.34c-.61.84-1.23,1.57-1.9,2.24ZM126.01,88.36c-.21-.09-.42-.19-.63-.28-.64-.29-1.31-.6-2-.94l.25-.52c.69.34,1.36.65,1.99.94.21.1.42.19.63.28l-.23.53ZM121.81,86.36c-.84-.42-1.7-.86-2.58-1.32l.27-.51c.88.46,1.74.9,2.57,1.32l-.26.52ZM170.37,85.38l-.49-.31c.46-.72.94-1.53,1.48-2.47l.51.29c-.54.95-1.03,1.77-1.5,2.5ZM117.69,84.24l-2.56-1.35.27-.51,2.56,1.35-.27.51ZM172.7,81.36l-.51-.28c.43-.79.85-1.6,1.28-2.41l.51.27c-.43.81-.85,1.62-1.28,2.42Z" data-part="abaCima"></path>
      <path class="cls-10" d="M152.48,91.46c-.91,0-1.86-.06-2.91-.15l.05-.58c1.04.09,1.98.14,2.87.15v.58ZM154.23,91.42l-.03-.58c.58-.03,1.14-.09,1.66-.16.39-.06.78-.12,1.17-.2l.12.57c-.4.08-.8.15-1.2.21-.54.08-1.12.13-1.71.16ZM147.82,91.13l-.23-.03c-.89-.11-1.78-.23-2.65-.37l.09-.57c.85.14,1.74.26,2.63.36l.23.03-.07.58ZM158.86,90.61l-.17-.55c.91-.28,1.8-.62,2.66-1.03l.25.52c-.88.42-1.8.78-2.74,1.07ZM143.22,90.44c-.95-.18-1.91-.38-2.85-.59l.13-.57c.93.22,1.88.41,2.82.59l-.11.57ZM138.68,89.43c-.88-.23-1.83-.49-2.8-.78l.17-.56c.97.29,1.9.55,2.78.78l-.15.56ZM163.15,88.71l-.3-.5c.84-.51,1.59-1.05,2.29-1.68l.38.43c-.73.65-1.51,1.22-2.38,1.74ZM134.21,88.14c-.69-.22-1.36-.43-2.01-.65l-.75-.25.19-.55.75.25c.65.21,1.31.43,2,.65l-.17.55ZM129.8,86.66c-.95-.34-1.84-.68-2.72-1.04l.22-.54c.87.35,1.75.69,2.69,1.03l-.2.55ZM166.79,85.72l-.43-.39c.32-.35.64-.74.95-1.14.27-.36.54-.73.79-1.11l.48.32c-.26.39-.53.77-.82,1.14-.32.42-.65.81-.99,1.18ZM125.48,84.95c-.86-.37-1.74-.78-2.64-1.21l.25-.52c.9.42,1.77.83,2.63,1.2l-.23.53ZM121.26,82.99c-.86-.42-1.73-.85-2.6-1.27l.26-.52c.87.43,1.74.86,2.6,1.27l-.25.52ZM169.53,81.93l-.5-.3c.5-.83.98-1.69,1.43-2.51l.51.28c-.45.82-.94,1.69-1.44,2.53Z" data-part="abaCima"></path>
      <path class="cls-10" d="M151.84,88.35c-.87-.03-1.83-.1-2.91-.23l.07-.58c1.07.12,2.01.2,2.86.22l-.02.58ZM153.6,88.34l-.03-.58c.53-.02,1.03-.07,1.51-.14.44-.06.88-.14,1.3-.24l.13.57c-.45.1-.9.19-1.36.25-.49.07-1.02.12-1.56.14ZM147.2,87.89l-.38-.05c-.84-.12-1.67-.25-2.49-.39l.1-.57c.81.14,1.64.26,2.48.39l.38.05-.08.57ZM158.22,87.46l-.19-.55c.88-.3,1.76-.68,2.61-1.13l.27.51c-.88.47-1.79.86-2.7,1.17ZM142.61,87.15c-.99-.19-1.92-.38-2.85-.59l.13-.57c.92.21,1.84.4,2.82.59l-.11.57ZM138.06,86.14c-.89-.23-1.83-.49-2.8-.77l.16-.56c.96.28,1.9.54,2.78.77l-.14.56ZM162.44,85.4l-.31-.49c.82-.53,1.59-1.1,2.28-1.71l.38.43c-.71.63-1.5,1.23-2.35,1.77ZM133.59,84.86c-.74-.23-1.46-.47-2.16-.7l-.6-.2.19-.55.6.2c.69.23,1.41.46,2.15.69l-.17.55ZM129.19,83.39c-1.01-.36-1.92-.7-2.73-1.01l.21-.54c.8.31,1.71.65,2.71,1l-.19.55ZM166.05,82.4l-.43-.39c.25-.28.48-.55.7-.83.35-.46.68-.93.98-1.45l.5.29c-.32.54-.65,1.04-1.02,1.52-.22.29-.46.57-.73.86ZM124.84,81.7c-1.06-.47-1.84-.88-2.59-1.28l.25-.52h.02c.75.4,1.52.81,2.56,1.27l-.24.53ZM168.61,78.45l-.53-.25.34-.74.53.24-.35.75Z" data-part="abaCima"></path>
      <path class="cls-7" d="M56.1,3.81v.72c.88-.07,1.97-.51,2.88-.72v-.72c-.88.07-1.97.51-2.88.72" data-part="copaLadosTras"></path>
      <rect class="cls-10" x="95.91" y="51.77" width=".72" height="3.12" data-part="copaFrente"></rect>
      <path class="cls-7" d="M35.48,22.75c1.17-.1,1.67-1.57,1.92-2.64-1.18.1-1.67,1.57-1.92,2.64" data-part="copaLadosTras"></path>
      <path class="cls-7" d="M28.29,84.39c1.05-.28.72-.05.72-3.12-1.06.28-.72.05-.72,3.12" data-part="copaLadosTras"></path>
      <polygon class="cls-7" points="35.67 37.86 36.44 37.86 36.73 34.99 35.96 34.99 35.67 37.86" data-part="copaLadosTras"></polygon>
      <path class="cls-7" d="M29.72,55.13v.96h.72v-1.2c0-1.4.84-1.57-.48-1.92-.02,1.08-.24.95-.24,2.16" data-part="copaLadosTras"></path>
      <path class="cls-7" d="M96.39,71.2c0,.66.18.58.72.72v-3.12h-.72v2.4Z" data-part="abaCima"></path>
      <path class="cls-7" d="M101.67,66.4c0,.66.18.58.72.72v-3.12h-.72v2.4Z" data-part="copaFrente"></path>
      <path class="cls-7" d="M102.39,78.39h.72v-2.4c0-.66-.19-.58-.72-.72v3.12Z" data-part="abaCima"></path>
      <path class="cls-7" d="M33.56,80.79v2.4h.72v-3.12c-.53.14-.72.06-.72.72" data-part="copaLadosTras"></path>
      <path class="cls-7" d="M29,73.12c.53-.14.72-.06.72-.72v-2.4h-.72v3.12Z" data-part="copaLadosTras"></path>
      <path class="cls-7" d="M95.2,22.51h.72c-.08-1.01-.19-.84-.61-1.54-.55-.93-.14-1-1.3-1.09.28,1.21.89,1.31,1.2,2.64" data-part="copaFrente"></path>
      <path class="cls-7" d="M35,43.62c1.05-.28.62-.07.74-1.17.09-.77.22-1.04.22-1.94h-.72c0,1.2-.24,1.66-.24,3.12" data-part="copaLadosTras"></path>
      <path class="cls-7" d="M84.4,9.56c.92,0,.09.07.72-.24-.18-.24-1.99-1.89-2.37-1.76-1.04.36,1.65,2,1.65,2" data-part="copaLadosTras"></path>
      <path class="cls-7" d="M62.1,4.53c.65-.15,1.02-.3,1.65-.5,1.01-.32.97.02,1.22-.94-.65-.27-.79-.01-1.61.31-1.06.42-1.15.08-1.27,1.13" data-part="copaLadosTras"></path>
      <path class="cls-7" d="M93.04,26.83c-.27-1.15-.69-1.73-.96-2.88-1.17.31-.68.49-.28,1.47.62,1.56.4,1.31,1.24,1.41" data-part="copaFrente"></path>
      <path class="cls-7" d="M93.76,32.35h.72c-.03-1.2-.45-1.68-.48-2.88h-.72c.02,1.1.39,1.85.48,2.88" data-part="copaFrente"></path>
      <path class="cls-7" d="M101.19,55.13c0,.68.1.44.48.72.16-.29.24-.26.24-.72v-2.4h-.72v2.4Z" data-part="copaFrente"></path>
      <path class="cls-7" d="M96.63,80.79c0,1.32-.18,2.03.72,2.4.2-.49,0-1.73,0-3.12-.53.14-.72.06-.72.72" data-part="abaCima"></path>
      <path class="cls-7" d="M34.28,53.93v.96h.72v-1.68c0-1.18.86-1.08-.48-1.44-.02,1.08-.24.95-.24,2.16" data-part="copaLadosTras"></path>
      <path class="cls-7" d="M72.41,3.33c1.11.26,1.95.92,2.88.48-.49-.67-1.89-1.12-2.88-1.2v.72Z" data-part="copaLadosTras"></path>
      <path class="cls-7" d="M49.39,10.76c-2.63,1.52-2.4,3.46-.03.9.1-.11.67-.54.34-.9-.57-.63-.15-.1-.31,0" data-part="copaLadosTras"></path>
      <path class="cls-7" d="M90.64,15.32c.08.31,1.57,2.85,2.19,2.23.37-.37.42.13-.7-1.31-.5-.64-.57-.84-1.48-.92" data-part="copaFrente"></path>
      <path class="cls-7" d="M30.68,44.82c.96-.39.72-1.61.72-3.12-1,.27-.7.17-.73,1.44-.03,1.03-.19,1.19.01,1.68" data-part="copaLadosTras"></path>
      <path class="cls-7" d="M76.49,8.13c1.36.32,1.36,1.09,2.64,1.2-.27-1.03-1.61-1.83-2.64-1.92v.72Z" data-part="copaLadosTras"></path>
      <path class="cls-7" d="M102.87,83.91h.72c0-1.2-.24-1.48-.24-2.88h-.72c0,1.4.24,1.68.24,2.88" data-part="abaCima"></path>
      <path class="cls-7" d="M28.52,78.63h.72c0-1.4.24-1.68.24-2.88h-.72c0,1.2-.24,1.48-.24,2.88" data-part="copaLadosTras"></path>
      <rect class="cls-10" x="95.67" y="46.26" width=".72" height="2.88" data-part="copaFrente"></rect>
      <path class="cls-7" d="M94.72,37.86h.72c-.08-.92-.4-1.96-.48-2.88h-.72c.08.92.4,1.96.48,2.88" data-part="copaFrente"></path>
      <rect class="cls-10" x="101.43" y="58.49" width=".72" height="2.88" data-part="copaFrente"></rect>
      <rect class="cls-10" x="34.04" y="63.28" width=".72" height="2.88" data-part="copaLadosTras"></rect>
      <rect class="cls-10" x="34.28" y="57.53" width=".72" height="2.88" data-part="copaLadosTras"></rect>
      <rect class="cls-10" x="29.24" y="64.48" width=".72" height="2.88" data-part="copaLadosTras"></rect>
      <rect class="cls-10" x="33.8" y="74.56" width=".72" height="2.88" data-part="copaLadosTras"></rect>
      <rect class="cls-10" x="96.15" y="57.53" width=".72" height="2.88" data-part="copaFrente"></rect>
      <rect class="cls-10" x="96.63" y="74.56" width=".72" height="2.88" data-part="abaCima"></rect>
      <path class="cls-7" d="M69.05,3.81c-.6-.05-2.39-.73-2.88-.96.1,1.17.23.83,1.37,1.28.89.36,1.23.72,1.51-.32" data-part="copaLadosTras"></path>
      <path class="cls-7" d="M100.23,38.82c0-1.39-.15-1.85-.24-2.88h-.72c.26,3.16.15,2.66.96,2.88" data-part="copaFrente"></path>
      <path class="cls-7" d="M96.15,64.48c0,1.17.04,1.4.72,1.68.22-.54,0-2.01,0-2.88h-.72v1.2Z" data-part="copaFrente"></path>
      <path class="cls-7" d="M100.23,43.62v.72h.72c0-1.82-.22-1.93-.24-2.88h-.72c.02,1.08.24.95.24,2.16" data-part="copaFrente"></path>
      <path class="cls-7" d="M50.83,6.45c1.06-.09,1.68-.68,2.88-.96-.31-1.15-.52-.72-1.44-.25-.85.43-1.2.31-1.44,1.21" data-part="copaLadosTras"></path>
      <path class="cls-7" d="M95.43,43.62c1.17-.31.6-.2.5-1.44-.1-1.34.36-1.38-.74-1.68,0,1.45.15,2.03.24,3.12" data-part="copaFrente"></path>
      <path class="cls-7" d="M71.45,5.73c2.06.17,2.08,1.74,2.88.24-1.03-.24-1.78-.87-2.88-.96v.72Z" data-part="copaLadosTras"></path>
      <path class="cls-7" d="M81.29,10.52c-.24,1.13-.27.59,1.26,1.88,1.51,1.27,1.65.06-1.26-1.88" data-part="copaLadosTras"></path>
      <path class="cls-7" d="M33.8,70c0,1.91-.12,1.69.72,1.92v-3.12c-.51.18-.3-.1-.57.39-.23.41-.15.24-.15.81" data-part="copaLadosTras"></path>
      <path class="cls-7" d="M56.82,6.45c.66.27,2.46-.63,2.88-1.2-.63-.52-1.18.02-1.86.3-.81.34-.78,0-1.02.9" data-part="copaLadosTras"></path>
      <path class="cls-7" d="M98.79,33.31c.93-.25.67-.5.48-1.41-.19-.93-.08-1.24-.72-1.7-.46.95.15,1.99.24,3.12" data-part="copaFrente"></path>
      <path class="cls-7" d="M97.35,27.79c1.52-.41.18-.73,0-2.88h-.72c.1,1.21.62,1.66.72,2.88" data-part="copaFrente"></path>
      <path class="cls-7" d="M38.12,26.83c.9-.24.6-.12.94-.98.75-1.9.56-1.37.26-1.9-.65.48-.42.29-.76,1.16-.22.56-.42.84-.44,1.72" data-part="copaLadosTras"></path>
      <path class="cls-7" d="M88.72,19.16c.04.44,1.03,3.15,1.7,2.48.31-.31-.18-.91-.44-1.33-.43-.68-.41-.92-1.26-1.15" data-part="copaFrente"></path>
      <path class="cls-7" d="M43.63,17c.89-.24,1.92-1.52,2.16-2.4-.92.08-.84.13-1.35.81-.99,1.32-.73.63-.81,1.59" data-part="copaLadosTras"></path>
      <path class="cls-7" d="M77.45,5.25c1.17.27,1.71.93,2.88,1.2-.04-.37.07-.12-.08-.4-.4-.77-1.38-.89-2.56-1.52-.11.43-.04.43-.24.72" data-part="copaLadosTras"></path>
      <path class="cls-7" d="M33.56,28.03c1.26-.34,1.31-2.6,1.2-2.88-.94.34-1.18,1.9-1.2,2.88" data-part="copaLadosTras"></path>
      <path class="cls-7" d="M32.12,33.55c1.23-.45.35-1.12,1.2-2.88-1.05.09-.85.1-1.07,1.09-.19.87-.31,1.34-.13,1.79" data-part="copaLadosTras"></path>
      <path class="cls-7" d="M29.48,59.45v2.16h.72v-2.88c-.53.14-.72.06-.72.72" data-part="copaLadosTras"></path>
      <path class="cls-7" d="M30.2,50.33c.53-.14.72-.06.72-.72v-2.16h-.72v2.88Z" data-part="copaLadosTras"></path>
      <path class="cls-7" d="M100.95,50.09h.72c-.02-1.08-.24-.95-.24-2.16v-.72h-.72c0,1.4.24,1.68.24,2.88" data-part="copaFrente"></path>
      <path class="cls-7" d="M34.52,49.13h.72v-.72c0-1.21.22-1.07.24-2.16h-.72c0,1.2-.24,1.48-.24,2.88" data-part="copaLadosTras"></path>
      <path class="cls-7" d="M40.76,21.8c.69-.46,1.47-1.75,1.68-2.64-1.17.1-.75.17-1.31,1.1-.43.72-.72.78-.37,1.54" data-part="copaLadosTras"></path>
      <path class="cls-7" d="M36.68,32.35c1.52-.41.26-.92,1.2-2.88-.95.08-.81.02-1,.91-.13.61-.19,1.11-.19,1.96" data-part="copaLadosTras"></path>
      <path class="cls-7" d="M31.16,39.06c1.05-.28.62-.06.74-1.17.09-.75.2-.88.22-1.7h-.72c-.02,1.05-.24,1.5-.24,2.88" data-part="copaLadosTras"></path>
      <path class="cls-7" d="M85.36,14.84c-.42.42-.28-.17.76,1.16.28.36.66,1.35,1.19.83.43-.43.26,0-.13-.64l-1.16-1.32c-.44-.28-.21-.48-.65-.03" data-part="copaFrente"></path>
      <path class="cls-7" d="M89.2,13.4c-.22-.81-.44-.81-1.02-1.38-2.59-2.59-.97,1.22,1.02,1.38" data-part="copaFrente"></path>
      <polygon class="cls-7" points="102.2 72.63 102.87 72.64 102.58 69.77 101.91 69.76 102.2 72.63" data-part="abaCima"></polygon>
      <path class="cls-7" d="M51.79,9.08c.73.34,1.79-.37,2.27-.85.49-.49.25.24.37-.83-.89.21-2.18.99-2.64,1.68" data-part="copaLadosTras"></path>
      <path class="cls-7" d="M44.35,11.24c-.81.22-.81.44-1.38,1.02-1.53,1.53-1.03,2,.49.49.65-.64.81-.49.9-1.5" data-part="copaLadosTras"></path>
      <path class="cls-7" d="M46.27,9.8l2.03-1.33c.47-.51.25.28.37-.83-.87.07-2.29.92-2.4,2.16" data-part="copaLadosTras"></path>
      <path class="cls-7" d="M40.04,15.56c-1.62.94-2.48,4.23-.02.92.28-.37.39-.29.4-.71l-.08-.2c-.38-.42-.04-.16-.31,0" data-part="copaLadosTras"></path>
      <rect class="cls-10" x="96.87" y="85.83" width=".72" height="1.68" data-part="abaCima"></rect>
      <path class="cls-7" d="M33.56,87.51c.53-.14.72-.06.72-.72v-.24c0-.66-.19-.58-.72-.72v1.68Z" data-part="copaLadosTras"></path>
      <path class="cls-2" d="M64.06.13h3.46c1.93,0,3.51,1.36,3.51,3.03h0s0,.1,0,.15c-1.74-.04-3.48-.07-5.23-.07s-3.49.02-5.23.07c0-.05,0-.1,0-.15h0c0-1.67,1.58-3.03,3.51-3.03Z"></path>
      <path class="cls-9" d="M64.06.12h3.46c1.93,0,3.51,1.36,3.51,3.03h0s0,.1,0,.15c-1.74-.04-3.48-.07-5.23-.07s-3.49.02-5.23.07c0-.05,0-.1,0-.15h0c0-1.67,1.58-3.03,3.51-3.03" data-part="botao"></path>
      <g class="cls-1">
        <g>
          <path class="cls-9" d="M12.95,85.37l-10.55-1.19c-1.24-.14-2.27-.96-2.27-2.14v-10.13c0-1.17,1.02-2.22,2.27-2.14l10.81.77" data-part="copaLadosTras"></path>
          <path class="cls-6" d="M12.95,85.37l-10.55-1.19c-1.24-.14-2.27-.96-2.27-2.14v-10.13c0-1.17,1.02-2.22,2.27-2.14l10.81.77"></path>
          <path class="cls-3" d="M2.95,76.1c.43,0,.78.33.78.73s-.35.73-.78.73-.78-.33-.78-.73.35-.73.78-.73ZM2.95,75.76c.63,0,1.13.48,1.13,1.07s-.51,1.07-1.13,1.07-1.13-.48-1.13-1.07.51-1.07,1.13-1.07Z"></path>
          <path class="cls-8" d="M2.95,76.1c.43,0,.78.33.78.73s-.35.73-.78.73-.78-.33-.78-.73.35-.73.78-.73M2.95,75.76c.63,0,1.13.48,1.13,1.07s-.51,1.07-1.13,1.07-1.13-.48-1.13-1.07.51-1.07,1.13-1.07Z" data-part="copaLadosTras"></path>
          <path class="cls-3" d="M10.15,76.1c.43,0,.78.33.78.73s-.35.73-.78.73-.78-.33-.78-.73.35-.73.78-.73ZM10.15,75.76c.63,0,1.13.48,1.13,1.07s-.51,1.07-1.13,1.07-1.13-.48-1.13-1.07.51-1.07,1.13-1.07Z"></path>
          <path class="cls-8" d="M10.15,76.1c.43,0,.78.33.78.73s-.35.73-.78.73-.78-.33-.78-.73.35-.73.78-.73M10.15,75.76c.63,0,1.13.48,1.13,1.07s-.51,1.07-1.13,1.07-1.13-.48-1.13-1.07.51-1.07,1.13-1.07Z" data-part="copaLadosTras"></path>
          <path class="cls-8" d="M8.14,74.14v1.97c0,.29-.04.47-.04.72-.01.89-.02,1.84-.12,2.74-.01.12,0,.24,0,.36-.08,1.05-.2,2.69-.92,3.48-.34.37-.69.6-1.16.82-.29.13-1.02.07-1.31-.07-.09-.38-.07-.34.32-.59.38-.24.69-.69.82-1.17.26-.92.43-3.79.43-4.96,0-.92.04-1.72.04-2.65,0-4.06-.78-3.85-3.01-4.24-.1-.02-.26-.06-.37-.07l-.05-.46c.27-.13.8-.05,1.13-.01.97.13,2.28.18,3.04.73.96.69,1.17,2.02,1.21,3.4M5.86,70.85c1.83.43,1.74,2.54,1.74,4.27l-.21,5.1c-.04,1.03-.2,2.38-.94,3.04-.15.14-.65.47-.88.49.4-.59.61-.66.79-1.74.15-.93.15-1.48.24-2.29l.05-1.2c0-.45.04-.77.04-1.24,0-1.67.25-4.14-.37-5.69-.15-.37-.29-.48-.46-.74Z" data-part="copaLadosTras"></path>
        </g>
      </g>
    </g>
  </g>
</svg>