<svg id="Camada_2" data-name="Camada 2" xmlns="http://www.w3.org/2000/svg" viewBox="0 0 176.15 151.79">
  <defs>
    <style>
      .cls-1 {
        stroke: #231f20;
        stroke-width: .26px;
      }

      .cls-1, .cls-2, .cls-3, .cls-4, .cls-5, .cls-6 {
        fill: none;
      }

      .cls-1, .cls-2, .cls-4, .cls-5, .cls-6 {
        stroke-miterlimit: 22.93;
      }

      .cls-2 {
        stroke: #58595b;
        stroke-width: .14px;
      }

      .cls-3 {
        stroke: #a6a8ab;
        stroke-linecap: round;
        stroke-linejoin: round;
        stroke-width: .14px;
      }

      .cls-7, .cls-8, .cls-9 {
        fill-rule: evenodd;
      }

      .cls-7, .cls-10 {
        fill: #d1d1d1;
      }

      .cls-4 {
        stroke: #1a1a1a;
        stroke-width: .32px;
      }

      .cls-8 {
        fill: #404041;
      }

      .cls-5 {
        stroke: #404041;
        stroke-width: .26px;
      }

      .cls-9 {
        fill: #eaeaea;
        stroke: #fff;
        stroke-miterlimit: 10;
        stroke-width: .25px;
      }

      .cls-6 {
        stroke: #000;
        stroke-width: .58px;
      }
    
    [data-part="crown"]{fill:var(--c-crown,#d7dade) !important}
    [data-part="brim"]{fill:var(--c-brim,#c7cace) !important}
    [data-part="button"]{fill:var(--c-button,#d7dade) !important}
    [data-part="mesh"]{fill:var(--c-mesh,#eef0f2) !important}
  </style>
  </defs>
  <g id="_1.0_Americano" data-name="1.0 Americano">
    <g>
      <path class="cls-9" d="M88.07,3.24c47.42,0,74.11,11.78,81.38,56.95,2.11,17.82,4.22,35.64,6.33,53.46-4.66-3.15-9.66-6.1-14.88-8.81.47-10.3,1.28-29.16-.33-47.92C155.7,14.58,123.13,3.24,88.07,3.24ZM6.69,60.19C13.96,15.02,40.65,3.24,88.07,3.24,53.02,3.24,20.45,14.58,15.58,56.91c-1.61,18.75-.8,37.59-.33,47.9-5.22,2.72-10.21,5.68-14.88,8.83,2.11-17.82,4.22-35.64,6.33-53.46Z" data-part="crown"></path>
      <path class="cls-6" d="M88.07,3.24c47.42,0,74.11,11.78,81.38,56.95,2.11,17.82,4.22,35.64,6.33,53.46-4.66-3.15-9.66-6.1-14.88-8.81.47-10.3,1.28-29.16-.33-47.92C155.7,14.58,123.13,3.24,88.07,3.24ZM6.69,60.19C13.96,15.02,40.65,3.24,88.07,3.24,53.02,3.24,20.45,14.58,15.58,56.91c-1.61,18.75-.8,37.59-.33,47.9-5.22,2.72-10.21,5.68-14.88,8.83,2.11-17.82,4.22-35.64,6.33-53.46Z"></path>
      <path class="cls-8" d="M169.08,109.46c.37.21.73.42,1.09.64-.36-.22-.73-.43-1.09-.64ZM168.98,109.39h0l.04.02-.04-.02ZM7.07,109.46c-.37.21-.73.42-1.09.64.36-.22.73-.43,1.09-.64ZM7.17,109.39h0l-.04.02.04-.02ZM.36,113.64c.03,1.57,2.6,1.55,5.13,1.31l.48-4.86c-1.91,1.13-3.79,2.32-5.61,3.55ZM175.79,113.64c-.03,1.57-2.6,1.55-5.13,1.31l-.48-4.86c1.92,1.13,3.79,2.32,5.61,3.55Z" data-part="brim"></path>
      <path class="cls-5" d="M169.08,109.46c.37.21.73.42,1.09.64-.36-.22-.73-.43-1.09-.64ZM168.98,109.39h0l.04.02-.04-.02ZM7.07,109.46c-.37.21-.73.42-1.09.64.36-.22.73-.43,1.09-.64ZM7.17,109.39h0l-.04.02.04-.02ZM.36,113.64c.03,1.57,2.6,1.55,5.13,1.31l.48-4.86c-1.91,1.13-3.79,2.32-5.61,3.55ZM175.79,113.64c-.03,1.57-2.6,1.55-5.13,1.31l-.48-4.86c1.92,1.13,3.79,2.32,5.61,3.55Z"></path>
      <path class="cls-8" d="M169.08,109.46c.37.21.73.42,1.09.64-.36-.22-.73-.43-1.09-.64ZM168.98,109.39h0l.04.02-.04-.02ZM7.07,109.46c-.37.21-.73.42-1.09.64.36-.22.73-.43,1.09-.64ZM7.17,109.39h0l-.04.02.04-.02ZM.36,113.64c.03,1.57,2.6,1.55,5.13,1.31l.48-4.86c-1.91,1.13-3.79,2.32-5.61,3.55ZM175.79,113.64c-.03,1.57-2.6,1.55-5.13,1.31l-.48-4.86c1.92,1.13,3.79,2.32,5.61,3.55Z" data-part="brim"></path>
      <path class="cls-5" d="M169.08,109.46c.37.21.73.42,1.09.64-.36-.22-.73-.43-1.09-.64ZM168.98,109.39h0l.04.02-.04-.02ZM7.07,109.46c-.37.21-.73.42-1.09.64.36-.22.73-.43,1.09-.64ZM7.17,109.39h0l-.04.02.04-.02ZM.36,113.64c.03,1.57,2.6,1.55,5.13,1.31l.48-4.86c-1.91,1.13-3.79,2.32-5.61,3.55ZM175.79,113.64c-.03,1.57-2.6,1.55-5.13,1.31l-.48-4.86c1.92,1.13,3.79,2.32,5.61,3.55Z"></path>
      <path class="cls-9" d="M160.81,57.28C155.94,14.95,123.38,3.61,88.32,3.61S20.7,14.95,15.83,57.28c-1.63,18.94-.79,37.97-.32,48.21,45.81-25.65,103.73-25.51,145.63,0,.47-10.23,1.31-29.27-.32-48.21Z" data-part="crown"></path>
      <path class="cls-2" d="M160.81,57.28C155.94,14.95,123.38,3.61,88.32,3.61S20.7,14.95,15.83,57.28c-1.63,18.94-.79,37.97-.32,48.21,45.81-25.65,103.73-25.51,145.63,0,.47-10.23,1.31-29.27-.32-48.21Z"></path>
      <path class="cls-9" d="M5.96,110.1c23.99-14.22,47.2-24.23,82.01-24.16,29.16-.57,58.22,8.48,82.19,24.16-.49,46.02-13.11,42.14-33.01,31.37-5.01-2.71-10.47-5.85-16.32-8.74-9.37-4.63-19.45-6.65-30.32-7.4-12.39-.86-23.14.98-33.04,5.6-31.21,14.57-50.53,37.66-51.52-20.83Z" data-part="brim"></path>
      <path class="cls-4" d="M5.96,110.1c23.99-14.22,47.2-24.23,82.01-24.16,29.16-.57,58.22,8.48,82.19,24.16-.49,46.02-13.11,42.14-33.01,31.37-5.01-2.71-10.47-5.85-16.32-8.74-9.37-4.63-19.45-6.65-30.32-7.4-12.39-.86-23.14.98-33.04,5.6-31.21,14.57-50.53,37.66-51.52-20.83Z"></path>
      <path class="cls-10" d="M22.1,141.87c-.69,0-1.34-.08-1.93-.25l.21-.74c1.02.28,2.24.29,3.63.02l.14.75c-.72.14-1.41.21-2.05.21ZM154.33,141.86c-.96,0-2-.12-3.11-.35l.16-.75c1.35.28,2.57.39,3.71.3l.05.77c-.27.02-.54.03-.81.03ZM157.5,141.35l-.26-.72c.52-.18,1-.43,1.44-.72.52-.35,1.01-.81,1.46-1.37l.6.48c-.5.62-1.05,1.13-1.63,1.52-.49.33-1.04.6-1.61.81ZM26.42,141.04l-.25-.73c1.06-.36,2.24-.86,3.49-1.47l.34.69c-1.28.63-2.48,1.14-3.58,1.51ZM148.96,140.91c-1.13-.36-2.35-.82-3.62-1.39l.31-.7c1.25.55,2.44,1.01,3.55,1.36l-.23.73ZM18.02,140.45c-.84-.73-1.64-1.79-2.39-3.15l.67-.37c.7,1.26,1.47,2.28,2.23,2.94l-.51.58ZM143.24,138.54c-1.08-.53-2.19-1.13-3.41-1.81l.38-.67c1.21.68,2.31,1.27,3.37,1.8l-.34.69ZM32.06,138.45l-.37-.67c1-.56,2.07-1.19,3.29-1.95l.41.65c-1.22.76-2.31,1.41-3.32,1.97ZM162.01,137l-.69-.34c.5-1,.93-2.19,1.29-3.53l.74.2c-.37,1.39-.82,2.63-1.34,3.67ZM137.83,135.56c-1.17-.7-2.28-1.38-3.28-1.99l.4-.66h0c1,.62,2.1,1.3,3.27,1.99l-.39.66ZM37.33,135.25l-.41-.65.2-.13c.54-.35,1.05-.67,1.5-.95l1.56-.97.4.65-1.56.97c-.45.28-.95.6-1.49.95l-.2.13ZM14.61,135.19c-.53-1.27-.94-2.61-1.14-3.67l.74-.21c.19,1.08.59,2.36,1.1,3.58l-.71.29ZM132.58,132.37l-.39-.23c-.98-.58-1.96-1.14-2.92-1.69l.38-.67c.97.54,1.95,1.11,2.94,1.69l.39.23-.39.66ZM42.54,132l-.4-.66c1.09-.66,2.19-1.32,3.3-1.97l.39.66c-1.11.65-2.2,1.31-3.29,1.97ZM163.86,131.05l-.75-.14c.22-1.18.39-2.44.51-3.77l.76.07c-.12,1.35-.29,2.64-.52,3.84ZM127.25,129.34c-1.14-.62-2.27-1.2-3.39-1.76l.34-.69c1.13.56,2.27,1.15,3.42,1.77l-.36.68ZM13.07,129.17c-.2-1.26-.39-2.53-.56-3.81l.76-.1c.17,1.27.35,2.53.56,3.79l-.76.12ZM47.81,128.89l-.38-.67c1.11-.63,2.24-1.25,3.37-1.85l.36.68c-1.13.6-2.25,1.21-3.35,1.84ZM121.8,126.58c-1.17-.55-2.34-1.08-3.49-1.56l.3-.71c1.15.49,2.34,1.02,3.52,1.57l-.33.69ZM53.2,125.99l-.35-.69c1.18-.59,2.35-1.16,3.47-1.67l.32.7c-1.12.51-2.28,1.07-3.45,1.66ZM164.54,124.9l-.77-.05c.08-1.25.15-2.54.22-3.83l.77.04c-.07,1.3-.14,2.59-.22,3.84ZM116.19,124.16c-1.2-.47-2.4-.91-3.58-1.31l.25-.73c1.19.4,2.41.85,3.62,1.32l-.28.71ZM58.75,123.41l-.3-.71c1.21-.51,2.42-.98,3.6-1.4l.26.72c-1.16.41-2.35.88-3.56,1.39ZM12.22,123.07c-.15-1.27-.29-2.55-.42-3.82l.76-.08c.13,1.27.26,2.54.41,3.81l-.76.09ZM110.42,122.15c-1.21-.37-2.45-.72-3.68-1.03l.19-.74c1.24.31,2.49.66,3.71,1.04l-.22.73ZM64.47,121.29l-.23-.73c1.25-.4,2.51-.75,3.72-1.04l.18.75c-1.2.29-2.43.63-3.67,1.03ZM104.52,120.59c-1.23-.27-2.49-.52-3.75-.74l.13-.76c1.26.22,2.54.47,3.78.75l-.17.75ZM70.38,119.78l-.14-.75c.26-.05.51-.1.77-.14.98-.17,2-.33,3.04-.47l.1.76c-1.03.14-2.04.29-3.01.46-.25.04-.5.09-.76.14ZM98.51,119.48c-1.24-.18-2.51-.34-3.79-.48l.08-.76c1.29.14,2.57.3,3.82.48l-.11.76ZM76.42,118.92l-.08-.76c1.26-.13,2.55-.23,3.84-.31l.04.77c-1.28.07-2.56.17-3.81.3ZM92.44,118.79c-.86-.07-1.73-.13-2.61-.19-.4-.02-.8-.04-1.2-.06l.03-.77c.41.02.81.04,1.21.06.89.05,1.77.12,2.63.19l-.06.76ZM164.88,118.76l-.77-.04c.07-1.32.13-2.61.18-3.83l.77.04c-.06,1.23-.12,2.52-.18,3.84ZM82.52,118.51l-.02-.77c.91-.03,1.82-.06,2.72-.04.38,0,.76,0,1.14,0v.77c-.4,0-.8-.01-1.18,0-.88,0-1.76.01-2.65.04ZM11.59,116.95c-.11-1.28-.22-2.55-.31-3.83l.77-.06c.1,1.27.2,2.55.31,3.82l-.76.07ZM165.16,112.62l-.77-.03c.06-1.49.12-2.81.16-3.84l.77.03c-.04,1.03-.09,2.34-.16,3.84ZM11.11,110.82c-.09-1.28-.17-2.56-.25-3.83l.77-.05c.08,1.27.16,2.55.25,3.83l-.77.05ZM165.36,107.78l-.77-.03.05-1.29.77.03-.05,1.28Z" data-part="brim"></path>
      <path class="cls-10" d="M22.34,137.79c-.53-.06-1-.23-1.46-.49-.64-.38-1.25-1-1.83-1.84l.63-.44c.51.75,1.05,1.29,1.59,1.61.36.21.73.34,1.15.39l-.09.76ZM153.17,137.59h-.4c-.89-.02-1.67-.09-2.61-.35l.02-.39.11-.37-.11.37.19-.35c.86.24,1.59.3,2.42.32h.38c.26,0,.53,0,.79-.02l.05.77c-.28.02-.57.02-.84.02ZM24.76,137.53l-.2-.74c.36-.1.73-.22,1.13-.35.76-.26,1.58-.58,2.43-.94l.3.71c-.87.37-1.7.69-2.48.96-.41.14-.8.27-1.18.37ZM156.39,136.98l-.37-.67c.43-.23.82-.56,1.18-1.01.38-.47.7-1.04.98-1.75l.71.28c-.31.77-.66,1.41-1.09,1.95-.42.53-.88.92-1.41,1.2ZM147.88,136.4l-.72-.3c-.89-.37-1.72-.73-2.81-1.24l.33-.69c1.07.51,1.9.86,2.78,1.23l.72.3-.3.71ZM30.53,135.24l-.33-.69c.73-.35,1.49-.74,2.26-1.15.37-.2.74-.41,1.12-.62l.38.67c-.38.21-.76.42-1.13.63-.78.42-1.54.81-2.29,1.17ZM142.28,133.81c-.75-.4-1.43-.78-2.04-1.15-.45-.27-.88-.55-1.29-.83l.43-.64c.4.27.82.54,1.26.81.59.36,1.27.74,2,1.13l-.36.68ZM17.91,133.38c-.13-.3-.26-.61-.38-.93-.31-.84-.58-1.76-.81-2.8l.75-.17c.23,1.01.48,1.89.78,2.7.11.3.23.59.36.88l-.7.31ZM35.95,132.28l-.39-.66c1.18-.71,2.3-1.41,3.26-2.01l.41.65c-.97.61-2.09,1.31-3.27,2.02ZM159.57,131.57l-.75-.17c.24-1.03.47-2.29.68-3.74l.76.11c-.21,1.47-.44,2.75-.69,3.81ZM137.04,130.52l-.27-.18c-.96-.66-1.79-1.17-2.87-1.78l.2-.48.18-.19c1.1.62,1.95,1.15,2.93,1.82l.27.19-.44.63ZM41.17,129.04l-.41-.65c1.1-.69,1.93-1.2,2.92-1.77l.38-.22.38.67-.37.22c-.98.57-1.81,1.08-2.9,1.76ZM131.81,127.41c-.62-.33-1.32-.69-2.1-1.1l-1.3-.66.35-.68,1.3.67c.79.41,1.49.77,2.11,1.1l-.36.68ZM16.29,127.38c-.08-.52-.16-1.06-.24-1.6-.1-.72-.2-1.46-.3-2.21l.76-.1c.1.75.2,1.48.3,2.2.08.54.16,1.07.24,1.59l-.76.12ZM46.44,125.95l-.36-.68c.79-.43,1.65-.87,2.58-1.33l.85-.42.33.69-.85.41c-.92.46-1.78.9-2.56,1.32ZM160.56,125.47l-.76-.09c.15-1.27.28-2.57.39-3.81l.76.07c-.12,1.25-.25,2.55-.39,3.83ZM126.36,124.61c-.9-.44-1.79-.88-2.62-1.26-.29-.13-.56-.26-.83-.37l.31-.7c.27.12.55.25.84.38.84.38,1.74.82,2.64,1.27l-.34.69ZM51.93,123.24l-.32-.7c1.09-.5,2.14-.97,3.03-1.36l.48-.21.31.7-.48.21c-.88.39-1.93.86-3.02,1.36ZM120.79,122.1c-.7-.28-1.38-.54-2.05-.79-.51-.19-1.02-.38-1.52-.56l.26-.72c.51.18,1.02.37,1.53.56.68.25,1.36.51,2.07.8l-.29.71ZM15.46,121.27c-.12-1.03-.24-2.08-.36-3.12l-.07-.64.76-.14.08.7c.11,1.04.23,2.08.36,3.11l-.76.09ZM57.53,120.75l-.3-.71c.5-.21.99-.41,1.53-.63.63-.26,1.33-.53,2.05-.8l.27.72c-.71.27-1.41.54-2.04.8-.53.21-1.02.42-1.51.62ZM115.04,119.99c-.32-.11-.65-.22-.97-.32-.9-.29-1.8-.56-2.68-.81l.21-.74c.89.25,1.79.53,2.7.82.33.1.65.21.98.32l-.24.73ZM161.16,119.35l-.76-.07c.12-1.28.22-2.47.32-3.82l.77.05c-.1,1.35-.2,2.55-.32,3.83ZM63.23,118.55l-.25-.73.34-.12c1.08-.36,2.14-.69,3.36-1.01l.2.74c-1.2.32-2.25.64-3.31,1l-.33.11ZM109.18,118.25c-1.29-.34-2.54-.65-3.71-.91l.17-.75c1.18.26,2.44.57,3.74.92l-.2.74ZM103.23,116.88c-.65-.13-1.31-.25-2-.36-.58-.1-1.17-.19-1.77-.28l.12-.76c.6.09,1.2.19,1.78.29.69.12,1.36.24,2.02.36l-.14.75ZM69.1,116.88l-.18-.75c.73-.17,1.47-.33,2.3-.5.47-.09.96-.19,1.48-.28l.13.76c-.51.09-1,.18-1.46.27-.82.16-1.55.32-2.27.49ZM97.19,115.9l-.28-.04c-1.28-.17-2.29-.29-3.51-.41l.07-.76c1.21.12,2.27.24,3.54.41l.28.04-.1.76ZM75.09,115.77l-.1-.76c.33-.04.66-.08,1.01-.12.91-.1,1.86-.17,2.84-.23l.05.77c-.97.06-1.91.13-2.81.22-.33.04-.66.07-.99.11ZM81.18,115.31l-.04-.77.5-.02c1.1-.05,2.22-.11,3.34-.14l.02.77c-1.11.03-2.23.09-3.33.14l-.5.02ZM91.11,115.27c-1.26-.09-2.39-.14-3.47-.15h-.33s0-.77,0-.77h.34c1.1.01,2.25.06,3.52.16l-.05.77ZM14.79,115.16c-.13-1.35-.25-2.65-.34-3.83l.77-.06c.09,1.18.2,2.47.33,3.81l-.76.08ZM161.63,113.21l-.77-.04c.07-1.23.13-2.59.18-3.83l.77.03c-.05,1.24-.12,2.61-.18,3.84ZM14.31,109.02c-.07-1.36-.11-2.57-.15-3.78l.77-.08v.06c.04,1.2.08,2.41.15,3.77l-.77.04ZM161.52,107.06l-.38-.09.09-2.23.77.03-.09,2.23-.39.06Z" data-part="brim"></path>
      <path class="cls-10" d="M24.41,134c-.77,0-1.44-.18-2.01-.54l.41-.65c.82.52,1.9.56,3.4.12l.22.74c-.76.22-1.42.33-2.02.33ZM151.36,133.5c-.12,0-.23,0-.36-.01-.62-.04-1.3-.17-2.08-.41-.22-.07-.45-.14-.69-.23l.25-.73c.23.08.45.15.66.22.73.22,1.35.34,1.91.38.36.02.68,0,.98-.05l.16.75c-.26.05-.53.08-.83.08ZM28.63,132.81l-.33-.69c.96-.45,2.05-1.05,3.32-1.83l.4.65c-1.3.8-2.41,1.41-3.4,1.87ZM154.39,132.31l-.48-.6c.3-.24.65-.58.96-1.25.21-.46.39-1.04.58-1.89l.75.17c-.2.9-.4,1.53-.64,2.04-.3.64-.66,1.11-1.18,1.53ZM146.06,131.99c-1-.44-2.05-.95-3.1-1.51l-.37-.2.37-.67.36.19c1.04.55,2.07,1.06,3.05,1.49l-.31.7ZM20.84,131.53c-.44-.92-.82-2.1-1.19-3.73l.75-.17c.35,1.57.71,2.71,1.13,3.57l-.69.33ZM33.98,129.7l-.42-.64,1.2-.78c.66-.43,1.33-.87,2.02-1.31l.41.65c-.68.44-1.35.87-2.01,1.3l-1.21.79ZM140.58,129.13c-.34-.2-.7-.42-1.08-.65l-2.2-1.35.4-.66,2.2,1.35c.38.23.74.45,1.08.65l-.39.66ZM156.64,126.46l-.76-.13.07-.41c.16-.96.34-2.1.51-3.37l.76.11c-.18,1.28-.36,2.43-.52,3.39l-.07.42ZM39.19,126.38l-.44-.63.05-.03c.99-.59,2.07-1.21,3.31-1.87l.36.68c-1.23.66-2.3,1.27-3.28,1.85ZM135.33,125.95l-.52-.3c-.96-.56-1.89-1.07-2.82-1.56l.36-.68c.94.49,1.87,1.01,2.84,1.57l.52.31-.39.66ZM19.19,125.52c-.22-1.18-.38-2.29-.56-3.82l.76-.09c.18,1.51.34,2.61.55,3.77l-.75.14ZM44.5,123.46l-.35-.68c.59-.31,1.18-.61,1.77-.9.56-.28,1.11-.56,1.66-.83l.34.69c-.55.27-1.1.55-1.66.83-.58.29-1.17.59-1.76.9ZM129.95,123.06l-.26-.12c-1.02-.49-2.1-.98-3.22-1.48l.31-.7c1.13.5,2.21,1,3.24,1.49l.26.13-.34.69ZM49.99,120.73l-.33-.69c1.06-.5,2.11-.99,3.17-1.46l.33-.14.31.7-.33.14c-1.05.46-2.1.95-3.15,1.45ZM124.37,120.53l-.66-.28c-.96-.41-1.93-.82-2.87-1.21l.29-.71c.95.39,1.92.8,2.88,1.21l.66.28-.3.71ZM157.54,120.37l-.76-.1c.15-1.22.3-2.5.43-3.8l.76.08c-.13,1.31-.28,2.6-.43,3.82ZM18.37,119.41c-.12-1.14-.24-2.41-.37-3.83l.76-.07c.13,1.41.25,2.68.37,3.81l-.76.08ZM55.58,118.24l-.29-.71c1.23-.51,2.44-.98,3.58-1.41l.27.72c-1.13.43-2.34.9-3.56,1.4ZM118.71,118.17l-1.1-.44c-.9-.36-1.7-.67-2.47-.95l.27-.72c.77.29,1.58.6,2.48.96l1.1.44-.29.71ZM61.3,116.06l-.25-.72c1.29-.45,2.52-.86,3.66-1.2l.22.74c-1.13.34-2.35.74-3.63,1.19ZM112.99,116c-1.4-.48-2.53-.85-3.64-1.17l.22-.74c1.12.33,2.26.7,3.58,1.15l-.17.75ZM158.18,114.25l-.76-.06c.1-1.27.19-2.55.26-3.82l.77.04c-.07,1.28-.16,2.56-.26,3.84ZM67.13,114.24l-.2-.74c.8-.21,1.56-.4,2.33-.6l1.4-.35.18.75-1.35.33c-.81.2-1.57.39-2.37.61ZM107.15,114.23c-1.12-.28-2.38-.57-3.73-.85l.16-.75c1.36.28,2.63.57,3.76.86l-.19.74ZM17.81,113.29c-.1-1.21-.2-2.49-.31-3.83l.77-.06c.1,1.33.21,2.62.31,3.82l-.76.06ZM101.17,112.93c-1.18-.22-2.23-.4-3.08-.53l-.69-.1.11-.76.7.11c.85.13,1.91.32,3.1.54l-.14.75ZM73.07,112.79l-.16-.75.44-.09c1.01-.2,2.05-.36,3.38-.52l.09.76c-1.31.16-2.33.32-3.32.52l-.43.09ZM95.14,112.02c-.73-.07-1.63-.14-3.33-.21l-.48-.02.02-.77.48.02c1.72.06,2.64.14,3.37.21l-.07.76ZM79.11,111.93l-.08-.76c.78-.08,1.57-.15,2.32-.19.51-.03,1.01-.05,1.54-.06l.02.77c-.52.01-1.01.03-1.51.06-.74.04-1.52.11-2.29.19ZM89.03,111.74c-1.13-.02-2.28-.04-3.27-.05h-.57s0-.77,0-.77h.48c1.07.02,2.23.03,3.36.06l-.02.77ZM158.56,108.1l-.77-.04c.06-1.28.11-2.55.16-3.83l.77.03c-.05,1.28-.1,2.56-.16,3.84ZM17.33,107.17l-.29-3.83.77-.06.29,3.83-.77.06Z" data-part="brim"></path>
      <path class="cls-10" d="M25.11,129.54c-.24-.05-.46-.13-.67-.23-.82-.43-1.4-1.37-1.83-2.94l.74-.2c.37,1.33.84,2.14,1.45,2.46.14.07.29.13.46.16l-.15.75ZM27.57,129.25l-.24-.73c1.03-.34,2.14-.92,3.18-1.48l.22-.12.37.67-.22.12c-1.07.58-2.22,1.18-3.31,1.54ZM150.38,128.73c-.3,0-.61-.03-.92-.07-.45-.05-.94-.12-1.58-.31l.22-.74c.58.17,1.01.23,1.45.29.64.08,1.25.1,1.62-.09.09-.05.18-.11.28-.19l.5.59c-.14.12-.28.21-.43.29-.31.16-.68.23-1.13.23ZM145.69,127.46c-.86-.41-1.91-.96-3.2-1.67l-.22-.12.37-.67.22.12c1.28.7,2.31,1.24,3.16,1.65l-.33.69ZM33.12,126.45l-.39-.66c1.08-.63,2.1-1.27,3.27-1.99l.4.65c-1.17.72-2.2,1.36-3.29,2ZM153.17,126.03l-.74-.19c.09-.34.17-.78.29-1.54.1-.6.21-1.35.34-2.2l.76.11c-.12.85-.24,1.61-.34,2.21-.13.79-.22,1.25-.31,1.61ZM140.26,124.54c-.72-.42-1.42-.83-2.1-1.23l-1.21-.73.4-.66,1.21.73c.67.4,1.37.81,2.09,1.22l-.38.67ZM22.15,124.07c-.08-.49-.15-.99-.22-1.49-.1-.77-.21-1.54-.3-2.32l.76-.09c.1.78.2,1.54.3,2.31.07.49.14.99.21,1.48l-.76.12ZM38.36,123.25l-.4-.66c1.24-.75,2.29-1.37,3.32-1.95l.38.67c-1.02.57-2.07,1.19-3.3,1.94ZM134.97,121.42c-.2-.11-.4-.22-.6-.33-.96-.52-1.91-.97-2.8-1.38l.32-.7c.9.42,1.87.88,2.84,1.41.2.11.41.22.61.34l-.38.67ZM43.67,120.21l-.36-.68c1.04-.55,2.2-1.13,3.44-1.73l.33.69c-1.24.6-2.39,1.17-3.42,1.71ZM154.15,119.93l-.76-.1.17-1.23c.11-.85.22-1.69.32-2.56l.76.09c-.1.88-.21,1.73-.32,2.58l-.17,1.24ZM129.49,118.74c-1.15-.53-2.35-1.08-3.35-1.53l-.13-.06.31-.7.14.06c1,.45,2.2,1,3.36,1.53l-.32.7ZM21.37,117.96c-.13-1.2-.25-2.46-.36-3.83l.76-.06c.11,1.36.23,2.62.35,3.81l-.76.08ZM49.17,117.52l-.32-.7c.74-.34,1.47-.67,2.16-.98l1.34-.6.31.7-1.34.59c-.69.31-1.41.64-2.15.98ZM123.9,116.24c-.42-.17-.85-.35-1.32-.53-.69-.27-1.46-.57-2.25-.85l.26-.72c.79.29,1.57.59,2.26.86.48.19.91.36,1.33.54l-.29.71ZM54.77,115.04l-.3-.71c1.03-.43,1.97-.82,2.85-1.15.25-.09.49-.19.73-.27l.27.72c-.23.09-.47.18-.72.27-.87.34-1.81.71-2.83,1.14ZM118.17,114.09c-1.08-.36-2.02-.65-3.15-.99l-.5-.15.22-.73.5.15c1.14.34,2.09.63,3.18.99l-.24.73ZM154.87,113.81l-.76-.07c.06-.7.12-1.44.18-2.24.04-.5.07-1.03.1-1.57l.77.04c-.03.55-.07,1.08-.1,1.58-.06.81-.12,1.55-.18,2.26ZM60.48,112.86l-.24-.73c.69-.23,1.37-.44,2.07-.66.52-.16,1.06-.32,1.61-.48l.21.74c-.55.16-1.08.32-1.6.48-.7.21-1.37.43-2.05.65ZM112.32,112.29c-.94-.28-1.92-.57-2.8-.82-.3-.08-.59-.17-.88-.24l.2-.74c.29.08.58.16.89.24.89.25,1.86.54,2.81.83l-.22.73ZM20.85,111.83c-.08-1.22-.16-2.51-.23-3.84l.77-.04c.07,1.32.15,2.61.23,3.83l-.77.05ZM66.34,111.12l-.19-.74c.53-.14,1.08-.28,1.65-.41.68-.16,1.39-.32,2.1-.47l.16.75c-.71.15-1.41.31-2.09.47-.56.13-1.11.27-1.63.41ZM106.42,110.67c-.4-.09-.8-.18-1.22-.27-.8-.17-1.66-.35-2.52-.51l.14-.75c.87.16,1.73.34,2.54.51.42.09.83.18,1.23.27l-.17.75ZM72.31,109.79l-.14-.75c.65-.12,1.28-.24,1.88-.34.67-.11,1.31-.22,1.91-.31l.11.76c-.6.09-1.23.19-1.9.31-.6.1-1.23.22-1.87.34ZM100.42,109.49c-1.32-.22-2.42-.36-3.78-.5l.08-.76c1.38.14,2.49.28,3.83.5l-.12.76ZM78.35,108.84l-.09-.76c.33-.04.65-.08.96-.11,1.04-.11,1.98-.2,2.88-.26l.05.77c-.89.06-1.82.14-2.85.25-.31.03-.63.07-.95.11ZM94.36,108.8c-1.21-.09-2.55-.18-3.82-.25l.04-.77c1.27.07,2.62.16,3.84.25l-.06.77ZM88.24,108.43c-1.55-.06-2.73-.07-3.81-.05l-.02-.77c1.09-.02,2.29,0,3.86.05l-.03.77ZM155.27,107.67l-.77-.04c.06-1.23.12-2.52.17-3.83l.77.03c-.06,1.31-.11,2.6-.17,3.84ZM20.49,105.69l-.19-3.83.77-.04.19,3.83-.77.04ZM155.16,101.52l-.38-.03.77.02-.38.02Z" data-part="brim"></path>
      <path class="cls-10" d="M27.48,125.3c-.48,0-.89-.14-1.23-.43l.49-.59c.68.57,2.09-.06,3.13-.65l.38.67c-1.23.7-2.06.99-2.77.99ZM148.32,123.71l-.12-.76c.7-.11,1.1-.65,1.47-2,.06-.22.12-.46.18-.72l.75.17c-.06.27-.12.52-.19.75-.33,1.21-.82,2.36-2.09,2.56ZM145.89,123.32c-.93-.32-2.06-.81-3.56-1.56l.34-.69c1.47.73,2.57,1.21,3.47,1.52l-.25.73ZM32.3,123.08l-.46-.62.06-.04c1.03-.63,2.1-1.25,3.28-1.89l.37.67c-1.16.64-2.23,1.25-3.25,1.88ZM25.17,122.62c-.21-.93-.36-2.16-.48-3.87l.77-.05c.11,1.66.26,2.85.46,3.75l-.75.17ZM140.27,120.71l-.71-.38c-.83-.44-1.71-.9-2.68-1.4l.35-.68c.98.5,1.86.96,2.69,1.4l.71.38-.36.68ZM37.57,120.12l-.36-.68c1.04-.55,2.17-1.12,3.42-1.75l.34.69c-1.25.63-2.37,1.2-3.41,1.75ZM151,118.1l-.76-.11c.15-1.08.28-2.35.4-3.79l.76.06c-.12,1.46-.25,2.75-.4,3.84ZM134.82,117.92c-1.14-.55-2.28-1.07-3.47-1.6l.31-.7c1.2.53,2.35,1.05,3.5,1.61l-.33.69ZM43.04,117.36l-.34-.69c1.09-.53,2.25-1.09,3.47-1.66l.32.7c-1.22.57-2.37,1.12-3.46,1.65ZM24.57,116.44l-.1-2.21c-.02-.54-.05-1.08-.08-1.62l.77-.04c.03.54.05,1.08.08,1.62l.1,2.21-.77.04ZM129.23,115.42c-1.11-.46-2.3-.94-3.55-1.42l.28-.72c1.26.49,2.46.97,3.57,1.43l-.29.71ZM48.58,114.75l-.31-.7c1.13-.51,2.31-1.02,3.53-1.53l.29.71c-1.21.5-2.39,1.01-3.51,1.52ZM123.53,113.18c-1.17-.43-2.38-.87-3.61-1.29l.25-.73c1.23.43,2.45.86,3.62,1.29l-.27.72ZM54.23,112.37l-.28-.71.66-.26c.96-.37,1.95-.74,2.95-1.1l.26.72c-1,.36-1.97.72-2.93,1.09l-.65.26ZM151.56,111.96l-.77-.05c.07-1.2.14-2.48.19-3.83l.77.03c-.06,1.35-.12,2.64-.19,3.84ZM117.75,111.16c-1.21-.4-2.43-.78-3.65-1.14l.22-.74c1.23.37,2.46.75,3.67,1.15l-.24.73ZM24.27,110.31c-.07-1.27-.15-2.54-.23-3.83l.77-.05c.08,1.29.16,2.56.23,3.83l-.77.04ZM59.97,110.27l-.24-.73c1.23-.41,2.47-.8,3.68-1.15l.21.74c-1.2.35-2.43.73-3.65,1.14ZM111.89,109.38c-1.26-.35-2.5-.67-3.7-.96l.18-.75c1.21.29,2.46.61,3.71.96l-.19.74ZM65.83,108.51l-.2-.74c1.26-.33,2.52-.63,3.75-.9l.16.75c-1.22.26-2.47.56-3.71.89ZM105.95,107.91c-1.25-.27-2.51-.51-3.75-.73l.13-.76c1.25.22,2.52.46,3.78.73l-.16.75ZM71.79,107.17l-.14-.75c.33-.06.67-.12,1-.18.93-.16,1.86-.3,2.81-.42l.1.76c-.93.12-1.86.26-2.78.42-.33.06-.66.12-.99.18ZM99.94,106.82c-1.26-.19-2.53-.35-3.79-.48l.08-.76c1.27.13,2.56.29,3.82.48l-.11.76ZM77.84,106.31l-.08-.76c1.26-.13,2.56-.23,3.84-.31l.04.77c-1.27.07-2.56.18-3.81.31ZM93.86,106.14c-.46-.04-.92-.07-1.38-.1-.81-.05-1.62-.09-2.43-.12l.03-.77c.82.03,1.64.07,2.46.12.46.03.93.06,1.39.1l-.06.77ZM83.93,105.9l-.02-.77c1.28-.04,2.57-.05,3.85-.04v.77c-1.28-.01-2.55,0-3.83.04ZM151.85,105.82l-.77-.03c.05-1.25.09-2.54.13-3.83l.77.03c-.04,1.3-.09,2.58-.13,3.84ZM23.88,104.19l-.26-3.83.77-.05.26,3.83-.77.05ZM151.29,99.65v-.05s.77.02.77.02l-.77.02Z" data-part="brim"></path>
      <path class="cls-10" d="M31.03,120.23l-.25-.73c.92-.32,2.17-1.11,3.28-1.81l.41.65c-1.38.87-2.51,1.56-3.44,1.88ZM143.67,118.67c-.39-.17-.86-.38-1.41-.65-.59-.29-1.29-.65-2.06-1.05l.35-.68c.77.4,1.46.75,2.05,1.04.53.26.98.47,1.37.63l-.3.71ZM28.07,117.92c-.05-.27-.09-.56-.13-.85-.1-.84-.15-1.71-.21-3.02l.77-.04c.06,1.29.11,2.15.21,2.96.03.28.07.55.12.81l-.75.14ZM147.11,117.44l-.74-.2c.05-.2.11-.44.16-.69.2-.92.37-1.91.51-3.03l.76.1c-.15,1.14-.32,2.16-.53,3.09-.06.27-.11.51-.17.73ZM37.72,116.34l-.39-.66c1.18-.69,2.29-1.29,3.4-1.84l.34.69c-1.09.54-2.19,1.14-3.35,1.82ZM136.79,115.23c-1.27-.63-2.4-1.17-3.45-1.64l.31-.7c1.06.48,2.2,1.02,3.48,1.65l-.34.69ZM44.54,112.94l-.3-.71c1.09-.46,2.27-.94,3.57-1.44l.28.71c-1.29.5-2.46.97-3.55,1.43ZM129.81,112.12c-1.17-.46-2.36-.89-3.59-1.33l.26-.72c1.23.44,2.43.88,3.61,1.34l-.28.71ZM27.54,110.22c-.06-1.14-.15-2.43-.24-3.83l.77-.05c.09,1.4.18,2.7.24,3.83l-.77.04ZM51.67,110.15l-.27-.72c1.14-.43,2.35-.87,3.61-1.32l.26.72c-1.25.45-2.46.89-3.6,1.32ZM148.19,109.78l-.77-.06c.09-1.21.17-2.54.23-3.82l.77.04c-.07,1.29-.14,2.63-.23,3.84ZM122.59,109.55l-1.09-.37c-.83-.28-1.68-.56-2.55-.84l.24-.73c.87.28,1.72.57,2.55.85l1.09.37-.25.73ZM58.89,107.59l-.24-.73c1.29-.42,2.52-.81,3.68-1.14l.21.74c-1.15.33-2.37.71-3.65,1.14ZM115.3,107.19c-1.2-.36-2.42-.72-3.68-1.06l.2-.74c1.26.34,2.5.7,3.7,1.06l-.22.73ZM66.23,105.47l-.18-.75c1.23-.29,2.5-.56,3.77-.8l.14.75c-1.26.23-2.52.5-3.74.79ZM107.92,105.21l-.31-.07c-1.12-.25-2.28-.48-3.44-.69l.14-.75c1.17.21,2.34.45,3.47.7l.31.07-.17.75ZM73.74,104.07l-.11-.76c1.22-.17,2.47-.32,3.82-.47l.08.76c-1.35.14-2.59.29-3.8.46ZM100.4,103.83c-1.27-.18-2.55-.34-3.79-.46l.08-.76c1.26.13,2.54.28,3.82.47l-.11.76ZM81.35,103.25l-.06-.76c1.37-.11,2.62-.19,3.84-.24l.03.77c-1.21.05-2.46.13-3.81.24ZM92.8,103.07l-.49-.03c-1.1-.06-2.22-.09-3.32-.1v-.77c1.12,0,2.25.04,3.36.1l.5.03-.04.77ZM27.04,102.57l-.27-3.83.77-.05.27,3.83-.77.05ZM148.6,102.1l-.77-.03.04-.85c.09-2.06.12-2.58.15-2.99l.77.06c-.03.41-.07.93-.15,2.97l-.04.85Z" data-part="brim"></path>
      <path class="cls-9" d="M5.96,113.35l.08-.05c1.64,54.4,20.82,31.92,51.44,17.62,9.9-4.62,20.65-6.46,33.04-5.6,10.87.75,20.95,2.77,30.32,7.4,28.56,14.12,47.96,34.16,49.27-19.42l.06.04c-.62,57.59-20.22,37.03-49.33,22.63-9.37-4.63-19.45-6.65-30.32-7.4-12.39-.86-23.14.98-33.04,5.6-31.21,14.57-50.53,37.66-51.52-20.83Z" data-part="brim"></path>
      <path class="cls-1" d="M5.96,113.35l.08-.05c1.64,54.4,20.82,31.92,51.44,17.62,9.9-4.62,20.65-6.46,33.04-5.6,10.87.75,20.95,2.77,30.32,7.4,28.56,14.12,47.96,34.16,49.27-19.42l.06.04c-.62,57.59-20.22,37.03-49.33,22.63-9.37-4.63-19.45-6.65-30.32-7.4-12.39-.86-23.14.98-33.04,5.6-31.21,14.57-50.53,37.66-51.52-20.83Z"></path>
      <path class="cls-7" d="M139.87,21.2c.87.58,1.65,1.68,2.22,2.06l.41-.46c-.23-.34-.76-.8-1.07-1.11-.23-.23-.97-.95-1.25-.97-.08.3-.15.23-.32.48" data-part="crown"></path>
      <path class="cls-7" d="M157.17,62.78c.7,0,.74.19.53-1.41-.06-.47-.14-1.12-.14-1.69-.78,0-.68-.02-.65.47l.25,2.62Z" data-part="crown"></path>
      <path class="cls-7" d="M36.07,20.32c.07.26.2.34.4.48l2.3-1.83c-.06-.24-.19-.37-.32-.56-.44.29-.79.59-1.23.92-.22.17-.36.28-.58.46-.23.18-.43.3-.58.53" data-part="crown"></path>
      <path class="cls-7" d="M17.34,83.1h.71c0-1.09-.08-1.91-.08-3.02h-.63v3.02Z" data-part="crown"></path>
      <path class="cls-7" d="M118.92,9.61c.37.18,2.64,1.02,2.94,1.03l.17-.55c-.4-.19-.94-.37-1.39-.53-.35-.13-1.16-.48-1.48-.51-.09.19-.14.36-.24.56" data-part="crown"></path>
      <path class="cls-7" d="M44,14.77c.1.19.18.32.24.56.33-.03,2.44-1.25,2.78-1.43-.14-.21-.2-.33-.32-.56l-2.7,1.43Z" data-part="crown"></path>
      <path class="cls-7" d="M19.4,49.29c.15.07.42.14.63.16.23-.98.49-1.97.71-2.94-.15-.07-.42-.14-.63-.16l-.37,1.46c-.13.52-.24.99-.35,1.48" data-part="crown"></path>
      <path class="cls-7" d="M48.29,12.47c.07.3.17.33.24.64.34-.08.97-.44,1.37-.61.45-.2.92-.46,1.41-.58-.02-.29-.1-.38-.16-.64-.58.05-2.39,1.15-2.86,1.19" data-part="crown"></path>
      <path class="cls-7" d="M29.24,27.23c.18.27.19.25.48.4.47-.71,1.61-1.85,1.9-2.3-.13-.2-.28-.27-.48-.4-.16.23-.31.32-.5.54-.27.3-1.31,1.41-1.41,1.76" data-part="crown"></path>
      <path class="cls-7" d="M151.3,36.43c.1.43,1.15,2.25,1.19,2.78.38-.03.25-.13.63-.16-.05-.55-1.05-2.27-1.19-2.86-.3.07-.33.17-.64.24" data-part="crown"></path>
      <path class="cls-7" d="M155.59,50.18c.07.83.4,2.16.47,3,.38,0,.33-.05.64-.08,0-.37-.16-1.15-.23-1.52-.09-.51-.14-1.02-.25-1.5l-.63.09Z" data-part="crown"></path>
      <path class="cls-7" d="M17.74,63.81h.63c0-1.08.16-2.03.16-3.1h-.63c0,.38-.04.46-.07.73l-.09,2.37Z" data-part="crown"></path>
      <path class="cls-7" d="M100.27,4.77v.32c1.06,0,1.95.4,3.02.4l.09-.63c-.57,0-1.21-.16-1.75-.25-.25-.04-.57-.1-.82-.14-.43-.07-.54-.14-.54.31" data-part="crown"></path>
      <path class="cls-7" d="M156.93,101.43h.63c0-.34.08-.38.08-.79,0-.29,0-.59,0-.88.01-1.12.49-1.43-.55-1.43,0,.54-.08.88-.08,1.51,0,.65-.08.96-.08,1.59" data-part="brim"></path>
      <path class="cls-7" d="M127.89,13.34l2.68,1.3c.14-.21.23-.29.25-.58-.21-.11-.43-.21-.64-.32l-2.06-1.03c-.11.21-.21.34-.24.64" data-part="crown"></path>
      <path class="cls-7" d="M76.15,4.37c.08.16.11.44.16.63l2.44-.42c.83-.13.5-.01.5-.69-1.07,0-2.11.39-3.09.48" data-part="crown"></path>
      <path class="cls-7" d="M157.49,85.4v1.51h.63l.1-3.01h-.65c0,.6-.08.88-.08,1.51" data-part="crown"></path>
      <path class="cls-7" d="M157.57,82.07h.64c0-.4.08-.43.08-.87v-2.14h-.63c0,1.09-.08,1.91-.08,3.02" data-part="crown"></path>
      <path class="cls-7" d="M105.03,5.88c.64.01,2.36.54,3.02.56,0-.38.05-.33.08-.64-.42-.03-1-.19-1.46-.28-.47-.09-1.1-.27-1.55-.27-.03.31-.08.26-.08.63" data-part="crown"></path>
      <path class="cls-7" d="M109.71,6.83c.42.2,2.41.54,2.94.79.07-.15.14-.42.16-.64-.3-.14-1.05-.3-1.43-.4-.36-.09-1.23-.26-1.51-.4-.05.22-.11.42-.16.64" data-part="crown"></path>
      <path class="cls-7" d="M17.42,73.42c.71.06.64.45.63-1.43,0-.65.08-.97.08-1.59h-.71v3.02Z" data-part="crown"></path>
      <path class="cls-7" d="M114.4,8.1c.22.1.49.16.72.23.25.08.49.16.71.24.43.14,1.05.31,1.42.49.1-.2.14-.43.24-.64l-2.94-.95c-.06.26-.13.35-.16.63" data-part="crown"></path>
      <path class="cls-7" d="M156.54,54.92h-.24c.02.68.38,2.33.4,3.1.21-.12.27-.08.63-.08,0-.43-.12-1.08-.18-1.56-.06-.42-.18-1.1-.21-1.53-.18.04-.18.08-.4.08" data-part="crown"></path>
      <path class="cls-7" d="M149,32.23c.06.22.21.42.33.62l1.1,2c.3-.02.42-.12.63-.24l-1.12-1.98c-.12-.2-.33-.48-.39-.72-.21.14-.33.2-.56.32" data-part="crown"></path>
      <path class="cls-7" d="M123.44,11.36c.51.12,2.54,1.12,2.86,1.19.06-.26.13-.35.16-.63l-2.78-1.19c-.04.17-.17.49-.24.63" data-part="crown"></path>
      <path class="cls-7" d="M18.61,54.13c.38,0,.33.05.63.08,0-.5.27-1.97.38-2.57.1-.55.15-.53-.62-.53,0,.82-.4,2.01-.4,3.02" data-part="crown"></path>
      <path class="cls-7" d="M26.39,31.28c.22.11.34.21.63.24l1.59-2.54c-.24-.06-.37-.19-.56-.32l-1.67,2.62Z" data-part="crown"></path>
      <path class="cls-7" d="M71.46,5.4l.09.63c.47-.04,1.01-.22,1.49-.32.39-.08,1.11-.3,1.51-.31-.03-.31-.08-.26-.08-.63-.45,0-1.14.22-1.53.3-.48.1-1.07.3-1.49.34" data-part="crown"></path>
      <path class="cls-7" d="M90.67,4.06c.38,0,2.85.16,3.02.24.03-.31.08-.31.08-.71-1.08,0-2.03-.16-3.1-.16v.63Z" data-part="crown"></path>
      <path class="cls-7" d="M17.58,89.76v1.51c0,.62.08.9.08,1.51h.63l-.07-2.79c-.05-.48-.13-.23-.64-.23" data-part="brim"></path>
      <path class="cls-7" d="M95.51,4.14c0,.22-.36.24.45.34.18.02.6.06.86.1.54.07,1.2.19,1.71.19l.08-.64c-.69,0-2.04-.32-3.1-.32v.32Z" data-part="crown"></path>
      <path class="cls-7" d="M52.81,10.56c0,.42.08.3.16.64l1.42-.49c.43-.14.98-.36,1.44-.47,0-.29-.07-.44-.16-.63-.75.18-2.43.85-2.86.95" data-part="crown"></path>
      <path class="cls-7" d="M62.1,7.79c0,.38.05.33.08.64.74,0,2.24-.65,3.02-.71-.05-.22-.11-.42-.16-.63-.26.02-.48.1-.7.17-.23.07-.47.13-.76.2-.45.11-1.02.34-1.48.35" data-part="crown"></path>
      <path class="cls-7" d="M154.63,45.48l.63,2.94.63-.09c-.04-.44-.22-1.07-.31-1.5-.1-.48-.28-1.02-.32-1.5-.21.02-.48.09-.63.16" data-part="crown"></path>
      <path class="cls-7" d="M20.67,44.61c.19.09.34.15.63.16.05-.64.69-2.06.87-2.86-.2-.09-.34-.15-.63-.16-.1.45-.29.92-.45,1.38-.13.38-.39,1.1-.43,1.48" data-part="crown"></path>
      <path class="cls-7" d="M17.74,94.6c0,1.09.08,1.91.08,3.02.87,0,.66.05.64-.55l-.08-2.55c-.37,0-.33.05-.63.08" data-part="brim"></path>
      <path class="cls-7" d="M17.34,78.26h.63v-1.35c0-.67.08-1.01.08-1.67h-.71v3.02Z" data-part="crown"></path>
      <path class="cls-7" d="M157.49,67.62c.38,0,.33-.05.63-.08,0-1.03-.16-2-.16-3.02h-.63c0,.25-.01.55,0,.79.02.35.07.33.08.71l.08,1.59Z" data-part="crown"></path>
      <path class="cls-7" d="M153.2,40.88l.95,2.86c.21-.02.48-.09.63-.16-.19-.4-.32-1.01-.47-1.44-.16-.48-.37-.94-.49-1.42-.29,0-.44.06-.63.16" data-part="crown"></path>
      <path class="cls-7" d="M157.57,70.96c0,.62.08.9.08,1.51.31-.03.26-.08.63-.08l-.1-3.02h-.62s0,1.59,0,1.59Z" data-part="crown"></path>
      <path class="cls-7" d="M143.3,24.55l1.43,1.71c.23.26.24.37.54.57.23-.15.11-.16.4-.24-.04-.44-1.58-2.19-1.98-2.46l-.38.41Z" data-part="crown"></path>
      <path class="cls-7" d="M17.42,86.11c0,.72.08,1.12.08,1.83h.63c0-1.11-.08-1.92-.08-3.02h-.64v1.19Z" data-part="crown"></path>
      <path class="cls-7" d="M17.58,66.59c0,.77-.08,1.22-.08,1.98l.63.08.08-2.3c.01-.4.08-.4.08-.79h-.71v1.03Z" data-part="crown"></path>
      <path class="cls-7" d="M136.14,18.18c.63.33,1.8,1.38,2.46,1.83.08-.3.15-.23.32-.48-.14-.22-.33-.32-.54-.49l-1.84-1.41c-.19.14-.28.34-.4.56" data-part="crown"></path>
      <path class="cls-7" d="M24.17,35.56c.19.1.32.18.56.24l1.35-2.7c-.22-.11-.34-.21-.64-.24-.08.34-.66,1.32-.95,1.98-.11.24-.25.43-.32.72" data-part="crown"></path>
      <path class="cls-7" d="M157.17,96.59h.63c0-1.06.08-1.91.08-3.02l-.63-.08c0,1.12-.08,1.96-.08,3.09" data-part="brim"></path>
      <path class="cls-7" d="M18.05,58.97h.63c0-.72.3-2.33.32-3.02-.31-.03-.26-.08-.63-.08l-.32,3.09Z" data-part="crown"></path>
      <path class="cls-7" d="M66.78,6.6l.09.63,3-.79c-.08-.16-.11-.37-.16-.56-.48.01-2.31.57-2.94.71" data-part="crown"></path>
      <path class="cls-7" d="M132.17,15.48l2.54,1.67c.11-.21.21-.34.32-.56-.46-.31-2.19-1.49-2.62-1.59-.11.17-.18.23-.24.48" data-part="crown"></path>
      <path class="cls-7" d="M39.88,17.39c.13.19.2.34.4.48l2.54-1.59c-.14-.21-.2-.33-.32-.56l-2.62,1.67Z" data-part="crown"></path>
      <path class="cls-7" d="M146.3,28.26l1.75,2.46c.21-.05.29-.14.48-.24-.11-.45-1.35-2.06-1.67-2.54-.24.06-.37.19-.56.32" data-part="crown"></path>
      <rect class="cls-10" x="157.65" y="74.21" width=".63" height="3.02" data-part="crown"></rect>
      <path class="cls-7" d="M22.26,40.08c.33.03.26.09.56.16l1.11-2.86c-.29-.07-.22-.13-.56-.16-.11.2-.19.43-.29.66-.21.47-.81,1.8-.82,2.19" data-part="crown"></path>
      <path class="cls-7" d="M57.42,9.06c0,.29.07.44.16.63l2.94-.79c-.04-.19-.08-.4-.16-.56-.67.01-2.37.7-2.94.71" data-part="crown"></path>
      <path class="cls-7" d="M18.61,99.76c0-.42,0-.4-.48-.4-.37,0-.15.26-.16,1.43,0,.63.08.99.08,1.67h.63l-.08-1.98,2.7-1.35c-.05-.23-.14-.37-.24-.55l-2.46,1.19Z" data-part="brim"></path>
      <path class="cls-7" d="M157.81,100.08l2.7,1.43c.11-.21.21-.34.24-.63-.47-.25-2.33-1.32-2.7-1.35-.05.23-.14.37-.24.56" data-part="brim"></path>
      <path class="cls-7" d="M9.8,104.44c.07.3.17.33.24.64l2.7-1.43c-.07-.3-.17-.33-.24-.63-.44.23-.91.47-1.35.72l-1.35.71Z" data-part="brim"></path>
      <path class="cls-7" d="M83.29,82.94c0,.78.17.4,1.27.4h1.83c0-.75.06-.78-.58-.67-1.03.17-2.51-.22-2.51.28" data-part="crown"></path>
      <path class="cls-7" d="M68.84,83.97v.48c.64-.01,2.41-.32,3.1-.32-.03-.31-.08-.26-.08-.63-.57,0-1.11.09-1.6.15-.86.09-1.41-.01-1.41.33" data-part="crown"></path>
      <path class="cls-7" d="M5.6,106.83c.05.23.14.37.24.56.32-.07,2.34-1.24,2.7-1.43-.1-.19-.18-.32-.24-.56-.34.03-2.34,1.24-2.7,1.43" data-part="brim"></path>
      <path class="cls-7" d="M22.66,97.7c.07.3.17.33.24.63.34-.08,2.37-1.18,2.78-1.27-.07-.3-.17-.33-.24-.63-.42.22-.92.42-1.35.63l-1.43.64Z" data-part="brim"></path>
      <path class="cls-7" d="M40.51,90.32c.08.17.14.31.16.56.63-.01,2.3-.82,2.94-.87-.02-.29-.1-.38-.16-.63-.3.03-2.65.81-2.94.95" data-part="brim"></path>
      <path class="cls-7" d="M64,84.37c0,.38.05.33.08.63,1.07,0,1.92-.32,3.02-.32,0-.85.15-.73-1.33-.53-.52.07-1.16.21-1.77.21" data-part="crown"></path>
      <path class="cls-7" d="M92.97,82.86c0,.64,0,.48,1.59.47.4,0,.52.04.81.07.79.1.7-.06.7-.63l-1.67-.08c-1,0-1.43-.23-1.43.16" data-part="crown"></path>
      <path class="cls-7" d="M126.38,87.94c.31.15,1.03.29,1.42.41.33.1,1.16.38,1.52.39.06-.26.13-.35.16-.64-.27,0-2.72-.69-2.94-.79-.07.15-.14.42-.16.64" data-part="crown"></path>
      <path class="cls-7" d="M49.8,87.38c0,.29.06.44.16.64.61-.01,2.29-.66,2.94-.71-.02-.21-.09-.48-.16-.63-.63.05-2.34.7-2.94.71" data-part="crown"></path>
      <path class="cls-7" d="M45.12,88.81c.08.16.11.37.16.56.42,0,1.04-.25,1.46-.37.52-.15.96-.3,1.48-.43,0-.29-.07-.44-.16-.63-.52.12-.96.27-1.48.43-.29.09-.47.13-.73.22-.19.06-.56.15-.72.23" data-part="brim"></path>
      <path class="cls-7" d="M121.68,86.82c.69.02,2.35.62,2.95.64.07-.15.14-.42.16-.63-.6-.01-2.29-.64-3.02-.64l-.09.63Z" data-part="crown"></path>
      <path class="cls-7" d="M130.98,89.29l2.94.87c.07-.15.14-.42.16-.64l-2.94-.87c-.02.21-.09.48-.16.63" data-part="brim"></path>
      <path class="cls-7" d="M166.22,104.76c.24.16,2.42,1.52,2.7,1.59.08-.36.16-.25.24-.56l-2.62-1.59c-.12.23-.18.35-.32.56" data-part="brim"></path>
      <path class="cls-7" d="M112.25,84.61c0,.21-.04.22-.08.4.51.01,1.3.18,1.87.27,1.06.16,1.13.35,1.23-.04v-.35c-.01-.15-2.74-.52-3.02-.52v.24Z" data-part="crown"></path>
      <path class="cls-7" d="M144.71,93.97c.28.02,1.15.4,1.45.53.4.17,1.01.48,1.41.58.06-.26.13-.35.16-.63-.3-.07-2.33-1.01-2.78-1.11-.12.22-.17.36-.24.64" data-part="brim"></path>
      <path class="cls-7" d="M14.01,102.14c.1.19.18.32.24.56.49-.04,2.37-1.25,2.78-1.35-.08-.3-.16-.2-.24-.56-.52.04-2.28,1.23-2.78,1.35" data-part="brim"></path>
      <path class="cls-7" d="M170.34,107.3c.46.24.85.54,1.27.79.33.2,1.02.72,1.35.8.11-.16.21-.32.32-.48-.77-.52-1.82-1.24-2.62-1.67-.12.23-.18.35-.32.56" data-part="brim"></path>
      <path class="cls-7" d="M162.09,102.38c.42.28.85.47,1.32.75.45.27.86.53,1.3.76.12-.23.18-.35.32-.56-.4-.27-.86-.49-1.3-.76-.24-.14-.42-.24-.66-.38-.25-.14-.49-.31-.74-.37-.1.19-.18.32-.24.56" data-part="brim"></path>
      <path class="cls-7" d="M35.99,91.91c.02.29.1.38.16.63l2.86-1.03c-.02-.29-.1-.38-.16-.64l-2.86,1.03Z" data-part="brim"></path>
      <path class="cls-7" d="M107.41,84.37c.43,0,1.03.12,1.49.17.46.06,1.07.12,1.52.22l.08-.71c-1.03,0-2.03-.32-3.02-.32-.03.31-.08.26-.08.64" data-part="crown"></path>
      <path class="cls-7" d="M54.48,86.19c.02.21.09.48.16.64.35,0,1.11-.22,1.44-.3.52-.12.99-.22,1.49-.33l-.09-.63-1.49.32c-.37.09-1.15.31-1.51.32" data-part="crown"></path>
      <path class="cls-7" d="M73.61,83.34c.03.31.08.26.08.63l3.02-.24v-.64c-.36,0-.5.03-.74.06-.29.04-.55,0-.84.03l-1.52.15Z" data-part="crown"></path>
      <path class="cls-7" d="M78.45,83.18l.08.48c.34,0,.32-.07.71-.08l2.3-.08v-.63l-2.46.07c-.34,0-.63-.08-.63.24" data-part="crown"></path>
      <path class="cls-7" d="M116.94,85.8c.42.03,1,.19,1.46.28.47.09,1.1.27,1.55.27l.08-.63c-.61-.01-2.23-.5-2.94-.56-.08.16-.11.43-.16.63" data-part="crown"></path>
      <path class="cls-7" d="M31.47,93.73c.07.3.17.33.24.63.38-.2.9-.39,1.34-.57.41-.16.99-.44,1.44-.54,0-.42-.08-.3-.16-.63-.45.11-1.03.38-1.44.54l-1.42.57Z" data-part="brim"></path>
      <path class="cls-7" d="M140.19,92.22l2.86,1.03c.12-.22.17-.36.24-.63-.37-.03-1.06-.35-1.42-.49-.37-.13-1.07-.46-1.52-.47-.03.33-.09.26-.16.56" data-part="brim"></path>
      <path class="cls-7" d="M59.24,85.16c0,.4.07.36.08.71.17-.08,2.68-.53,3.02-.56l-.09-.63c-.74.01-2.2.47-3,.47" data-part="crown"></path>
      <path class="cls-7" d="M27.02,95.72c.1.19.18.32.24.56l2.78-1.19c-.02-.3-.12-.42-.24-.63-.42.22-.9.41-1.37.61-.48.21-.97.43-1.41.66" data-part="brim"></path>
      <path class="cls-7" d="M97.81,83.49l2.22.16c.4,0,.4.08.79.08.03-.31.08-.26.08-.64-.42-.03-1.09-.12-1.51-.15-.26-.02-.52.01-.78-.02-.28-.03-.41-.07-.81-.07v.63Z" data-part="crown"></path>
      <path class="cls-7" d="M102.65,83.57c0,.44-.45.23,1.26.41.56.06,1.09.15,1.76.15,0-.9.4-.53-1.25-.74-.51-.07-1.16-.14-1.77-.14v.32Z" data-part="crown"></path>
      <rect class="cls-10" x="88.13" y="82.62" width="3.1" height=".64" data-part="crown"></rect>
      <path class="cls-7" d="M1.39,109.29c.05.21.14.29.24.48.3-.07.4-.2.69-.34.42-.21,1.69-1.01,2.01-1.08-.1-.19-.18-.32-.24-.56-.35.03-.49.18-.72.31l-1.32.74c-.33.18-.46.15-.66.45" data-part="brim"></path>
      <path class="cls-7" d="M153.52,97.86l2.76,1.38c.07-.26.15-.4.25-.59l-2.76-1.38c-.11.22-.15.39-.25.59" data-part="brim"></path>
      <path class="cls-7" d="M149.16,95.79l2.78,1.27c.11-.21.21-.34.24-.63-.54-.13-.89-.39-1.37-.61l-1.4-.58c-.1.19-.15.36-.24.56" data-part="brim"></path>
      <path class="cls-7" d="M135.66,90.72c.74.17,2.46.84,2.86.87.08-.17.14-.31.16-.56l-2.86-.95c-.09.2-.15.34-.16.64" data-part="brim"></path>
      <path class="cls-7" d="M157.33,91.75h.63l.08-3.02c-.49,0-.56-.23-.63.15-.04.18,0,.73,0,.96l-.08,1.9Z" data-part="brim"></path>
      <path class="cls-7" d="M32.42,23.66l.41.38,2.2-2.05c-.07-.26-.2-.34-.4-.48l-2.22,2.14Z" data-part="crown"></path>
      <path class="cls-7" d="M87.81,4.2h.71l.1-1.85h.78c0,1.28-.16,2.83-.16,4.15l-.08,6.1c0,1.31.08,2.45.08,3.76h.64V7.03c0-1.48.16-3.17.16-4.69h1.11v-.39h-3.1c0,.4-.15.86-.16,1.66,0,.28-.08.34-.08.58" data-part="crown"></path>
      <path class="cls-7" d="M87.77,7.83v.32h.71v-3.1h-.63c0,1.02-.08,1.75-.08,2.78" data-part="crown"></path>
      <path class="cls-7" d="M87.77,9.32l.08,2.86h.63v-3.09c-.51,0-.71-.07-.71.24" data-part="crown"></path>
      <path class="cls-7" d="M87.85,15.76c0,.31.2.24.71.24l-.08-3.09h-.63v2.86Z" data-part="crown"></path>
      <path class="cls-7" d="M89.47,17.41c-.35,0-.35-.3-.71-.4l-.41.38c.56.81,1.54.92,2.16.1.23-.3.41-.55.63-.87-.21-.14-.34-.29-.64-.32-.07.26-.64,1.11-1.03,1.11" data-part="crown"></path>
      <path class="cls-7" d="M83.2,2.43l.08.48c.96-.08,1.96-.24,3.02-.24v-.64c-.65,0-1.13.07-1.67.08-.4,0-.5.05-.8.07-.31.02-.63-.09-.63.25" data-part="crown"></path>
      <path class="cls-7" d="M162.34,99.8c0,.96-.09,1.04.42,1.04.36,0,.32-.26.32-.62,0-.34-.01-.7-.01-1.05-.25-.06-.31-.1-.63-.1-.03.33-.1.37-.1.73" data-part="brim"></path>
      <rect class="cls-10" x="12.96" y="83.65" width=".73" height="1.67" data-part="crown"></rect>
      <path class="cls-7" d="M162.65,85.21h.42c.24,0,.31-.07.31-.31v-1.35h-.73v1.67Z" data-part="crown"></path>
      <path class="cls-7" d="M12.96,82.71h.73v-1.35c0-.24-.07-.31-.31-.31h-.42v1.67Z" data-part="crown"></path>
      <path class="cls-7" d="M162.65,82.61h.42c.24,0,.31-.07.31-.31v-1.35h-.73v1.67Z" data-part="crown"></path>
      <path class="cls-7" d="M12.96,87.61h0c0,.24.08.31.31.31h.42v-1.67h-.73v1.35Z" data-part="crown"></path>
      <path class="cls-7" d="M13.16,98.23h.73v-1.35c0-.24-.07-.31-.31-.31h-.42v1.67Z" data-part="brim"></path>
      <path class="cls-7" d="M162.55,74.48c0,.24.07.31.31.31h.42v-1.67h-.73v1.35Z" data-part="crown"></path>
      <path class="cls-7" d="M13.16,68.44v1.35c.89,0,.73.19.73-1.67-.51,0-.73-.07-.73.31" data-part="crown"></path>
      <path class="cls-7" d="M12.96,78.75v1.35h.73c0-1.53.15-1.67-.42-1.67-.24,0-.31.07-.31.3h0Z" data-part="crown"></path>
      <path class="cls-7" d="M162.55,93.03h.62c.05-.23.1-.24.1-.52v-1.15h-.73v1.67Z" data-part="brim"></path>
      <path class="cls-7" d="M74,4.27c.4-.03.34-.1.83-.1.97-.01.91.03.73-.73-2.19,0-1.57.34-1.56.83" data-part="crown"></path>
      <path class="cls-7" d="M110.15,5.1c.63,0,1.04.21,1.67.21,0-.32.05-.38.1-.63-1.87-.43-1.77-.36-1.77.42" data-part="crown"></path>
      <path class="cls-7" d="M16.6,44.17c.21.1.37.15.63.21l.51-1.57c-.22-.11-.4-.18-.72-.2-.05.6-.37.96-.42,1.56" data-part="crown"></path>
      <path class="cls-7" d="M109.21,4.89c.06-.25.1-.31.1-.63-.51-.01-1.16-.2-1.67-.21-.01.53-.67.83,1.56.83" data-part="crown"></path>
      <path class="cls-7" d="M66.19,4.37l.12.62c2.24.02,1.59-.37,1.55-.83-.58,0-1.12.2-1.67.21" data-part="crown"></path>
      <path class="cls-7" d="M132.34,11.98l1.46.73.32-.62-1.55-.77c-.09.36-.15.34-.23.66" data-part="crown"></path>
      <path class="cls-7" d="M162.03,61.46v.31h.73c-.16-1.88.01-1.67-.83-1.67,0,.59.1.72.1,1.35" data-part="crown"></path>
      <path class="cls-7" d="M14.73,51.77c.69.02.63.39.75-.39.06-.36.18-.78.19-1.17l-.62-.12c-.1.44-.31,1.22-.32,1.68" data-part="crown"></path>
      <path class="cls-7" d="M13.27,77.61h.42v-1.67c-.32,0-.38-.05-.63-.1,0,.49-.03.63-.08.97,0,.05-.02.1-.02.15v.45c.04.13.13.21.31.21" data-part="crown"></path>
      <path class="cls-7" d="M86.82,2.93v.61s1.66,0,1.66,0l.12-.62c-.41-.01-.51-.14-.74-.11l-1.04.12Z" data-part="crown"></path>
      <path class="cls-7" d="M80.04,3.12h-.94v.73l1.67-.1v-.73c-.33.03-.37.1-.73.1" data-part="crown"></path>
      <path class="cls-7" d="M162.45,96.78v1.46h.63c0-.73.1-1,.1-1.67-.33-.03-.73-.28-.73.21" data-part="brim"></path>
      <path class="cls-7" d="M161.72,57.71c0,.48.03.74.1,1.16.1.66.1.31.74.3l-.21-1.67c-.22,0-.63-.05-.63.21" data-part="crown"></path>
      <path class="cls-7" d="M13.06,91.67c0,1.65-.11,1.55.73,1.35l-.1-1.67c-.36,0-.63-.06-.63.31" data-part="brim"></path>
      <path class="cls-7" d="M14.62,54.38h.42c0-.64.16-1.11.21-1.67h-.73c0,.42-.05.6-.1.95-.07.43-.21.72.21.72" data-part="crown"></path>
      <path class="cls-7" d="M161.41,55.02c0,.39.12,1.3.2,1.65.32,0,.38-.05.63-.1,0-.5-.11-1.25-.21-1.67l-.62.12Z" data-part="crown"></path>
      <path class="cls-7" d="M115.25,6.04c.51,0,1.21.21,1.67.31,0-.32.05-.38.1-.63-.36-.17-1.21-.31-1.67-.42-.03.4-.09.27-.1.73" data-part="crown"></path>
      <path class="cls-7" d="M76.5,3.33v.42c0,.48.3.21.62.21h1.04v-.73c-.67,0-.94.1-1.67.1" data-part="crown"></path>
      <path class="cls-7" d="M71.71,3.75h-.31v.73c.46,0,.42-.09.94-.1.75-.01.73.08.73-.73-.59,0-.72.1-1.35.1" data-part="crown"></path>
      <path class="cls-7" d="M154.42,32.92c.13.57.49.89.63,1.46,1.01-.08.6-.44-.1-1.77-.23.12-.31.17-.52.31" data-part="crown"></path>
      <path class="cls-7" d="M15.87,46.67c.25.06.42.11.63.21.12-.52.37-1.14.42-1.67-.25-.06-.31-.1-.63-.1-.12.52-.37.98-.42,1.56" data-part="crown"></path>
      <path class="cls-7" d="M120.26,7.19c.29.07.54.13.82.22.28.09.44.19.85.2.06-.25.1-.31.1-.63-.47-.11-1.09-.38-1.56-.42-.12.24-.09.38-.21.63" data-part="crown"></path>
      <path class="cls-7" d="M99.84,3.64v.42c.73,0,1,.1,1.67.1,0-.9,0-.71-.84-.73-.51-.01-.83-.25-.83.21" data-part="crown"></path>
      <path class="cls-7" d="M13.27,66.46v.73c.32,0,.38.05.63.1.13-1.51.4-1.77-.52-1.77-.01.47-.1.41-.1.94" data-part="crown"></path>
      <path class="cls-7" d="M92.02,3.33c0,.47.53.31,1.67.31,0-.82-.04-.33.1-.63l-1.77-.1v.42Z" data-part="crown"></path>
      <path class="cls-7" d="M151.72,28.44c.11.46.6,1.01.83,1.46.27-.07.38-.18.63-.31-1.24-1.86-.67-1.38-1.46-1.15" data-part="crown"></path>
      <path class="cls-7" d="M160.57,49.9l.27,1.5c.22.39-.21.07.67.07,0-.21-.15-1.67-.42-1.67-.16,0-.39.06-.52.1" data-part="crown"></path>
      <path class="cls-7" d="M97.23,3.44v.42c.73,0,1,.1,1.67.1,0-.87.01-.73-.84-.73-.45,0-.83-.23-.83.21" data-part="crown"></path>
      <path class="cls-7" d="M158.49,42.4c.03.38.1.38.21.73.09.29.18.51.21.83.46-.01.32-.07.73-.1l-.54-1.66c-.19.09-.36.14-.61.2" data-part="crown"></path>
      <path class="cls-7" d="M13.68,64.69c.5,0,.43-.18.42-.73,0-.53,0-.54.1-.94-.65-.01-.7-.34-.73.51-.02.65-.31,1.15.21,1.15" data-part="crown"></path>
      <path class="cls-7" d="M162.34,65.73v1.25h.73l-.1-1.67c-.98,0-.63.03-.63.42" data-part="crown"></path>
      <path class="cls-7" d="M102.44,3.85v.42l1.66.13v-.65c-.41-.1-.42-.09-.94-.11-.5-.02-.72-.19-.72.21" data-part="crown"></path>
      <path class="cls-7" d="M125.26,8.85c.55.13,1.07.48,1.56.52l.12-.62c-.34-.16-1.16-.49-1.58-.52-.06.25-.1.31-.1.63" data-part="crown"></path>
      <path class="cls-7" d="M51.08,8.12c.09.18.11.52.31.52.42,0,.88-.37,1.46-.42-.03-.32-.1-.5-.21-.73-.49.24-1.09.37-1.56.63" data-part="crown"></path>
      <path class="cls-7" d="M56.08,6.46c0,.32.05.38.1.63.6-.01.99-.27,1.56-.31,0-.96.22-.75-1.67-.31" data-part="crown"></path>
      <path class="cls-7" d="M129.94,10.83c.52.12.98.49,1.57.63.13-.24.18-.27.21-.63l-1.46-.62-.32.62Z" data-part="crown"></path>
      <path class="cls-7" d="M127.65,9.79l1.46.63.32-.62c-.52-.12-.98-.49-1.57-.63-.13.24-.18.27-.21.62" data-part="crown"></path>
      <path class="cls-7" d="M157.55,40c.25.48.39,1.07.63,1.56.21-.1.37-.15.63-.21-.11-.24-.17-.48-.28-.76-.13-.31-.21-.42-.24-.8-.31.03-.51.1-.73.21" data-part="crown"></path>
      <path class="cls-7" d="M13.77,59.48h.65c.03-.35.08-.48.11-.94.03-.45.23-.73-.21-.73h-.42l-.13,1.66Z" data-part="crown"></path>
      <path class="cls-7" d="M13.06,72.4h.73v-1.67h-.63c0,.67-.1.94-.1,1.67" data-part="crown"></path>
      <path class="cls-7" d="M159.95,47.4c.1.21.17.53.23.81.19.87.04.83.81.65-.03-.39-.28-1.39-.42-1.67-.25.12-.38.09-.63.21" data-part="crown"></path>
      <path class="cls-7" d="M122.76,7.91l1.56.54c.13-.26.18-.29.21-.64l-1.56-.52c-.1.21-.15.37-.21.63" data-part="crown"></path>
      <path class="cls-7" d="M162.34,102.82c0,.33-.27.62.21.62h.42v-1.77h-.63v1.15Z" data-part="brim"></path>
      <path class="cls-7" d="M134.63,13.02c.17.26,1.23.83,1.25.83.34,0,.4-.3.52-.52-1.69-.89-1.48-.91-1.77-.31" data-part="crown"></path>
      <path class="cls-7" d="M159.32,45c0,.17.35,1.32.42,1.46l.62-.12c-.05-.57-.36-.99-.41-1.65-.19.04-.63.1-.63.31" data-part="crown"></path>
      <path class="cls-7" d="M41.71,12.29c.11,1.3.87.19,1.67,0-.03-.35-.08-.38-.21-.63-.57.13-.89.49-1.46.63" data-part="crown"></path>
      <path class="cls-7" d="M94.63,3.64c.74.17.78.1,1.67.1,0-.82-.04-.33.1-.63l-1.77-.1v.63Z" data-part="crown"></path>
      <path class="cls-7" d="M58.58,5.83c0,.32.05.38.1.63.62-.01,1.11-.27,1.67-.31-.06-.25-.1-.31-.1-.63-.7,0-1.05.26-1.67.31" data-part="crown"></path>
      <path class="cls-7" d="M117.76,6.56c.62.05.97.31,1.67.31.06-.25.1-.31.1-.63-.56-.05-1.05-.3-1.67-.31,0,.32-.05.38-.1.62" data-part="crown"></path>
      <path class="cls-7" d="M21.6,32.29c.32.08.3.13.63.21.07-.24.21-.44.35-.69.17-.3.3-.41.38-.76-.75-.4-.57-.22-.98.48-.19.31-.28.38-.37.77" data-part="crown"></path>
      <path class="cls-7" d="M18.27,39.27c.23.11.41.18.73.21.04-.5.39-1.01.52-1.56-.25-.06-.42-.11-.63-.21-.08.35-.46,1.26-.63,1.56" data-part="crown"></path>
      <path class="cls-7" d="M17.43,41.77l.62.12c.14-.59.38-.98.52-1.58-.35-.03-.38-.08-.63-.21-.12.53-.47,1.06-.52,1.67" data-part="crown"></path>
      <path class="cls-7" d="M162.24,64.38h.63v-1.35c0-.24-.07-.31-.31-.31h-.42c0,.73.1,1,.1,1.67" data-part="crown"></path>
      <path class="cls-7" d="M61.08,5.31c.06.25.1.31.1.63l1.67-.31-.12-.62c-.34,0-1.41.2-1.65.31" data-part="crown"></path>
      <path class="cls-7" d="M39.42,13.75c.17.25.13.11.21.42.42-.04,1.02-.44,1.56-.73-.39-.74-.33-.59-1.11-.17-.29.15-.49.26-.66.49" data-part="crown"></path>
      <path class="cls-7" d="M136.92,14.48c.51.14.89.68,1.46.73.08-.31.04-.17.21-.42-.22-.33-1.1-.85-1.46-.94-.13.24-.18.27-.21.63" data-part="crown"></path>
      <path class="cls-7" d="M155.57,35.21c.12.51.51,1.05.63,1.56.24-.13.27-.18.63-.21-.16-.68-.49-1-.63-1.56-.32.03-.42.09-.63.21" data-part="crown"></path>
      <path class="cls-7" d="M143.15,18.83c.23.33.29.35.6.59.29.22.38.39.67.58l.39-.44c-.2-.32-.92-.92-1.23-1.12l-.44.39Z" data-part="crown"></path>
      <path class="cls-7" d="M161.51,54.06c.77,0,.23-.56.21-1.67h-.63c0,.66-.01,1.67.42,1.67" data-part="crown"></path>
      <path class="cls-7" d="M148.61,24.39l.92,1.23c.32-.07.4-.16.63-.31-.32-.47-.73-.88-1.04-1.35l-.5.44Z" data-part="crown"></path>
      <path class="cls-7" d="M15.25,49.17c.25.12.38.09.63.21.11-.46.24-1.3.42-1.67-.4-.03-.27-.09-.73-.1-.05.55-.27,1.05-.31,1.56" data-part="crown"></path>
      <path class="cls-7" d="M139.11,15.62c0,.3.09.21.58.56.29.2.41.38.77.48.14-.21.19-.29.31-.52-.46-.31-.89-.63-1.35-.94-.08.12-.31.35-.31.42" data-part="crown"></path>
      <path class="cls-7" d="M14,56.88c.46,0,.32.07.73.1,0-.67.1-.94.1-1.67-.25-.06-.31-.1-.63-.1,0,.4-.13,1.32-.21,1.67" data-part="crown"></path>
      <path class="cls-7" d="M68.79,4.06v.63l1.66-.13v-.71c-.46.04-1.21.17-1.66.21" data-part="crown"></path>
      <path class="cls-7" d="M145.05,20.52l1.23,1.28.42-.46c-.09-.14-.96-1.12-1.12-1.12-.24,0-.32.17-.52.31" data-part="crown"></path>
      <path class="cls-7" d="M141.17,17.16c.27.39.94.96,1.38,1.06.14-.21.19-.29.31-.52-.51-.27-.81-.64-1.25-.94l-.44.39Z" data-part="crown"></path>
      <path class="cls-7" d="M22.96,30c.21.14.29.19.52.31.26-.5.57-.86.83-1.35-.16-.22-.3-.27-.52-.42-.24.45-.73,1-.83,1.46" data-part="crown"></path>
      <path class="cls-7" d="M46.29,10.1c.11.21.14.25.21.52.44-.04,1.22-.44,1.56-.62-.08-.32-.13-.3-.21-.63-.5.27-1.06.46-1.56.73" data-part="crown"></path>
      <path class="cls-7" d="M48.69,9.06c.09.18.12.34.21.52.63-.05,1-.39,1.56-.52-.06-.25-.11-.42-.21-.62-.35.08-1.26.46-1.56.62" data-part="crown"></path>
      <path class="cls-7" d="M53.58,7.19l.12.62c.4,0,1.08-.28,1.65-.41-.12-.24-.09-.38-.21-.63l-1.56.42Z" data-part="crown"></path>
      <path class="cls-7" d="M33.06,18.02c.07.32.16.4.31.63.22-.12,1.25-.89,1.25-1.04,0-.25-.17-.31-.31-.52-.52.35-.87.84-1.25.94" data-part="crown"></path>
      <path class="cls-7" d="M27.54,23.65l.39.44c.12-.09,1.06-1.12,1.06-1.17,0-.25-.17-.31-.31-.52-.47.32-.83.77-1.15,1.25" data-part="crown"></path>
      <path class="cls-7" d="M19.31,36.88c.75.4.59.21.9-.45.15-.32.27-.45.35-.8-.75-.4-.59-.21-.9.45-.15.32-.27.45-.35.8" data-part="crown"></path>
      <path class="cls-7" d="M13.37,102.92v.52h.63v-1.67h-.73c0,.53.1.57.1,1.15" data-part="brim"></path>
      <path class="cls-7" d="M162.45,69.59h.73c0-.53-.1-.57-.1-1.15v-.52h-.63v1.67Z" data-part="crown"></path>
      <path class="cls-7" d="M156.61,37.6c.22.46.39,1.01.62,1.46l.62-.12c-.06-.24-.53-1.55-.73-1.55-.16,0-.41.14-.52.21" data-part="crown"></path>
      <path class="cls-7" d="M24.31,27.81c.23.12.31.17.52.31.28-.21.72-.92.94-1.25l-.39-.44c-.36.25-.82,1.01-1.06,1.38" data-part="crown"></path>
      <path class="cls-7" d="M150.23,26.43c.18.33.71,1.09.96,1.27.23-.12.31-.17.52-.31-.2-.3-.79-1.17-1.04-1.35l-.44.39Z" data-part="crown"></path>
      <path class="cls-7" d="M82.13,3.02h-.42v.63h1.67c0-1.13-.13-.63-1.25-.63" data-part="crown"></path>
      <path class="cls-7" d="M153.07,30.63c.23.43.58,1.22.94,1.46.72-.38.47-.2-.31-1.67-.32.07-.3.13-.62.21" data-part="crown"></path>
      <path class="cls-7" d="M37.23,15.1c.17.25.13.11.21.42.56-.05.82-.56,1.46-.73-.08-.32-.13-.3-.21-.63-.44.1-1.25.62-1.46.94" data-part="crown"></path>
      <path class="cls-7" d="M146.9,22.48c.18.25.31.36.52.57.25.24.35.26.44.6.27-.07.38-.18.63-.31-.26-.5-.69-.95-1.15-1.25l-.44.39Z" data-part="crown"></path>
      <path class="cls-7" d="M20.46,34.58c.27.06.31.09.52.21l.73-1.46c-.23-.15-.31-.24-.63-.31-.14.59-.57.95-.63,1.56" data-part="crown"></path>
      <path class="cls-7" d="M112.75,5.52c1.34.03,1.67.81,1.67-.42-.62-.01-.89-.21-1.67-.21v.62Z" data-part="crown"></path>
      <path class="cls-7" d="M31.08,19.9l.39.44c.44-.3,1-.76,1.27-1.17l-.44-.39-1.23,1.12Z" data-part="crown"></path>
      <polygon class="cls-7" points="29.18 21.75 29.65 22.16 30.9 20.96 30.43 20.54 29.18 21.75" data-part="crown"></polygon>
      <path class="cls-7" d="M63.69,4.79v.63c.68,0,1.07-.2,1.67-.21v-.62c-.73,0-1.07.16-1.67.21" data-part="crown"></path>
      <path class="cls-7" d="M162.55,94.8c0,.44-.32.83.21.83h.42v-1.67h-.62v.83Z" data-part="brim"></path>
      <path class="cls-7" d="M13.27,100.84h.42c.53,0,.21-.4.21-.83v-.83h-.63v1.67Z" data-part="brim"></path>
      <path class="cls-7" d="M162.65,89.59c0,.44-.32.83.21.83h.42v-1.67h-.63v.83Z" data-part="brim"></path>
      <path class="cls-7" d="M35.04,16.46c.12.23.17.31.31.52.4-.09,1.16-.65,1.35-.94-.45-.85-.31-.3-1.67.42" data-part="crown"></path>
      <path class="cls-7" d="M44,11.14c.08.32.13.3.21.63.57-.13.89-.49,1.46-.63l-.12-.62c-.6.05-.96.48-1.55.62" data-part="crown"></path>
      <path class="cls-7" d="M162.65,80h.42c.48,0,.21-.3.21-.63v-1.04h-.63v1.67Z" data-part="crown"></path>
      <path class="cls-7" d="M84.31,3.64c.23-.05.24-.1.52-.1h1.15v-.63h-1.67v.73Z" data-part="crown"></path>
      <path class="cls-7" d="M13.06,75h.63v-1.15c0-.28.05-.29.1-.52h-.73v1.67Z" data-part="crown"></path>
      <path class="cls-7" d="M13.58,61.77v.31h.63l.1-1.67h-.63c0,.59-.1.72-.1,1.35" data-part="crown"></path>
      <path class="cls-7" d="M13.16,94.38v1.25h.63v-1.67h-.42c-.44,0-.21.16-.21.42" data-part="brim"></path>
      <rect class="cls-10" x="162.65" y="86.15" width=".63" height="1.67" data-part="crown"></rect>
      <polygon class="cls-7" points="105.05 4.48 106.71 4.58 106.71 3.96 105.05 3.85 105.05 4.48" data-part="crown"></polygon>
      <rect class="cls-10" x="13.06" y="88.86" width=".63" height="1.67" data-part="brim"></rect>
      <rect class="cls-10" x="162.55" y="70.52" width=".62" height="1.67" data-part="crown"></rect>
      <rect class="cls-10" x="89.42" y="2.91" width="1.67" height=".63" data-part="button"></rect>
      <rect class="cls-10" x="162.65" y="75.73" width=".63" height="1.67" data-part="crown"></rect>
      <path class="cls-7" d="M25.87,25.73c.22.15.31.24.63.31.09-.35-.01-.07.17-.35.28-.41.39-.39.66-.9l-.39-.44-1.06,1.38Z" data-part="crown"></path>
      <path class="cls-7" d="M162.24,105.21h.63c.04-.43.1-.23.1-.63,0-.24-.07-.31-.31-.31h-.42v.94Z" data-part="brim"></path>
      <path class="cls-7" d="M13.37,104.59v.63h.4c.35-.01.33-.09.33-.63,0-.44-.73-.44-.73,0" data-part="brim"></path>
      <path class="cls-3" d="M86.64.13h3.98c2.22,0,4.04,1.36,4.04,3.03h0c0,.05,0,.1,0,.15-2-.04-4.01-.07-6.02-.07s-4.02.02-6.02.07c0-.05,0-.1,0-.15h0c0-1.67,1.82-3.03,4.04-3.03Z"></path>
      <path class="cls-9" d="M86.64.12h3.98c2.22,0,4.04,1.36,4.04,3.03h0c0,.05,0,.1,0,.15-2-.04-4.01-.07-6.02-.07s-4.02.02-6.02.07c0-.05,0-.1,0-.15h0c0-1.67,1.82-3.03,4.04-3.03" data-part="button"></path>
    </g>
  </g>
</svg>