<svg id="Camada_2" data-name="Camada 2" xmlns="http://www.w3.org/2000/svg" viewBox="0 0 175.02 150.77">
  <defs>
    <style>
      .cls-1 {
        stroke: #000;
        stroke-width: .57px;
      }

      .cls-1, .cls-2, .cls-3, .cls-4, .cls-5, .cls-6, .cls-7 {
        fill: none;
      }

      .cls-1, .cls-2, .cls-3, .cls-5, .cls-6, .cls-7 {
        stroke-miterlimit: 22.93;
      }

      .cls-2 {
        stroke: #231f20;
        stroke-width: .26px;
      }

      .cls-3 {
        stroke-width: .13px;
      }

      .cls-3, .cls-7 {
        stroke: #1a1a1a;
      }

      .cls-4 {
        stroke: #a6a8ab;
        stroke-linecap: round;
        stroke-linejoin: round;
        stroke-width: .13px;
      }

      .cls-8, .cls-9, .cls-10 {
        fill-rule: evenodd;
      }

      .cls-8, .cls-11 {
        fill: #d1d1d1;
      }

      .cls-5 {
        stroke: #d1d1d1;
        stroke-width: 1.5px;
      }

      .cls-9 {
        fill: #404041;
      }

      .cls-6 {
        stroke: #404041;
        stroke-width: .26px;
      }

      .cls-10 {
        fill: #eaeaea;
      }

      .cls-7 {
        stroke-width: .31px;
      }
    
    [data-part="copaFrente"]{fill:var(--c-copa-frente,#d7dade) !important}
    [data-part="copaLadosTras"]{fill:var(--c-copa-lados,#c9ccd1) !important}
    [data-part="abaCima"]{fill:var(--c-aba-cima,#c7cace) !important}
    [data-part="abaBaixo"]{fill:var(--c-aba-baixo,#b7bac0) !important}
    [data-part="botao"]{fill:var(--c-botao,#d7dade) !important}
  </style>
  </defs>
  <g id="_1.2" data-name="1.2">
    <g>
      <path class="cls-10" d="M87.51,3.16c47.12,0,73.64,11.71,80.87,56.59,2.1,17.71,4.19,35.41,6.29,53.12-4.63-3.13-9.6-6.06-14.79-8.76.47-10.24,1.27-28.97-.33-47.61C154.7,14.43,122.34,3.16,87.51,3.16ZM6.64,59.75C13.87,14.87,40.39,3.16,87.51,3.16,52.68,3.16,20.31,14.43,15.48,56.49c-1.6,18.63-.8,37.35-.33,47.59-5.18,2.7-10.14,5.64-14.79,8.78,2.1-17.71,4.19-35.41,6.29-53.12Z" data-part="copaLadosTras"></path>
      <path class="cls-1" d="M87.51,3.16c47.12,0,73.64,11.71,80.87,56.59,2.1,17.71,4.19,35.41,6.29,53.12-4.63-3.13-9.6-6.06-14.79-8.76.47-10.24,1.27-28.97-.33-47.61C154.7,14.43,122.34,3.16,87.51,3.16ZM6.64,59.75C13.87,14.87,40.39,3.16,87.51,3.16,52.68,3.16,20.31,14.43,15.48,56.49c-1.6,18.63-.8,37.35-.33,47.59-5.18,2.7-10.14,5.64-14.79,8.78,2.1-17.71,4.19-35.41,6.29-53.12Z"></path>
      <path class="cls-9" d="M168,108.7c.36.21.73.42,1.09.63-.36-.21-.72-.42-1.09-.63ZM167.9,108.64h0s.04.02.04.02l-.04-.02ZM7.01,108.7c-.36.21-.72.42-1.08.63.36-.21.72-.42,1.08-.63ZM7.12,108.64h0s-.04.02-.04.02l.04-.02ZM.35,112.86c.03,1.56,2.58,1.54,5.09,1.3l.48-4.83c-1.9,1.13-3.76,2.3-5.57,3.52ZM174.66,112.86c-.03,1.56-2.58,1.54-5.09,1.3l-.48-4.83c1.9,1.13,3.76,2.3,5.57,3.52Z" data-part="abaCima"></path>
      <path class="cls-6" d="M168,108.7c.36.21.73.42,1.09.63-.36-.21-.72-.42-1.09-.63ZM167.9,108.64h0s.04.02.04.02l-.04-.02ZM7.01,108.7c-.36.21-.72.42-1.08.63.36-.21.72-.42,1.08-.63ZM7.12,108.64h0s-.04.02-.04.02l.04-.02ZM.35,112.86c.03,1.56,2.58,1.54,5.09,1.3l.48-4.83c-1.9,1.13-3.76,2.3-5.57,3.52ZM174.66,112.86c-.03,1.56-2.58,1.54-5.09,1.3l-.48-4.83c1.9,1.13,3.76,2.3,5.57,3.52Z"></path>
      <path class="cls-9" d="M168,108.7c.36.21.73.42,1.09.63-.36-.21-.72-.42-1.09-.63ZM167.9,108.64h0s.04.02.04.02l-.04-.02ZM7.01,108.7c-.36.21-.72.42-1.08.63.36-.21.72-.42,1.08-.63ZM7.12,108.64h0s-.04.02-.04.02l.04-.02ZM.35,112.86c.03,1.56,2.58,1.54,5.09,1.3l.48-4.83c-1.9,1.13-3.76,2.3-5.57,3.52ZM174.66,112.86c-.03,1.56-2.58,1.54-5.09,1.3l-.48-4.83c1.9,1.13,3.76,2.3,5.57,3.52Z" data-part="abaCima"></path>
      <path class="cls-6" d="M168,108.7c.36.21.73.42,1.09.63-.36-.21-.72-.42-1.09-.63ZM167.9,108.64h0s.04.02.04.02l-.04-.02ZM7.01,108.7c-.36.21-.72.42-1.08.63.36-.21.72-.42,1.08-.63ZM7.12,108.64h0s-.04.02-.04.02l.04-.02ZM.35,112.86c.03,1.56,2.58,1.54,5.09,1.3l.48-4.83c-1.9,1.13-3.76,2.3-5.57,3.52ZM174.66,112.86c-.03,1.56-2.58,1.54-5.09,1.3l-.48-4.83c1.9,1.13,3.76,2.3,5.57,3.52Z"></path>
      <path class="cls-10" d="M159.79,56.86C154.95,14.8,122.59,3.53,87.75,3.53S20.56,14.8,15.72,56.86c-1.62,18.82-.78,37.73-.32,47.9,45.52-25.48,103.07-25.35,144.7,0,.46-10.17,1.3-29.08-.32-47.9Z" data-part="copaFrente"></path>
      <path class="cls-3" d="M159.79,56.86C154.95,14.8,122.59,3.53,87.75,3.53S20.56,14.8,15.72,56.86c-1.62,18.82-.78,37.73-.32,47.9,45.52-25.48,103.07-25.35,144.7,0,.46-10.17,1.3-29.08-.32-47.9Z"></path>
      <path class="cls-10" d="M5.92,109.34c23.84-14.13,46.9-24.08,81.49-24,28.98-.56,57.85,8.43,81.67,24-.49,45.72-13.02,41.87-32.8,31.17-4.97-2.69-10.4-5.81-16.22-8.69-9.31-4.61-19.33-6.61-30.13-7.36-12.31-.85-22.99.97-32.83,5.56-31.01,14.48-50.21,37.42-51.19-20.69Z" data-part="abaCima"></path>
      <path class="cls-7" d="M5.92,109.34c23.84-14.13,46.9-24.08,81.49-24,28.98-.56,57.85,8.43,81.67,24-.49,45.72-13.02,41.87-32.8,31.17-4.97-2.69-10.4-5.81-16.22-8.69-9.31-4.61-19.33-6.61-30.13-7.36-12.31-.85-22.99.97-32.83,5.56-31.01,14.48-50.21,37.42-51.19-20.69Z"></path>
      <path class="cls-11" d="M21.95,140.9c-.93,0-1.78-.15-2.53-.45l.28-.7c.96.39,2.15.49,3.5.31l.1.74c-.47.06-.92.1-1.35.1ZM153.38,140.89v-.75c1.31,0,2.48-.25,3.48-.72l.32.68c-1.1.52-2.38.79-3.8.79ZM151.08,140.7c-1.14-.18-2.38-.5-3.69-.95l.24-.71c1.27.43,2.47.74,3.57.92l-.12.74ZM25.56,140.31l-.21-.72c1.05-.31,2.21-.77,3.44-1.34l.32.68c-1.27.59-2.46,1.06-3.54,1.38ZM17.47,139.08c-.77-.79-1.51-1.86-2.19-3.17l.67-.35c.64,1.23,1.35,2.26,2.06,2.99l-.54.52ZM145.26,138.94c-1.08-.45-2.23-.98-3.43-1.59l.34-.67c1.18.6,2.32,1.13,3.38,1.57l-.29.69ZM159.12,138.74l-.53-.53c.74-.74,1.41-1.76,1.97-3.01l.68.31c-.6,1.34-1.31,2.42-2.12,3.23ZM31.13,137.9l-.35-.66c.99-.53,2.05-1.14,3.23-1.86l.39.64c-1.19.73-2.26,1.35-3.27,1.89ZM139.83,136.29c-1.01-.55-2.07-1.17-3.27-1.88l.38-.64c1.18.71,2.24,1.32,3.24,1.86l-.36.66ZM36.32,134.82l-.4-.63.95-.61c.55-.35,1.05-.67,1.5-.95l.72-.45.4.64-.72.45c-.45.28-.95.6-1.49.95l-.95.61ZM14.33,133.83c-.44-1.14-.78-2.27-.95-3.2l-.08-.48.74-.13.08.48c.16.88.48,1.97.91,3.06l-.7.27ZM162.04,133.36l-.72-.22c.33-1.08.62-2.29.84-3.6l.74.13c-.23,1.34-.52,2.59-.86,3.7ZM134.64,133.24l-.98-.6c-.81-.5-1.56-.96-2.22-1.35l.38-.65c.66.39,1.41.85,2.23,1.36l.98.6-.39.64ZM41.39,131.63l-.39-.64c1.06-.65,2.13-1.3,3.21-1.94l.38.64c-1.08.64-2.15,1.29-3.2,1.94ZM129.5,130.16c-1.1-.63-2.19-1.24-3.27-1.81l.35-.66c1.08.58,2.18,1.19,3.29,1.83l-.37.65ZM46.54,128.56l-.38-.65c1.08-.62,2.18-1.24,3.28-1.84l.36.66c-1.1.6-2.19,1.21-3.26,1.83ZM12.92,127.93c-.2-1.23-.37-2.48-.54-3.72l.74-.1c.16,1.24.34,2.47.53,3.7l-.74.12ZM163.21,127.41l-.75-.08c.09-.81.15-1.57.2-2.25l.09-1.47.75.04-.09,1.47c-.04.69-.11,1.46-.2,2.29ZM124.25,127.3c-1.13-.58-2.25-1.13-3.35-1.65l.32-.68c1.11.52,2.24,1.08,3.38,1.66l-.34.67ZM51.78,125.68l-.35-.67c1.14-.59,2.28-1.16,3.37-1.67l.32.68c-1.08.51-2.21,1.07-3.35,1.66ZM118.86,124.73c-1.15-.51-2.31-.99-3.45-1.43l.27-.7c1.14.45,2.31.93,3.48,1.45l-.3.69ZM57.16,123.08l-.3-.69c1.17-.52,2.35-1,3.49-1.43l.27.7c-1.13.43-2.29.91-3.45,1.42ZM113.32,122.51c-1.17-.42-2.36-.82-3.54-1.18l.22-.72c1.19.37,2.39.77,3.57,1.19l-.25.71ZM12.11,121.97c-.15-1.24-.28-2.49-.4-3.74l.75-.07c.12,1.24.25,2.48.4,3.72l-.75.09ZM163.64,121.4l-.75-.04c.07-1.25.14-2.51.2-3.75l.75.04c-.06,1.24-.13,2.5-.2,3.75ZM62.72,120.9l-.24-.71c1.21-.42,2.43-.79,3.61-1.11l.2.72c-1.16.32-2.36.69-3.56,1.1ZM107.63,120.7c-1.19-.33-2.41-.63-3.62-.9l.16-.73c1.23.28,2.46.58,3.66.91l-.2.72ZM101.82,119.33c-1.2-.23-2.44-.45-3.68-.64l.11-.74c1.25.19,2.5.4,3.71.64l-.14.74ZM68.45,119.27l-.17-.73c.75-.17,1.51-.32,2.26-.45.48-.08.96-.16,1.45-.24l.11.74c-.48.07-.96.15-1.43.24-.75.13-1.49.28-2.23.45ZM95.92,118.4c-1.21-.15-2.46-.28-3.71-.39l.07-.75c1.27.11,2.53.24,3.74.4l-.09.74ZM74.32,118.28l-.09-.74c1.22-.15,2.48-.27,3.75-.37l.06.75c-1.26.1-2.51.22-3.71.37ZM89.97,117.83l-.72-.05c-.98-.06-1.99-.1-3.01-.12v-.75c1.04.02,2.06.06,3.05.12l.73.05-.05.75ZM80.27,117.77l-.04-.75c1.25-.06,2.52-.1,3.77-.11v.75c-1.23.01-2.49.05-3.73.11ZM11.5,115.99c-.11-1.25-.21-2.5-.31-3.74l.75-.06c.09,1.24.19,2.49.3,3.73l-.75.07ZM163.94,115.4l-.75-.04c.06-1.33.12-2.59.17-3.75l.75.03c-.05,1.16-.11,2.42-.17,3.75ZM11.03,110c-.09-1.25-.17-2.5-.25-3.74l.75-.05c.08,1.24.16,2.49.25,3.74l-.75.05ZM164.21,109.4l-.75-.03.14-3.64h.75s-.14,3.67-.14,3.67Z" data-part="abaCima"></path>
      <path class="cls-11" d="M23.99,136.74l-.15-.73c.47-.1,1-.25,1.69-.49.56-.19,1.17-.42,1.8-.68l.28.69c-.65.26-1.26.49-1.84.69-.72.25-1.28.41-1.78.51ZM21.58,136.73c-.29-.08-.56-.21-.82-.36-.74-.44-1.45-1.2-2.1-2.26l.64-.39c.58.94,1.22,1.64,1.85,2.01.21.12.43.22.65.29l-.21.72ZM152.36,136.66v-.75c.83,0,1.48-.09,2-.25.48-.14.89-.37,1.27-.69l.49.57c-.46.39-.96.67-1.54.84-.59.18-1.31.27-2.22.28ZM150.05,136.5c-.27-.05-.55-.11-.84-.19-.89-.25-1.93-.69-2.77-1.04l.29-.69c.86.36,1.84.78,2.69,1.01.27.08.52.13.77.18l-.13.74ZM29.68,134.63l-.32-.68c.95-.44,1.92-.93,2.88-1.45l.44-.24.36.66-.45.24c-.97.52-1.95,1.02-2.92,1.47ZM144.36,134.37c-.33-.15-.67-.31-1.04-.48-.8-.38-1.61-.79-2.34-1.19l.36-.66c.72.39,1.52.8,2.31,1.17.37.18.71.33,1.03.48l-.31.68ZM157.56,133.63l-.67-.33c.26-.53.49-1.14.7-1.89.13-.48.26-1.01.38-1.59l.73.15c-.12.6-.26,1.15-.4,1.64-.22.79-.47,1.45-.75,2.02ZM17.61,132.03c-.06-.16-.13-.32-.19-.48-.35-.94-.64-1.98-.89-3.18l.73-.15c.24,1.16.53,2.17.86,3.07.06.15.12.3.18.46l-.69.28ZM35.01,131.8l-.38-.65c1.13-.66,2.22-1.34,3.19-1.95l.4.64c-.98.61-2.08,1.29-3.21,1.96ZM139.01,131.55c-.85-.53-1.63-1.08-2.33-1.56l-.77-.54.4-.64.81.56c.69.48,1.46,1.02,2.3,1.54l-.4.64ZM40.13,128.64l-.4-.63c1.3-.82,2.2-1.38,3.2-1.97l.38.65c-.99.59-1.89,1.14-3.18,1.96ZM134.02,128.24c-.31-.18-.62-.37-.96-.56-.66-.37-1.4-.78-2.3-1.25l.35-.66c.9.48,1.65.89,2.31,1.26.35.2.67.38.98.57l-.38.64ZM159.11,127.74l-.74-.12c.1-.6.18-1.23.27-1.88.08-.6.15-1.21.22-1.83l.75.08c-.07.62-.14,1.24-.22,1.84-.08.65-.17,1.29-.27,1.9ZM16.13,126.14c-.06-.4-.12-.81-.18-1.23-.12-.81-.23-1.65-.34-2.5l.74-.1c.11.85.22,1.68.34,2.49.06.41.12.82.18,1.22l-.74.12ZM45.26,125.57l-.36-.66c1.12-.62,2.21-1.19,3.34-1.75l.33.67c-1.12.55-2.2,1.12-3.3,1.73ZM128.77,125.39c-1.02-.53-2.18-1.12-3.34-1.69l.33-.67c1.16.57,2.33,1.17,3.35,1.7l-.34.67ZM50.58,122.86l-.32-.68c1.19-.56,2.39-1.1,3.42-1.56l.31.68c-1.03.46-2.22,1-3.41,1.55ZM123.4,122.73l-.46-.21c-.99-.45-1.95-.87-2.96-1.27l.28-.7c1.02.41,2,.83,3,1.28l.46.22-.32.68ZM159.83,121.76l-.75-.07c.09-.91.17-1.8.25-2.64l.1-1.09.75.07-.1,1.09c-.08.84-.16,1.73-.25,2.64ZM117.89,120.44c-1.17-.44-2.35-.86-3.52-1.25l.24-.71c1.18.4,2.36.82,3.54,1.26l-.26.7ZM56.04,120.4l-.3-.69c.93-.41,1.71-.74,2.63-1.11l.84-.33.27.7-.83.33c-.92.37-1.69.7-2.61,1.1ZM15.33,120.18c-.11-.94-.22-1.89-.32-2.84l-.1-.89.75-.08.1.89c.1.94.21,1.89.32,2.83l-.75.09ZM112.24,118.5c-1.06-.32-2.17-.64-3.38-.97l-.21-.06.19-.72.21.06c1.23.33,2.34.65,3.41.97l-.22.72ZM61.59,118.17l-.26-.7c.53-.2,1.07-.39,1.58-.56.7-.24,1.36-.44,2-.63l.21.72c-.63.18-1.28.39-1.97.62-.51.17-1.04.36-1.56.55ZM106.47,116.93c-.62-.15-1.23-.29-1.82-.42-.61-.14-1.21-.26-1.82-.38l.14-.74c.61.12,1.22.25,1.84.38.6.13,1.22.28,1.84.43l-.18.73ZM67.28,116.41l-.19-.73c1.29-.33,2.42-.59,3.67-.84l.19.73c-1.28.25-2.39.51-3.66.84ZM160.37,115.78l-.75-.06c.07-.92.14-1.88.2-2.98l.04-.75.75.04-.04.75c-.06,1.11-.13,2.08-.2,3ZM100.62,115.72c-1.24-.21-2.52-.4-3.7-.57l.1-.74c1.18.16,2.47.36,3.67.56l-.08.75ZM73.12,115.19l-.12-.74c.86-.14,1.7-.25,2.51-.33.41-.04.82-.08,1.24-.11l.06.75c-.41.03-.82.07-1.22.11-.8.08-1.63.19-2.47.33ZM94.7,114.87c-.74-.09-1.5-.17-2.38-.25-.42-.04-.87-.08-1.34-.11l.06-.75c.48.04.93.08,1.35.11.88.08,1.64.16,2.4.25l-.09.75ZM79.05,114.6l-.04-.75c.69-.04,1.4-.07,2.12-.11l1.63-.08.03.75-1.63.08c-.71.03-1.42.07-2.11.11ZM88.75,114.37c-.55-.02-1.11-.04-1.68-.05h-.55c-.5,0-1,0-1.5.02l-.02-.75c.51-.01,1.01-.02,1.52-.02h.55c.58,0,1.15.03,1.71.05l-.03.75ZM14.69,114.21c-.13-1.32-.24-2.59-.33-3.74l.75-.06c.09,1.15.2,2.41.33,3.73l-.75.07ZM160.72,109.77l-.75-.03c.06-1.42.12-2.78.15-3.75l.75.03c-.04.97-.09,2.33-.15,3.75ZM14.22,108.21c-.07-1.33-.11-2.52-.14-3.7l.75-.08v.06c.04,1.18.07,2.36.14,3.68l-.75.04Z" data-part="abaCima"></path>
      <path class="cls-11" d="M24.25,133.09c-.98,0-1.8-.3-2.44-.89l.5-.55c.75.69,1.79.86,3.21.53l.17.73c-.51.12-1,.18-1.44.18ZM150.62,132.58l-.04-.75c.29-.01.56-.06.84-.15.43-.14.89-.39,1.33-.71.23-.17.5-.39.76-.72l.6.45c-.31.42-.65.69-.92.88-.51.37-1.04.65-1.54.81-.34.11-.68.17-1.03.19ZM148.28,132.26l-.31-.09c-.79-.24-1.76-.6-2.79-1.06l-.46-.2.31-.68.45.2c1.01.44,1.94.8,2.71,1.03l.29.08-.2.72ZM27.88,132.16l-.3-.69c.95-.41,2.02-.97,3.28-1.72l.38.64c-1.28.76-2.38,1.34-3.36,1.76ZM20.51,130.19c-.51-1.21-.85-2.67-1.07-3.66l.73-.16c.21.97.54,2.38,1.03,3.53l-.69.29ZM142.68,129.92c-.21-.11-.42-.22-.63-.33-.82-.44-1.64-.91-2.66-1.51l.38-.64c1,.6,1.81,1.06,2.63,1.49.21.11.42.22.62.33l-.34.67ZM33.16,129.2l-.4-.63c.6-.38,1.2-.78,1.81-1.17l1.34-.87.41.63-1.33.87c-.61.4-1.21.79-1.81,1.18ZM155.05,128.51l-.73-.19c.19-.74.4-1.77.64-3.25l.06-.39.74.12-.07.4c-.25,1.5-.46,2.55-.66,3.32ZM137.46,126.9c-1.02-.62-2.11-1.29-3.2-1.94l.38-.65c1.1.64,2.2,1.32,3.19,1.93l-.37.65ZM38.2,125.96l-.39-.64c.24-.15.49-.3.74-.45.82-.49,1.67-.97,2.52-1.44l.36.66c-.85.47-1.69.94-2.5,1.43-.25.15-.49.29-.73.44ZM19,124.31c-.19-1.07-.34-2.1-.51-3.54l-.02-.19.75-.09.02.18c.17,1.43.31,2.45.5,3.51l-.74.13ZM132.31,123.86c-1.08-.6-2.17-1.15-3.32-1.71l.33-.67c1.16.56,2.25,1.12,3.35,1.73l-.36.66ZM43.4,123.03l-.35-.66c.86-.45,1.72-.89,2.57-1.32l.78-.39.33.67-.78.39c-.84.42-1.7.86-2.56,1.31ZM156.12,122.56l-.74-.11c.17-1.14.33-2.39.5-3.71l.74.09c-.16,1.32-.33,2.58-.5,3.73ZM126.97,121.2c-1.1-.5-2.25-1-3.42-1.51l.3-.69c1.18.51,2.34,1.01,3.44,1.52l-.31.68ZM48.75,120.34l-.33-.67c1.14-.55,2.27-1.08,3.41-1.6l.31.68c-1.13.51-2.25,1.04-3.39,1.59ZM121.47,118.81c-1.19-.5-2.37-.99-3.46-1.43l.28-.7c1.09.44,2.28.93,3.47,1.43l-.29.69ZM18.23,118.33c-.11-1.12-.23-2.36-.36-3.74l.75-.07c.12,1.37.24,2.61.35,3.73l-.75.08ZM54.2,117.86l-.29-.69c1.18-.5,2.36-.98,3.49-1.41l.27.7c-1.12.43-2.29.9-3.47,1.4ZM156.87,116.6l-.75-.08c.08-.77.16-1.55.23-2.32.04-.47.08-.94.12-1.4l.75.06c-.04.47-.08.94-.12,1.41-.07.78-.15,1.56-.23,2.33ZM115.93,116.55c-1.24-.48-2.32-.88-3.5-1.3l.25-.71c1.19.41,2.28.82,3.53,1.3l-.27.7ZM59.76,115.67l-.26-.7c1.24-.45,2.44-.86,3.56-1.22l.23.71c-1.11.36-2.3.77-3.53,1.21ZM110.3,114.54c-1.07-.34-2.07-.64-3.05-.9l-.52-.14.19-.73.53.14c1,.27,2.01.57,3.09.91l-.23.71ZM65.43,113.8l-.21-.72c1.33-.38,2.53-.68,3.59-.95l.24.71c-1.11.28-2.31.58-3.62.95ZM104.54,112.98c-.91-.21-1.82-.4-2.68-.57l-.98-.19.14-.74.99.19c.87.17,1.78.36,2.7.57l-.17.73ZM17.68,112.35c-.1-1.18-.2-2.44-.3-3.74l.75-.06c.1,1.3.2,2.56.3,3.74l-.75.06ZM71.23,112.32l-.17-.73c.62-.15,1.23-.28,1.83-.4.64-.12,1.26-.23,1.88-.32l.11.74c-.61.09-1.22.19-1.84.31-.59.11-1.19.25-1.81.39ZM98.67,111.82c-.44-.08-.84-.14-1.21-.2-.97-.15-1.69-.25-2.48-.33l.08-.75c.8.08,1.53.18,2.51.34.37.06.78.13,1.22.2l-.13.74ZM77.1,111.32l-.09-.75c1.47-.17,2.7-.29,3.75-.35l.04.75c-1.04.06-2.25.17-3.71.35ZM92.76,111.11c-.44-.02-.94-.05-1.54-.07-.65-.02-1.4-.04-2.19-.06l.02-.75c.79.02,1.55.04,2.2.06.6.02,1.11.05,1.56.07l-.04.75ZM86.78,110.93l-1.56-.02c-.58,0-1.09-.01-1.57-.01h-.61s0-.75,0-.75h.61c.48,0,1,0,1.58,0l1.57.02v.75ZM157.37,110.6l-.75-.05c.08-1.25.14-2.49.2-3.74l.75.03c-.06,1.25-.12,2.5-.2,3.75ZM17.21,106.36l-.28-3.74.75-.06.28,3.74-.75.06ZM157.66,104.6l-.75-.03.1-2.66.75.03-.1,2.66Z" data-part="abaCima"></path>
      <path class="cls-11" d="M26.88,128.52l-.19-.72c1.09-.29,2.31-.9,3.35-1.46l.36.66c-1.08.58-2.34,1.22-3.51,1.53ZM24.43,128.49s-.09-.04-.14-.07c-.87-.46-1.48-1.52-1.92-3.32l.73-.18c.38,1.55.88,2.48,1.54,2.83l.09.04-.31.68ZM148.08,127.72c-.52-.08-1.18-.21-2.19-.63-.43-.18-.91-.4-1.44-.66l.33-.67c.51.25.98.47,1.39.64.94.38,1.55.51,2.02.58l-.11.74ZM150.54,127.62l-.35-.66h.03c.35-.19.7-.61.98-1.2.2-.43.31-.83.47-1.73l.74.13c-.17.97-.3,1.44-.53,1.93-.25.52-.68,1.22-1.33,1.54ZM32.37,125.89l-.38-.65c1.09-.63,2.09-1.24,3.2-1.93l.39.64c-1.12.69-2.13,1.31-3.22,1.94ZM142.44,125.4c-.29-.15-.57-.31-.86-.46-.83-.46-1.65-.92-2.43-1.37l.38-.65c.78.45,1.58.9,2.42,1.36.28.15.57.31.85.46l-.35.66ZM21.96,122.86c-.06-.37-.11-.74-.16-1.12-.12-.87-.23-1.73-.34-2.61l.74-.09c.11.88.22,1.73.34,2.6.05.37.1.74.16,1.11l-.74.11ZM37.51,122.77l-.39-.64c1-.61,2.08-1.26,3.23-1.93l.37.65c-1.15.66-2.22,1.31-3.21,1.92ZM137.21,122.42l-.84-.51c-.82-.49-1.6-.96-2.37-1.4l.37-.65c.78.44,1.57.91,2.39,1.41l.84.51-.38.64ZM152.75,121.92l-.74-.11c.17-1.11.35-2.41.52-3.71l.74.1c-.17,1.31-.36,2.61-.52,3.72ZM42.67,119.76l-.36-.66.37-.2c.97-.52,1.97-1.03,2.98-1.52l.33.67c-1,.49-2,1-2.96,1.51l-.36.2ZM132.02,119.49c-.73-.36-1.49-.71-2.33-1.09l-1.06-.49.31-.68,1.06.49c.84.39,1.6.74,2.34,1.1l-.33.67ZM48.02,117.09l-.32-.68c1.03-.48,2.03-.94,2.98-1.36l.44-.2.3.69-.44.2c-.94.42-1.94.88-2.96,1.36ZM126.58,116.97l-1.25-.57c-.8-.36-1.47-.65-2.17-.94l.29-.69c.7.29,1.38.59,2.18.95l1.26.57-.31.68ZM21.21,116.89c-.12-1.17-.24-2.4-.34-3.74l.75-.06c.1,1.33.22,2.56.34,3.72l-.75.08ZM153.56,115.96l-.75-.09c.15-1.29.27-2.47.38-3.72l.75.06c-.1,1.26-.22,2.45-.38,3.74ZM53.48,114.64l-.3-.69c1.28-.55,2.42-1.02,3.48-1.43l.27.7c-1.05.41-2.18.87-3.46,1.42ZM121.08,114.63c-1.22-.47-2.45-.91-3.48-1.26l.2-.72.04.02c1.03.35,2.27.8,3.5,1.27l-.27.7ZM115.44,112.67l-3.59-1.09.22-.72,3.59,1.09-.22.72ZM59.04,112.44l-.25-.71c.96-.34,1.95-.66,3.12-1.02l.47-.14.22.72-.46.14c-1.15.35-2.14.67-3.09,1.01ZM109.7,110.95l-.88-.25c-.98-.28-1.85-.5-2.73-.71l.17-.73c.89.21,1.76.44,2.76.71l.89.25-.21.72ZM20.7,110.9c-.08-1.2-.15-2.45-.23-3.75l.75-.04c.07,1.29.15,2.55.23,3.74l-.75.05ZM64.74,110.67l-.2-.72c.89-.25,1.83-.49,2.82-.72l.84-.19.17.73-.83.19c-.98.23-1.91.47-2.79.72ZM154.1,109.97l-.75-.05c.07-1.16.14-2.42.2-3.74l.75.04c-.06,1.32-.13,2.59-.2,3.75ZM103.91,109.51c-1.24-.26-2.51-.5-3.67-.7l.13-.74c1.17.2,2.45.44,3.7.7l-.15.73ZM70.55,109.29l-.15-.74c1.08-.22,2.16-.42,3.17-.59l.53-.09.12.74-.53.09c-1,.17-2.07.37-3.14.59ZM98.03,108.47c-.91-.12-1.87-.23-3.02-.33l-.69-.06.06-.75.69.06c1.16.1,2.13.21,3.06.33l-.1.74ZM76.44,108.27l-.1-.74c.84-.12,1.62-.21,2.37-.29.47-.05.93-.1,1.38-.14l.07.75c-.44.04-.9.09-1.36.14-.74.08-1.51.18-2.34.29ZM92.08,107.92c-1.27-.09-2.59-.16-3.74-.21l.03-.75c1.15.05,2.47.13,3.75.21l-.05.75ZM82.38,107.68l-.04-.75.62-.03c.96-.04,1.94-.05,3.15-.02l-.02.75c-1.2-.02-2.17-.01-3.11.02l-.61.03ZM20.36,104.9l-.19-3.75.75-.04.19,3.75-.75.04ZM154.41,103.97l-.75-.03.13-3.12h.38s.37,0,.37,0l-.13,3.15Z" data-part="abaCima"></path>
      <path class="cls-11" d="M27.3,124.44c-.6,0-1.09-.23-1.46-.67l-.09-.11.6-.44.06.08c.53.63,1.34.54,2.87-.27l.35.66c-.99.52-1.71.76-2.33.76ZM146.96,122.9c-.14,0-.29,0-.45-.03-.49-.06-1.08-.21-1.79-.47l.25-.71c.65.23,1.19.38,1.62.43.68.08,1.12-.05,1.45-.46l.58.47c-.42.51-.96.76-1.68.76ZM31.6,122.54l-.39-.64.49-.3c.88-.53,1.78-1.06,2.76-1.6l.37.66c-.97.54-1.86,1.06-2.73,1.59l-.49.3ZM142.62,121.51c-.81-.38-1.69-.82-2.6-1.3l-.76-.4.35-.66.76.4c.91.47,1.77.91,2.57,1.28l-.32.68ZM24.93,121.41c-.18-.93-.31-2.13-.42-3.77l.75-.05c.1,1.61.23,2.78.4,3.68l-.74.14ZM149.55,119.92l-.73-.18c.23-.94.43-2.16.6-3.65l.75.09c-.17,1.52-.38,2.78-.62,3.74ZM36.79,119.58l-.35-.66c1.02-.54,2.12-1.11,3.34-1.72l.34.67c-1.22.61-2.31,1.18-3.32,1.72ZM137.26,118.77c-1-.52-2.09-1.08-3.34-1.68l.33-.68c1.25.6,2.36,1.17,3.36,1.69l-.35.67ZM42.12,116.86l-.33-.67c1.06-.52,2.19-1.07,3.38-1.63l.32.68c-1.19.56-2.32,1.11-3.37,1.63ZM131.89,116.14c-.74-.34-1.53-.69-2.38-1.05-.34-.14-.69-.29-1.04-.44l.29-.69c.36.15.71.3,1.05.44.86.37,1.65.72,2.4,1.06l-.31.68ZM24.4,115.38l-.09-1.93c-.03-.6-.06-1.2-.09-1.81l.75-.04c.03.61.06,1.21.09,1.81l.09,1.94-.75.03ZM47.53,114.29l-.31-.68c1.1-.5,2.25-1.01,3.44-1.51l.29.69c-1.18.5-2.33,1.01-3.42,1.5ZM150.39,113.93l-.75-.06c.05-.58.09-1.19.14-1.83.04-.61.08-1.24.11-1.9l.75.04c-.04.66-.07,1.3-.12,1.91-.04.64-.09,1.26-.14,1.84ZM126.39,113.8c-1.11-.44-2.28-.89-3.49-1.34l.26-.7c1.22.45,2.39.91,3.51,1.35l-.28.7ZM53.03,111.93l-.28-.7c.49-.2.99-.4,1.5-.59.66-.26,1.33-.51,2.01-.76l.26.7c-.68.25-1.34.5-2,.76-.5.19-1,.39-1.49.59ZM120.79,111.69c-1.16-.41-2.34-.82-3.54-1.21l.24-.71c1.2.4,2.39.81,3.56,1.22l-.25.71ZM58.63,109.83l-.24-.71c1.2-.41,2.4-.8,3.58-1.16l.22.72c-1.17.35-2.36.74-3.55,1.15ZM115.11,109.79c-1.19-.37-2.39-.73-3.58-1.07l.2-.72c1.2.34,2.4.7,3.61,1.07l-.22.72ZM24.1,109.39c-.07-1.24-.15-2.49-.23-3.74l.75-.05c.08,1.26.16,2.51.23,3.75l-.75.04ZM109.36,108.14c-1.22-.32-2.44-.61-3.63-.87l.16-.73c1.2.26,2.43.56,3.66.88l-.19.73ZM64.33,108.05l-.2-.72c1.22-.34,2.45-.65,3.65-.93l.17.73c-1.19.28-2.41.58-3.62.92ZM150.76,107.92l-.75-.03c.05-1.2.1-2.46.15-3.74l.75.03c-.05,1.29-.1,2.54-.15,3.75ZM103.53,106.81c-1.21-.24-2.45-.46-3.68-.64l.11-.74c1.24.19,2.48.41,3.71.65l-.14.74ZM70.14,106.66l-.15-.74c.73-.15,1.46-.28,2.2-.41.5-.09,1.01-.17,1.52-.24l.11.74c-.5.07-1,.15-1.5.24-.73.12-1.45.26-2.17.4ZM97.64,105.85c-1.23-.16-2.48-.29-3.71-.4l.06-.75c1.24.11,2.5.24,3.74.4l-.1.74ZM76.03,105.72l-.09-.75c1.23-.15,2.49-.27,3.75-.36l.05.75c-1.25.09-2.5.21-3.72.36ZM91.69,105.29c-1.24-.08-2.49-.13-3.73-.15v-.75c1.26.02,2.53.08,3.78.15l-.05.75ZM81.99,105.22l-.04-.75c1.24-.06,2.51-.09,3.76-.1v.75c-1.24,0-2.5.04-3.73.1ZM23.73,103.4l-.25-3.74.75-.05.25,3.74-.75.05ZM150.98,101.92l-.75-.02.1-2.94.38-.02h.38s-.1,2.99-.1,2.99Z" data-part="abaCima"></path>
      <path class="cls-11" d="M30.42,119.52l-.17-.73c.84-.2,2.05-.93,3.21-1.65l.4.64c-1.27.79-2.48,1.53-3.44,1.75ZM144.56,118.36c-.12,0-.24-.01-.39-.04l.13-.74c.22.04.39.03.52-.02.32-.13.51-.57.77-1.81.04-.19.08-.39.12-.6l.74.14c-.04.22-.08.43-.13.62-.26,1.19-.49,2.06-1.23,2.35-.16.07-.34.1-.54.1ZM140.62,116.84c-.46-.23-.96-.49-1.49-.77-.58-.3-1.19-.62-1.84-.95l.34-.67c.65.33,1.27.65,1.85.95.53.28,1.03.53,1.49.76l-.34.67ZM27.84,116.79c-.03-.17-.05-.35-.07-.53-.11-.94-.16-1.94-.22-3.25l.75-.03c.06,1.29.11,2.28.22,3.19.02.17.04.34.07.5l-.74.11ZM37.04,115.8l-.38-.64c1.16-.69,2.24-1.29,3.3-1.83l.34.67c-1.05.53-2.11,1.13-3.25,1.81ZM133.93,113.47c-.55-.26-1.11-.52-1.68-.77-.57-.25-1.15-.5-1.74-.74l.29-.69c.59.24,1.18.49,1.76.75.57.25,1.14.51,1.69.77l-.32.68ZM43.67,112.41l-.3-.69c1.06-.46,2.21-.93,3.48-1.43l.27.7c-1.26.49-2.4.96-3.46,1.42ZM147.01,111.55l-.75-.08c.06-.56.12-1.17.17-1.83.05-.6.09-1.24.14-1.9l.75.05c-.04.66-.09,1.31-.14,1.91-.05.67-.11,1.28-.18,1.85ZM127.03,110.61c-1.15-.42-2.32-.83-3.53-1.25l.24-.71c1.21.42,2.39.83,3.54,1.25l-.26.7ZM50.62,109.65l-.26-.7c1.11-.42,2.29-.86,3.52-1.3l.25.71c-1.23.44-2.41.88-3.51,1.3ZM27.35,109.27c-.06-1.12-.14-2.38-.24-3.74l.75-.05c.09,1.36.17,2.63.24,3.75l-.75.04ZM119.95,108.17c-1.16-.39-2.34-.78-3.56-1.16l.23-.71c1.22.39,2.41.78,3.57,1.16l-.24.71ZM57.67,107.12l-.24-.71c1.18-.4,2.38-.78,3.58-1.15l.22.72c-1.19.36-2.39.74-3.56,1.14ZM112.81,105.92c-1.23-.36-2.45-.68-3.61-.97l.18-.73c1.17.29,2.39.62,3.63.98l-.21.72ZM64.83,104.98l-.18-.73c1.2-.3,2.44-.58,3.68-.83l.15.74c-1.23.24-2.45.52-3.64.82ZM105.56,104.12c-1.2-.25-2.43-.47-3.67-.68l.12-.74c1.25.21,2.5.44,3.7.68l-.15.73ZM147.52,104.05l-.75-.04c.05-1.08.09-2.09.13-2.92l.04-.82.75.03-.03.82c-.04.84-.08,1.85-.13,2.93ZM72.14,103.51l-.11-.74c1.19-.18,2.41-.34,3.73-.5l.09.75c-1.31.15-2.53.31-3.7.49ZM98.2,102.9c-1.26-.16-2.51-.29-3.71-.39l.06-.75c1.22.1,2.48.23,3.75.39l-.09.74ZM79.57,102.64l-.07-.75c1.34-.12,2.57-.21,3.75-.28l.04.75c-1.17.07-2.39.16-3.73.28ZM90.76,102.28c-1-.04-1.97-.04-2.94-.05-.27,0-.53,0-.79,0v-.75c.29,0,.59,0,.88,0,.94,0,1.9.02,2.88.05l-.03.75ZM26.86,101.79l-.27-3.74.75-.05.27,3.74-.75.05Z" data-part="abaCima"></path>
      <path class="cls-10" d="M5.92,112.57l.08-.05c1.63,54.06,20.69,31.72,51.12,17.51,9.83-4.59,20.52-6.42,32.83-5.56,10.8.75,20.82,2.75,30.13,7.36,28.38,14.03,47.65,33.94,48.96-19.29l.06.04c-.61,57.22-20.09,36.79-49.02,22.49-9.31-4.61-19.33-6.61-30.13-7.36-12.31-.85-22.99.97-32.83,5.56-31.01,14.48-50.21,37.42-51.19-20.69Z" data-part="abaBaixo"></path>
      <path class="cls-2" d="M5.92,112.57l.08-.05c1.63,54.06,20.69,31.72,51.12,17.51,9.83-4.59,20.52-6.42,32.83-5.56,10.8.75,20.82,2.75,30.13,7.36,28.38,14.03,47.65,33.94,48.96-19.29l.06.04c-.61,57.22-20.09,36.79-49.02,22.49-9.31-4.61-19.33-6.61-30.13-7.36-12.31-.85-22.99.97-32.83,5.56-31.01,14.48-50.21,37.42-51.19-20.69Z"></path>
      <path class="cls-4" d="M86.08.07h3.96c2.21,0,4.01,1.36,4.01,3.01h0s0,.1,0,.15c-1.99-.04-3.98-.07-5.98-.07s-4,.02-5.99.07c0-.05,0-.1,0-.15h0c0-1.66,1.8-3.01,4.01-3.01Z"></path>
      <path class="cls-10" d="M86.08.07h3.96c2.21,0,4.01,1.36,4.01,3.01h0s0,.1,0,.15c-1.99-.04-3.98-.07-5.98-.07s-4,.02-5.99.07c0-.05,0-.1,0-.15h0c0-1.66,1.8-3.01,4.01-3.01" data-part="botao"></path>
      <path class="cls-8" d="M138.98,21.01c.86.58,1.64,1.67,2.21,2.05l.41-.46c-.23-.34-.75-.8-1.06-1.1-.23-.23-.97-.94-1.24-.96-.08.3-.15.23-.32.47" data-part="copaFrente"></path>
      <path class="cls-8" d="M156.17,62.33c.69,0,.73.19.53-1.4-.06-.47-.14-1.12-.14-1.68-.78,0-.68-.02-.64.47l.25,2.61Z" data-part="copaFrente"></path>
      <path class="cls-8" d="M35.83,20.14c.07.26.2.34.39.47l2.29-1.81c-.06-.24-.19-.37-.32-.55-.43.29-.78.59-1.22.91-.22.17-.36.28-.57.45-.22.18-.43.3-.58.53" data-part="copaFrente"></path>
      <path class="cls-8" d="M17.22,82.51h.71c0-1.09-.08-1.9-.08-3h-.63v3Z" data-part="copaFrente"></path>
      <path class="cls-8" d="M118.16,9.49c.36.18,2.62,1.02,2.92,1.03l.17-.55c-.4-.19-.93-.37-1.38-.53-.35-.12-1.15-.48-1.47-.5-.09.19-.13.36-.24.55" data-part="copaFrente"></path>
      <path class="cls-8" d="M43.72,14.62c.1.19.18.32.24.55.33-.03,2.43-1.24,2.76-1.42-.14-.21-.2-.33-.32-.55l-2.68,1.42Z" data-part="copaFrente"></path>
      <path class="cls-8" d="M19.27,48.92c.15.07.42.14.63.16.23-.97.49-1.96.71-2.92-.15-.07-.42-.14-.63-.16l-.36,1.45c-.13.52-.23.99-.35,1.47" data-part="copaFrente"></path>
      <path class="cls-8" d="M47.98,12.33c.07.3.17.33.24.63.33-.08.97-.44,1.36-.61.45-.19.91-.46,1.4-.57-.02-.29-.1-.38-.16-.63-.58.05-2.37,1.14-2.84,1.18" data-part="copaFrente"></path>
      <path class="cls-8" d="M29.05,27c.18.27.19.24.47.39.47-.7,1.6-1.84,1.89-2.29-.13-.2-.28-.26-.47-.39-.15.23-.31.32-.49.53-.27.3-1.31,1.4-1.4,1.75" data-part="copaFrente"></path>
      <path class="cls-8" d="M150.33,36.15c.1.43,1.14,2.24,1.18,2.76.38-.03.25-.13.63-.16-.05-.55-1.05-2.26-1.18-2.84-.3.07-.33.17-.63.24" data-part="copaFrente"></path>
      <path class="cls-8" d="M154.59,49.8c.07.82.4,2.15.47,2.98.38,0,.33-.05.63-.08,0-.37-.16-1.14-.22-1.51-.09-.51-.14-1.02-.25-1.49l-.63.09Z" data-part="copaFrente"></path>
      <path class="cls-8" d="M17.62,63.35h.63c0-1.08.16-2.01.16-3.08h-.63c0,.38-.04.46-.07.72l-.09,2.35Z" data-part="copaFrente"></path>
      <path class="cls-8" d="M99.63,4.68v.32c1.05,0,1.94.39,3,.39l.09-.63c-.56,0-1.21-.16-1.74-.25-.24-.04-.57-.1-.82-.14-.42-.07-.53-.14-.53.31" data-part="copaFrente"></path>
      <path class="cls-8" d="M155.93,100.73h.63c0-.34.08-.38.08-.79,0-.29,0-.59,0-.87.01-1.11.48-1.42-.55-1.42,0,.54-.08.88-.08,1.5,0,.65-.08.96-.08,1.58" data-part="abaCima"></path>
      <path class="cls-8" d="M127.07,13.2l2.67,1.29c.14-.21.23-.28.25-.58-.21-.11-.42-.21-.63-.31l-2.05-1.03c-.11.21-.21.34-.24.63" data-part="copaFrente"></path>
      <path class="cls-8" d="M75.66,4.29c.08.16.11.43.16.63l2.43-.41c.82-.13.49-.01.49-.69-1.06,0-2.1.39-3.08.47" data-part="copaFrente"></path>
      <path class="cls-8" d="M156.48,84.8v1.5h.63l.1-3h-.65c0,.6-.08.88-.08,1.5" data-part="copaFrente"></path>
      <path class="cls-8" d="M156.56,81.49h.63c0-.4.08-.43.08-.87v-2.13h-.63c0,1.09-.08,1.9-.08,3" data-part="copaFrente"></path>
      <path class="cls-8" d="M104.36,5.79c.64.01,2.35.54,3,.55,0-.38.05-.33.08-.63-.42-.03-1-.19-1.45-.28-.46-.09-1.09-.27-1.54-.27-.03.3-.08.25-.08.63" data-part="copaFrente"></path>
      <path class="cls-8" d="M109.01,6.73c.42.2,2.39.54,2.92.79.07-.15.14-.42.16-.63-.3-.14-1.05-.3-1.42-.39-.36-.09-1.22-.26-1.5-.39-.05.22-.11.41-.16.63" data-part="copaFrente"></path>
      <path class="cls-8" d="M17.3,72.89c.7.06.64.45.63-1.42,0-.65.08-.96.08-1.58h-.71v3Z" data-part="copaFrente"></path>
      <path class="cls-8" d="M113.66,7.99c.22.1.49.16.72.23.25.08.49.16.71.24.42.14,1.05.31,1.41.48.1-.2.14-.43.24-.63l-2.92-.95c-.06.26-.13.35-.16.63" data-part="copaFrente"></path>
      <path class="cls-8" d="M155.54,54.52h-.24c.01.67.38,2.31.39,3.08.21-.12.27-.08.63-.08,0-.43-.12-1.08-.18-1.55-.06-.42-.18-1.09-.21-1.52-.18.04-.18.08-.39.08" data-part="copaFrente"></path>
      <path class="cls-8" d="M148.05,31.97c.06.22.21.42.33.62l1.09,1.99c.29-.02.42-.12.63-.24l-1.11-1.97c-.12-.2-.33-.48-.39-.71-.21.14-.33.2-.55.32" data-part="copaFrente"></path>
      <path class="cls-8" d="M122.65,11.23c.51.12,2.52,1.11,2.84,1.18.06-.26.13-.35.16-.63l-2.76-1.18c-.04.17-.17.48-.24.63" data-part="copaFrente"></path>
      <path class="cls-8" d="M18.49,53.73c.38,0,.33.05.63.08,0-.5.27-1.96.38-2.55.1-.55.15-.52-.61-.52,0,.82-.39,2-.39,3" data-part="copaFrente"></path>
      <path class="cls-8" d="M26.21,31.02c.21.11.34.21.63.24l1.58-2.52c-.24-.06-.37-.19-.55-.32l-1.66,2.6Z" data-part="copaFrente"></path>
      <path class="cls-8" d="M71,5.31l.09.63c.46-.04,1-.22,1.48-.32.39-.08,1.1-.3,1.5-.31-.03-.3-.08-.25-.08-.63-.45,0-1.13.21-1.52.3-.47.1-1.06.3-1.48.34" data-part="copaFrente"></path>
      <path class="cls-8" d="M90.09,3.97c.38,0,2.83.16,3,.24.03-.3.08-.31.08-.71-1.08,0-2.01-.16-3.08-.16v.63Z" data-part="copaFrente"></path>
      <path class="cls-8" d="M17.46,89.14v1.5c0,.62.08.9.08,1.5h.63l-.07-2.77c-.05-.48-.13-.23-.64-.23" data-part="abaCima"></path>
      <path class="cls-8" d="M94.9,4.05c0,.22-.36.24.44.34.18.02.59.06.85.1.53.07,1.19.19,1.7.19l.08-.63c-.69,0-2.03-.32-3.08-.32v.32Z" data-part="copaFrente"></path>
      <path class="cls-8" d="M52.47,10.44c0,.41.08.3.16.63l1.41-.48c.43-.14.97-.36,1.43-.46,0-.29-.06-.44-.16-.63-.75.17-2.41.85-2.84.95" data-part="copaFrente"></path>
      <path class="cls-8" d="M61.7,7.68c0,.38.05.33.08.63.74,0,2.23-.65,3-.71-.05-.22-.11-.41-.16-.63-.26.02-.47.1-.7.17-.23.07-.47.12-.75.19-.45.11-1.01.34-1.47.35" data-part="copaFrente"></path>
      <path class="cls-8" d="M153.64,45.14l.63,2.92.63-.09c-.04-.44-.22-1.06-.31-1.49-.1-.48-.28-1.02-.32-1.49-.21.02-.48.09-.63.16" data-part="copaFrente"></path>
      <path class="cls-8" d="M20.54,44.27c.19.09.34.15.63.16.05-.63.68-2.05.87-2.84-.19-.09-.34-.15-.63-.16-.1.45-.29.91-.44,1.37-.13.38-.39,1.09-.42,1.47" data-part="copaFrente"></path>
      <path class="cls-8" d="M17.62,93.95c0,1.09.08,1.9.08,3,.86,0,.66.05.63-.54l-.08-2.53c-.37,0-.33.05-.63.08" data-part="abaCima"></path>
      <path class="cls-8" d="M17.22,77.7h.63v-1.34c0-.67.08-1,.08-1.66h-.71v3Z" data-part="copaFrente"></path>
      <path class="cls-8" d="M156.48,67.14c.38,0,.33-.05.63-.08,0-1.02-.16-1.99-.16-3h-.63c0,.25-.01.54,0,.79.02.35.07.33.08.71l.08,1.58Z" data-part="copaFrente"></path>
      <path class="cls-8" d="M152.22,40.56l.95,2.84c.21-.02.48-.09.63-.16-.19-.4-.32-1-.46-1.43-.16-.48-.37-.93-.48-1.41-.29,0-.44.06-.63.16" data-part="copaFrente"></path>
      <path class="cls-8" d="M156.56,70.45c0,.62.08.9.08,1.5.3-.03.25-.08.63-.08l-.1-3h-.61s0,1.58,0,1.58Z" data-part="copaFrente"></path>
      <path class="cls-8" d="M142.39,24.34l1.42,1.7c.23.26.23.37.53.57.23-.15.11-.16.39-.24-.04-.43-1.57-2.17-1.97-2.44l-.38.41Z" data-part="copaFrente"></path>
      <path class="cls-8" d="M17.3,85.51c0,.72.08,1.11.08,1.81h.63c0-1.1-.08-1.91-.08-3h-.63v1.18Z" data-part="copaFrente"></path>
      <path class="cls-8" d="M17.46,66.11c0,.77-.08,1.22-.08,1.97l.63.08.08-2.29c.01-.4.08-.39.08-.79h-.71v1.02Z" data-part="copaFrente"></path>
      <path class="cls-8" d="M135.27,18.01c.63.33,1.78,1.37,2.44,1.81.08-.3.15-.23.32-.47-.14-.21-.32-.32-.53-.49l-1.83-1.4c-.19.14-.28.34-.39.55" data-part="copaFrente"></path>
      <path class="cls-8" d="M24.01,35.28c.19.1.32.18.55.24l1.34-2.68c-.21-.11-.34-.21-.63-.24-.08.33-.65,1.31-.95,1.97-.11.24-.25.42-.31.71" data-part="copaFrente"></path>
      <path class="cls-8" d="M156.17,95.92h.63c0-1.05.08-1.89.08-3l-.63-.08c0,1.11-.08,1.95-.08,3.08" data-part="abaCima"></path>
      <path class="cls-8" d="M17.93,58.54h.63c0-.71.3-2.31.32-3-.3-.03-.25-.08-.63-.08l-.31,3.08Z" data-part="copaFrente"></path>
      <path class="cls-8" d="M66.35,6.5l.09.63,2.98-.79c-.07-.16-.11-.36-.16-.55-.48.01-2.3.57-2.92.71" data-part="copaFrente"></path>
      <path class="cls-8" d="M131.33,15.33l2.52,1.66c.11-.21.2-.34.32-.55-.46-.31-2.18-1.48-2.6-1.58-.11.17-.18.23-.24.47" data-part="copaFrente"></path>
      <path class="cls-8" d="M39.62,17.22c.13.19.2.34.39.47l2.52-1.58c-.14-.21-.2-.33-.32-.55l-2.6,1.66Z" data-part="copaFrente"></path>
      <path class="cls-8" d="M145.36,28.02l1.73,2.44c.2-.05.29-.14.47-.24-.1-.45-1.34-2.05-1.66-2.52-.24.06-.37.19-.55.32" data-part="copaFrente"></path>
      <rect class="cls-11" x="156.64" y="73.68" width=".63" height="3" data-part="copaFrente"></rect>
      <path class="cls-8" d="M22.11,39.77c.33.03.26.09.55.16l1.1-2.84c-.29-.07-.22-.13-.55-.16-.11.2-.18.42-.29.66-.21.47-.81,1.79-.82,2.18" data-part="copaFrente"></path>
      <path class="cls-8" d="M57.05,8.94c0,.29.06.44.16.63l2.92-.79c-.04-.19-.08-.4-.16-.55-.66.01-2.35.7-2.92.71" data-part="copaFrente"></path>
      <path class="cls-8" d="M18.49,99.07c0-.42,0-.39-.47-.39-.37,0-.15.26-.16,1.42,0,.62.08.98.08,1.66h.63l-.08-1.97,2.68-1.34c-.05-.23-.14-.36-.24-.55l-2.44,1.18Z" data-part="abaCima"></path>
      <path class="cls-8" d="M156.8,99.39l2.68,1.42c.11-.21.21-.34.24-.63-.47-.25-2.31-1.31-2.68-1.34-.05.23-.14.37-.24.55" data-part="abaCima"></path>
      <path class="cls-8" d="M9.73,103.73c.07.3.17.33.24.63l2.68-1.42c-.07-.3-.17-.33-.24-.63-.44.23-.91.46-1.34.71l-1.34.71Z" data-part="abaCima"></path>
      <path class="cls-8" d="M82.75,82.36c0,.78.17.39,1.26.39h1.81c0-.74.06-.78-.58-.67-1.02.17-2.49-.22-2.49.27" data-part="copaFrente"></path>
      <path class="cls-8" d="M68.4,83.38v.47c.64-.01,2.4-.32,3.08-.32-.03-.3-.08-.25-.08-.63-.57,0-1.1.09-1.59.14-.86.09-1.41-.02-1.41.33" data-part="copaFrente"></path>
      <path class="cls-8" d="M5.55,106.09c.05.23.14.37.24.55.32-.07,2.32-1.23,2.68-1.42-.1-.19-.18-.32-.24-.55-.34.03-2.32,1.23-2.68,1.42" data-part="abaCima"></path>
      <path class="cls-8" d="M22.51,97.02c.07.3.17.33.24.63.34-.08,2.36-1.17,2.76-1.26-.07-.3-.17-.33-.24-.63-.42.22-.91.41-1.34.63l-1.42.63Z" data-part="abaCima"></path>
      <path class="cls-8" d="M40.25,89.69c.08.17.14.31.16.55.63-.01,2.29-.81,2.92-.87-.02-.29-.1-.38-.16-.63-.3.03-2.63.81-2.92.95" data-part="abaCima"></path>
      <path class="cls-8" d="M63.59,83.77c0,.38.05.33.08.63,1.07,0,1.91-.32,3-.32,0-.84.15-.72-1.32-.53-.52.07-1.15.21-1.76.21" data-part="copaFrente"></path>
      <path class="cls-8" d="M92.37,82.28c0,.64,0,.48,1.58.47.4,0,.51.03.8.07.78.1.69-.05.69-.62l-1.66-.08c-.99,0-1.42-.23-1.42.16" data-part="copaFrente"></path>
      <path class="cls-8" d="M125.57,87.32c.31.15,1.02.29,1.41.4.33.1,1.15.38,1.51.39.06-.26.13-.35.16-.63-.27,0-2.7-.68-2.92-.79-.07.15-.14.42-.16.63" data-part="copaFrente"></path>
      <path class="cls-8" d="M49.48,86.77c0,.29.06.44.16.63.6-.01,2.27-.66,2.92-.71-.02-.21-.09-.48-.16-.63-.63.05-2.33.7-2.92.71" data-part="copaFrente"></path>
      <path class="cls-8" d="M44.82,88.19c.07.16.11.36.16.55.42,0,1.04-.24,1.45-.37.51-.15.95-.3,1.47-.42,0-.29-.06-.44-.16-.63-.52.12-.96.27-1.47.42-.29.09-.46.13-.73.22-.18.06-.55.15-.72.23" data-part="abaCima"></path>
      <path class="cls-8" d="M120.91,86.22c.69.02,2.33.62,2.93.63.07-.15.14-.42.16-.63-.59-.01-2.27-.63-3-.63l-.09.63Z" data-part="copaFrente"></path>
      <path class="cls-8" d="M130.15,88.66l2.92.87c.07-.15.14-.42.16-.63l-2.92-.87c-.02.21-.09.48-.16.63" data-part="abaCima"></path>
      <path class="cls-8" d="M165.16,104.04c.24.16,2.4,1.51,2.68,1.58.08-.35.16-.25.24-.55l-2.6-1.58c-.12.22-.18.35-.32.55" data-part="abaCima"></path>
      <path class="cls-8" d="M111.54,84.01c0,.21-.04.22-.08.39.5.01,1.3.18,1.86.27,1.05.16,1.12.34,1.22-.04v-.35c-.01-.15-2.72-.51-3-.51v.24Z" data-part="copaFrente"></path>
      <path class="cls-8" d="M143.79,93.32c.28.02,1.15.4,1.44.53.4.17,1,.48,1.4.57.06-.26.13-.35.16-.63-.29-.07-2.31-1-2.76-1.1-.12.22-.17.36-.24.63" data-part="abaCima"></path>
      <path class="cls-8" d="M13.91,101.44c.1.19.18.32.24.55.49-.04,2.36-1.25,2.76-1.34-.08-.3-.15-.2-.24-.55-.52.04-2.27,1.23-2.76,1.34" data-part="abaCima"></path>
      <path class="cls-8" d="M169.26,106.56c.46.24.84.53,1.27.78.33.2,1.01.72,1.34.79.11-.16.21-.31.32-.47-.76-.51-1.81-1.23-2.6-1.66-.12.22-.18.35-.32.55" data-part="abaCima"></path>
      <path class="cls-8" d="M161.06,101.67c.42.28.85.47,1.31.74.45.27.85.52,1.29.76.12-.23.18-.35.32-.55-.4-.27-.85-.49-1.29-.76-.24-.14-.41-.24-.65-.37-.25-.14-.48-.31-.73-.37-.1.19-.18.32-.24.55" data-part="abaCima"></path>
      <path class="cls-8" d="M35.76,91.27c.02.28.1.38.16.63l2.84-1.03c-.02-.29-.1-.38-.16-.63l-2.84,1.03Z" data-part="abaCima"></path>
      <path class="cls-8" d="M106.73,83.77c.43,0,1.02.12,1.48.17.46.06,1.06.12,1.51.22l.08-.71c-1.02,0-2.01-.32-3-.32-.02.3-.08.25-.08.63" data-part="copaFrente"></path>
      <path class="cls-8" d="M54.13,85.59c.02.21.09.48.16.63.34,0,1.11-.22,1.43-.3.51-.12.99-.22,1.48-.33l-.09-.63-1.49.31c-.36.09-1.14.31-1.5.32" data-part="copaFrente"></path>
      <path class="cls-8" d="M73.13,82.75c.03.3.08.25.08.63l3-.24v-.63c-.35,0-.5.03-.73.06-.29.04-.55,0-.83.03l-1.51.15Z" data-part="copaFrente"></path>
      <path class="cls-8" d="M77.94,82.59l.08.47c.34,0,.32-.07.71-.08l2.29-.08v-.63l-2.45.07c-.33,0-.63-.08-.63.24" data-part="copaFrente"></path>
      <path class="cls-8" d="M116.19,85.19c.42.03.99.19,1.45.28.46.09,1.09.27,1.54.27l.08-.63c-.6-.01-2.21-.49-2.92-.55-.08.16-.11.43-.16.63" data-part="copaFrente"></path>
      <path class="cls-8" d="M31.26,93.08c.07.3.17.33.24.63.38-.2.9-.39,1.33-.56.41-.16.98-.44,1.43-.54,0-.41-.08-.3-.16-.63-.45.1-1.02.38-1.43.54l-1.41.56Z" data-part="abaCima"></path>
      <path class="cls-8" d="M139.29,91.58l2.84,1.02c.12-.22.17-.36.24-.63-.37-.03-1.05-.35-1.41-.48-.36-.13-1.07-.45-1.51-.46-.03.33-.09.26-.16.55" data-part="abaCima"></path>
      <path class="cls-8" d="M58.86,84.56c0,.4.07.35.08.71.17-.08,2.66-.52,3-.55l-.09-.63c-.74.01-2.18.47-2.98.47" data-part="copaFrente"></path>
      <path class="cls-8" d="M26.84,95.05c.1.19.18.32.24.55l2.76-1.18c-.02-.29-.12-.42-.24-.63-.42.22-.89.41-1.36.61-.48.21-.96.42-1.4.65" data-part="abaCima"></path>
      <path class="cls-8" d="M97.18,82.91l2.21.16c.4,0,.39.08.79.08.02-.3.08-.25.08-.63-.41-.03-1.09-.12-1.5-.15-.25-.02-.52.01-.77-.02-.28-.03-.41-.07-.8-.07v.63Z" data-part="copaFrente"></path>
      <path class="cls-8" d="M101.99,82.99c0,.44-.45.23,1.25.41.56.06,1.09.15,1.75.15,0-.9.4-.52-1.24-.73-.51-.07-1.15-.14-1.76-.14v.32Z" data-part="copaFrente"></path>
      <rect class="cls-11" x="87.56" y="82.04" width="3.08" height=".63" data-part="copaFrente"></rect>
      <path class="cls-8" d="M1.37,108.54c.05.2.14.29.24.47.3-.07.4-.19.68-.34.42-.21,1.68-1,2-1.08-.1-.19-.18-.32-.24-.55-.35.03-.49.18-.71.31l-1.31.74c-.33.18-.46.15-.66.45" data-part="abaCima"></path>
      <path class="cls-8" d="M152.54,97.18l2.75,1.37c.07-.26.15-.4.25-.58l-2.74-1.37c-.11.22-.15.39-.25.58" data-part="abaCima"></path>
      <path class="cls-8" d="M148.2,95.13l2.76,1.26c.11-.21.21-.34.24-.63-.54-.13-.89-.38-1.37-.61l-1.39-.58c-.1.19-.14.36-.24.55" data-part="abaCima"></path>
      <path class="cls-8" d="M134.8,90.08c.74.17,2.45.83,2.84.87.08-.17.14-.31.16-.55l-2.84-.95c-.09.19-.15.34-.16.63" data-part="abaCima"></path>
      <path class="cls-8" d="M156.33,91.11h.63l.08-3c-.48,0-.55-.23-.63.15-.03.18,0,.73,0,.95l-.08,1.89Z" data-part="abaCima"></path>
      <path class="cls-8" d="M32.21,23.45l.41.38,2.19-2.03c-.07-.26-.2-.34-.39-.47l-2.21,2.13Z" data-part="copaFrente"></path>
      <path class="cls-8" d="M87.24,4.12h.71l.1-1.84h.77c0,1.27-.16,2.81-.16,4.12l-.08,6.06c0,1.3.08,67.21.08,68.51h.63V6.93c0-1.47.16-3.15.16-4.66h1.1v-.39h-3.08c0,.4-.15.85-.15,1.65,0,.28-.08.34-.08.58" data-part="copaFrente"></path>
      <path class="cls-8" d="M87.21,7.73v.32h.71v-3.08h-.63c0,1.01-.08,1.74-.08,2.76" data-part="copaFrente"></path>
      <path class="cls-8" d="M87.21,9.2l.08,2.84h.63v-3.08c-.51,0-.71-.07-.71.24" data-part="copaFrente"></path>
      <path class="cls-8" d="M87.29,15.68c0,.31.2.24.71.24l-.08-3.08h-.63v2.84Z" data-part="copaFrente"></path>
      <path class="cls-8" d="M82.67,2.36l.08.47c.95-.08,1.95-.24,3-.24v-.63c-.65,0-1.12.07-1.66.08-.4,0-.49.05-.8.07-.31.02-.62-.09-.62.25" data-part="copaFrente"></path>
      <path class="cls-8" d="M161.31,99.11c0,.96-.09,1.04.41,1.04.36,0,.32-.25.32-.61,0-.34,0-.7,0-1.05-.24-.06-.31-.1-.62-.1-.03.32-.1.37-.1.72" data-part="abaCima"></path>
      <rect class="cls-11" x="12.87" y="83.06" width=".72" height="1.66" data-part="copaFrente"></rect>
      <path class="cls-8" d="M161.62,84.61h.41c.24,0,.31-.07.31-.31v-1.35h-.72v1.66Z" data-part="copaFrente"></path>
      <path class="cls-8" d="M12.87,82.13h.72v-1.35c0-.24-.07-.31-.31-.31h-.41v1.66Z" data-part="copaFrente"></path>
      <path class="cls-8" d="M161.62,82.03h.41c.24,0,.31-.07.31-.31v-1.35h-.72v1.66Z" data-part="copaFrente"></path>
      <path class="cls-8" d="M12.87,87h0c0,.24.08.31.31.31h.41v-1.66h-.72v1.35Z" data-part="copaFrente"></path>
      <path class="cls-8" d="M13.07,97.55h.72v-1.35c0-.24-.07-.31-.31-.31h-.41v1.66Z" data-part="abaCima"></path>
      <path class="cls-8" d="M161.51,73.95c0,.24.07.31.31.31h.41v-1.66h-.73v1.35Z" data-part="copaFrente"></path>
      <path class="cls-8" d="M13.07,67.95v1.35c.89,0,.72.19.72-1.66-.5,0-.72-.07-.72.31" data-part="copaFrente"></path>
      <path class="cls-8" d="M12.87,78.2v1.35h.72c0-1.52.15-1.66-.41-1.66-.24,0-.31.07-.31.3h0Z" data-part="copaFrente"></path>
      <path class="cls-8" d="M161.51,92.38h.62c.05-.23.1-.24.1-.52v-1.14h-.73v1.66Z" data-part="abaCima"></path>
      <path class="cls-8" d="M73.53,4.18c.4-.03.34-.1.83-.1.97-.01.9.03.72-.72-2.18,0-1.56.34-1.55.83" data-part="copaFrente"></path>
      <path class="cls-8" d="M109.45,5.01c.63,0,1.03.21,1.66.21,0-.32.05-.38.1-.62-1.86-.43-1.76-.35-1.76.41" data-part="copaFrente"></path>
      <path class="cls-8" d="M16.49,43.83c.21.1.37.15.62.21l.5-1.56c-.21-.1-.39-.18-.71-.2-.05.6-.36.96-.41,1.55" data-part="copaFrente"></path>
      <path class="cls-8" d="M108.51,4.81c.06-.24.1-.31.1-.62-.51-.01-1.15-.2-1.66-.21-.01.52-.66.83,1.55.83" data-part="copaFrente"></path>
      <path class="cls-8" d="M65.76,4.29l.12.62c2.22.02,1.58-.36,1.54-.82-.58,0-1.11.2-1.66.21" data-part="copaFrente"></path>
      <path class="cls-8" d="M131.49,11.84l1.45.72.31-.62-1.54-.76c-.09.36-.15.34-.22.66" data-part="copaFrente"></path>
      <path class="cls-8" d="M161,61.01v.31h.72c-.16-1.87.01-1.66-.83-1.66,0,.59.1.72.1,1.35" data-part="copaFrente"></path>
      <path class="cls-8" d="M14.63,51.39c.68.02.62.38.75-.39.05-.35.18-.77.19-1.16l-.62-.12c-.1.44-.3,1.21-.31,1.67" data-part="copaFrente"></path>
      <path class="cls-8" d="M13.18,77.06h.41v-1.66c-.32,0-.38-.05-.62-.1,0,.49-.03.63-.08.96,0,.05-.02.1-.02.15v.45c.04.13.13.2.31.2" data-part="copaFrente"></path>
      <path class="cls-8" d="M86.26,2.86v.6s1.65,0,1.65,0l.12-.62c-.41-.01-.51-.14-.74-.11l-1.03.12Z" data-part="copaFrente"></path>
      <path class="cls-8" d="M79.53,3.05h-.93v.72l1.66-.1v-.72c-.32.03-.37.1-.73.1" data-part="copaFrente"></path>
      <path class="cls-8" d="M161.41,96.11v1.45h.62c0-.72.1-.99.1-1.66-.32-.03-.72-.28-.72.21" data-part="abaCima"></path>
      <path class="cls-8" d="M160.69,57.29c0,.48.03.73.1,1.15.1.65.1.31.73.3l-.21-1.66c-.22,0-.62-.05-.62.21" data-part="copaFrente"></path>
      <path class="cls-8" d="M12.97,91.03c0,1.64-.11,1.54.72,1.35l-.1-1.66c-.36,0-.62-.06-.62.31" data-part="abaCima"></path>
      <path class="cls-8" d="M14.52,53.97h.41c0-.63.16-1.11.21-1.66h-.72c0,.42-.05.59-.1.94-.07.43-.21.72.21.72" data-part="copaFrente"></path>
      <path class="cls-8" d="M160.38,54.61c0,.39.12,1.29.2,1.64.32,0,.38-.05.62-.1,0-.49-.11-1.25-.21-1.66l-.62.12Z" data-part="copaFrente"></path>
      <path class="cls-8" d="M114.52,5.94c.51,0,1.2.2,1.66.31,0-.32.05-.38.1-.62-.36-.17-1.2-.31-1.66-.41-.03.4-.09.27-.1.72" data-part="copaFrente"></path>
      <path class="cls-8" d="M76.01,3.25v.41c0,.48.3.21.62.21h1.04v-.72c-.67,0-.93.1-1.66.1" data-part="copaFrente"></path>
      <path class="cls-8" d="M71.25,3.67h-.31v.72c.46-.01.41-.09.93-.1.75-.01.72.08.72-.73-.59,0-.72.1-1.35.1" data-part="copaFrente"></path>
      <path class="cls-8" d="M153.44,32.65c.13.56.49.88.62,1.45,1.01-.08.6-.43-.1-1.76-.23.12-.31.17-.52.31" data-part="copaFrente"></path>
      <path class="cls-8" d="M15.76,46.31c.25.06.42.11.62.21.12-.52.37-1.13.41-1.66-.24-.06-.31-.1-.62-.1-.12.52-.37.97-.41,1.55" data-part="copaFrente"></path>
      <path class="cls-8" d="M119.49,7.08c.28.07.54.13.82.22.28.09.44.19.84.19.06-.24.1-.31.1-.62-.46-.11-1.08-.38-1.55-.41-.12.24-.09.38-.21.62" data-part="copaFrente"></path>
      <path class="cls-8" d="M99.2,3.56v.41c.72,0,.99.1,1.66.1,0-.89,0-.71-.83-.73-.51-.01-.83-.25-.83.21" data-part="copaFrente"></path>
      <path class="cls-8" d="M13.18,65.98v.72c.32,0,.38.05.62.1.12-1.5.4-1.76-.52-1.76-.01.47-.1.41-.1.93" data-part="copaFrente"></path>
      <path class="cls-8" d="M91.43,3.25c0,.47.53.31,1.66.31,0-.82-.04-.33.1-.62l-1.76-.1v.41Z" data-part="copaFrente"></path>
      <path class="cls-8" d="M150.75,28.2c.11.46.59,1,.83,1.45.27-.07.37-.18.62-.31-1.24-1.85-.67-1.37-1.45-1.14" data-part="copaFrente"></path>
      <path class="cls-8" d="M159.55,49.52l.27,1.49c.22.38-.21.07.66.07,0-.21-.15-1.66-.41-1.66-.16,0-.39.05-.52.1" data-part="copaFrente"></path>
      <path class="cls-8" d="M96.61,3.36v.41c.72,0,.99.1,1.66.1,0-.86.01-.72-.83-.73-.45,0-.83-.23-.83.21" data-part="copaFrente"></path>
      <path class="cls-8" d="M157.48,42.07c.03.38.1.38.21.72.09.28.18.51.21.83.46-.01.32-.07.72-.1l-.53-1.65c-.19.09-.36.14-.61.2" data-part="copaFrente"></path>
      <path class="cls-8" d="M13.59,64.22c.5,0,.43-.17.42-.72,0-.53,0-.53.1-.94-.65-.01-.7-.34-.73.51-.02.64-.31,1.15.21,1.15" data-part="copaFrente"></path>
      <path class="cls-8" d="M161.31,65.26v1.24h.72l-.1-1.66c-.98,0-.62.03-.62.41" data-part="copaFrente"></path>
      <path class="cls-8" d="M101.79,3.77v.41l1.65.12v-.64c-.41-.1-.42-.09-.93-.11-.5-.02-.72-.19-.72.21" data-part="copaFrente"></path>
      <path class="cls-8" d="M124.45,8.74c.55.13,1.06.48,1.55.52l.12-.62c-.34-.16-1.16-.49-1.57-.52-.06.24-.1.31-.1.62" data-part="copaFrente"></path>
      <path class="cls-8" d="M50.75,8.01c.09.18.11.52.31.52.42,0,.87-.37,1.45-.41-.03-.32-.1-.5-.21-.72-.49.23-1.08.37-1.55.62" data-part="copaFrente"></path>
      <path class="cls-8" d="M55.72,6.36c0,.32.05.38.1.62.6-.01.99-.26,1.55-.31,0-.96.22-.75-1.66-.31" data-part="copaFrente"></path>
      <path class="cls-8" d="M129.11,10.7c.52.12.98.49,1.56.62.13-.24.18-.27.21-.62l-1.45-.62-.31.62Z" data-part="copaFrente"></path>
      <path class="cls-8" d="M126.84,9.67l1.45.62.31-.62c-.52-.12-.98-.49-1.56-.62-.13.24-.18.27-.21.62" data-part="copaFrente"></path>
      <path class="cls-8" d="M156.54,39.69c.25.47.39,1.06.62,1.55.2-.1.37-.15.62-.21-.11-.24-.17-.48-.28-.75-.12-.31-.21-.42-.24-.8-.31.03-.5.1-.72.21" data-part="copaFrente"></path>
      <path class="cls-8" d="M13.67,59.05h.64c.03-.35.08-.48.11-.93.03-.44.23-.72-.21-.72h-.41l-.13,1.65Z" data-part="copaFrente"></path>
      <path class="cls-8" d="M12.97,71.88h.72v-1.66h-.62c0,.67-.1.93-.1,1.66" data-part="copaFrente"></path>
      <path class="cls-8" d="M158.92,47.04c.1.21.17.53.23.81.19.86.04.82.81.64-.03-.39-.28-1.38-.41-1.66-.24.12-.38.09-.62.21" data-part="copaFrente"></path>
      <path class="cls-8" d="M121.97,7.81l1.55.53c.13-.26.18-.29.21-.64l-1.55-.52c-.1.21-.15.37-.21.62" data-part="copaFrente"></path>
      <path class="cls-8" d="M161.31,102.11c0,.32-.27.62.21.62h.41v-1.76h-.62v1.14Z" data-part="abaCima"></path>
      <path class="cls-8" d="M133.77,12.88c.17.26,1.23.83,1.24.83.34,0,.4-.29.52-.52-1.68-.89-1.47-.9-1.76-.31" data-part="copaFrente"></path>
      <path class="cls-8" d="M158.3,44.66c0,.17.35,1.31.41,1.45l.62-.12c-.04-.57-.36-.99-.41-1.64-.19.04-.62.1-.62.31" data-part="copaFrente"></path>
      <path class="cls-8" d="M41.44,12.15c.11,1.29.86.18,1.66,0-.03-.35-.08-.38-.21-.62-.56.13-.88.49-1.45.62" data-part="copaFrente"></path>
      <path class="cls-8" d="M94.02,3.56c.73.17.78.1,1.66.1,0-.82-.04-.33.1-.62l-1.76-.1v.62Z" data-part="copaFrente"></path>
      <path class="cls-8" d="M58.21,5.74c0,.32.05.38.1.62.62-.01,1.1-.26,1.66-.31-.06-.24-.1-.31-.1-.62-.7,0-1.04.26-1.66.31" data-part="copaFrente"></path>
      <path class="cls-8" d="M117,6.46c.61.05.96.31,1.66.31.06-.24.1-.31.1-.62-.56-.05-1.04-.3-1.66-.31,0,.32-.05.38-.1.62" data-part="copaFrente"></path>
      <path class="cls-8" d="M21.46,32.03c.32.07.3.13.62.21.06-.24.2-.43.35-.69.17-.3.3-.41.38-.76-.74-.39-.56-.22-.97.47-.19.31-.28.38-.37.77" data-part="copaFrente"></path>
      <path class="cls-8" d="M18.15,38.97c.23.11.41.18.72.21.04-.49.39-1.01.52-1.55-.25-.06-.42-.11-.62-.21-.08.35-.46,1.25-.62,1.55" data-part="copaFrente"></path>
      <path class="cls-8" d="M17.32,41.45l.62.12c.14-.58.38-.97.52-1.57-.35-.03-.38-.08-.62-.21-.12.52-.47,1.05-.52,1.66" data-part="copaFrente"></path>
      <path class="cls-8" d="M161.2,63.91h.62v-1.35c0-.24-.07-.31-.31-.31h-.41c0,.72.1.99.1,1.66" data-part="copaFrente"></path>
      <path class="cls-8" d="M60.69,5.22c.06.24.1.31.1.62l1.66-.31-.12-.62c-.34,0-1.4.19-1.64.31" data-part="copaFrente"></path>
      <path class="cls-8" d="M39.16,13.6c.16.25.13.11.21.41.42-.04,1.02-.44,1.55-.72-.39-.73-.32-.59-1.1-.17-.28.15-.49.26-.66.48" data-part="copaFrente"></path>
      <path class="cls-8" d="M136.05,14.33c.51.14.89.68,1.45.72.08-.31.04-.17.21-.41-.22-.32-1.1-.85-1.45-.93-.13.24-.18.27-.21.62" data-part="copaFrente"></path>
      <path class="cls-8" d="M154.58,34.93c.12.51.5,1.04.62,1.55.24-.13.27-.18.62-.21-.16-.68-.49-.99-.62-1.55-.31.03-.42.08-.62.21" data-part="copaFrente"></path>
      <path class="cls-8" d="M142.24,18.65c.23.33.29.35.6.58.29.22.38.39.66.58l.39-.44c-.2-.32-.91-.91-1.22-1.12l-.44.39Z" data-part="copaFrente"></path>
      <path class="cls-8" d="M160.48,53.66c.76,0,.23-.55.21-1.66h-.62c0,.66-.01,1.66.41,1.66" data-part="copaFrente"></path>
      <path class="cls-8" d="M147.66,24.18l.91,1.22c.32-.07.4-.16.62-.31-.31-.47-.72-.88-1.04-1.35l-.5.43Z" data-part="copaFrente"></path>
      <path class="cls-8" d="M15.14,48.8c.24.12.38.09.62.21.11-.46.24-1.3.41-1.66-.4-.03-.27-.09-.72-.1-.05.55-.27,1.04-.31,1.55" data-part="copaFrente"></path>
      <path class="cls-8" d="M138.22,15.47c0,.3.09.21.58.56.29.2.41.38.77.47.14-.21.19-.29.31-.52-.46-.31-.88-.62-1.35-.93-.08.12-.31.35-.31.41" data-part="copaFrente"></path>
      <path class="cls-8" d="M13.9,56.46c.45.01.32.07.72.1,0-.67.1-.93.1-1.66-.24-.06-.31-.1-.62-.1,0,.4-.13,1.31-.21,1.66" data-part="copaFrente"></path>
      <path class="cls-8" d="M68.35,3.98v.62l1.65-.12v-.7c-.45.04-1.2.17-1.65.21" data-part="copaFrente"></path>
      <path class="cls-8" d="M144.12,20.33l1.22,1.27.42-.46c-.09-.14-.96-1.12-1.12-1.12-.24,0-.32.17-.52.31" data-part="copaFrente"></path>
      <path class="cls-8" d="M140.27,17c.26.38.93.96,1.37,1.06.14-.21.19-.29.31-.52-.51-.27-.8-.64-1.24-.93l-.44.39Z" data-part="copaFrente"></path>
      <path class="cls-8" d="M22.8,29.75c.21.14.29.19.52.31.26-.49.57-.85.83-1.35-.16-.22-.29-.26-.52-.41-.24.45-.72.99-.83,1.45" data-part="copaFrente"></path>
      <path class="cls-8" d="M45.99,9.98c.11.21.14.25.21.52.44-.04,1.21-.44,1.55-.62-.07-.32-.13-.3-.21-.62-.5.26-1.05.46-1.55.72" data-part="copaFrente"></path>
      <path class="cls-8" d="M48.37,8.95c.09.18.12.34.21.52.63-.05,1-.39,1.55-.52-.06-.25-.11-.42-.21-.62-.35.08-1.25.46-1.55.62" data-part="copaFrente"></path>
      <path class="cls-8" d="M53.24,7.08l.12.62c.39,0,1.08-.28,1.64-.41-.12-.24-.09-.38-.21-.62l-1.55.41Z" data-part="copaFrente"></path>
      <path class="cls-8" d="M32.85,17.85c.07.32.16.4.31.62.22-.12,1.24-.88,1.24-1.04,0-.25-.17-.3-.31-.52-.51.34-.86.83-1.24.93" data-part="copaFrente"></path>
      <path class="cls-8" d="M27.36,23.44l.39.44c.12-.09,1.06-1.12,1.06-1.16,0-.25-.17-.3-.31-.52-.47.32-.82.77-1.14,1.24" data-part="copaFrente"></path>
      <path class="cls-8" d="M19.18,36.58c.75.39.58.21.9-.45.15-.32.26-.44.35-.79-.75-.39-.58-.21-.9.45-.15.32-.26.44-.35.79" data-part="copaFrente"></path>
      <path class="cls-8" d="M13.28,102.21v.52h.62v-1.66h-.72c0,.52.1.56.1,1.14" data-part="abaCima"></path>
      <path class="cls-8" d="M161.41,69.09h.72c0-.52-.1-.56-.1-1.14v-.52h-.62v1.66Z" data-part="copaFrente"></path>
      <path class="cls-8" d="M155.61,37.31c.22.46.39,1,.62,1.45l.62-.12c-.05-.23-.53-1.54-.72-1.54-.16,0-.41.14-.52.21" data-part="copaFrente"></path>
      <path class="cls-8" d="M24.15,27.58c.23.12.31.17.52.31.28-.21.72-.92.93-1.24l-.39-.44c-.36.25-.81,1-1.06,1.37" data-part="copaFrente"></path>
      <path class="cls-8" d="M149.28,26.21c.18.33.71,1.08.95,1.27.23-.12.31-.17.52-.31-.2-.3-.79-1.16-1.03-1.35l-.44.39Z" data-part="copaFrente"></path>
      <path class="cls-8" d="M81.6,2.94h-.41v.62h1.66c0-1.12-.13-.62-1.24-.62" data-part="copaFrente"></path>
      <path class="cls-8" d="M152.09,30.37c.23.43.58,1.21.93,1.45.71-.38.46-.19-.31-1.66-.32.07-.3.13-.62.21" data-part="copaFrente"></path>
      <path class="cls-8" d="M36.99,14.95c.16.25.13.11.21.41.56-.05.82-.56,1.45-.72-.07-.32-.13-.3-.21-.62-.44.1-1.24.62-1.45.93" data-part="copaFrente"></path>
      <path class="cls-8" d="M145.96,22.28c.18.25.3.36.51.57.25.24.35.26.44.6.27-.07.37-.18.62-.31-.26-.49-.69-.94-1.14-1.24l-.44.39Z" data-part="copaFrente"></path>
      <path class="cls-8" d="M20.32,34.31c.27.06.3.09.52.21l.73-1.45c-.23-.15-.31-.24-.62-.31-.14.59-.57.94-.62,1.55" data-part="copaFrente"></path>
      <path class="cls-8" d="M112.03,5.43c1.33.03,1.66.8,1.66-.41-.62-.01-.89-.21-1.66-.21v.62Z" data-part="copaFrente"></path>
      <path class="cls-8" d="M30.88,19.71l.39.44c.44-.3.99-.75,1.26-1.16l-.44-.39-1.22,1.12Z" data-part="copaFrente"></path>
      <polygon class="cls-8" points="28.99 21.55 29.45 21.97 30.7 20.77 30.23 20.36 28.99 21.55" data-part="copaFrente"></polygon>
      <path class="cls-8" d="M63.28,4.7v.62c.68,0,1.07-.19,1.66-.21v-.62c-.73,0-1.06.16-1.66.21" data-part="copaFrente"></path>
      <path class="cls-8" d="M161.51,94.14c0,.43-.31.83.21.83h.41v-1.66h-.62v.83Z" data-part="abaCima"></path>
      <path class="cls-8" d="M13.18,100.14h.41c.52,0,.21-.4.21-.83v-.83h-.62v1.66Z" data-part="abaCima"></path>
      <path class="cls-8" d="M161.62,88.96c0,.43-.32.83.21.83h.41v-1.66h-.62v.83Z" data-part="abaCima"></path>
      <path class="cls-8" d="M34.81,16.3c.12.23.17.31.31.52.4-.09,1.15-.64,1.35-.93-.45-.84-.31-.3-1.66.41" data-part="copaFrente"></path>
      <path class="cls-8" d="M43.71,11.02c.07.32.13.3.21.62.57-.13.88-.49,1.45-.62l-.12-.62c-.59.05-.95.48-1.54.62" data-part="copaFrente"></path>
      <path class="cls-8" d="M161.62,79.44h.41c.48,0,.21-.3.21-.62v-1.04h-.62v1.66Z" data-part="copaFrente"></path>
      <path class="cls-8" d="M83.77,3.56c.23-.05.24-.1.52-.1h1.14v-.62h-1.66v.72Z" data-part="copaFrente"></path>
      <path class="cls-8" d="M12.97,74.47h.62v-1.14c0-.28.05-.29.1-.52h-.72v1.66Z" data-part="copaFrente"></path>
      <path class="cls-8" d="M13.49,61.32v.31h.62l.1-1.66h-.62c0,.59-.1.72-.1,1.35" data-part="copaFrente"></path>
      <path class="cls-8" d="M13.07,93.72v1.24h.62v-1.66h-.41c-.44,0-.21.16-.21.41" data-part="abaCima"></path>
      <rect class="cls-11" x="161.62" y="85.55" width=".62" height="1.66" data-part="copaFrente"></rect>
      <polygon class="cls-8" points="104.37 4.39 106.03 4.5 106.03 3.87 104.37 3.77 104.37 4.39" data-part="copaFrente"></polygon>
      <rect class="cls-11" x="12.97" y="88.24" width=".62" height="1.66" data-part="abaCima"></rect>
      <rect class="cls-11" x="161.51" y="70.02" width=".62" height="1.66" data-part="copaFrente"></rect>
      <rect class="cls-11" x="88.85" y="2.84" width="1.66" height=".62" data-part="botao"></rect>
      <rect class="cls-11" x="161.62" y="75.2" width=".62" height="1.66" data-part="copaFrente"></rect>
      <path class="cls-8" d="M25.7,25.51c.22.15.3.24.62.31.09-.34-.01-.07.17-.34.28-.41.39-.39.65-.9l-.39-.44-1.06,1.37Z" data-part="copaFrente"></path>
      <path class="cls-8" d="M161.2,104.49h.62c.04-.43.1-.23.1-.62,0-.24-.07-.31-.31-.31h-.41v.93Z" data-part="abaCima"></path>
      <path class="cls-8" d="M13.28,103.87v.62h.4c.35-.01.32-.09.32-.62,0-.44-.72-.44-.72,0" data-part="abaCima"></path>
      <path class="cls-8" d="M87.29,19.59c0,.31.2.24.71.24l-.08-3.08h-.63v2.84Z" data-part="copaFrente"></path>
      <path class="cls-8" d="M90.15,19.59c0,.31.2.24.71.24l-.08-3.08h-.63v2.84Z" data-part="copaFrente"></path>
      <path class="cls-8" d="M90.15,15.59c0,.31.2.24.71.24l-.08-3.08h-.63v2.84Z" data-part="copaFrente"></path>
      <path class="cls-8" d="M90.15,11.6c0,.31.2.24.71.24l-.08-3.08h-.63v2.84Z" data-part="copaFrente"></path>
      <path class="cls-8" d="M90.15,7.61c0,.31.2.24.71.24l-.08-3.08h-.63v2.84Z" data-part="copaFrente"></path>
      <path class="cls-8" d="M87.29,23.63c0,.31.2.24.71.24l-.08-3.08h-.63v2.84Z" data-part="copaFrente"></path>
      <path class="cls-8" d="M90.15,23.63c0,.31.2.24.71.24l-.08-3.08h-.63v2.84Z" data-part="copaFrente"></path>
      <path class="cls-8" d="M87.29,27.67c0,.31.2.24.71.24l-.08-3.08h-.63v2.84Z" data-part="copaFrente"></path>
      <path class="cls-8" d="M90.15,27.67c0,.31.2.24.71.24l-.08-3.08h-.63v2.84Z" data-part="copaFrente"></path>
      <path class="cls-8" d="M87.29,31.73c0,.31.2.24.71.24l-.08-3.08h-.63v2.84Z" data-part="copaFrente"></path>
      <path class="cls-8" d="M90.15,31.73c0,.31.2.24.71.24l-.08-3.08h-.63v2.84Z" data-part="copaFrente"></path>
      <path class="cls-8" d="M87.29,35.78c0,.31.2.24.71.24l-.08-3.08h-.63v2.84Z" data-part="copaFrente"></path>
      <path class="cls-8" d="M90.15,35.78c0,.31.2.24.71.24l-.08-3.08h-.63v2.84Z" data-part="copaFrente"></path>
      <path class="cls-8" d="M87.29,39.83c0,.31.2.24.71.24l-.08-3.08h-.63v2.84Z" data-part="copaFrente"></path>
      <path class="cls-8" d="M90.15,39.83c0,.31.2.24.71.24l-.08-3.08h-.63v2.84Z" data-part="copaFrente"></path>
      <path class="cls-8" d="M87.29,43.88c0,.31.2.24.71.24l-.08-3.08h-.63v2.84Z" data-part="copaFrente"></path>
      <path class="cls-8" d="M90.15,43.88c0,.31.2.24.71.24l-.08-3.08h-.63v2.84Z" data-part="copaFrente"></path>
      <path class="cls-8" d="M87.29,47.93c0,.31.2.24.71.24l-.08-3.08h-.63v2.84Z" data-part="copaFrente"></path>
      <path class="cls-8" d="M90.15,47.93c0,.31.2.24.71.24l-.08-3.08h-.63v2.84Z" data-part="copaFrente"></path>
      <path class="cls-8" d="M87.29,51.99c0,.31.2.24.71.24l-.08-3.08h-.63v2.84Z" data-part="copaFrente"></path>
      <path class="cls-8" d="M90.15,51.99c0,.31.2.24.71.24l-.08-3.08h-.63v2.84Z" data-part="copaFrente"></path>
      <path class="cls-8" d="M87.29,56.04c0,.31.2.24.71.24l-.08-3.08h-.63v2.84Z" data-part="copaFrente"></path>
      <path class="cls-8" d="M90.15,56.04c0,.31.2.24.71.24l-.08-3.08h-.63v2.84Z" data-part="copaFrente"></path>
      <path class="cls-8" d="M87.29,60.09c0,.31.2.24.71.24l-.08-3.08h-.63v2.84Z" data-part="copaFrente"></path>
      <path class="cls-8" d="M90.15,60.09c0,.31.2.24.71.24l-.08-3.08h-.63v2.84Z" data-part="copaFrente"></path>
      <path class="cls-8" d="M87.29,64.14c0,.31.2.24.71.24l-.08-3.08h-.63v2.84Z" data-part="copaFrente"></path>
      <path class="cls-8" d="M90.15,64.14c0,.31.2.24.71.24l-.08-3.08h-.63v2.84Z" data-part="copaFrente"></path>
      <path class="cls-8" d="M87.29,68.2c0,.31.2.24.71.24l-.08-3.08h-.63v2.84Z" data-part="copaFrente"></path>
      <path class="cls-8" d="M90.15,68.2c0,.31.2.24.71.24l-.08-3.08h-.63v2.84Z" data-part="copaFrente"></path>
      <path class="cls-8" d="M87.29,72.25c0,.31.2.24.71.24l-.08-3.08h-.63v2.84Z" data-part="copaFrente"></path>
      <path class="cls-8" d="M90.15,72.25c0,.31.2.24.71.24l-.08-3.08h-.63v2.84Z" data-part="copaFrente"></path>
      <path class="cls-8" d="M87.29,76.3c0,.31.2.24.71.24l-.08-3.08h-.63v2.84Z" data-part="copaFrente"></path>
      <path class="cls-8" d="M90.15,76.3c0,.31.2.24.71.24l-.08-3.08h-.63v2.84Z" data-part="copaFrente"></path>
      <path class="cls-8" d="M87.29,80.35c0,.31.2.24.71.24l-.08-3.08h-.63v2.84Z" data-part="copaFrente"></path>
      <path class="cls-8" d="M90.15,80.35c0,.31.2.24.71.24l-.08-3.08h-.63v2.84Z" data-part="copaFrente"></path>
      <path class="cls-5" d="M55.72,25.01c.8,0,1.44.54,1.44,1.2s-.64,1.2-1.44,1.2-1.44-.54-1.44-1.2.64-1.2,1.44-1.2Z"></path>
      <path class="cls-5" d="M123.16,25.62c.8,0,1.44.54,1.44,1.2s-.64,1.2-1.44,1.2-1.44-.54-1.44-1.2.64-1.2,1.44-1.2Z"></path>
    </g>
  </g>
</svg>