<svg id="Camada_2" data-name="Camada 2" xmlns="http://www.w3.org/2000/svg" viewBox="0 0 186.1 110.33">
  <defs>
    <style>
      .cls-1 {
        stroke: #000;
        stroke-width: .24px;
      }

      .cls-1, .cls-2, .cls-3, .cls-4, .cls-5, .cls-6, .cls-7 {
        fill: none;
      }

      .cls-1, .cls-2, .cls-4, .cls-5, .cls-6 {
        stroke-miterlimit: 22.93;
      }

      .cls-8 {
        opacity: .97;
      }

      .cls-2 {
        stroke-width: .22px;
      }

      .cls-2, .cls-4 {
        stroke: #1a1a1a;
      }

      .cls-3 {
        stroke: #b2b2b2;
        stroke-width: .15px;
      }

      .cls-3, .cls-7 {
        stroke-linecap: round;
        stroke-linejoin: round;
      }

      .cls-4 {
        stroke-width: .5px;
      }

      .cls-5 {
        stroke-width: .57px;
      }

      .cls-5, .cls-6 {
        stroke: #d1d1d1;
      }

      .cls-9, .cls-10, .cls-11 {
        fill-rule: evenodd;
      }

      .cls-9, .cls-12 {
        fill: #d1d1d1;
      }

      .cls-6 {
        stroke-width: 1.5px;
      }

      .cls-7 {
        stroke: #a6a8ab;
        stroke-width: .12px;
      }

      .cls-11 {
        fill: #eaeaea;
      }
    
    [data-part="copaFrente"]{fill:var(--c-copa-frente,#d7dade) !important}
    [data-part="copaLadosTras"]{fill:var(--c-copa-lados,#c9ccd1) !important}
    [data-part="abaCima"]{fill:var(--c-aba-cima,#c7cace) !important}
    [data-part="abaBaixo"]{fill:var(--c-aba-baixo,#b7bac0) !important}
    [data-part="botao"]{fill:var(--c-botao,#d7dade) !important}
  </style>
  </defs>
  <g id="_1.2" data-name="1.2">
    <g>
      <path class="cls-11" d="M67.66,3.08c-2.61-.07-7.77-.09-15.18,1.11-7.41,1.2-17.07,3.61-24.24,6.53-7.16,2.92-11.83,6.36-15.26,10.53-3.43,4.17-6.59,8.96-7.14,13.29l-2.81,21.97c-.05.4,10.22-1.83,10.51,11.99.14,6.58.53,8,.29,11.15l-.45,5.95c-.18,2.38,15.46,2.2,27.32,3.22,11.86,1.02,24.55.76,33.55.72,9-.04,14.39-.44,18.43-.79-.8-.62-.72-.66-.66-.69.07-.03.33-.07,2.17-.41,1.84-.34,2.61-.26,6.04-1.06-.02-.74-.04-1.37-.1-2.89-.61-15.8-.81-46.29-4.69-56.67-4.09-10.95-12.25-19.94-24.94-23.64-.77-.22-1.97-.29-2.86-.31Z" data-part="copaLadosTras"></path>
      <path class="cls-5" d="M67.66,3.08c-2.61-.07-7.77-.09-15.18,1.11-7.41,1.2-17.07,3.61-24.24,6.53-7.16,2.92-11.83,6.36-15.26,10.53-3.43,4.17-6.59,8.96-7.14,13.29l-2.81,21.97c-.05.4,10.22-1.83,10.51,11.99.14,6.58.53,8,.29,11.15l-.45,5.95c-.18,2.38,15.46,2.2,27.32,3.22,11.86,1.02,24.55.76,33.55.72,9-.04,14.39-.44,18.43-.79-.8-.62-.72-.66-.66-.69.07-.03.33-.07,2.17-.41,1.84-.34,2.61-.26,6.04-1.06-.02-.74-.04-1.37-.1-2.89-.61-15.8-.81-46.29-4.69-56.67-4.09-10.95-12.25-19.94-24.94-23.64-.77-.22-1.97-.29-2.86-.31Z"></path>
      <path class="cls-11" d="M98.72,86.92v.43c.9-.21,0,.03,2.78-.67,2.79-.7,13.24-4.09,17.58-5.61,4.35-1.52,7.86-2.98,10.6-4.38,2.74-1.4,4.69-2.74,6.01-3.94,1.32-1.2,1.99-2.25,2.33-2.78.16-.25.24-.38,1.14-.23-.35-4.28-.94-11.38-2.12-18.54-1.18-7.16-2.58-11.39-4.24-17.41-1.66-6.02-3.35-11.22-4.1-13.82-.96-3.32-2.16-4.6-4.99-6.85-1.55-1.22-3.39-2.16-6.08-3.12-10.61-3.77-35.45-8.25-46.19-7.01-1.11.13-1.54.18-1.69.23h.01s0,0,0,0h0s.01,0,.01,0h.01s.01,0,.01,0h.01s.01,0,.01,0h.01s.02,0,.02,0h.01s.01,0,.01,0h0s.01,0,.01,0h.01s.01,0,.01,0h0s0,0,0,0h.01s.01,0,.01,0h.01s0,0,0,0h.01s.01,0,.01,0h.02s0,0,0,0h.01s.02,0,.02,0h0s.01,0,.01,0h.01s.01,0,.01,0h0s0,0,0,0h.01s.01,0,.01,0h0s0,0,0,0h.01s.01,0,.01,0h.01s0,0,0,0h0s.01,0,.01,0h.01s.02,0,.02,0h.01s.01,0,.01,0h0s0,0,0,0h.01s.01,0,.01,0h0s0,0,0,0h.01s.01,0,.01,0h.01s0,0,0,0h0s.01,0,.01,0h.01s0,0,0,0h0s.01,0,.01,0h.01s.01,0,.01,0h.01s.01,0,.01,0h.01s0,0,0,0h0s.01,0,.01,0h.01s.01,0,.01,0c12.69,3.7,20.84,12.7,24.94,23.64,3.88,10.37,4.07,40.87,4.69,56.67.06,1.52.08,2.15.1,2.89-.58.13-1.08.24-1.52.33Z" data-part="copaFrente"></path>
      <path class="cls-2" d="M98.72,86.92v.43c.9-.21,0,.03,2.78-.67,2.79-.7,13.24-4.09,17.58-5.61,4.35-1.52,7.86-2.98,10.6-4.38,2.74-1.4,4.69-2.74,6.01-3.94,1.32-1.2,1.99-2.25,2.33-2.78.16-.25.24-.38,1.14-.23-.35-4.28-.94-11.38-2.12-18.54-1.18-7.16-2.58-11.39-4.24-17.41-1.66-6.02-3.35-11.22-4.1-13.82-.96-3.32-2.16-4.6-4.99-6.85-1.55-1.22-3.39-2.16-6.08-3.12-10.61-3.77-35.45-8.25-46.19-7.01-1.11.13-1.54.18-1.69.23h.01s0,0,0,0h0s.01,0,.01,0h.01s.01,0,.01,0h.01s.01,0,.01,0h.01s.02,0,.02,0h.01s.01,0,.01,0h0s.01,0,.01,0h.01s.01,0,.01,0h0s0,0,0,0h.01s.01,0,.01,0h.01s0,0,0,0h.01s.01,0,.01,0h.02s0,0,0,0h.01s.02,0,.02,0h0s.01,0,.01,0h.01s.01,0,.01,0h0s0,0,0,0h.01s.01,0,.01,0h0s0,0,0,0h.01s.01,0,.01,0h.01s0,0,0,0h0s.01,0,.01,0h.01s.02,0,.02,0h.01s.01,0,.01,0h0s0,0,0,0h.01s.01,0,.01,0h0s0,0,0,0h.01s.01,0,.01,0h.01s0,0,0,0h0s.01,0,.01,0h.01s0,0,0,0h0s.01,0,.01,0h.01s.01,0,.01,0h.01s.01,0,.01,0h.01s0,0,0,0h0s.01,0,.01,0h.01s.01,0,.01,0c12.69,3.7,20.84,12.7,24.94,23.64,3.88,10.37,4.07,40.87,4.69,56.67.06,1.52.08,2.15.1,2.89-.58.13-1.08.24-1.52.33Z"></path>
      <path class="cls-11" d="M93.02,88.74c1.15.86,3.54,2.53,7.51,4.69,18.2,9.74,44.2,21.05,65.28,14.92,8.45-2.46,19.02-12.35,19.98-21.47.15-1.84-.06-3.05-.18-3.85-.12-.81-.16-1.21-.18-1.42q-.02-.2-7.77-2.27c-7.75-2.07-23.25-6.21-31-8.28q-7.75-2.07-8.09-1.54c-.34.53-1.03,1.6-2.36,2.81-1.33,1.21-3.31,2.57-6.08,3.98-2.77,1.42-6.33,2.89-10.73,4.43-4.4,1.54-9.64,3.14-14.31,4.32-4.68,1.18-8.79,1.95-10.87,2.33-2.08.38-2.12.38-2.19.41-.07.03-.16.08.99.94Z" data-part="abaCima"></path>
      <path class="cls-4" d="M93.02,88.74c1.15.86,3.54,2.53,7.51,4.69,18.2,9.74,44.2,21.05,65.28,14.92,8.45-2.46,19.02-12.35,19.98-21.47.15-1.84-.06-3.05-.18-3.85-.12-.81-.16-1.21-.18-1.42q-.02-.2-7.77-2.27c-7.75-2.07-23.25-6.21-31-8.28q-7.75-2.07-8.09-1.54c-.34.53-1.03,1.6-2.36,2.81-1.33,1.21-3.31,2.57-6.08,3.98-2.77,1.42-6.33,2.89-10.73,4.43-4.4,1.54-9.64,3.14-14.31,4.32-4.68,1.18-8.79,1.95-10.87,2.33-2.08.38-2.12.38-2.19.41-.07.03-.16.08.99.94Z"></path>
      <path class="cls-12" d="M154.41,102.7v-.57c.96-.01,1.91-.05,2.8-.12l.04.57c-.91.07-1.86.11-2.85.12ZM152.7,102.69c-.91-.02-1.87-.07-2.84-.14l.04-.57c.97.07,1.91.12,2.81.14v.57ZM148.16,102.41l-.62-.06c-.73-.08-1.46-.16-2.2-.26l.07-.56c.73.09,1.46.18,2.18.25l.62.06-.05.56ZM158.96,102.4l-.07-.56c.95-.12,1.88-.29,2.76-.49l.13.55c-.89.21-1.84.38-2.81.5ZM143.64,101.86c-.93-.14-1.87-.29-2.8-.46l.1-.56c.93.17,1.86.32,2.79.46l-.08.56ZM163.43,101.45l-.17-.54c.89-.27,1.77-.6,2.62-.97l.23.52c-.87.38-1.77.71-2.69.99ZM139.17,101.08c-.93-.18-1.86-.38-2.78-.59l.13-.55c.91.21,1.84.41,2.76.59l-.11.56ZM134.73,100.09c-.93-.23-1.84-.48-2.74-.73l.16-.54c.89.26,1.8.5,2.73.73l-.14.55ZM167.67,99.73l-.26-.5c.83-.43,1.64-.91,2.41-1.42l.32.47c-.79.53-1.62,1.02-2.46,1.46ZM130.35,98.87c-.89-.28-1.8-.58-2.7-.89l.19-.54c.89.31,1.79.61,2.68.88l-.17.54ZM126.05,97.4c-.87-.33-1.76-.68-2.64-1.05l.22-.52c.87.37,1.76.72,2.62,1.04l-.2.53ZM171.52,97.26l-.35-.45c.74-.58,1.45-1.2,2.1-1.85l.4.4c-.67.66-1.39,1.3-2.15,1.89ZM121.85,95.68c-.87-.39-1.73-.78-2.58-1.19l.25-.51c.84.4,1.69.8,2.56,1.18l-.23.52ZM174.85,94.11l-.43-.37c.59-.69,1.17-1.43,1.71-2.21l.47.32c-.55.8-1.14,1.56-1.75,2.26ZM117.74,93.74c-.53-.27-1.06-.54-1.59-.81-.31-.16-.62-.33-.93-.49l.26-.5c.31.16.62.33.93.49.52.27,1.05.54,1.58.8l-.25.51ZM113.72,91.64c-.83-.45-1.66-.91-2.48-1.38l.28-.49c.82.46,1.64.92,2.47,1.37l-.27.5ZM177.53,90.41l-.48-.29c.47-.77.91-1.58,1.36-2.46l.51.25c-.45.89-.9,1.71-1.38,2.5ZM109.76,89.42c-.82-.47-1.63-.95-2.45-1.43l.29-.49c.81.48,1.62.95,2.44,1.43l-.28.49ZM105.85,87.12l-2.43-1.45.29-.49,2.43,1.45-.29.49ZM179.64,86.37l-.52-.24c.4-.89.76-1.74,1.09-2.59l.53.2c-.33.87-.69,1.73-1.1,2.62ZM181.32,82.13l-.54-.18c.19-.57.37-1.11.54-1.66l.54.17c-.18.55-.35,1.09-.55,1.66Z" data-part="abaCima"></path>
      <path class="cls-12" d="M155.05,99.77h-.49s0-.57,0-.57h.48c.81,0,1.59-.02,2.32-.08l.04.57c-.75.06-1.54.08-2.37.08ZM152.85,99.71c-.87-.04-1.8-.11-2.83-.21l.05-.56c1.03.1,1.95.17,2.81.21l-.03.57ZM159.12,99.5l-.08-.56.37-.06c.79-.13,1.59-.3,2.36-.52l.15.55c-.79.22-1.61.4-2.42.53l-.38.06ZM148.32,99.32l-.45-.05c-.78-.09-1.57-.19-2.37-.29l.07-.56c.79.1,1.58.2,2.36.29l.44.05-.06.56ZM143.82,98.75c-.94-.13-1.88-.28-2.8-.43l.09-.56c.92.15,1.86.3,2.79.43l-.08.56ZM163.56,98.37l-.2-.53c.87-.32,1.73-.71,2.55-1.14l.27.5c-.84.45-1.72.84-2.61,1.17ZM139.33,98.03c-.97-.18-1.91-.36-2.78-.56l.12-.55c.87.19,1.8.38,2.77.55l-.1.56ZM134.89,97.09c-.93-.23-1.85-.48-2.74-.74l.16-.54c.89.26,1.8.51,2.72.74l-.14.55ZM167.67,96.33l-.31-.48c.45-.29.89-.6,1.32-.92.31-.24.62-.48.92-.74l.37.43c-.31.26-.62.51-.94.76-.44.33-.9.65-1.36.95ZM130.51,95.84c-.88-.29-1.76-.6-2.68-.94l.2-.53c.91.34,1.78.65,2.66.94l-.18.54ZM126.24,94.27l-.64-.26c-.66-.27-1.32-.55-1.98-.83l.22-.52c.66.28,1.32.56,1.97.83l.63.26-.21.53ZM171.23,93.45l-.4-.4c.65-.64,1.28-1.34,1.87-2.08l.44.36c-.61.76-1.25,1.47-1.91,2.13ZM122.06,92.5c-.86-.39-1.72-.79-2.57-1.2l.25-.51c.85.41,1.7.81,2.56,1.2l-.23.52ZM117.97,90.53c-.54-.28-1.08-.56-1.62-.84-.3-.16-.59-.32-.89-.48l.27-.5c.29.16.59.32.88.48.53.28,1.07.56,1.61.84l-.26.5ZM174.18,89.96l-.46-.33c.44-.62.87-1.28,1.27-1.95.08-.14.16-.27.24-.41l.49.28c-.08.14-.16.28-.25.42-.41.68-.85,1.35-1.3,1.99ZM113.97,88.37c-.82-.47-1.64-.95-2.45-1.43l.29-.49c.81.48,1.62.96,2.44,1.43l-.28.49ZM110.07,86.06c-.81-.49-1.61-.98-2.42-1.48l.3-.48c.8.49,1.61.99,2.41,1.48l-.29.48ZM176.54,86.05l-.5-.26c.4-.78.79-1.61,1.2-2.54l.52.23c-.41.94-.81,1.79-1.21,2.58ZM178.42,81.9l-.52-.21c.29-.7.56-1.4.84-2.1l.53.21c-.28.7-.56,1.41-.84,2.11Z" data-part="abaCima"></path>
      <path class="cls-12" d="M152.6,96.67c-.91,0-1.86-.04-2.84-.1l.04-.57c.97.06,1.92.09,2.81.1v.57ZM154.32,96.65l-.02-.57c.98-.03,1.92-.1,2.8-.21l.07.56c-.89.11-1.85.18-2.85.21ZM148.06,96.43c-.94-.08-1.89-.19-2.82-.31l.08-.56c.92.12,1.86.23,2.8.31l-.05.56ZM158.86,96.17l-.11-.56c.92-.17,1.83-.4,2.71-.68l.17.54c-.9.28-1.83.51-2.78.69ZM143.54,95.87c-.92-.15-1.86-.32-2.8-.51l.11-.56c.93.19,1.86.36,2.77.51l-.09.56ZM139.08,94.99c-.9-.21-1.83-.44-2.76-.69l.15-.55c.92.25,1.84.48,2.74.68l-.13.55ZM163.26,94.91l-.21-.53c.8-.31,1.58-.67,2.31-1.06l.22-.12.27.5-.23.13c-.75.4-1.54.76-2.37,1.08ZM134.68,93.85c-.91-.26-1.82-.55-2.71-.84l.18-.54c.88.29,1.79.57,2.69.83l-.16.54ZM167.33,92.79l-.33-.46c.75-.53,1.44-1.12,2.08-1.82l.41.39c-.68.72-1.39,1.34-2.17,1.89ZM130.36,92.46c-.92-.32-1.79-.65-2.66-1l.21-.53c.86.34,1.73.67,2.64.99l-.19.54ZM126.12,90.81c-.83-.35-1.68-.73-2.59-1.16l.24-.51c.91.42,1.76.8,2.57,1.15l-.22.52ZM170.61,89.58l-.45-.34c.19-.25.39-.52.58-.8.31-.45.65-.96.99-1.52l.48.3c-.35.57-.69,1.09-1.01,1.55-.2.29-.4.56-.59.82ZM121.99,88.92c-.81-.39-1.66-.81-2.54-1.25l.25-.51c.88.44,1.73.86,2.54,1.25l-.25.51ZM117.92,86.91c-.82-.42-1.67-.85-2.52-1.29l.26-.5c.85.44,1.7.87,2.52,1.29l-.26.51ZM173.09,85.74l-.49-.28c.45-.79.9-1.62,1.36-2.47l.5.27c-.46.86-.91,1.7-1.36,2.49ZM113.89,84.84l-2.51-1.3.26-.5,2.51,1.3-.26.5ZM175.24,81.74l-.5-.26c.41-.8.83-1.61,1.24-2.42l.05-.09.5.26-.05.09c-.42.81-.83,1.63-1.24,2.43Z" data-part="abaCima"></path>
      <path class="cls-12" d="M152.39,93.98c-.9,0-1.85-.05-2.85-.12l.04-.57c.98.07,1.92.11,2.81.12v.57ZM154.11,93.95l-.03-.57c.97-.04,1.89-.14,2.74-.27l.14.55c-.92.15-1.86.24-2.85.29ZM147.84,93.71c-.94-.1-1.89-.23-2.82-.38l.09-.56c.92.15,1.86.27,2.79.38l-.06.56ZM158.64,93.31l-.14-.55c.9-.23,1.8-.52,2.65-.87l.21.52c-.88.36-1.8.66-2.73.89ZM143.34,93.03c-.89-.17-1.82-.38-2.75-.6l.1-.56h.04c.92.23,1.83.43,2.72.6l-.11.56ZM138.91,91.99c-.92-.25-1.83-.51-2.73-.78l.16-.54c.89.27,1.8.53,2.71.77l-.15.55ZM162.93,91.7l-.26-.5c.39-.2.77-.42,1.14-.64.43-.26.84-.54,1.23-.83l.34.46c-.4.3-.83.58-1.27.85-.38.23-.77.45-1.17.66ZM134.55,90.72c-.5-.16-1-.31-1.49-.47-.41-.13-.81-.26-1.21-.39l.17-.54c.4.13.8.26,1.21.39.49.15.98.31,1.48.47l-.17.54ZM130.24,89.32c-.93-.32-1.8-.65-2.66-1l.21-.53c.85.35,1.71.67,2.63.99l-.19.54ZM166.71,89.09l-.38-.42c.67-.61,1.29-1.27,1.9-2.03l.44.36c-.63.78-1.27,1.47-1.96,2.1ZM126,87.65l-.45-.2c-.67-.31-1.39-.64-2.13-1l.25-.51c.74.36,1.44.69,2.11,1l.44.2-.23.52ZM121.9,85.69c-.82-.41-1.66-.85-2.52-1.29l.26-.5c.86.45,1.7.88,2.52,1.29l-.25.51ZM169.7,85.61l-.47-.32c.48-.69.97-1.47,1.5-2.38l.49.29c-.54.92-1.04,1.71-1.52,2.41ZM117.87,83.61c-.83-.43-1.67-.88-2.5-1.32l.26-.5c.84.44,1.68.88,2.5,1.32l-.26.5ZM172.06,81.72l-.5-.27c.45-.81.89-1.65,1.34-2.49l.5.26c-.45.84-.89,1.68-1.34,2.5Z" data-part="abaCima"></path>
      <path class="cls-12" d="M153.61,90.8l-.02-.57c.8-.02,1.55-.09,2.25-.18.17-.02.35-.05.52-.08l.09.56c-.18.03-.36.06-.54.08-.72.1-1.5.16-2.32.19ZM151.89,90.8c-.89-.02-1.81-.09-2.84-.19l.05-.56c1.01.1,1.93.16,2.8.18l-.02.57ZM147.35,90.42c-.95-.12-1.89-.25-2.81-.4l.09-.56c.91.15,1.85.28,2.79.4l-.07.56ZM158.15,90.16l-.15-.55c.89-.24,1.78-.54,2.63-.91l.23.52c-.88.38-1.79.7-2.71.94ZM142.86,89.72c-.92-.18-1.85-.38-2.78-.6l.13-.55c.92.22,1.84.42,2.75.59l-.11.56ZM138.43,88.71c-.92-.24-1.84-.5-2.73-.77l.16-.54c.89.27,1.8.53,2.71.77l-.14.55ZM162.41,88.47l-.27-.5c.19-.1.38-.21.56-.32.62-.37,1.22-.78,1.76-1.21l.35.44c-.56.45-1.18.87-1.82,1.25-.19.11-.38.22-.58.33ZM134.07,87.43c-.59-.19-1.17-.38-1.73-.56-.33-.11-.65-.22-.96-.32l.18-.54c.31.11.63.21.96.32.56.19,1.13.37,1.72.56l-.17.54ZM129.76,85.98c-.93-.33-1.79-.67-2.65-1.02l.21-.52c.85.35,1.71.68,2.63,1.01l-.19.53ZM166.11,85.73l-.4-.4c.53-.53,1.03-1.09,1.52-1.73.1-.13.19-.25.29-.38l.46.33c-.1.13-.2.26-.29.39-.51.66-1.02,1.25-1.57,1.79ZM125.54,84.29c-.84-.37-1.7-.77-2.58-1.18l.24-.51c.87.41,1.73.81,2.56,1.18l-.23.52ZM121.42,82.37c-.84-.41-1.69-.83-2.54-1.25l.25-.51c.85.42,1.7.84,2.54,1.24l-.25.51ZM168.94,82.13l-.48-.3c.54-.86,1.05-1.75,1.43-2.42l.5.28c-.38.69-.89,1.58-1.45,2.45Z" data-part="abaCima"></path>
      <path class="cls-12" d="M153.05,87.73v-.57c.7-.01,1.38-.06,2.02-.15.25-.03.49-.08.74-.12l.11.56c-.25.05-.51.09-.77.13-.66.09-1.36.14-2.1.16ZM151.34,87.7c-.85-.04-1.78-.13-2.84-.26l.07-.56c1.05.13,1.96.21,2.8.26l-.03.57ZM146.81,87.21c-.95-.14-1.88-.28-2.8-.44l.1-.56c.91.16,1.84.3,2.79.44l-.08.56ZM157.59,87.03l-.16-.54c.87-.26,1.74-.6,2.59-1.02l.25.51c-.88.43-1.78.78-2.67,1.05ZM142.33,86.46c-.97-.19-1.88-.38-2.78-.59l.13-.55c.89.21,1.79.4,2.76.59l-.11.56ZM137.89,85.46c-.92-.24-1.84-.5-2.73-.77l.16-.54c.89.27,1.8.52,2.72.76l-.14.55ZM161.78,85.16l-.29-.49c.15-.09.29-.18.43-.27.65-.41,1.28-.86,1.85-1.33l.36.44c-.59.48-1.24.94-1.91,1.37-.15.09-.29.18-.45.27ZM133.53,84.19c-.67-.21-1.32-.42-1.95-.63l-.74-.25.18-.54.74.25c.63.21,1.28.42,1.94.63l-.17.54ZM129.22,82.75c-.99-.35-1.89-.69-2.66-.99l.21-.53c.77.3,1.66.64,2.64.99l-.19.53ZM165.42,82.37l-.4-.4c.44-.44.85-.9,1.21-1.36.2-.26.38-.52.55-.77l.47.31c-.18.27-.37.53-.58.81-.37.48-.8.96-1.26,1.42ZM124.98,81.1c-1.04-.46-1.81-.87-2.55-1.26l.26-.5c.74.39,1.5.79,2.52,1.25l-.23.52ZM168.13,78.65l-.5-.26c.24-.48.46-.95.68-1.42l.29.06.26.12c-.25.54-.47,1.02-.72,1.51Z" data-part="abaCima"></path>
      <path class="cls-7" d="M64.62.06h3.44c1.92,0,3.48,1.36,3.48,3.01h0s0,.1,0,.15c-1.73-.04-3.46-.07-5.2-.07s-3.47.02-5.2.07c0-.05,0-.1,0-.15h0c0-1.66,1.57-3.01,3.48-3.01Z"></path>
      <path class="cls-11" d="M64.62.06h3.44c1.92,0,3.48,1.36,3.48,3.01h0s0,.1,0,.15c-1.73-.04-3.46-.07-5.2-.07s-3.47.02-5.2.07c0-.05,0-.1,0-.15h0c0-1.66,1.57-3.01,3.48-3.01" data-part="botao"></path>
      <path class="cls-9" d="M56.72,3.72v.71c.87-.07,1.96-.51,2.86-.71v-.71c-.87.07-1.96.51-2.86.71" data-part="copaLadosTras"></path>
      <rect class="cls-12" x="96.28" y="51.38" width=".72" height="3.1" data-part="copaFrente"></rect>
      <path class="cls-9" d="M36.23,22.55c1.17-.1,1.66-1.56,1.91-2.62-1.17.1-1.66,1.56-1.91,2.62" data-part="copaLadosTras"></path>
      <path class="cls-9" d="M29.08,83.79c1.05-.28.72-.05.72-3.1-1.05.28-.72.05-.72,3.1" data-part="copaLadosTras"></path>
      <polygon class="cls-9" points="36.42 37.56 37.18 37.56 37.46 34.71 36.7 34.7 36.42 37.56" data-part="copaLadosTras"></polygon>
      <path class="cls-9" d="M30.51,54.72v.95h.72v-1.19c0-1.39.83-1.56-.48-1.91-.02,1.08-.24.95-.24,2.14" data-part="copaLadosTras"></path>
      <path class="cls-9" d="M96.75,70.69c0,.66.18.57.71.71v-3.1h-.71v2.38Z" data-part="abaCima"></path>
      <path class="cls-9" d="M102,65.92c0,.66.18.57.72.71v-3.1h-.72v2.38Z" data-part="copaFrente"></path>
      <path class="cls-9" d="M102.71,77.83h.71v-2.38c0-.66-.18-.57-.71-.71v3.1Z" data-part="abaCima"></path>
      <path class="cls-9" d="M34.32,80.22v2.38h.72v-3.1c-.53.14-.72.06-.72.71" data-part="copaLadosTras"></path>
      <path class="cls-9" d="M29.79,72.59c.53-.14.72-.06.72-.72v-2.38h-.72v3.1Z" data-part="copaLadosTras"></path>
      <path class="cls-9" d="M95.56,22.31h.72c-.08-1-.19-.83-.61-1.53-.55-.92-.14-.99-1.3-1.09.28,1.2.88,1.3,1.19,2.62" data-part="copaFrente"></path>
      <path class="cls-9" d="M35.75,43.28c1.04-.28.61-.06.74-1.17.09-.77.21-1.03.21-1.93h-.72c0,1.19-.24,1.65-.24,3.1" data-part="copaLadosTras"></path>
      <path class="cls-9" d="M84.84,9.44c.91,0,.09.07.72-.24-.18-.24-1.97-1.88-2.36-1.75-1.03.35,1.64,1.99,1.64,1.99" data-part="copaFrente"></path>
      <path class="cls-9" d="M62.68,4.44c.64-.15,1.01-.3,1.64-.5,1-.31.96.02,1.22-.93-.64-.27-.79-.01-1.6.3-1.06.41-1.15.08-1.26,1.13" data-part="copaLadosTras"></path>
      <path class="cls-9" d="M93.42,26.6c-.27-1.14-.69-1.72-.95-2.86-1.16.31-.68.48-.28,1.46.62,1.55.4,1.3,1.24,1.4" data-part="copaFrente"></path>
      <path class="cls-9" d="M94.13,32.08h.72c-.03-1.19-.45-1.67-.48-2.86h-.72c.02,1.09.39,1.84.48,2.86" data-part="copaFrente"></path>
      <path class="cls-9" d="M101.52,54.72c0,.67.1.44.48.71.16-.29.24-.26.24-.71v-2.38h-.72v2.38Z" data-part="copaFrente"></path>
      <path class="cls-9" d="M96.99,80.22c0,1.31-.18,2.02.72,2.38.2-.49,0-1.72,0-3.1-.53.14-.72.06-.72.71" data-part="abaCima"></path>
      <path class="cls-9" d="M35.03,53.53v.95h.71v-1.67c0-1.18.86-1.07-.48-1.43-.02,1.08-.24.95-.24,2.14" data-part="copaLadosTras"></path>
      <path class="cls-9" d="M72.92,3.25c1.1.26,1.94.92,2.86.48-.49-.67-1.87-1.11-2.86-1.19v.71Z" data-part="copaLadosTras"></path>
      <path class="cls-9" d="M50.05,10.63c-2.62,1.51-2.38,3.44-.03.9.1-.11.66-.53.34-.89-.56-.63-.15-.1-.31,0" data-part="copaLadosTras"></path>
      <path class="cls-9" d="M91.03,15.16c.08.31,1.56,2.83,2.17,2.21.37-.37.42.13-.7-1.3-.49-.63-.57-.83-1.47-.91" data-part="copaFrente"></path>
      <path class="cls-9" d="M31.46,44.47c.96-.39.72-1.6.72-3.1-.99.27-.69.17-.73,1.43-.03,1.03-.19,1.18.01,1.67" data-part="copaLadosTras"></path>
      <path class="cls-9" d="M76.97,8.01c1.35.31,1.35,1.09,2.62,1.19-.27-1.02-1.6-1.82-2.62-1.91v.71Z" data-part="copaLadosTras"></path>
      <path class="cls-9" d="M103.19,83.31h.72c0-1.19-.24-1.47-.24-2.86h-.72c0,1.39.24,1.67.24,2.86" data-part="abaCima"></path>
      <path class="cls-9" d="M29.31,78.07h.72c0-1.39.24-1.67.24-2.86h-.71c0,1.19-.24,1.47-.24,2.86" data-part="copaLadosTras"></path>
      <rect class="cls-12" x="96.04" y="45.9" width=".72" height="2.86" data-part="copaFrente"></rect>
      <path class="cls-9" d="M95.09,37.56h.72c-.08-.91-.4-1.95-.48-2.86h-.72c.08.91.4,1.95.48,2.86" data-part="copaFrente"></path>
      <rect class="cls-12" x="101.76" y="58.05" width=".72" height="2.86" data-part="copaFrente"></rect>
      <rect class="cls-12" x="34.8" y="62.82" width=".72" height="2.86" data-part="copaLadosTras"></rect>
      <rect class="cls-12" x="35.03" y="57.1" width=".71" height="2.86" data-part="copaLadosTras"></rect>
      <rect class="cls-12" x="30.03" y="64.01" width=".71" height="2.86" data-part="copaLadosTras"></rect>
      <rect class="cls-12" x="34.56" y="74.02" width=".71" height="2.86" data-part="copaLadosTras"></rect>
      <rect class="cls-12" x="96.52" y="57.1" width=".72" height="2.86" data-part="copaFrente"></rect>
      <rect class="cls-12" x="96.99" y="74.02" width=".72" height="2.86" data-part="abaCima"></rect>
      <path class="cls-9" d="M69.59,3.72c-.59-.05-2.38-.72-2.86-.95.1,1.16.23.82,1.36,1.28.88.36,1.23.72,1.5-.32" data-part="copaLadosTras"></path>
      <path class="cls-9" d="M100.57,38.51c0-1.38-.15-1.84-.24-2.86h-.72c.26,3.14.15,2.65.95,2.86" data-part="copaFrente"></path>
      <path class="cls-9" d="M96.52,64.01c0,1.16.04,1.4.72,1.67.22-.53,0-1.99,0-2.86h-.72v1.19Z" data-part="copaFrente"></path>
      <path class="cls-9" d="M100.57,43.28v.71h.72c0-1.81-.22-1.92-.24-2.86h-.72c.02,1.08.24.95.24,2.14" data-part="copaFrente"></path>
      <path class="cls-9" d="M51.48,6.34c1.05-.09,1.67-.68,2.86-.95-.31-1.15-.51-.72-1.43-.25-.84.43-1.19.31-1.43,1.2" data-part="copaLadosTras"></path>
      <path class="cls-9" d="M95.8,43.28c1.16-.31.6-.19.5-1.43-.1-1.34.36-1.37-.74-1.67,0,1.44.15,2.02.24,3.1" data-part="copaFrente"></path>
      <path class="cls-9" d="M71.97,5.63c2.05.17,2.07,1.73,2.86.24-1.03-.24-1.77-.86-2.86-.95v.72Z" data-part="copaLadosTras"></path>
      <path class="cls-9" d="M81.74,10.4c-.24,1.13-.27.59,1.25,1.87,1.5,1.26,1.64.06-1.25-1.87" data-part="copaLadosTras"></path>
      <path class="cls-9" d="M34.56,69.49c0,1.9-.12,1.68.71,1.91v-3.1c-.51.18-.29-.1-.56.39-.23.41-.15.24-.15.8" data-part="copaLadosTras"></path>
      <path class="cls-9" d="M57.43,6.34c.65.27,2.45-.63,2.86-1.19-.62-.52-1.17.02-1.84.3-.8.34-.78,0-1.02.89" data-part="copaLadosTras"></path>
      <path class="cls-9" d="M99.14,33.03c.93-.25.66-.5.47-1.4-.19-.93-.08-1.23-.71-1.69-.45.95.15,1.98.24,3.1" data-part="copaFrente"></path>
      <path class="cls-9" d="M97.71,27.55c1.51-.4.18-.73,0-2.86h-.72c.1,1.21.61,1.65.72,2.86" data-part="copaFrente"></path>
      <path class="cls-9" d="M38.85,26.6c.9-.24.6-.12.93-.97.74-1.89.55-1.36.26-1.89-.65.47-.42.29-.76,1.15-.22.56-.41.83-.43,1.71" data-part="copaLadosTras"></path>
      <path class="cls-9" d="M89.13,18.97c.04.44,1.02,3.13,1.69,2.46.31-.31-.18-.91-.44-1.32-.43-.68-.41-.92-1.25-1.14" data-part="copaFrente"></path>
      <path class="cls-9" d="M44.33,16.83c.88-.24,1.91-1.51,2.14-2.38-.91.08-.83.13-1.34.8-.98,1.31-.73.63-.8,1.58" data-part="copaLadosTras"></path>
      <path class="cls-9" d="M77.93,5.15c1.16.27,1.7.92,2.86,1.19-.04-.37.06-.12-.08-.4-.39-.77-1.37-.88-2.54-1.51-.11.43-.04.42-.24.72" data-part="copaLadosTras"></path>
      <path class="cls-9" d="M34.32,27.79c1.25-.33,1.3-2.59,1.19-2.86-.93.34-1.17,1.89-1.19,2.86" data-part="copaLadosTras"></path>
      <path class="cls-9" d="M32.89,33.27c1.22-.44.35-1.11,1.19-2.86-1.04.09-.85.1-1.07,1.08-.19.86-.31,1.33-.12,1.78" data-part="copaLadosTras"></path>
      <path class="cls-9" d="M30.27,59.01v2.14h.72v-2.86c-.53.14-.72.06-.72.72" data-part="copaLadosTras"></path>
      <path class="cls-9" d="M30.98,49.95c.53-.14.72-.06.72-.71v-2.14h-.72v2.86Z" data-part="copaLadosTras"></path>
      <path class="cls-9" d="M101.28,49.71h.72c-.02-1.08-.24-.95-.24-2.14v-.71h-.71c0,1.39.24,1.67.24,2.86" data-part="copaFrente"></path>
      <path class="cls-9" d="M35.27,48.76h.72v-.71c0-1.2.21-1.07.24-2.14h-.71c0,1.19-.24,1.47-.24,2.86" data-part="copaLadosTras"></path>
      <path class="cls-9" d="M41.47,21.6c.68-.46,1.46-1.74,1.67-2.62-1.16.1-.75.17-1.3,1.09-.43.71-.72.78-.37,1.53" data-part="copaLadosTras"></path>
      <path class="cls-9" d="M37.42,32.08c1.51-.4.26-.91,1.19-2.86-.95.08-.8.02-1,.91-.13.6-.19,1.11-.19,1.95" data-part="copaLadosTras"></path>
      <path class="cls-9" d="M31.94,38.75c1.04-.28.61-.06.74-1.17.08-.74.2-.88.21-1.69h-.72c-.02,1.04-.24,1.49-.24,2.86" data-part="copaLadosTras"></path>
      <path class="cls-9" d="M85.79,14.68c-.41.42-.28-.17.75,1.15.28.36.66,1.35,1.18.83.42-.42.26,0-.13-.64l-1.15-1.31c-.44-.28-.2-.48-.65-.03" data-part="copaFrente"></path>
      <path class="cls-9" d="M89.6,13.25c-.21-.8-.44-.8-1.01-1.37-2.57-2.58-.97,1.21,1.01,1.37" data-part="copaFrente"></path>
      <polygon class="cls-9" points="102.52 72.11 103.19 72.11 102.9 69.26 102.23 69.26 102.52 72.11" data-part="abaCima"></polygon>
      <path class="cls-9" d="M52.43,8.97c.72.33,1.78-.37,2.25-.84.49-.48.25.24.37-.82-.88.21-2.16.99-2.62,1.67" data-part="copaLadosTras"></path>
      <path class="cls-9" d="M45.04,11.11c-.8.21-.8.44-1.37,1.01-1.52,1.52-1.03,1.99.48.48.64-.64.81-.49.89-1.49" data-part="copaLadosTras"></path>
      <path class="cls-9" d="M46.95,9.68l2.02-1.32c.47-.51.24.28.36-.83-.86.07-2.28.91-2.38,2.14" data-part="copaLadosTras"></path>
      <path class="cls-9" d="M40.75,15.4c-1.61.93-2.46,4.2-.02.91.28-.37.39-.28.4-.71l-.08-.2c-.38-.42-.04-.16-.31,0" data-part="copaLadosTras"></path>
      <rect class="cls-12" x="97.23" y="85.22" width=".72" height="1.67" data-part="abaCima"></rect>
      <path class="cls-9" d="M34.32,86.89c.53-.14.72-.06.72-.71v-.24c0-.66-.18-.57-.72-.71v1.67Z" data-part="copaLadosTras"></path>
      <path class="cls-6" d="M64.58,18.97c.79,0,1.44.54,1.44,1.2s-.64,1.2-1.44,1.2-1.44-.54-1.44-1.2.64-1.2,1.44-1.2Z"></path>
      <path class="cls-6" d="M26.64,17.34c.8,0,1.44.54,1.44,1.2s-.64,1.2-1.44,1.2-1.44-.54-1.44-1.2.64-1.2,1.44-1.2Z"></path>
      <g class="cls-8">
        <g>
          <path class="cls-11" d="M13.59,84.16l-11.09-1.25c-1.3-.15-2.38-1.01-2.38-2.24v-10.64c0-1.23,1.08-2.34,2.38-2.24l11.36.8" data-part="copaLadosTras"></path>
          <path class="cls-1" d="M13.59,84.16l-11.09-1.25c-1.3-.15-2.38-1.01-2.38-2.24v-10.64c0-1.23,1.08-2.34,2.38-2.24l11.36.8"></path>
          <path class="cls-3" d="M3.08,74.41c.45,0,.82.35.82.77s-.37.77-.82.77-.82-.35-.82-.77.37-.77.82-.77ZM3.08,74.06c.66,0,1.19.5,1.19,1.12s-.53,1.12-1.19,1.12-1.19-.5-1.19-1.12.53-1.12,1.19-1.12Z"></path>
          <path class="cls-10" d="M3.08,74.41c.45,0,.82.35.82.77s-.37.77-.82.77-.82-.35-.82-.77.37-.77.82-.77M3.08,74.06c.66,0,1.19.5,1.19,1.12s-.53,1.12-1.19,1.12-1.19-.5-1.19-1.12.53-1.12,1.19-1.12Z" data-part="copaLadosTras"></path>
          <path class="cls-3" d="M10.65,74.41c.45,0,.82.35.82.77s-.37.77-.82.77-.82-.35-.82-.77.37-.77.82-.77ZM10.65,74.06c.66,0,1.19.5,1.19,1.12s-.53,1.12-1.19,1.12-1.19-.5-1.19-1.12.53-1.12,1.19-1.12Z"></path>
          <path class="cls-10" d="M10.65,74.41c.45,0,.82.35.82.77s-.37.77-.82.77-.82-.35-.82-.77.37-.77.82-.77M10.65,74.06c.66,0,1.19.5,1.19,1.12s-.53,1.12-1.19,1.12-1.19-.5-1.19-1.12.53-1.12,1.19-1.12Z" data-part="copaLadosTras"></path>
          <path class="cls-10" d="M8.54,72.35v2.07c0,.31-.04.49-.05.75-.01.94-.02,1.93-.12,2.88-.01.13,0,.26,0,.38-.09,1.1-.21,2.82-.96,3.65-.35.39-.72.64-1.22.87-.3.14-1.07.08-1.38-.07-.09-.4-.07-.36.34-.62.4-.26.72-.73.86-1.23.27-.96.46-3.99.45-5.21,0-.96.04-1.8.04-2.79,0-4.26-.82-4.05-3.17-4.45-.1-.02-.28-.06-.39-.08l-.05-.48c.28-.14.84-.06,1.19-.01,1.02.13,2.39.19,3.2.76,1.01.72,1.23,2.12,1.27,3.57M6.15,68.9c1.92.45,1.83,2.67,1.83,4.49l-.22,5.36c-.05,1.08-.21,2.5-.99,3.19-.16.14-.68.49-.93.51.42-.62.64-.69.83-1.83.16-.98.16-1.55.25-2.4l.05-1.26c0-.48.04-.81.04-1.31,0-1.76.26-4.35-.39-5.97-.15-.39-.3-.5-.49-.78Z" data-part="copaLadosTras"></path>
        </g>
      </g>
    </g>
  </g>
</svg>