<svg id="Camada_2" data-name="Camada 2" xmlns="http://www.w3.org/2000/svg" viewBox="0 0 185.58 111.67">
  <defs>
    <style>
      .cls-1 {
        stroke: #000;
        stroke-width: .24px;
      }

      .cls-1, .cls-2, .cls-3, .cls-4, .cls-5 {
        fill: none;
      }

      .cls-1, .cls-4, .cls-5 {
        stroke-miterlimit: 22.93;
      }

      .cls-2 {
        stroke: #a6a8ab;
        stroke-width: .13px;
      }

      .cls-2, .cls-3 {
        stroke-linecap: round;
        stroke-linejoin: round;
      }

      .cls-6 {
        opacity: .97;
      }

      .cls-3 {
        stroke: #b2b2b2;
        stroke-width: .15px;
      }

      .cls-7, .cls-8, .cls-9 {
        fill-rule: evenodd;
      }

      .cls-7, .cls-10 {
        fill: #d1d1d1;
      }

      .cls-11 {
        fill: #f4f4f4;
      }

      .cls-4 {
        stroke-width: .22px;
      }

      .cls-4, .cls-5 {
        stroke: #1a1a1a;
      }

      .cls-12 {
        opacity: .7;
      }

      .cls-5 {
        stroke-width: .51px;
      }

      .cls-9 {
        fill: #eaeaea;
      }
    
    [data-part="crown"]{fill:var(--c-crown,#d7dade) !important}
    [data-part="brim"]{fill:var(--c-brim,#c7cace) !important}
    [data-part="button"]{fill:var(--c-button,#d7dade) !important}
    [data-part="mesh"]{fill:var(--c-mesh,#eef0f2) !important}
  </style>
  </defs>
  <g id="_1.1_Trucker" data-name="1.1 Trucker">
    <g>
      <path class="cls-10" d="M61.03,90.97c-7.13,0-15.02-.14-22.64-.79-3.51-.3-7.32-.5-11.01-.69-9.55-.49-15.47-.86-16.66-2.22-.17-.2-.25-.42-.24-.65l.45-6.02c.14-1.8.07-3.01-.05-5.02-.09-1.51-.19-3.39-.25-6.24-.16-7.74-3.45-11.71-9.78-11.79-.5,0-.66,0-.78-.15l-.08-.1v-.15s2.85-22.24,2.85-22.24c.48-3.77,2.87-8.22,7.29-13.6,3.71-4.51,8.65-7.92,15.56-10.74,6.55-2.67,16.21-5.28,24.59-6.63,8.11-1.31,13.61-1.17,15.42-1.13h0c1.36.03,2.33.14,2.97.32,15.23,4.44,22.23,15.56,25.43,24.1,3.29,8.8,3.97,31.69,4.47,48.4.1,3.32.19,6.39.29,9.04.06,1.47.08,2.11.1,2.82v.34s-.22.05-.22.05c-2.28.53-3.43.68-4.44.81-.54.07-1.05.14-1.69.26l-1.31.24c-.18.03-.33.06-.45.08.09.07.2.16.35.28l.58.45-.73.06c-4.57.39-10,.76-18.68.8-1.15,0-2.36.01-3.63.02-2.43.02-5.02.04-7.72.04ZM.61,56.97c.08,0,.17,0,.26,0,6.69.08,10.17,4.24,10.34,12.35.06,2.85.17,4.72.25,6.22.11,1.96.18,3.25.05,5.09l-.45,6.02s0,.13.1.23c1.1,1.25,8.81,1.64,16.26,2.03,3.69.19,7.51.39,11.03.69,10.47.9,21.47.82,30.3.75,1.26,0,2.48-.02,3.63-.02,8.22-.04,13.52-.37,17.94-.74-.24-.23-.28-.34-.26-.48l.02-.16.19-.1c.08-.03.14-.04.94-.19l1.31-.24c.65-.12,1.17-.19,1.72-.26.96-.13,2.05-.27,4.16-.75-.02-.66-.04-1.31-.09-2.69-.1-2.66-.19-5.73-.29-9.05-.5-16.67-1.18-39.5-4.43-48.21-3.15-8.42-10.05-19.38-25.05-23.75-.58-.17-1.51-.27-2.82-.3-1.8-.04-7.26-.18-15.31,1.12-8.35,1.35-17.95,3.93-24.47,6.59-6.82,2.78-11.69,6.14-15.34,10.57-4.35,5.29-6.69,9.64-7.16,13.3L.61,56.97Z" data-part="mesh"></path>
      <path class="cls-11" d="M11.15,74l-.37,12.63c-.01.06.24.93,1.69,1.18,13.71,2.29,79.4,4.85,86.21-.32.08-5.13.23-8.4-.5-14.21-2.13,3.81-75.74,1.72-87.03.72" data-part="mesh"></path>
      <path class="cls-12" d="M61.12,3.15l-4.29-.23c-.45-.22-17.47,6.76-23.54,25.38-7.69,23.59-4.73,60.11-4.52,60.88,1.74.03,2.36.5,4.73.36-.64-17.41-8.92-72.01,27.62-86.39" data-part="mesh"></path>
      <path class="cls-12" d="M65.26,2.93l4.29-.23c.45-.22,18.63,6.76,24.7,25.38,7.69,23.59,4.64,58.78,4.44,59.56-1.74.03-2.36.5-4.73.36.41-11.23,4.29-36.64-3.04-58.05-4.02-11.76-12.7-21.92-25.66-27.01" data-part="mesh"></path>
      <path class="cls-9" d="M97.14,87.98v.43c.91-.21,0,.03,2.82-.68,2.82-.71,13.4-4.14,17.8-5.67,4.4-1.54,7.96-3.02,10.73-4.43,2.77-1.42,4.75-2.77,6.08-3.99,1.33-1.21,2.02-2.28,2.36-2.81.16-.25.25-.38,1.15-.23-.35-4.33-.95-11.51-2.15-18.76-1.2-7.25-2.61-11.53-4.29-17.62-1.68-6.09-3.39-11.35-4.15-13.98-.97-3.37-2.18-4.66-5.05-6.93-1.57-1.24-3.43-2.19-6.15-3.16-10.74-3.82-35.88-8.35-46.75-7.1-1.12.13-1.55.18-1.71.23h.01s0,0,0,0h0s.01,0,.01,0h.01s.01,0,.01,0h.01s.01,0,.01,0h.01s.03,0,.03,0h.01s.01,0,.01,0h0s.01,0,.01,0h.01s.01,0,.01,0h0s0,0,0,0h.01s.01,0,.01,0h.01s0,0,0,0h.01s.01,0,.01,0h.02s0,0,0,0h.01s.02,0,.02,0h0s.01,0,.01,0h.01s.01,0,.01,0h0s0,0,0,0h.01s.01,0,.01,0h0s0,0,0,0h.01s.01,0,.01,0h.01s0,0,0,0h0s.01,0,.01,0h.01s.02,0,.02,0h.01s.01,0,.01,0h0s0,0,0,0h.01s.01,0,.01,0h0s0,0,0,0h.01s.01,0,.01,0h.01s0,0,0,0h0s.01,0,.01,0h.01s0,0,0,0h0s.01,0,.01,0h.01s.01,0,.01,0h.01s.01,0,.01,0h.01s0,0,0,0h0s.01,0,.01,0h.01s.01,0,.01,0c12.84,3.74,21.1,12.85,25.24,23.93,3.93,10.5,4.12,41.37,4.74,57.35.06,1.54.08,2.17.1,2.92-.58.13-1.09.24-1.54.34Z" data-part="crown"></path>
      <path class="cls-4" d="M97.14,87.98v.43c.91-.21,0,.03,2.82-.68,2.82-.71,13.4-4.14,17.8-5.67,4.4-1.54,7.96-3.02,10.73-4.43,2.77-1.42,4.75-2.77,6.08-3.99,1.33-1.21,2.02-2.28,2.36-2.81.16-.25.25-.38,1.15-.23-.35-4.33-.95-11.51-2.15-18.76-1.2-7.25-2.61-11.53-4.29-17.62-1.68-6.09-3.39-11.35-4.15-13.98-.97-3.37-2.18-4.66-5.05-6.93-1.57-1.24-3.43-2.19-6.15-3.16-10.74-3.82-35.88-8.35-46.75-7.1-1.12.13-1.55.18-1.71.23h.01s0,0,0,0h0s.01,0,.01,0h.01s.01,0,.01,0h.01s.01,0,.01,0h.01s.03,0,.03,0h.01s.01,0,.01,0h0s.01,0,.01,0h.01s.01,0,.01,0h0s0,0,0,0h.01s.01,0,.01,0h.01s0,0,0,0h.01s.01,0,.01,0h.02s0,0,0,0h.01s.02,0,.02,0h0s.01,0,.01,0h.01s.01,0,.01,0h0s0,0,0,0h.01s.01,0,.01,0h0s0,0,0,0h.01s.01,0,.01,0h.01s0,0,0,0h0s.01,0,.01,0h.01s.02,0,.02,0h.01s.01,0,.01,0h0s0,0,0,0h.01s.01,0,.01,0h0s0,0,0,0h.01s.01,0,.01,0h.01s0,0,0,0h0s.01,0,.01,0h.01s0,0,0,0h0s.01,0,.01,0h.01s.01,0,.01,0h.01s.01,0,.01,0h.01s0,0,0,0h0s.01,0,.01,0h.01s.01,0,.01,0c12.84,3.74,21.1,12.85,25.24,23.93,3.93,10.5,4.12,41.37,4.74,57.35.06,1.54.08,2.17.1,2.92-.58.13-1.09.24-1.54.34Z"></path>
      <path class="cls-9" d="M91.37,89.81c1.16.87,3.59,2.56,7.6,4.75,18.42,9.86,44.74,21.3,66.08,15.1,8.56-2.49,19.25-12.5,20.23-21.73.16-1.86-.06-3.08-.18-3.9-.13-.82-.16-1.23-.18-1.43q-.02-.21-7.86-2.3c-7.84-2.1-23.53-6.29-31.38-8.38q-7.84-2.1-8.19-1.56c-.35.54-1.04,1.62-2.39,2.84-1.35,1.23-3.35,2.6-6.15,4.03-2.8,1.43-6.4,2.93-10.86,4.49-4.45,1.56-9.75,3.18-14.49,4.37-4.73,1.2-8.9,1.97-11,2.36-2.1.39-2.15.39-2.22.42-.07.03-.17.08,1,.95Z" data-part="brim"></path>
      <path class="cls-5" d="M91.37,89.81c1.16.87,3.59,2.56,7.6,4.75,18.42,9.86,44.74,21.3,66.08,15.1,8.56-2.49,19.25-12.5,20.23-21.73.16-1.86-.06-3.08-.18-3.9-.13-.82-.16-1.23-.18-1.43q-.02-.21-7.86-2.3c-7.84-2.1-23.53-6.29-31.38-8.38q-7.84-2.1-8.19-1.56c-.35.54-1.04,1.62-2.39,2.84-1.35,1.23-3.35,2.6-6.15,4.03-2.8,1.43-6.4,2.93-10.86,4.49-4.45,1.56-9.75,3.18-14.49,4.37-4.73,1.2-8.9,1.97-11,2.36-2.1.39-2.15.39-2.22.42-.07.03-.17.08,1,.95Z"></path>
      <path class="cls-10" d="M153.46,103.95v-.57c.97,0,1.93-.05,2.83-.12l.04.57c-.92.07-1.89.11-2.88.12ZM151.73,103.93c-.92-.02-1.88-.07-2.87-.14l.04-.57c.98.07,1.94.12,2.85.14v.57ZM158.06,103.65l-.07-.57c.96-.12,1.9-.29,2.79-.49l.13.56c-.91.21-1.86.38-2.84.5ZM147.14,103.64l-.59-.06c-.75-.08-1.5-.16-2.26-.26l.07-.57c.76.1,1.5.19,2.25.26l.59.06-.05.57ZM142.57,103.09c-.94-.14-1.89-.3-2.83-.47l.1-.56c.94.17,1.88.32,2.82.46l-.08.57ZM162.58,102.7l-.17-.55c.9-.27,1.79-.6,2.66-.97l.23.53c-.88.38-1.8.72-2.72.99ZM138.04,102.3c-.94-.19-1.88-.39-2.81-.6l.13-.56c.92.21,1.86.41,2.79.6l-.11.56ZM133.56,101.3c-.93-.23-1.86-.48-2.77-.74l.16-.55c.9.26,1.83.51,2.75.74l-.14.56ZM166.88,100.96l-.26-.51c.84-.43,1.66-.91,2.44-1.44l.32.48c-.8.53-1.64,1.03-2.49,1.47ZM129.13,100.06c-.91-.28-1.82-.58-2.73-.9l.19-.54c.9.32,1.81.62,2.71.9l-.17.55ZM124.79,98.57c-.88-.33-1.77-.69-2.67-1.06l.22-.53c.89.37,1.78.73,2.65,1.05l-.2.54ZM170.78,98.48l-.35-.45c.75-.58,1.47-1.21,2.13-1.86l.4.41c-.68.67-1.41,1.31-2.18,1.91ZM120.54,96.83c-.88-.39-1.75-.79-2.61-1.2l.25-.52c.85.41,1.71.81,2.59,1.19l-.23.52ZM174.15,95.3l-.43-.38c.6-.69,1.19-1.44,1.73-2.23l.47.33c-.56.81-1.16,1.58-1.77,2.28ZM116.38,94.87c-.54-.27-1.07-.54-1.59-.81-.32-.17-.64-.33-.96-.5l.27-.51c.32.17.63.33.95.5.52.27,1.05.54,1.59.81l-.26.51ZM112.31,92.75c-.84-.46-1.68-.92-2.51-1.39l.28-.5c.83.47,1.66.93,2.5,1.39l-.27.5ZM176.87,91.56l-.49-.3c.48-.78.93-1.6,1.38-2.48l.51.26c-.45.9-.91,1.73-1.4,2.52ZM108.31,90.5c-.83-.48-1.65-.96-2.47-1.44l.29-.49c.82.48,1.64.96,2.47,1.44l-.29.5ZM104.36,88.18l-2.46-1.47.29-.49,2.46,1.47-.29.49ZM179.02,87.48l-.52-.24c.41-.9.77-1.75,1.1-2.62l.54.21c-.34.88-.7,1.75-1.12,2.65ZM180.72,83.2l-.54-.19c.2-.6.39-1.17.57-1.75l.55.18c-.19.58-.37,1.15-.58,1.76Z" data-part="brim"></path>
      <path class="cls-10" d="M154.15,100.98c-.18,0-.35,0-.53,0v-.57c.99.01,1.96-.01,2.84-.08l.04.57c-.74.05-1.53.08-2.35.08ZM151.89,100.91c-.88-.04-1.82-.12-2.87-.21l.05-.57c1.04.1,1.97.17,2.84.21l-.03.57ZM158.23,100.71l-.08-.57c.14-.02.28-.04.42-.06.79-.13,1.58-.3,2.34-.51l.15.55c-.79.22-1.6.4-2.41.53-.14.02-.29.05-.43.07ZM147.31,100.52l-.41-.05c-.8-.09-1.62-.19-2.43-.3l.07-.57c.81.11,1.62.2,2.42.3l.41.05-.06.57ZM142.75,99.95c-.95-.14-1.9-.28-2.84-.44l.09-.57c.93.16,1.88.3,2.82.44l-.08.57ZM162.72,99.58l-.2-.54c.88-.32,1.75-.71,2.58-1.15l.27.51c-.85.45-1.74.85-2.65,1.18ZM138.22,99.21c-.99-.18-1.94-.37-2.82-.56l.12-.56c.87.19,1.81.38,2.8.56l-.1.56ZM133.72,98.26c-.93-.23-1.86-.48-2.77-.75l.16-.55c.9.27,1.83.52,2.75.75l-.14.56ZM166.88,97.52l-.31-.48c.47-.3.94-.62,1.38-.96.3-.23.6-.47.89-.71l.37.44c-.3.25-.6.5-.91.73-.46.35-.94.68-1.42.99ZM129.3,96.99c-.89-.29-1.77-.6-2.71-.96l.2-.54c.93.35,1.81.66,2.69.95l-.18.54ZM124.98,95.41l-.63-.25c-.67-.27-1.35-.56-2.02-.85l.23-.53c.67.29,1.34.57,2.01.84l.62.25-.21.53ZM170.49,94.63l-.4-.41c.66-.65,1.29-1.35,1.9-2.1l.45.36c-.62.76-1.27,1.48-1.94,2.15ZM120.75,93.61c-.87-.39-1.74-.8-2.6-1.22l.25-.52c.86.42,1.72.82,2.58,1.21l-.24.52ZM116.61,91.62c-.55-.28-1.09-.56-1.63-.85-.3-.16-.61-.33-.91-.49l.28-.5c.3.16.6.33.9.49.54.29,1.08.57,1.62.85l-.26.51ZM173.48,91.1l-.47-.33c.46-.65.91-1.33,1.32-2.02l.21-.36.5.29-.22.37c-.42.71-.88,1.4-1.35,2.06ZM112.57,89.44c-.83-.48-1.66-.96-2.48-1.45l.29-.49c.82.49,1.64.97,2.47,1.44l-.28.5ZM175.88,87.15l-.51-.26c.4-.78.8-1.63,1.21-2.57l.53.23c-.42.96-.82,1.81-1.23,2.6ZM108.62,87.1c-.82-.5-1.63-1-2.44-1.5l.3-.49c.81.5,1.62,1,2.44,1.49l-.3.49ZM177.78,82.96l-.53-.22c.29-.71.57-1.42.85-2.13l.29.04.27.11c-.31.78-.59,1.49-.88,2.2Z" data-part="brim"></path>
      <path class="cls-10" d="M151.64,97.84c-.92,0-1.88-.04-2.88-.11l.04-.57c.98.06,1.94.1,2.84.1v.57ZM153.37,97.82l-.02-.57c.99-.03,1.95-.1,2.83-.21l.07.57c-.9.11-1.87.18-2.88.21ZM147.04,97.6c-.96-.09-1.92-.19-2.86-.32l.08-.57c.93.12,1.88.23,2.83.32l-.05.57ZM157.97,97.34l-.11-.56c.93-.18,1.85-.4,2.75-.68l.17.55c-.91.28-1.86.52-2.81.69ZM142.48,97.03c-.93-.15-1.88-.32-2.83-.52l.12-.56c.94.19,1.88.37,2.8.52l-.09.57ZM137.97,96.14c-.91-.21-1.85-.45-2.79-.7l.15-.55c.93.25,1.86.48,2.77.69l-.13.56ZM162.42,96.08l-.21-.53c.83-.32,1.63-.69,2.38-1.09l.18-.1.28.5-.19.1c-.77.41-1.59.78-2.44,1.11ZM133.52,94.98c-.92-.27-1.84-.55-2.74-.85l.18-.54c.89.29,1.81.58,2.73.84l-.16.55ZM166.54,93.94l-.33-.47c.77-.53,1.46-1.13,2.11-1.83l.42.39c-.68.73-1.4,1.35-2.2,1.91ZM129.14,93.57c-.93-.33-1.81-.66-2.69-1.01l.21-.53c.87.35,1.75.68,2.67,1l-.19.54ZM124.86,91.9c-.83-.35-1.7-.74-2.62-1.17l.24-.52c.92.43,1.78.81,2.6,1.16l-.22.53ZM169.87,90.7l-.45-.35c.21-.27.41-.55.62-.85.31-.45.64-.95.97-1.49l.49.3c-.34.55-.67,1.07-.99,1.52-.21.31-.42.6-.64.87ZM120.68,90c-.82-.39-1.68-.82-2.57-1.27l.26-.51c.89.45,1.75.87,2.56,1.26l-.25.52ZM116.57,87.96c-.83-.42-1.69-.86-2.55-1.3l.26-.51c.86.45,1.72.88,2.55,1.3l-.26.51ZM172.38,86.83l-.5-.28c.45-.79.91-1.63,1.37-2.5l.51.27c-.46.87-.92,1.72-1.38,2.52ZM112.5,85.86l-2.54-1.32.26-.51,2.54,1.32-.26.51ZM174.56,82.78l-.51-.26c.43-.84.87-1.69,1.3-2.55l.51.26c-.44.86-.87,1.71-1.31,2.55Z" data-part="brim"></path>
      <path class="cls-10" d="M151.43,95.12c-.91,0-1.88-.05-2.88-.12l.04-.57c.99.07,1.94.11,2.84.12v.57ZM153.16,95.09l-.03-.57c.99-.04,1.94-.14,2.81-.28l.04.27.13.27-.13.03c-.85.14-1.81.24-2.83.28ZM146.83,94.84c-.95-.1-1.91-.23-2.85-.39l.09-.57c.93.15,1.88.28,2.82.38l-.06.57ZM157.75,94.45l-.14-.56c.92-.23,1.82-.52,2.68-.87l.22.53c-.89.36-1.82.66-2.76.9ZM142.28,94.15c-.91-.18-1.81-.37-2.75-.6l.02-.29.07-.28-.07.28.11-.27c.95.23,1.84.43,2.73.6l-.11.56ZM137.8,93.1c-.93-.25-1.85-.52-2.76-.79l.16-.55c.9.27,1.82.53,2.75.78l-.15.55ZM162.1,92.83l-.26-.51c.4-.21.8-.43,1.19-.67.42-.26.83-.53,1.21-.81l.34.46c-.4.29-.82.57-1.25.84-.4.24-.81.47-1.22.69ZM133.39,91.81c-.5-.16-1-.31-1.49-.47-.42-.13-.83-.26-1.24-.4l.18-.54c.41.13.82.26,1.24.4.49.15.98.31,1.48.47l-.17.55ZM129.03,90.4c-.94-.33-1.82-.66-2.69-1.01l.22-.53c.86.35,1.73.68,2.66,1l-.19.54ZM165.92,90.2l-.38-.42c.68-.61,1.31-1.29,1.93-2.05l.45.36c-.64.79-1.29,1.48-1.99,2.12ZM124.75,88.71l-.44-.2c-.68-.31-1.41-.65-2.16-1.02l.25-.52c.75.36,1.47.7,2.15,1.01l.44.2-.23.53ZM120.6,86.73c-.83-.42-1.68-.85-2.55-1.31l.26-.51c.87.45,1.72.89,2.54,1.3l-.26.51ZM168.95,86.69l-.47-.33c.48-.69.98-1.48,1.52-2.4l.49.29c-.55.93-1.05,1.73-1.54,2.44ZM116.52,84.63c-.84-.44-1.69-.89-2.53-1.33l.27-.51c.85.45,1.69.89,2.53,1.33l-.27.51ZM171.35,82.75l-.5-.28c.45-.82.9-1.67,1.35-2.52l.51.27c-.45.85-.9,1.7-1.36,2.53Z" data-part="brim"></path>
      <path class="cls-10" d="M152.66,91.9l-.02-.57c.81-.02,1.59-.09,2.31-.19.17-.02.33-.05.5-.08l.09.57c-.17.03-.34.05-.51.08-.74.1-1.54.17-2.38.19ZM150.93,91.9c-.89-.03-1.83-.09-2.87-.19l.06-.57c1.03.1,1.96.16,2.84.19l-.02.57ZM146.34,91.52c-.97-.12-1.92-.26-2.84-.41l.09-.57c.91.15,1.86.29,2.82.41l-.07.57ZM157.26,91.26l-.15-.55c.9-.24,1.8-.55,2.66-.92l.23.53c-.89.38-1.81.7-2.74.95ZM141.8,90.8c-.93-.18-1.88-.38-2.81-.6l.13-.56c.92.22,1.86.42,2.79.6l-.11.56ZM137.31,89.78c-.93-.25-1.86-.51-2.76-.78l.17-.55c.9.27,1.82.53,2.74.78l-.15.55ZM161.57,89.56l-.27-.5c.2-.11.4-.23.6-.34.62-.37,1.21-.77,1.75-1.2l.36.45c-.56.44-1.17.86-1.81,1.24-.2.12-.41.24-.62.35ZM132.9,88.49c-.59-.19-1.17-.38-1.74-.57-.33-.11-.66-.22-.99-.33l.19-.54c.32.11.65.22.98.33.56.19,1.14.38,1.73.56l-.17.55ZM128.55,87.02c-.94-.34-1.81-.68-2.68-1.03l.22-.53c.86.35,1.73.69,2.66,1.02l-.2.54ZM165.31,86.8l-.4-.41c.55-.54,1.06-1.12,1.57-1.78.09-.12.18-.23.26-.35l.46.34c-.09.12-.18.24-.27.36-.52.68-1.05,1.28-1.62,1.84ZM124.28,85.31c-.85-.37-1.72-.77-2.61-1.2l.25-.52c.88.42,1.75.82,2.59,1.19l-.23.52ZM120.12,83.37c-.85-.41-1.71-.84-2.57-1.26l.25-.51c.86.42,1.72.85,2.57,1.26l-.25.52ZM168.18,83.16l-.48-.31c.43-.68.88-1.44,1.45-2.45l.5.28c-.57,1.02-1.02,1.79-1.46,2.48Z" data-part="brim"></path>
      <path class="cls-10" d="M152.11,88.79v-.57c.72-.01,1.42-.06,2.07-.15.24-.03.48-.07.72-.12l.11.56c-.25.05-.5.09-.75.12-.67.09-1.39.15-2.15.16ZM150.37,88.76c-.86-.04-1.79-.13-2.87-.26l.07-.57c1.06.13,1.99.22,2.83.26l-.03.57ZM145.79,88.26c-.96-.14-1.9-.29-2.83-.45l.1-.57c.92.16,1.86.31,2.82.45l-.08.57ZM156.7,88.09l-.17-.55c.88-.26,1.76-.61,2.62-1.02l.25.52c-.89.43-1.8.78-2.71,1.06ZM141.26,87.5c-.98-.19-1.9-.39-2.81-.6l.13-.56c.9.21,1.81.41,2.79.6l-.11.56ZM136.77,86.49c-.93-.24-1.86-.5-2.76-.77l.16-.55c.9.27,1.82.53,2.75.77l-.15.55ZM160.94,86.21l-.29-.49c.16-.09.31-.19.47-.29.65-.41,1.27-.85,1.85-1.32l.36.45c-.59.48-1.23.94-1.9,1.36-.16.1-.32.2-.48.29ZM132.36,85.21c-.67-.21-1.33-.43-1.97-.64l-.76-.25.18-.54.76.25c.63.21,1.29.42,1.96.63l-.17.55ZM128.01,83.75c-1-.35-1.9-.69-2.69-1l.21-.53c.78.31,1.68.64,2.67,1l-.19.54ZM164.63,83.4l-.4-.41c.46-.46.88-.93,1.25-1.41.19-.25.37-.5.54-.75l.48.32c-.17.26-.36.52-.56.78-.38.5-.82.99-1.3,1.46ZM123.72,82.08c-1.04-.47-1.82-.88-2.57-1.27l.26-.51h0c.74.4,1.51.8,2.54,1.26l-.23.52ZM167.37,79.64l-.51-.26c.27-.52.5-1.03.73-1.54l.52.24c-.24.52-.48,1.04-.75,1.56Z" data-part="brim"></path>
      <path class="cls-8" d="M11.3,79.05c0,.49-.03,1-.07,1.56l-.05.67.76.76-.87.87h0s-.15,2.04-.15,2.04l.16-.16.87.87-.87.87-.26-.26-.03.35c-.03.46.51.82,1.49,1.12l-.27-.27.87-.87h0s0-1.88,0-1.88l-.87-.87.87-.87v-1.88l-.87-.87.87-.87v-.94h-.94l-.64.64Z" data-part="mesh"></path>
      <path class="cls-9" d="M9.25,28.8l-.87.87.87.87.87-.87-.87-.87ZM7.44,26.99l-.87.87.87.87.87-.87-.87-.87ZM11.06,26.99l-.87.87.87.87.87-.87-.87-.87ZM9.25,25.17l-.87.87.87.87.87-.87-.87-.87ZM11.06,23.36l-.87.87.87.87.87-.87-.87-.87ZM12.44,19.23c-.32.31-.62.63-.92.96l.42.42-.87.87-.37-.37c-.11.13-.22.26-.33.4-.17.21-.35.42-.52.63l.27.27-.87.87-.17-.17c-.27.35-.54.71-.81,1.07l.04.04-.24.24c-1.18,1.62-2.25,3.3-3.09,4.97l.65-.65.87.87-.87.87-.8-.8c-.21.43-.41.86-.59,1.3l.42.42h1.93l.85-.85.85.85h1.93l.85-.85.85.85h.97v-.92l-.87-.87.87-.87v-1.88l-.87-.87.87-.87v-1.88l-.87-.87.87-.87v-1.88h0s-.44-.43-.44-.43Z" data-part="mesh"></path>
      <path class="cls-9" d="M16.53,86.61l-.87.87.87.87.87-.87-.87-.87ZM14.72,84.8l-.87.87.87.87.87-.87-.87-.87ZM12.9,82.99l-.87.87.87.87.87-.87-.87-.87ZM20.16,86.61l-.87.87.87.87.87-.87-.87-.87ZM18.34,84.8l-.87.87.87.87.87-.87-.87-.87ZM16.53,82.99l-.87.87.87.87.87-.87-.87-.87ZM14.71,81.17l-.87.87.87.87.87-.87-.87-.87ZM12.9,79.36l-.87.87.87.87.87-.87-.87-.87ZM23.79,86.61l-.87.87.87.87.87-.87-.87-.87ZM21.97,84.8l-.87.87.87.87.87-.87-.87-.87ZM20.16,82.99l-.87.87.87.87.87-.87-.87-.87ZM18.34,81.17l-.87.87.87.87.87-.87-.87-.87ZM16.53,79.36l-.87.87.87.87.87-.87-.87-.87ZM27.41,86.61l-.87.87.87.87.87-.87-.87-.87ZM25.6,84.8l-.87.87.87.87.87-.87-.87-.87ZM23.79,82.99l-.87.87.87.87.87-.87-.87-.87ZM21.97,81.17l-.87.87.87.87.87-.87-.87-.87ZM20.16,79.36l-.87.87.87.87.87-.87-.87-.87ZM31.04,86.61l-.87.87.87.87.87-.87-.87-.87ZM29.23,84.8l-.87.87.87.87.87-.87-.87-.87ZM27.41,82.99l-.87.87.87.87.87-.87-.87-.87ZM25.6,81.17l-.87.87.87.87.87-.87-.87-.87ZM23.79,79.36l-.87.87.87.87.87-.87-.87-.87ZM34.67,86.61l-.87.87.87.87.87-.87-.87-.87ZM32.86,84.8l-.87.87.87.87.87-.87-.87-.87ZM31.04,82.99l-.87.87.87.87.87-.87-.87-.87ZM29.23,81.17l-.87.87.87.87.87-.87-.87-.87ZM27.41,79.36l-.87.87.87.87.87-.87-.87-.87ZM38.3,86.61l-.87.87.87.87.87-.87-.87-.87ZM36.48,84.8l-.87.87.87.87.87-.87-.87-.87ZM34.67,82.99l-.87.87.87.87.87-.87-.87-.87ZM32.86,81.17l-.87.87.87.87.87-.87-.87-.87ZM31.04,79.36l-.87.87.87.87.87-.87-.87-.87ZM43.74,88.43l-.87.87.87.87.87-.87-.87-.87ZM41.93,86.61l-.87.87.87.87.87-.87-.87-.87ZM40.11,84.8l-.87.87.87.87.87-.87-.87-.87ZM38.3,82.99l-.87.87.87.87.87-.87-.87-.87ZM36.48,81.17l-.87.87.87.87.87-.87-.87-.87ZM34.67,79.36l-.87.87.87.87.87-.87-.87-.87ZM47.37,88.43l-.87.87.87.87.87-.87-.87-.87ZM45.55,86.61l-.87.87.87.87.87-.87-.87-.87ZM43.74,84.8l-.87.87.87.87.87-.87-.87-.87ZM41.93,82.99l-.87.87.87.87.87-.87-.87-.87ZM40.11,81.17l-.87.87.87.87.87-.87-.87-.87ZM38.3,79.36l-.87.87.87.87.87-.87-.87-.87ZM51,88.43l-.87.87.87.87.87-.87-.87-.87ZM49.18,86.61l-.87.87.87.87.87-.87-.87-.87ZM47.37,84.8l-.87.87.87.87.87-.87-.87-.87ZM45.55,82.99l-.87.87.87.87.87-.87-.87-.87ZM43.74,81.17l-.87.87.87.87.87-.87-.87-.87ZM41.93,79.36l-.87.87.87.87.87-.87-.87-.87ZM54.63,88.43l-.87.87.87.87.87-.87-.87-.87ZM52.81,86.61l-.87.87.87.87.87-.87-.87-.87ZM51,84.8l-.87.87.87.87.87-.87-.87-.87ZM49.18,82.99l-.87.87.87.87.87-.87-.87-.87ZM47.37,81.17l-.87.87.87.87.87-.87-.87-.87ZM45.55,79.36l-.87.87.87.87.87-.87-.87-.87ZM58.25,88.43l-.87.87.87.87.87-.87-.87-.87ZM56.44,86.61l-.87.87.87.87.87-.87-.87-.87ZM54.63,84.8l-.87.87.87.87.87-.87-.87-.87ZM52.81,82.99l-.87.87.87.87.87-.87-.87-.87ZM51,81.17l-.87.87.87.87.87-.87-.87-.87ZM49.18,79.36l-.87.87.87.87.87-.87-.87-.87ZM61.88,88.43l-.87.87.87.87.87-.87-.87-.87ZM60.07,86.61l-.87.87.87.87.87-.87-.87-.87ZM58.25,84.8l-.87.87.87.87.87-.87-.87-.87ZM56.44,82.99l-.87.87.87.87.87-.87-.87-.87ZM54.63,81.17l-.87.87.87.87.87-.87-.87-.87ZM52.81,79.36l-.87.87.87.87.87-.87-.87-.87ZM65.51,88.43l-.87.87.87.87.87-.87-.87-.87ZM63.7,86.61l-.87.87.87.87.87-.87-.87-.87ZM61.88,84.8l-.87.87.87.87.87-.87-.87-.87ZM60.07,82.99l-.87.87.87.87.87-.87-.87-.87ZM58.25,81.17l-.87.87.87.87.87-.87-.87-.87ZM56.44,79.36l-.87.87.87.87.87-.87-.87-.87ZM65.51,84.8l-.87.87.87.87.87-.87-.87-.87ZM63.7,82.99l-.87.87.87.87.87-.87-.87-.87ZM61.88,81.17l-.87.87.87.87.87-.87-.87-.87ZM60.07,79.36l-.87.87.87.87.87-.87-.87-.87ZM65.51,81.17l-.87.87.87.87.87-.87-.87-.87ZM63.7,79.36l-.87.87.87.87.87-.87-.87-.87ZM11.3,79.08c0,.48-.03.98-.07,1.54l-.05.65.78.78-.87.87h0s0,1.89,0,1.89h0s.87.87.87.87l-.87.87h0s0,.66,0,.66c.26.21.67.39,1.22.56l-.27-.27.87-.87.87.87-.51.51c1.26.26,2.93.46,4.88.63l.2-.2.24.24c.93.08,1.91.14,2.94.21l.45-.45.51.51c.8.05,1.63.09,2.47.14l.65-.65.72.72,2.09.11.83-.83.87.87-.04.04c.69.04,1.38.07,2.07.11l-.15-.15.87-.87.87.87-.23.23c.85.05,1.69.11,2.51.17l-.4-.4.87-.87.87.87-.46.46c.52.04,1.03.08,1.53.12.51.04,1.02.08,1.53.12l-.71-.71.87-.87.87.87-.73.73c1.72.13,3.46.23,5.19.32l.11-.11.12.12c1.09.05,2.17.1,3.25.13l.25-.25.27.27c1.01.03,2.01.06,3.01.08l.35-.35.37.37c.96.02,1.91.03,2.85.04l.41-.41.42.42c.94,0,1.86.01,2.78.02l.43-.43.44.44c.93,0,1.86,0,2.76,0l.43-.43.43.43c.95,0,1.88-.01,2.79-.02l.41-.41h0s0-1.88,0-1.88h0l-.87-.87.87-.87h0s0-1.88,0-1.88l-.87-.87.87-.87v-1.88l-.87-.87.87-.87v-.94h-.94l-.87.87-.87-.87h-1.88l-.87.87-.87-.87h-1.88l-.87.87-.87-.87h-1.88l-.87.87-.87-.87h-1.88,0s-.87.87-.87.87l-.87-.87h-1.88l-.87.87-.87-.87h-1.88l-.87.87-.87-.87h-1.88l-.87.87-.87-.87h-1.88l-.87.87-.87-.87h-1.88l-.87.87-.87-.87h0s-1.88,0-1.88,0h0s-.87.87-.87.87l-.87-.87h-1.88l-.87.87-.87-.87h-1.88l-.87.87-.87-.87h-1.88l-.87.87-.87-.87h-1.88l-.87.87-.87-.87h-1.88,0s-.66.66-.66.66Z" data-part="mesh"></path>
      <path class="cls-9" d="M12.9,28.8l-.87.87.87.87.87-.87-.87-.87ZM16.53,28.8l-.87.87.87.87.87-.87-.87-.87ZM14.71,26.99l-.87.87.87.87.87-.87-.87-.87ZM12.9,25.17l-.87.87.87.87.87-.87-.87-.87ZM20.16,28.8l-.87.87.87.87.87-.87-.87-.87ZM18.34,26.99l-.87.87.87.87.87-.87-.87-.87ZM16.53,25.17l-.87.87.87.87.87-.87-.87-.87ZM14.71,23.36l-.87.87.87.87.87-.87-.87-.87ZM12.9,21.54l-.87.87.87.87.87-.87-.87-.87ZM23.79,28.8l-.87.87.87.87.87-.87-.87-.87ZM21.97,26.99l-.87.87.87.87.87-.87-.87-.87ZM20.16,25.17l-.87.87.87.87.87-.87-.87-.87ZM18.34,23.36l-.87.87.87.87.87-.87-.87-.87ZM16.53,21.54l-.87.87.87.87.87-.87-.87-.87ZM14.72,19.73l-.87.87.87.87.87-.87-.87-.87ZM27.41,28.8l-.87.87.87.87.87-.87-.87-.87ZM25.6,26.99l-.87.87.87.87.87-.87-.87-.87ZM23.79,25.17l-.87.87.87.87.87-.87-.87-.87ZM21.97,23.36l-.87.87.87.87.87-.87-.87-.87ZM20.16,21.54l-.87.87.87.87.87-.87-.87-.87ZM18.34,19.73l-.87.87.87.87.87-.87-.87-.87ZM16.53,17.91l-.87.87.87.87.87-.87-.87-.87ZM31.04,28.8l-.87.87.87.87.87-.87-.87-.87ZM29.23,26.99l-.87.87.87.87.87-.87-.87-.87ZM27.41,25.17l-.87.87.87.87.87-.87-.87-.87ZM25.6,23.36l-.87.87.87.87.87-.87-.87-.87ZM23.79,21.54l-.87.87.87.87.87-.87-.87-.87ZM21.97,19.73l-.87.87.87.87.87-.87-.87-.87ZM20.16,17.91l-.87.87.87.87.87-.87-.87-.87ZM18.34,16.1l-.87.87.87.87.87-.87-.87-.87ZM34.67,28.8l-.87.87.87.87.87-.87-.87-.87ZM32.86,26.99l-.87.87.87.87.87-.87-.87-.87ZM31.04,25.17l-.87.87.87.87.87-.87-.87-.87ZM29.23,23.36l-.87.87.87.87.87-.87-.87-.87ZM27.41,21.54l-.87.87.87.87.87-.87-.87-.87ZM25.6,19.73l-.87.87.87.87.87-.87-.87-.87ZM23.79,17.91l-.87.87.87.87.87-.87-.87-.87ZM21.97,16.1l-.87.87.87.87.87-.87-.87-.87ZM20.16,14.29l-.87.87.87.87.87-.87-.87-.87ZM38.3,28.8l-.87.87.87.87.87-.87-.87-.87ZM36.48,26.99l-.87.87.87.87.87-.87-.87-.87ZM34.67,25.17l-.87.87.87.87.87-.87-.87-.87ZM32.86,23.36l-.87.87.87.87.87-.87-.87-.87ZM31.04,21.54l-.87.87.87.87.87-.87-.87-.87ZM29.23,19.73l-.87.87.87.87.87-.87-.87-.87ZM27.41,17.91l-.87.87.87.87.87-.87-.87-.87ZM25.6,16.1l-.87.87.87.87.87-.87-.87-.87ZM23.79,14.29l-.87.87.87.87.87-.87-.87-.87ZM41.93,28.8l-.87.87.87.87.87-.87-.87-.87ZM40.11,26.99l-.87.87.87.87.87-.87-.87-.87ZM38.3,25.17l-.87.87.87.87.87-.87-.87-.87ZM36.48,23.36l-.87.87.87.87.87-.87-.87-.87ZM34.67,21.54l-.87.87.87.87.87-.87-.87-.87ZM32.86,19.73l-.87.87.87.87.87-.87-.87-.87ZM31.04,17.91l-.87.87.87.87.87-.87-.87-.87ZM29.23,16.1l-.87.87.87.87.87-.87-.87-.87ZM27.41,14.29l-.87.87.87.87.87-.87-.87-.87ZM25.6,12.47l-.87.87.87.87.87-.87-.87-.87ZM45.55,28.8l-.87.87.87.87.87-.87-.87-.87ZM43.74,26.99l-.87.87.87.87.87-.87-.87-.87ZM41.93,25.17l-.87.87.87.87.87-.87-.87-.87ZM40.11,23.36l-.87.87.87.87.87-.87-.87-.87ZM38.3,21.54l-.87.87.87.87.87-.87-.87-.87ZM36.48,19.73l-.87.87.87.87.87-.87-.87-.87ZM34.67,17.91l-.87.87.87.87.87-.87-.87-.87ZM32.86,16.1l-.87.87.87.87.87-.87-.87-.87ZM31.04,14.29l-.87.87.87.87.87-.87-.87-.87ZM29.23,12.47l-.87.87.87.87.87-.87-.87-.87ZM27.41,10.66l-.87.87.87.87.87-.87-.87-.87ZM49.18,28.8l-.87.87.87.87.87-.87-.87-.87ZM47.37,26.99l-.87.87.87.87.87-.87-.87-.87ZM45.55,25.17l-.87.87.87.87.87-.87-.87-.87ZM43.74,23.36l-.87.87.87.87.87-.87-.87-.87ZM41.93,21.54l-.87.87.87.87.87-.87-.87-.87ZM40.11,19.73l-.87.87.87.87.87-.87-.87-.87ZM38.3,17.91l-.87.87.87.87.87-.87-.87-.87ZM36.48,16.1l-.87.87.87.87.87-.87-.87-.87ZM34.67,14.29l-.87.87.87.87.87-.87-.87-.87ZM32.86,12.47l-.87.87.87.87.87-.87-.87-.87ZM31.04,10.66l-.87.87.87.87.87-.87-.87-.87ZM52.81,28.8l-.87.87.87.87.87-.87-.87-.87ZM51,26.99l-.87.87.87.87.87-.87-.87-.87ZM49.18,25.17l-.87.87.87.87.87-.87-.87-.87ZM47.37,23.36l-.87.87.87.87.87-.87-.87-.87ZM45.55,21.54l-.87.87.87.87.87-.87-.87-.87ZM43.74,19.73l-.87.87.87.87.87-.87-.87-.87ZM41.93,17.91l-.87.87.87.87.87-.87-.87-.87ZM40.11,16.1l-.87.87.87.87.87-.87-.87-.87ZM38.3,14.29l-.87.87.87.87.87-.87-.87-.87ZM36.48,12.47l-.87.87.87.87.87-.87-.87-.87ZM34.67,10.66l-.87.87.87.87.87-.87-.87-.87ZM32.86,8.84l-.87.87.87.87.87-.87-.87-.87ZM56.44,28.8l-.87.87.87.87.87-.87-.87-.87ZM54.62,26.99l-.87.87.87.87.87-.87-.87-.87ZM52.81,25.17l-.87.87.87.87.87-.87-.87-.87ZM51,23.36l-.87.87.87.87.87-.87-.87-.87ZM49.18,21.54l-.87.87.87.87.87-.87-.87-.87ZM47.37,19.73l-.87.87.87.87.87-.87-.87-.87ZM45.55,17.91l-.87.87.87.87.87-.87-.87-.87ZM43.74,16.1l-.87.87.87.87.87-.87-.87-.87ZM41.93,14.29l-.87.87.87.87.87-.87-.87-.87ZM40.11,12.47l-.87.87.87.87.87-.87-.87-.87ZM38.3,10.66l-.87.87.87.87.87-.87-.87-.87ZM36.48,8.84l-.87.87.87.87.87-.87-.87-.87ZM60.07,28.8l-.87.87.87.87.87-.87-.87-.87ZM58.25,26.99l-.87.87.87.87.87-.87-.87-.87ZM56.44,25.17l-.87.87.87.87.87-.87-.87-.87ZM54.63,23.36l-.87.87.87.87.87-.87-.87-.87ZM52.81,21.54l-.87.87.87.87.87-.87-.87-.87ZM51,19.73l-.87.87.87.87.87-.87-.87-.87ZM49.18,17.91l-.87.87.87.87.87-.87-.87-.87ZM47.37,16.1l-.87.87.87.87.87-.87-.87-.87ZM45.55,14.29l-.87.87.87.87.87-.87-.87-.87ZM43.74,12.47l-.87.87.87.87.87-.87-.87-.87ZM41.93,10.66l-.87.87.87.87.87-.87-.87-.87ZM40.11,8.84l-.87.87.87.87.87-.87-.87-.87ZM38.3,7.03l-.87.87.87.87.87-.87-.87-.87ZM63.7,28.8l-.87.87.87.87.87-.87-.87-.87ZM61.88,26.99l-.87.87.87.87.87-.87-.87-.87ZM60.07,25.17l-.87.87.87.87.87-.87-.87-.87ZM58.25,23.36l-.87.87.87.87.87-.87-.87-.87ZM56.44,21.54l-.87.87.87.87.87-.87-.87-.87ZM54.63,19.73l-.87.87.87.87.87-.87-.87-.87ZM52.81,17.91l-.87.87.87.87.87-.87-.87-.87ZM51,16.1l-.87.87.87.87.87-.87-.87-.87ZM49.18,14.29l-.87.87.87.87.87-.87-.87-.87ZM47.37,12.47l-.87.87.87.87.87-.87-.87-.87ZM45.55,10.66l-.87.87.87.87.87-.87-.87-.87ZM43.74,8.84l-.87.87.87.87.87-.87-.87-.87ZM41.93,7.03l-.87.87.87.87.87-.87-.87-.87ZM65.51,26.99l-.87.87.87.87.87-.87-.87-.87ZM63.7,25.17l-.87.87.87.87.87-.87-.87-.87ZM61.88,23.36l-.87.87.87.87.87-.87-.87-.87ZM60.07,21.54l-.87.87.87.87.87-.87-.87-.87ZM58.25,19.73l-.87.87.87.87.87-.87-.87-.87ZM56.44,17.91l-.87.87.87.87.87-.87-.87-.87ZM54.63,16.1l-.87.87.87.87.87-.87-.87-.87ZM52.81,14.29l-.87.87.87.87.87-.87-.87-.87ZM51,12.47l-.87.87.87.87.87-.87-.87-.87ZM49.18,10.66l-.87.87.87.87.87-.87-.87-.87ZM47.37,8.84l-.87.87.87.87.87-.87-.87-.87ZM45.55,7.03l-.87.87.87.87.87-.87-.87-.87ZM65.51,23.36l-.87.87.87.87.87-.87-.87-.87ZM63.7,21.54l-.87.87.87.87.87-.87-.87-.87ZM61.88,19.73l-.87.87.87.87.87-.87-.87-.87ZM60.07,17.91l-.87.87.87.87.87-.87-.87-.87ZM58.25,16.1l-.87.87.87.87.87-.87-.87-.87ZM56.44,14.29l-.87.87.87.87.87-.87-.87-.87ZM54.63,12.47l-.87.87.87.87.87-.87-.87-.87ZM52.81,10.66l-.87.87.87.87.87-.87-.87-.87ZM51,8.84l-.87.87.87.87.87-.87-.87-.87ZM49.18,7.03l-.87.87.87.87.87-.87-.87-.87ZM47.37,5.22l-.87.87.87.87.87-.87-.87-.87ZM65.51,19.73l-.87.87.87.87.87-.87-.87-.87ZM63.7,17.91l-.87.87.87.87.87-.87-.87-.87ZM61.88,16.1l-.87.87.87.87.87-.87-.87-.87ZM60.07,14.29l-.87.87.87.87.87-.87-.87-.87ZM58.25,12.47l-.87.87.87.87.87-.87-.87-.87ZM56.44,10.66l-.87.87.87.87.87-.87-.87-.87ZM54.63,8.84l-.87.87.87.87.87-.87-.87-.87ZM52.81,7.03l-.87.87.87.87.87-.87-.87-.87ZM51,5.22l-.87.87.87.87.87-.87-.87-.87ZM65.51,16.1l-.87.87.87.87.87-.87-.87-.87ZM63.7,14.29l-.87.87.87.87.87-.87-.87-.87ZM61.88,12.47l-.87.87.87.87.87-.87-.87-.87ZM60.07,10.66l-.87.87.87.87.87-.87-.87-.87ZM58.25,8.84l-.87.87.87.87.87-.87-.87-.87ZM56.44,7.03l-.87.87.87.87.87-.87-.87-.87ZM54.62,5.22l-.87.87.87.87.87-.87-.87-.87ZM65.51,12.47l-.87.87.87.87.87-.87-.87-.87ZM63.7,10.66l-.87.87.87.87.87-.87-.87-.87ZM61.88,8.84l-.87.87.87.87.87-.87-.87-.87ZM60.07,7.03l-.87.87.87.87.87-.87-.87-.87ZM58.25,5.22l-.87.87.87.87.87-.87-.87-.87ZM65.51,8.84l-.87.87.87.87.87-.87-.87-.87ZM63.7,7.03l-.87.87.87.87.87-.87-.87-.87ZM61.88,5.22l-.87.87.87.87.87-.87-.87-.87ZM60.07,3.4l-.87.87.87.87.87-.87-.87-.87ZM65.51,5.22l-.87.87.87.87.87-.87-.87-.87ZM63.7,3.4l-.87.87.87.87.87-.87-.87-.87ZM65.29,3.11c-.85-.02-1.91-.03-3.19,0l-.22.22-.21-.21c-1.01.03-2.14.08-3.39.17l-.03.03-.03-.03c-.56.04-1.13.09-1.74.15l.82.82-.87.87-.87-.87.81-.81c-.99.09-2.04.21-3.15.36l.45.45-.87.87-.87-.87.32-.32c-.62.09-1.26.18-1.92.29l-.3.05-.86.86-.61-.6c-.97.17-1.97.36-2.99.57l-.03.03-.02-.02c-.51.1-1.03.21-1.55.33l.63.63-.87.87-.87-.87.5-.5c-.81.18-1.63.37-2.45.57l-.81.81-.49-.49c-1.45.36-2.91.75-4.34,1.17l.26.26-.87.87-.74-.74c-1.42.43-2.82.87-4.17,1.34l.34.34-.87.87-.76-.76c-.92.33-1.8.67-2.66,1.02-.44.18-.87.36-1.29.54l.13.13-.87.87-.47-.47c-.43.2-.86.4-1.27.61l.8.8-.87.87-.87-.87.65-.65c-1.65.83-3.14,1.7-4.49,2.61l-.72.72-.13-.13c-.37.26-.73.53-1.08.8l.27.27-.87.87-.36-.36c-.34.29-.68.58-1,.88l.42.42-.87.87-.45-.45c-.32.31-.63.63-.92.96l.43.43-.87.87h0s0,1.89,0,1.89h0s.87.87.87.87l-.87.87h0s0,1.89,0,1.89h0s.87.87.87.87l-.87.87h0s0,1.89,0,1.89h0s.85.84.85.84h1.93l.85-.85.85.85h1.93l.85-.85.85.85h1.93l.85-.85.85.85h1.93l.85-.85.85.85h1.93l.85-.85.85.85h1.93l.85-.85.85.85h1.93l.85-.85.85.85h1.93l.85-.85.85.85h1.93l.85-.85.85.85h1.93l.85-.85.85.85h1.93l.85-.85.85.85h1.93l.85-.85.85.85h1.93l.85-.85.85.85h1.93l.85-.85.85.85h1.93l.85-.85.85.85h.97v-.92l-.87-.87.87-.87v-1.88l-.87-.87.87-.87v-1.88l-.87-.87.87-.87v-1.88h0s-.87-.87-.87-.87l.87-.87h0s0-1.88,0-1.88h0s-.87-.87-.87-.87l.87-.87h0v-1.88l-.87-.87.87-.87v-1.88l-.87-.87.87-.87v-1.88l-.87-.87.87-.87v-.19c-.55-.06-1.12-.08-1.6-.09l-.21.21-.22-.22Z" data-part="mesh"></path>
      <path class="cls-9" d="M69.16,88.43l-.87.87.87.87.87-.87-.87-.87ZM67.35,86.61l-.87.87.87.87.87-.87-.87-.87ZM72.79,88.43l-.87.87.87.87.87-.87-.87-.87ZM70.98,86.61l-.87.87.87.87.87-.87-.87-.87ZM69.16,84.8l-.87.87.87.87.87-.87-.87-.87ZM67.35,82.99l-.87.87.87.87.87-.87-.87-.87ZM76.42,88.43l-.87.87.87.87.87-.87-.87-.87ZM74.6,86.61l-.87.87.87.87.87-.87-.87-.87ZM72.79,84.8l-.87.87.87.87.87-.87-.87-.87ZM70.97,82.99l-.87.87.87.87.87-.87-.87-.87ZM69.16,81.17l-.87.87.87.87.87-.87-.87-.87ZM67.35,79.36l-.87.87.87.87.87-.87-.87-.87ZM80.05,88.43l-.87.87.87.87.87-.87-.87-.87ZM78.23,86.61l-.87.87.87.87.87-.87-.87-.87ZM76.42,84.8l-.87.87.87.87.87-.87-.87-.87ZM74.6,82.99l-.87.87.87.87.87-.87-.87-.87ZM72.79,81.17l-.87.87.87.87.87-.87-.87-.87ZM70.97,79.36l-.87.87.87.87.87-.87-.87-.87ZM83.67,88.43l-.87.87.87.87.87-.87-.87-.87ZM81.86,86.61l-.87.87.87.87.87-.87-.87-.87ZM80.05,84.8l-.87.87.87.87.87-.87-.87-.87ZM78.23,82.99l-.87.87.87.87.87-.87-.87-.87ZM76.42,81.17l-.87.87.87.87.87-.87-.87-.87ZM74.6,79.36l-.87.87.87.87.87-.87-.87-.87ZM85.49,86.61l-.87.87.87.87.87-.87-.87-.87ZM83.67,84.8l-.87.87.87.87.87-.87-.87-.87ZM81.86,82.99l-.87.87.87.87.87-.87-.87-.87ZM80.05,81.17l-.87.87.87.87.87-.87-.87-.87ZM78.23,79.36l-.87.87.87.87.87-.87-.87-.87ZM89.12,86.61l-.87.87.87.87.87-.87-.87-.87ZM87.3,84.8l-.87.87.87.87.87-.87-.87-.87ZM85.49,82.99l-.87.87.87.87.87-.87-.87-.87ZM83.67,81.17l-.87.87.87.87.87-.87-.87-.87ZM81.86,79.36l-.87.87.87.87.87-.87-.87-.87ZM92.74,86.61l-.87.87.87.87.87-.87-.87-.87ZM90.93,84.8l-.87.87.87.87.87-.87-.87-.87ZM89.12,82.99l-.87.87.87.87.87-.87-.87-.87ZM87.3,81.17l-.87.87.87.87.87-.87-.87-.87ZM85.49,79.36l-.87.87.87.87.87-.87-.87-.87ZM94.56,84.8l-.87.87.87.87.87-.87-.87-.87ZM92.74,82.99l-.87.87.87.87.87-.87-.87-.87ZM90.93,81.17l-.87.87.87.87.87-.87-.87-.87ZM89.12,79.36l-.87.87.87.87.87-.87-.87-.87ZM96.37,82.99l-.87.87.87.87.87-.87-.87-.87ZM94.56,81.17l-.87.87.87.87.87-.87-.87-.87ZM92.74,79.36l-.87.87.87.87.87-.87-.87-.87ZM96.37,79.36l-.87.87.87.87.87-.87-.87-.87ZM65.53,90.66h1.41s.41-.42.41-.42l.41.41,2.84-.02.39-.38.38.38h1.02c.64,0,1.26-.01,1.87-.02l.36-.36.35.35c1.05-.01,2.04-.03,2.98-.06l.3-.29.28.28c1.13-.03,2.18-.07,3.17-.11l.17-.17.16.16c1.97-.08,3.69-.18,5.22-.29l-.81-.81.87-.87.87.87-.8.8c1.18-.08,2.25-.17,3.24-.25l-.55-.55.87-.87.49.49,1.15-.21c1.3-.24,2.07-.28,3.61-.55l-.67-.67.87-.87.87.87-.58.58c.56-.11,1.22-.25,2.02-.43-.01-.48-.03-.9-.05-1.54l-.45.45-.87-.87.87-.87.41.41-.02-.5c-.03-.68-.05-1.39-.08-2.11l-.32.32-.87-.87.87-.87.28.28c-.03-.77-.05-1.55-.07-2.36l-.2.2-.87-.87h-1.88l-.87.87-.87-.87h-1.88l-.87.87-.87-.87h-1.88l-.87.87-.87-.87h0s-1.88,0-1.88,0h0s-.87.87-.87.87l-.87-.87h-1.88l-.87.87-.87-.87h-1.88l-.87.87-.87-.87h-1.88l-.87.87-.87-.87h-1.88l-.87.87-.87-.87h-1.88,0s-.87.87-.87.87h0s0,1.89,0,1.89h0s.87.87.87.87l-.87.87h0s0,1.89,0,1.89h0s.87.87.87.87l-.87.87h0s0,1.89,0,1.89h0s.87.87.87.87l-.87.87h0s0,.49,0,.49Z" data-part="mesh"></path>
      <path class="cls-9" d="M67.35,28.8l-.87.87.87.87.87-.87-.87-.87ZM70.97,28.8l-.87.87.87.87.87-.87-.87-.87ZM69.16,26.99l-.87.87.87.87.87-.87-.87-.87ZM67.35,25.17l-.87.87.87.87.87-.87-.87-.87ZM74.6,28.8l-.87.87.87.87.87-.87-.87-.87ZM72.79,26.99l-.87.87.87.87.87-.87-.87-.87ZM70.97,25.17l-.87.87.87.87.87-.87-.87-.87ZM69.16,23.36l-.87.87.87.87.87-.87-.87-.87ZM67.35,21.54l-.87.87.87.87.87-.87-.87-.87ZM78.23,28.8l-.87.87.87.87.87-.87-.87-.87ZM76.42,26.99l-.87.87.87.87.87-.87-.87-.87ZM74.6,25.17l-.87.87.87.87.87-.87-.87-.87ZM72.79,23.36l-.87.87.87.87.87-.87-.87-.87ZM70.97,21.54l-.87.87.87.87.87-.87-.87-.87ZM69.16,19.73l-.87.87.87.87.87-.87-.87-.87ZM67.35,17.91l-.87.87.87.87.87-.87-.87-.87ZM81.86,28.8l-.87.87.87.87.87-.87-.87-.87ZM80.05,26.99l-.87.87.87.87.87-.87-.87-.87ZM78.23,25.17l-.87.87.87.87.87-.87-.87-.87ZM76.42,23.36l-.87.87.87.87.87-.87-.87-.87ZM74.6,21.54l-.87.87.87.87.87-.87-.87-.87ZM72.79,19.73l-.87.87.87.87.87-.87-.87-.87ZM70.98,17.91l-.87.87.87.87.87-.87-.87-.87ZM69.16,16.1l-.87.87.87.87.87-.87-.87-.87ZM67.35,14.29l-.87.87.87.87.87-.87-.87-.87ZM85.49,28.8l-.87.87.87.87.87-.87-.87-.87ZM83.67,26.99l-.87.87.87.87.87-.87-.87-.87ZM81.86,25.17l-.87.87.87.87.87-.87-.87-.87ZM80.05,23.36l-.87.87.87.87.87-.87-.87-.87ZM78.23,21.54l-.87.87.87.87.87-.87-.87-.87ZM76.42,19.73l-.87.87.87.87.87-.87-.87-.87ZM74.6,17.91l-.87.87.87.87.87-.87-.87-.87ZM72.79,16.1l-.87.87.87.87.87-.87-.87-.87ZM70.98,14.29l-.87.87.87.87.87-.87-.87-.87ZM69.16,12.47l-.87.87.87.87.87-.87-.87-.87ZM67.35,10.66l-.87.87.87.87.87-.87-.87-.87ZM89.12,28.8l-.87.87.87.87.87-.87-.87-.87ZM87.3,26.99l-.87.87.87.87.87-.87-.87-.87ZM85.49,25.17l-.87.87.87.87.87-.87-.87-.87ZM83.67,23.36l-.87.87.87.87.87-.87-.87-.87ZM81.86,21.54l-.87.87.87.87.87-.87-.87-.87ZM80.05,19.73l-.87.87.87.87.87-.87-.87-.87ZM78.23,17.91l-.87.87.87.87.87-.87-.87-.87ZM76.42,16.1l-.87.87.87.87.87-.87-.87-.87ZM74.6,14.29l-.87.87.87.87.87-.87-.87-.87ZM72.79,12.47l-.87.87.87.87.87-.87-.87-.87ZM70.97,10.66l-.87.87.87.87.87-.87-.87-.87ZM69.16,8.84l-.87.87.87.87.87-.87-.87-.87ZM67.35,7.03l-.87.87.87.87.87-.87-.87-.87ZM92.74,28.8l-.87.87.87.87.87-.87-.87-.87ZM90.93,26.99l-.87.87.87.87.87-.87-.87-.87ZM89.12,25.17l-.87.87.87.87.87-.87-.87-.87ZM87.3,23.36l-.87.87.87.87.87-.87-.87-.87ZM85.49,21.54l-.87.87.87.87.87-.87-.87-.87ZM83.67,19.73l-.87.87.87.87.87-.87-.87-.87ZM81.86,17.91l-.87.87.87.87.87-.87-.87-.87ZM80.05,16.1l-.87.87.87.87.87-.87-.87-.87ZM78.23,14.29l-.87.87.87.87.87-.87-.87-.87ZM76.42,12.47l-.87.87.87.87.87-.87-.87-.87ZM74.6,10.66l-.87.87.87.87.87-.87-.87-.87ZM72.79,8.84l-.87.87.87.87.87-.87-.87-.87ZM70.97,7.03l-.87.87.87.87.87-.87-.87-.87ZM69.16,5.22l-.87.87.87.87.87-.87-.87-.87ZM67.35,3.4l-.87.87.87.87.87-.87-.87-.87ZM90.93,23.36l-.87.87.87.87.87-.87-.87-.87ZM89.12,21.54l-.87.87.87.87.87-.87-.87-.87ZM87.3,19.73l-.87.87.87.87.87-.87-.87-.87ZM85.49,17.91l-.87.87.87.87.87-.87-.87-.87ZM83.67,16.1l-.87.87.87.87.87-.87-.87-.87ZM81.86,14.29l-.87.87.87.87.87-.87-.87-.87ZM80.05,12.47l-.87.87.87.87.87-.87-.87-.87ZM78.23,10.66l-.87.87.87.87.87-.87-.87-.87ZM76.42,8.84l-.87.87.87.87.87-.87-.87-.87ZM74.6,7.03l-.87.87.87.87.87-.87-.87-.87ZM72.79,5.22l-.87.87.87.87.87-.87-.87-.87ZM87.3,16.1l-.87.87.87.87.87-.87-.87-.87ZM85.49,14.29l-.87.87.87.87.87-.87-.87-.87ZM83.67,12.47l-.87.87.87.87.87-.87-.87-.87ZM81.86,10.66l-.87.87.87.87.87-.87-.87-.87ZM94.87,30.92c-.22-.94-.45-1.8-.69-2.57l-.49-.49.24-.24c-.03-.08-.06-.17-.09-.25-.14-.37-.28-.74-.43-1.11l-.66.66-.87-.87.87-.87.36.36c-.61-1.44-1.29-2.84-2.05-4.19l-.13.13-.87-.87.36-.36c-.23-.39-.47-.78-.72-1.16l-.58.58-.87-.87.75-.75c-2.35-3.39-5.23-6.41-8.66-8.9l.59.59-.87.87-.87-.87.83-.83c-.37-.26-.74-.51-1.12-.76l-.65.65-.87-.87.45-.45c-.39-.24-.79-.47-1.19-.69l-.2.2-.67-.67c-1.3-.68-2.66-1.29-4.09-1.83l-.69.69-.87-.87.28-.28c-.58-.2-1.18-.39-1.78-.56-.77-.22-1.96-.29-2.85-.31l-.21.21h0s0,1.89,0,1.89h0s.87.87.87.87l-.87.87h0s0,1.89,0,1.89h0s.87.87.87.87l-.87.87h0s0,1.89,0,1.89h0s.87.87.87.87l-.87.87h0s0,1.89,0,1.89h0s.87.87.87.87l-.87.87h0s0,1.89,0,1.89h0s.87.87.87.87l-.87.87h0s0,1.89,0,1.89h0s.87.87.87.87l-.87.87h0s0,1.89,0,1.89h0s.87.87.87.87l-.87.87h0s0,1.89,0,1.89h0s.85.84.85.84h1.93l.85-.85.85.85h1.93l.85-.85.85.85h1.93l.85-.85.85.85h1.93l.85-.85.85.85h1.93l.85-.85.85.85h1.93l.85-.85.85.85h1.93l.85-.85.85.85h1.93l.85-.85.31.31Z" data-part="mesh"></path>
      <path class="cls-9" d="M11.06,63.13l-.87.87.87.87.87-.87-.87-.87ZM1.99,54.06l-.87.87.87.87.87-.87-.87-.87ZM11.06,59.5l-.87.87.87.87.87-.87-.87-.87ZM9.25,57.68l-.87.87.87.87.87-.87-.87-.87ZM7.44,55.87l-.87.87.87.87.87-.87-.87-.87ZM5.62,54.06l-.87.87.87.87.87-.87-.87-.87ZM3.81,52.24l-.87.87.87.87.87-.87-.87-.87ZM1.99,50.43l-.87.87.87.87.87-.87-.87-.87ZM11.06,55.87l-.87.87.87.87.87-.87-.87-.87ZM9.25,54.06l-.87.87.87.87.87-.87-.87-.87ZM7.44,52.24l-.87.87.87.87.87-.87-.87-.87ZM5.62,50.43l-.87.87.87.87.87-.87-.87-.87ZM3.81,48.61l-.87.87.87.87.87-.87-.87-.87ZM11.06,52.24l-.87.87.87.87.87-.87-.87-.87ZM9.25,50.43l-.87.87.87.87.87-.87-.87-.87ZM7.44,48.61l-.87.87.87.87.87-.87-.87-.87ZM5.62,46.8l-.87.87.87.87.87-.87-.87-.87ZM3.81,44.99l-.87.87.87.87.87-.87-.87-.87ZM11.06,48.61l-.87.87.87.87.87-.87-.87-.87ZM9.25,46.8l-.87.87.87.87.87-.87-.87-.87ZM7.44,44.99l-.87.87.87.87.87-.87-.87-.87ZM5.62,43.17l-.87.87.87.87.87-.87-.87-.87ZM3.81,41.36l-.87.87.87.87.87-.87-.87-.87ZM11.06,44.99l-.87.87.87.87.87-.87-.87-.87ZM9.25,43.17l-.87.87.87.87.87-.87-.87-.87ZM7.44,41.36l-.87.87.87.87.87-.87-.87-.87ZM5.62,39.54l-.87.87.87.87.87-.87-.87-.87ZM3.81,37.73l-.87.87.87.87.87-.87-.87-.87ZM11.06,41.36l-.87.87.87.87.87-.87-.87-.87ZM9.25,39.54l-.87.87.87.87.87-.87-.87-.87ZM7.44,37.73l-.87.87.87.87.87-.87-.87-.87ZM5.62,35.92l-.87.87.87.87.87-.87-.87-.87ZM11.06,37.73l-.87.87.87.87.87-.87-.87-.87ZM9.25,35.92l-.87.87.87.87.87-.87-.87-.87ZM7.44,34.1l-.87.87.87.87.87-.87-.87-.87ZM5.62,32.29l-.87.87.87.87.87-.87-.87-.87ZM11.06,34.1l-.87.87.87.87.87-.87-.87-.87ZM9.25,32.29l-.87.87.87.87.87-.87-.87-.87ZM3.8,32.21c-.29.85-.51,1.7-.63,2.53l.64-.64.87.87-.87.87-.69-.69-.62,4.88.38.38-.49.49-.3,2.35.79.79-.87.87-.11-.11-.31,2.42.42-.42.87.87-.87.87-.53-.52-.62,4.88.21.21-.27.27-.35,2.74.62.62-.51.51c.51.02,1.76-.03,3.22.32l-.83-.83.87-.87.87.87-.85.85c.46.11.93.27,1.41.47l.38-.38.87.87-.11.11c.65.41,1.29.95,1.87,1.65l.05.05h0c.27.34.53.71.77,1.11l.17-.17.87.87-.46.46c.52,1.18.91,2.63,1.11,4.4l.28-.28.87.87-.87.87-.17-.17c.02.32.03.66.04,1,0,.41.02.79.03,1.16l.1-.1.87.87-.87.87-.05-.05c.03.73.06,1.38.09,1.97l.84.84-.75.75c.05.84.09,1.55.11,2.23l.62.62h.97v-.92l-.87-.87.87-.87v-1.88l-.87-.87.87-.87v-1.88l-.87-.87.87-.87v-1.88h0s-.87-.87-.87-.87l.87-.87h0s0-1.88,0-1.88l-.87-.87.87-.87h0s0-1.88,0-1.88l-.87-.87.87-.87v-1.88l-.87-.87.87-.87v-1.88l-.87-.87.87-.87v-1.88l-.87-.87.87-.87v-1.88l-.87-.87.87-.87h0s0-1.88,0-1.88l-.87-.87.87-.87v-1.88l-.87-.87.87-.87v-1.88l-.87-.87.87-.87v-.94h-.94l-.87.87-.87-.87h-1.88l-.87.87-.87-.87h-1.88l-.87.87h-.01Z" data-part="mesh"></path>
      <path class="cls-9" d="M12.9,75.82l-.87.87.87.87.87-.87-.87-.87ZM16.53,75.82l-.87.87.87.87.87-.87-.87-.87ZM14.71,74.01l-.87.87.87.87.87-.87-.87-.87ZM12.9,72.2l-.87.87.87.87.87-.87-.87-.87ZM20.16,75.82l-.87.87.87.87.87-.87-.87-.87ZM18.34,74.01l-.87.87.87.87.87-.87-.87-.87ZM16.53,72.2l-.87.87.87.87.87-.87-.87-.87ZM14.71,70.38l-.87.87.87.87.87-.87-.87-.87ZM12.9,68.57l-.87.87.87.87.87-.87-.87-.87ZM23.79,75.82l-.87.87.87.87.87-.87-.87-.87ZM21.97,74.01l-.87.87.87.87.87-.87-.87-.87ZM20.16,72.2l-.87.87.87.87.87-.87-.87-.87ZM18.34,70.38l-.87.87.87.87.87-.87-.87-.87ZM16.53,68.57l-.87.87.87.87.87-.87-.87-.87ZM14.72,66.75l-.87.87.87.87.87-.87-.87-.87ZM12.9,64.94l-.87.87.87.87.87-.87-.87-.87ZM27.41,75.82l-.87.87.87.87.87-.87-.87-.87ZM25.6,74.01l-.87.87.87.87.87-.87-.87-.87ZM23.79,72.2l-.87.87.87.87.87-.87-.87-.87ZM21.97,70.38l-.87.87.87.87.87-.87-.87-.87ZM20.16,68.57l-.87.87.87.87.87-.87-.87-.87ZM18.34,66.75l-.87.87.87.87.87-.87-.87-.87ZM16.53,64.94l-.87.87.87.87.87-.87-.87-.87ZM14.72,63.13l-.87.87.87.87.87-.87-.87-.87ZM12.9,61.31l-.87.87.87.87.87-.87-.87-.87ZM31.04,75.82l-.87.87.87.87.87-.87-.87-.87ZM29.23,74.01l-.87.87.87.87.87-.87-.87-.87ZM27.41,72.2l-.87.87.87.87.87-.87-.87-.87ZM25.6,70.38l-.87.87.87.87.87-.87-.87-.87ZM23.79,68.57l-.87.87.87.87.87-.87-.87-.87ZM21.97,66.75l-.87.87.87.87.87-.87-.87-.87ZM20.16,64.94l-.87.87.87.87.87-.87-.87-.87ZM18.34,63.13l-.87.87.87.87.87-.87-.87-.87ZM16.53,61.31l-.87.87.87.87.87-.87-.87-.87ZM14.72,59.5l-.87.87.87.87.87-.87-.87-.87ZM12.9,57.68l-.87.87.87.87.87-.87-.87-.87ZM34.67,75.82l-.87.87.87.87.87-.87-.87-.87ZM32.86,74.01l-.87.87.87.87.87-.87-.87-.87ZM31.04,72.2l-.87.87.87.87.87-.87-.87-.87ZM29.23,70.38l-.87.87.87.87.87-.87-.87-.87ZM27.41,68.57l-.87.87.87.87.87-.87-.87-.87ZM25.6,66.75l-.87.87.87.87.87-.87-.87-.87ZM23.79,64.94l-.87.87.87.87.87-.87-.87-.87ZM21.97,63.13l-.87.87.87.87.87-.87-.87-.87ZM20.16,61.31l-.87.87.87.87.87-.87-.87-.87ZM18.34,59.5l-.87.87.87.87.87-.87-.87-.87ZM16.53,57.68l-.87.87.87.87.87-.87-.87-.87ZM14.71,55.87l-.87.87.87.87.87-.87-.87-.87ZM12.9,54.06l-.87.87.87.87.87-.87-.87-.87ZM38.3,75.82l-.87.87.87.87.87-.87-.87-.87ZM36.48,74.01l-.87.87.87.87.87-.87-.87-.87ZM34.67,72.2l-.87.87.87.87.87-.87-.87-.87ZM32.86,70.38l-.87.87.87.87.87-.87-.87-.87ZM31.04,68.57l-.87.87.87.87.87-.87-.87-.87ZM29.23,66.75l-.87.87.87.87.87-.87-.87-.87ZM27.41,64.94l-.87.87.87.87.87-.87-.87-.87ZM25.6,63.13l-.87.87.87.87.87-.87-.87-.87ZM23.79,61.31l-.87.87.87.87.87-.87-.87-.87ZM21.97,59.5l-.87.87.87.87.87-.87-.87-.87ZM20.16,57.68l-.87.87.87.87.87-.87-.87-.87ZM18.34,55.87l-.87.87.87.87.87-.87-.87-.87ZM16.53,54.06l-.87.87.87.87.87-.87-.87-.87ZM14.71,52.24l-.87.87.87.87.87-.87-.87-.87ZM12.9,50.43l-.87.87.87.87.87-.87-.87-.87ZM41.93,75.82l-.87.87.87.87.87-.87-.87-.87ZM40.11,74.01l-.87.87.87.87.87-.87-.87-.87ZM38.3,72.2l-.87.87.87.87.87-.87-.87-.87ZM36.48,70.38l-.87.87.87.87.87-.87-.87-.87ZM34.67,68.57l-.87.87.87.87.87-.87-.87-.87ZM32.86,66.75l-.87.87.87.87.87-.87-.87-.87ZM31.04,64.94l-.87.87.87.87.87-.87-.87-.87ZM29.23,63.13l-.87.87.87.87.87-.87-.87-.87ZM27.41,61.31l-.87.87.87.87.87-.87-.87-.87ZM25.6,59.5l-.87.87.87.87.87-.87-.87-.87ZM23.79,57.68l-.87.87.87.87.87-.87-.87-.87ZM21.97,55.87l-.87.87.87.87.87-.87-.87-.87ZM20.16,54.06l-.87.87.87.87.87-.87-.87-.87ZM18.34,52.24l-.87.87.87.87.87-.87-.87-.87ZM16.53,50.43l-.87.87.87.87.87-.87-.87-.87ZM14.72,48.61l-.87.87.87.87.87-.87-.87-.87ZM12.9,46.8l-.87.87.87.87.87-.87-.87-.87ZM45.55,75.82l-.87.87.87.87.87-.87-.87-.87ZM43.74,74.01l-.87.87.87.87.87-.87-.87-.87ZM41.93,72.2l-.87.87.87.87.87-.87-.87-.87ZM40.11,70.38l-.87.87.87.87.87-.87-.87-.87ZM38.3,68.57l-.87.87.87.87.87-.87-.87-.87ZM36.48,66.75l-.87.87.87.87.87-.87-.87-.87ZM34.67,64.94l-.87.87.87.87.87-.87-.87-.87ZM32.86,63.13l-.87.87.87.87.87-.87-.87-.87ZM31.04,61.31l-.87.87.87.87.87-.87-.87-.87ZM29.23,59.5l-.87.87.87.87.87-.87-.87-.87ZM27.41,57.68l-.87.87.87.87.87-.87-.87-.87ZM25.6,55.87l-.87.87.87.87.87-.87-.87-.87ZM23.79,54.06l-.87.87.87.87.87-.87-.87-.87ZM21.97,52.24l-.87.87.87.87.87-.87-.87-.87ZM20.16,50.43l-.87.87.87.87.87-.87-.87-.87ZM18.34,48.61l-.87.87.87.87.87-.87-.87-.87ZM16.53,46.8l-.87.87.87.87.87-.87-.87-.87ZM14.72,44.99l-.87.87.87.87.87-.87-.87-.87ZM12.9,43.17l-.87.87.87.87.87-.87-.87-.87ZM49.18,75.82l-.87.87.87.87.87-.87-.87-.87ZM47.37,74.01l-.87.87.87.87.87-.87-.87-.87ZM45.55,72.2l-.87.87.87.87.87-.87-.87-.87ZM43.74,70.38l-.87.87.87.87.87-.87-.87-.87ZM41.93,68.57l-.87.87.87.87.87-.87-.87-.87ZM40.11,66.75l-.87.87.87.87.87-.87-.87-.87ZM38.3,64.94l-.87.87.87.87.87-.87-.87-.87ZM36.48,63.13l-.87.87.87.87.87-.87-.87-.87ZM34.67,61.31l-.87.87.87.87.87-.87-.87-.87ZM32.86,59.5l-.87.87.87.87.87-.87-.87-.87ZM31.04,57.68l-.87.87.87.87.87-.87-.87-.87ZM29.23,55.87l-.87.87.87.87.87-.87-.87-.87ZM27.41,54.06l-.87.87.87.87.87-.87-.87-.87ZM25.6,52.24l-.87.87.87.87.87-.87-.87-.87ZM23.79,50.43l-.87.87.87.87.87-.87-.87-.87ZM21.97,48.61l-.87.87.87.87.87-.87-.87-.87ZM20.16,46.8l-.87.87.87.87.87-.87-.87-.87ZM18.34,44.99l-.87.87.87.87.87-.87-.87-.87ZM16.53,43.17l-.87.87.87.87.87-.87-.87-.87ZM14.72,41.36l-.87.87.87.87.87-.87-.87-.87ZM12.9,39.54l-.87.87.87.87.87-.87-.87-.87ZM52.81,75.82l-.87.87.87.87.87-.87-.87-.87ZM51,74.01l-.87.87.87.87.87-.87-.87-.87ZM49.18,72.2l-.87.87.87.87.87-.87-.87-.87ZM47.37,70.38l-.87.87.87.87.87-.87-.87-.87ZM45.55,68.57l-.87.87.87.87.87-.87-.87-.87ZM43.74,66.75l-.87.87.87.87.87-.87-.87-.87ZM41.93,64.94l-.87.87.87.87.87-.87-.87-.87ZM40.11,63.13l-.87.87.87.87.87-.87-.87-.87ZM38.3,61.31l-.87.87.87.87.87-.87-.87-.87ZM36.48,59.5l-.87.87.87.87.87-.87-.87-.87ZM34.67,57.68l-.87.87.87.87.87-.87-.87-.87ZM32.86,55.87l-.87.87.87.87.87-.87-.87-.87ZM31.04,54.06l-.87.87.87.87.87-.87-.87-.87ZM29.23,52.24l-.87.87.87.87.87-.87-.87-.87ZM27.41,50.43l-.87.87.87.87.87-.87-.87-.87ZM25.6,48.61l-.87.87.87.87.87-.87-.87-.87ZM23.79,46.8l-.87.87.87.87.87-.87-.87-.87ZM21.97,44.99l-.87.87.87.87.87-.87-.87-.87ZM20.16,43.17l-.87.87.87.87.87-.87-.87-.87ZM18.34,41.36l-.87.87.87.87.87-.87-.87-.87ZM16.53,39.54l-.87.87.87.87.87-.87-.87-.87ZM14.72,37.73l-.87.87.87.87.87-.87-.87-.87ZM12.9,35.91l-.87.87.87.87.87-.87-.87-.87ZM56.44,75.82l-.87.87.87.87.87-.87-.87-.87ZM54.62,74.01l-.87.87.87.87.87-.87-.87-.87ZM52.81,72.2l-.87.87.87.87.87-.87-.87-.87ZM51,70.38l-.87.87.87.87.87-.87-.87-.87ZM49.18,68.57l-.87.87.87.87.87-.87-.87-.87ZM47.37,66.75l-.87.87.87.87.87-.87-.87-.87ZM45.55,64.94l-.87.87.87.87.87-.87-.87-.87ZM43.74,63.13l-.87.87.87.87.87-.87-.87-.87ZM41.93,61.31l-.87.87.87.87.87-.87-.87-.87ZM40.11,59.5l-.87.87.87.87.87-.87-.87-.87ZM38.3,57.68l-.87.87.87.87.87-.87-.87-.87ZM36.48,55.87l-.87.87.87.87.87-.87-.87-.87ZM34.67,54.06l-.87.87.87.87.87-.87-.87-.87ZM32.86,52.24l-.87.87.87.87.87-.87-.87-.87ZM31.04,50.43l-.87.87.87.87.87-.87-.87-.87ZM29.23,48.61l-.87.87.87.87.87-.87-.87-.87ZM27.41,46.8l-.87.87.87.87.87-.87-.87-.87ZM25.6,44.99l-.87.87.87.87.87-.87-.87-.87ZM23.79,43.17l-.87.87.87.87.87-.87-.87-.87ZM21.97,41.36l-.87.87.87.87.87-.87-.87-.87ZM20.16,39.54l-.87.87.87.87.87-.87-.87-.87ZM18.34,37.73l-.87.87.87.87.87-.87-.87-.87ZM16.53,35.92l-.87.87.87.87.87-.87-.87-.87ZM14.71,34.1l-.87.87.87.87.87-.87-.87-.87ZM12.9,32.29l-.87.87.87.87.87-.87-.87-.87ZM60.07,75.82l-.87.87.87.87.87-.87-.87-.87ZM58.25,74.01l-.87.87.87.87.87-.87-.87-.87ZM56.44,72.2l-.87.87.87.87.87-.87-.87-.87ZM54.63,70.38l-.87.87.87.87.87-.87-.87-.87ZM52.81,68.57l-.87.87.87.87.87-.87-.87-.87ZM51,66.75l-.87.87.87.87.87-.87-.87-.87ZM49.18,64.94l-.87.87.87.87.87-.87-.87-.87ZM47.37,63.13l-.87.87.87.87.87-.87-.87-.87ZM45.55,61.31l-.87.87.87.87.87-.87-.87-.87ZM43.74,59.5l-.87.87.87.87.87-.87-.87-.87ZM41.93,57.68l-.87.87.87.87.87-.87-.87-.87ZM40.11,55.87l-.87.87.87.87.87-.87-.87-.87ZM38.3,54.06l-.87.87.87.87.87-.87-.87-.87ZM36.48,52.24l-.87.87.87.87.87-.87-.87-.87ZM34.67,50.43l-.87.87.87.87.87-.87-.87-.87ZM32.86,48.61l-.87.87.87.87.87-.87-.87-.87ZM31.04,46.8l-.87.87.87.87.87-.87-.87-.87ZM29.23,44.99l-.87.87.87.87.87-.87-.87-.87ZM27.41,43.17l-.87.87.87.87.87-.87-.87-.87ZM25.6,41.36l-.87.87.87.87.87-.87-.87-.87ZM23.79,39.54l-.87.87.87.87.87-.87-.87-.87ZM21.97,37.73l-.87.87.87.87.87-.87-.87-.87ZM20.16,35.92l-.87.87.87.87.87-.87-.87-.87ZM18.34,34.1l-.87.87.87.87.87-.87-.87-.87ZM16.53,32.29l-.87.87.87.87.87-.87-.87-.87ZM63.7,75.82l-.87.87.87.87.87-.87-.87-.87ZM61.88,74.01l-.87.87.87.87.87-.87-.87-.87ZM60.07,72.2l-.87.87.87.87.87-.87-.87-.87ZM58.25,70.38l-.87.87.87.87.87-.87-.87-.87ZM56.44,68.57l-.87.87.87.87.87-.87-.87-.87ZM54.63,66.75l-.87.87.87.87.87-.87-.87-.87ZM52.81,64.94l-.87.87.87.87.87-.87-.87-.87ZM51,63.13l-.87.87.87.87.87-.87-.87-.87ZM49.18,61.31l-.87.87.87.87.87-.87-.87-.87ZM47.37,59.5l-.87.87.87.87.87-.87-.87-.87ZM45.55,57.68l-.87.87.87.87.87-.87-.87-.87ZM43.74,55.87l-.87.87.87.87.87-.87-.87-.87ZM41.93,54.06l-.87.87.87.87.87-.87-.87-.87ZM40.11,52.24l-.87.87.87.87.87-.87-.87-.87ZM38.3,50.43l-.87.87.87.87.87-.87-.87-.87ZM36.48,48.61l-.87.87.87.87.87-.87-.87-.87ZM34.67,46.8l-.87.87.87.87.87-.87-.87-.87ZM32.86,44.99l-.87.87.87.87.87-.87-.87-.87ZM31.04,43.17l-.87.87.87.87.87-.87-.87-.87ZM29.23,41.36l-.87.87.87.87.87-.87-.87-.87ZM27.41,39.54l-.87.87.87.87.87-.87-.87-.87ZM25.6,37.73l-.87.87.87.87.87-.87-.87-.87ZM23.79,35.92l-.87.87.87.87.87-.87-.87-.87ZM21.97,34.1l-.87.87.87.87.87-.87-.87-.87ZM20.16,32.29l-.87.87.87.87.87-.87-.87-.87ZM65.51,74.01l-.87.87.87.87.87-.87-.87-.87ZM63.7,72.2l-.87.87.87.87.87-.87-.87-.87ZM61.88,70.38l-.87.87.87.87.87-.87-.87-.87ZM60.07,68.57l-.87.87.87.87.87-.87-.87-.87ZM58.25,66.75l-.87.87.87.87.87-.87-.87-.87ZM56.44,64.94l-.87.87.87.87.87-.87-.87-.87ZM54.63,63.13l-.87.87.87.87.87-.87-.87-.87ZM52.81,61.31l-.87.87.87.87.87-.87-.87-.87ZM51,59.5l-.87.87.87.87.87-.87-.87-.87ZM49.18,57.68l-.87.87.87.87.87-.87-.87-.87ZM47.37,55.87l-.87.87.87.87.87-.87-.87-.87ZM45.55,54.06l-.87.87.87.87.87-.87-.87-.87ZM43.74,52.24l-.87.87.87.87.87-.87-.87-.87ZM41.93,50.43l-.87.87.87.87.87-.87-.87-.87ZM40.11,48.61l-.87.87.87.87.87-.87-.87-.87ZM38.3,46.8l-.87.87.87.87.87-.87-.87-.87ZM36.48,44.99l-.87.87.87.87.87-.87-.87-.87ZM34.67,43.17l-.87.87.87.87.87-.87-.87-.87ZM32.86,41.36l-.87.87.87.87.87-.87-.87-.87ZM31.04,39.54l-.87.87.87.87.87-.87-.87-.87ZM29.23,37.73l-.87.87.87.87.87-.87-.87-.87ZM27.41,35.92l-.87.87.87.87.87-.87-.87-.87ZM25.6,34.1l-.87.87.87.87.87-.87-.87-.87ZM23.79,32.29l-.87.87.87.87.87-.87-.87-.87ZM65.51,70.38l-.87.87.87.87.87-.87-.87-.87ZM63.7,68.57l-.87.87.87.87.87-.87-.87-.87ZM61.88,66.75l-.87.87.87.87.87-.87-.87-.87ZM60.07,64.94l-.87.87.87.87.87-.87-.87-.87ZM58.25,63.13l-.87.87.87.87.87-.87-.87-.87ZM56.44,61.31l-.87.87.87.87.87-.87-.87-.87ZM54.63,59.5l-.87.87.87.87.87-.87-.87-.87ZM52.81,57.68l-.87.87.87.87.87-.87-.87-.87ZM51,55.87l-.87.87.87.87.87-.87-.87-.87ZM49.18,54.06l-.87.87.87.87.87-.87-.87-.87ZM47.37,52.24l-.87.87.87.87.87-.87-.87-.87ZM45.55,50.43l-.87.87.87.87.87-.87-.87-.87ZM43.74,48.61l-.87.87.87.87.87-.87-.87-.87ZM41.93,46.8l-.87.87.87.87.87-.87-.87-.87ZM40.11,44.99l-.87.87.87.87.87-.87-.87-.87ZM38.3,43.17l-.87.87.87.87.87-.87-.87-.87ZM36.48,41.36l-.87.87.87.87.87-.87-.87-.87ZM34.67,39.54l-.87.87.87.87.87-.87-.87-.87ZM32.86,37.73l-.87.87.87.87.87-.87-.87-.87ZM31.04,35.91l-.87.87.87.87.87-.87-.87-.87ZM29.23,34.1l-.87.87.87.87.87-.87-.87-.87ZM27.41,32.29l-.87.87.87.87.87-.87-.87-.87ZM65.51,66.75l-.87.87.87.87.87-.87-.87-.87ZM63.7,64.94l-.87.87.87.87.87-.87-.87-.87ZM61.88,63.13l-.87.87.87.87.87-.87-.87-.87ZM60.07,61.31l-.87.87.87.87.87-.87-.87-.87ZM58.25,59.5l-.87.87.87.87.87-.87-.87-.87ZM56.44,57.68l-.87.87.87.87.87-.87-.87-.87ZM54.63,55.87l-.87.87.87.87.87-.87-.87-.87ZM52.81,54.06l-.87.87.87.87.87-.87-.87-.87ZM51,52.24l-.87.87.87.87.87-.87-.87-.87ZM49.18,50.43l-.87.87.87.87.87-.87-.87-.87ZM47.37,48.61l-.87.87.87.87.87-.87-.87-.87ZM45.55,46.8l-.87.87.87.87.87-.87-.87-.87ZM43.74,44.99l-.87.87.87.87.87-.87-.87-.87ZM41.93,43.17l-.87.87.87.87.87-.87-.87-.87ZM40.11,41.36l-.87.87.87.87.87-.87-.87-.87ZM38.3,39.54l-.87.87.87.87.87-.87-.87-.87ZM36.48,37.73l-.87.87.87.87.87-.87-.87-.87ZM34.67,35.92l-.87.87.87.87.87-.87-.87-.87ZM32.86,34.1l-.87.87.87.87.87-.87-.87-.87ZM31.04,32.29l-.87.87.87.87.87-.87-.87-.87ZM65.51,63.13l-.87.87.87.87.87-.87-.87-.87ZM63.7,61.31l-.87.87.87.87.87-.87-.87-.87ZM61.88,59.5l-.87.87.87.87.87-.87-.87-.87ZM60.07,57.68l-.87.87.87.87.87-.87-.87-.87ZM58.25,55.87l-.87.87.87.87.87-.87-.87-.87ZM56.44,54.06l-.87.87.87.87.87-.87-.87-.87ZM54.62,52.24l-.87.87.87.87.87-.87-.87-.87ZM52.81,50.43l-.87.87.87.87.87-.87-.87-.87ZM51,48.61l-.87.87.87.87.87-.87-.87-.87ZM49.18,46.8l-.87.87.87.87.87-.87-.87-.87ZM47.37,44.99l-.87.87.87.87.87-.87-.87-.87ZM45.55,43.17l-.87.87.87.87.87-.87-.87-.87ZM43.74,41.36l-.87.87.87.87.87-.87-.87-.87ZM41.93,39.54l-.87.87.87.87.87-.87-.87-.87ZM40.11,37.73l-.87.87.87.87.87-.87-.87-.87ZM38.3,35.92l-.87.87.87.87.87-.87-.87-.87ZM36.48,34.1l-.87.87.87.87.87-.87-.87-.87ZM34.67,32.29l-.87.87.87.87.87-.87-.87-.87ZM65.51,59.5l-.87.87.87.87.87-.87-.87-.87ZM63.7,57.68l-.87.87.87.87.87-.87-.87-.87ZM61.88,55.87l-.87.87.87.87.87-.87-.87-.87ZM60.07,54.06l-.87.87.87.87.87-.87-.87-.87ZM58.25,52.24l-.87.87.87.87.87-.87-.87-.87ZM56.44,50.43l-.87.87.87.87.87-.87-.87-.87ZM54.63,48.61l-.87.87.87.87.87-.87-.87-.87ZM52.81,46.8l-.87.87.87.87.87-.87-.87-.87ZM51,44.99l-.87.87.87.87.87-.87-.87-.87ZM49.18,43.17l-.87.87.87.87.87-.87-.87-.87ZM47.37,41.36l-.87.87.87.87.87-.87-.87-.87ZM45.55,39.54l-.87.87.87.87.87-.87-.87-.87ZM43.74,37.73l-.87.87.87.87.87-.87-.87-.87ZM41.93,35.92l-.87.87.87.87.87-.87-.87-.87ZM40.11,34.1l-.87.87.87.87.87-.87-.87-.87ZM38.3,32.29l-.87.87.87.87.87-.87-.87-.87ZM65.51,55.87l-.87.87.87.87.87-.87-.87-.87ZM63.7,54.06l-.87.87.87.87.87-.87-.87-.87ZM61.88,52.24l-.87.87.87.87.87-.87-.87-.87ZM60.07,50.43l-.87.87.87.87.87-.87-.87-.87ZM58.25,48.61l-.87.87.87.87.87-.87-.87-.87ZM56.44,46.8l-.87.87.87.87.87-.87-.87-.87ZM54.63,44.99l-.87.87.87.87.87-.87-.87-.87ZM52.81,43.17l-.87.87.87.87.87-.87-.87-.87ZM51,41.36l-.87.87.87.87.87-.87-.87-.87ZM49.18,39.54l-.87.87.87.87.87-.87-.87-.87ZM47.37,37.73l-.87.87.87.87.87-.87-.87-.87ZM45.55,35.92l-.87.87.87.87.87-.87-.87-.87ZM43.74,34.1l-.87.87.87.87.87-.87-.87-.87ZM41.93,32.29l-.87.87.87.87.87-.87-.87-.87ZM65.51,52.24l-.87.87.87.87.87-.87-.87-.87ZM63.7,50.43l-.87.87.87.87.87-.87-.87-.87ZM61.88,48.61l-.87.87.87.87.87-.87-.87-.87ZM60.07,46.8l-.87.87.87.87.87-.87-.87-.87ZM58.25,44.99l-.87.87.87.87.87-.87-.87-.87ZM56.44,43.17l-.87.87.87.87.87-.87-.87-.87ZM54.63,41.36l-.87.87.87.87.87-.87-.87-.87ZM52.81,39.54l-.87.87.87.87.87-.87-.87-.87ZM51,37.73l-.87.87.87.87.87-.87-.87-.87ZM49.18,35.91l-.87.87.87.87.87-.87-.87-.87ZM47.37,34.1l-.87.87.87.87.87-.87-.87-.87ZM45.55,32.29l-.87.87.87.87.87-.87-.87-.87ZM65.51,48.61l-.87.87.87.87.87-.87-.87-.87ZM63.7,46.8l-.87.87.87.87.87-.87-.87-.87ZM61.88,44.99l-.87.87.87.87.87-.87-.87-.87ZM60.07,43.17l-.87.87.87.87.87-.87-.87-.87ZM58.25,41.36l-.87.87.87.87.87-.87-.87-.87ZM56.44,39.54l-.87.87.87.87.87-.87-.87-.87ZM54.63,37.73l-.87.87.87.87.87-.87-.87-.87ZM52.81,35.91l-.87.87.87.87.87-.87-.87-.87ZM51,34.1l-.87.87.87.87.87-.87-.87-.87ZM49.18,32.29l-.87.87.87.87.87-.87-.87-.87ZM65.51,44.99l-.87.87.87.87.87-.87-.87-.87ZM63.7,43.17l-.87.87.87.87.87-.87-.87-.87ZM61.88,41.36l-.87.87.87.87.87-.87-.87-.87ZM60.07,39.54l-.87.87.87.87.87-.87-.87-.87ZM58.25,37.73l-.87.87.87.87.87-.87-.87-.87ZM56.44,35.92l-.87.87.87.87.87-.87-.87-.87ZM54.63,34.1l-.87.87.87.87.87-.87-.87-.87ZM52.81,32.29l-.87.87.87.87.87-.87-.87-.87ZM65.51,41.36l-.87.87.87.87.87-.87-.87-.87ZM63.7,39.54l-.87.87.87.87.87-.87-.87-.87ZM61.88,37.73l-.87.87.87.87.87-.87-.87-.87ZM60.07,35.92l-.87.87.87.87.87-.87-.87-.87ZM58.25,34.1l-.87.87.87.87.87-.87-.87-.87ZM56.44,32.29l-.87.87.87.87.87-.87-.87-.87ZM65.51,37.73l-.87.87.87.87.87-.87-.87-.87ZM63.7,35.92l-.87.87.87.87.87-.87-.87-.87ZM61.88,34.1l-.87.87.87.87.87-.87-.87-.87ZM60.07,32.29l-.87.87.87.87.87-.87-.87-.87ZM65.51,34.1l-.87.87.87.87.87-.87-.87-.87ZM63.7,32.29l-.87.87.87.87.87-.87-.87-.87ZM11.08,73.65l.02.37.86.86-.77.77c.05.82.09,1.52.1,2.19l.64.64h1.93l.85-.85.85.85h1.93l.85-.85.85.85h1.93l.85-.85.85.85h1.93l.85-.85.85.85h1.93l.85-.85.85.85h1.93l.85-.85.85.85h1.93l.85-.85.85.85h1.93l.85-.85.85.85h1.93l.85-.85.85.85h1.93l.85-.85.85.85h1.93l.85-.85.85.85h1.93l.85-.85.85.85h1.93l.85-.85.85.85h1.93l.85-.85.85.85h1.93l.85-.85.85.85h.97v-.92l-.87-.87.87-.87v-1.88l-.87-.87.87-.87v-1.88l-.87-.87.87-.87v-1.88h0s-.87-.87-.87-.87l.87-.87h0s0-1.88,0-1.88h0l-.87-.87.87-.87h0s0-1.88,0-1.88l-.87-.87.87-.87v-1.88l-.87-.87.87-.87v-1.88l-.87-.87.87-.87v-1.88l-.87-.87.87-.87v-1.88h0l-.87-.87.87-.87h0s0-1.88,0-1.88h0l-.87-.87.87-.87h0v-1.88l-.87-.87.87-.87v-1.88l-.87-.87.87-.87v-.94h-.94l-.87.87-.87-.87h-1.88l-.87.87-.87-.87h-1.88l-.87.87-.87-.87h-1.88l-.87.87-.87-.87h-1.88,0s-.87.87-.87.87l-.87-.87h-1.88l-.87.87-.87-.87h-1.88l-.87.87-.87-.87h-1.88l-.87.87-.87-.87h-1.88l-.87.87-.87-.87h-1.88l-.87.87-.87-.87h0s-1.88,0-1.88,0h0s-.87.87-.87.87l-.87-.87h-1.88l-.87.87-.87-.87h-1.88l-.87.87-.87-.87h-1.88l-.87.87-.87-.87h-1.88l-.87.87-.87-.87h-1.88,0s-.87.87-.87.87h0s0,1.89,0,1.89h0s.87.87.87.87l-.87.87h0s0,1.89,0,1.89h0s.87.87.87.87l-.87.87h0s0,1.89,0,1.89h0s.87.87.87.87l-.87.87h0s0,1.89,0,1.89h0s.87.87.87.87l-.87.87h0s0,1.89,0,1.89h0s.87.87.87.87l-.87.87h0s0,1.89,0,1.89h0s.87.87.87.87l-.87.87h0s0,1.89,0,1.89h0s.87.87.87.87l-.87.87h0s0,1.89,0,1.89h0s.87.87.87.87l-.87.87h0s0,1.89,0,1.89h0s.87.87.87.87l-.87.87h0s0,1.89,0,1.89h0s.87.87.87.87l-.87.87h0s0,1.89,0,1.89h0s.87.87.87.87l-.87.87h0s0,1.52,0,1.52Z" data-part="mesh"></path>
      <path class="cls-9" d="M67.35,75.82l-.87.87.87.87.87-.87-.87-.87ZM70.97,75.82l-.87.87.87.87.87-.87-.87-.87ZM69.16,74.01l-.87.87.87.87.87-.87-.87-.87ZM67.35,72.2l-.87.87.87.87.87-.87-.87-.87ZM74.6,75.82l-.87.87.87.87.87-.87-.87-.87ZM72.79,74.01l-.87.87.87.87.87-.87-.87-.87ZM70.97,72.2l-.87.87.87.87.87-.87-.87-.87ZM69.16,70.38l-.87.87.87.87.87-.87-.87-.87ZM67.35,68.57l-.87.87.87.87.87-.87-.87-.87ZM78.23,75.82l-.87.87.87.87.87-.87-.87-.87ZM76.42,74.01l-.87.87.87.87.87-.87-.87-.87ZM74.6,72.2l-.87.87.87.87.87-.87-.87-.87ZM72.79,70.38l-.87.87.87.87.87-.87-.87-.87ZM70.97,68.57l-.87.87.87.87.87-.87-.87-.87ZM69.16,66.75l-.87.87.87.87.87-.87-.87-.87ZM67.35,64.94l-.87.87.87.87.87-.87-.87-.87ZM81.86,75.82l-.87.87.87.87.87-.87-.87-.87ZM80.05,74.01l-.87.87.87.87.87-.87-.87-.87ZM78.23,72.2l-.87.87.87.87.87-.87-.87-.87ZM76.42,70.38l-.87.87.87.87.87-.87-.87-.87ZM74.6,68.57l-.87.87.87.87.87-.87-.87-.87ZM72.79,66.75l-.87.87.87.87.87-.87-.87-.87ZM70.98,64.94l-.87.87.87.87.87-.87-.87-.87ZM69.16,63.13l-.87.87.87.87.87-.87-.87-.87ZM67.35,61.31l-.87.87.87.87.87-.87-.87-.87ZM85.49,75.82l-.87.87.87.87.87-.87-.87-.87ZM83.67,74.01l-.87.87.87.87.87-.87-.87-.87ZM81.86,72.2l-.87.87.87.87.87-.87-.87-.87ZM80.05,70.38l-.87.87.87.87.87-.87-.87-.87ZM78.23,68.57l-.87.87.87.87.87-.87-.87-.87ZM76.42,66.75l-.87.87.87.87.87-.87-.87-.87ZM74.6,64.94l-.87.87.87.87.87-.87-.87-.87ZM72.79,63.13l-.87.87.87.87.87-.87-.87-.87ZM70.98,61.31l-.87.87.87.87.87-.87-.87-.87ZM69.16,59.5l-.87.87.87.87.87-.87-.87-.87ZM67.35,57.68l-.87.87.87.87.87-.87-.87-.87ZM89.12,75.82l-.87.87.87.87.87-.87-.87-.87ZM87.3,74.01l-.87.87.87.87.87-.87-.87-.87ZM85.49,72.2l-.87.87.87.87.87-.87-.87-.87ZM83.67,70.38l-.87.87.87.87.87-.87-.87-.87ZM81.86,68.57l-.87.87.87.87.87-.87-.87-.87ZM80.05,66.75l-.87.87.87.87.87-.87-.87-.87ZM78.23,64.94l-.87.87.87.87.87-.87-.87-.87ZM76.42,63.13l-.87.87.87.87.87-.87-.87-.87ZM74.6,61.31l-.87.87.87.87.87-.87-.87-.87ZM72.79,59.5l-.87.87.87.87.87-.87-.87-.87ZM70.97,57.68l-.87.87.87.87.87-.87-.87-.87ZM69.16,55.87l-.87.87.87.87.87-.87-.87-.87ZM67.35,54.06l-.87.87.87.87.87-.87-.87-.87ZM92.74,75.82l-.87.87.87.87.87-.87-.87-.87ZM90.93,74.01l-.87.87.87.87.87-.87-.87-.87ZM89.12,72.2l-.87.87.87.87.87-.87-.87-.87ZM87.3,70.38l-.87.87.87.87.87-.87-.87-.87ZM85.49,68.57l-.87.87.87.87.87-.87-.87-.87ZM83.67,66.75l-.87.87.87.87.87-.87-.87-.87ZM81.86,64.94l-.87.87.87.87.87-.87-.87-.87ZM80.05,63.13l-.87.87.87.87.87-.87-.87-.87ZM78.23,61.31l-.87.87.87.87.87-.87-.87-.87ZM76.42,59.5l-.87.87.87.87.87-.87-.87-.87ZM74.6,57.68l-.87.87.87.87.87-.87-.87-.87ZM72.79,55.87l-.87.87.87.87.87-.87-.87-.87ZM70.97,54.06l-.87.87.87.87.87-.87-.87-.87ZM69.16,52.24l-.87.87.87.87.87-.87-.87-.87ZM67.35,50.43l-.87.87.87.87.87-.87-.87-.87ZM96.37,75.82l-.87.87.87.87.87-.87-.87-.87ZM94.56,74.01l-.87.87.87.87.87-.87-.87-.87ZM92.74,72.2l-.87.87.87.87.87-.87-.87-.87ZM90.93,70.38l-.87.87.87.87.87-.87-.87-.87ZM89.12,68.57l-.87.87.87.87.87-.87-.87-.87ZM87.3,66.75l-.87.87.87.87.87-.87-.87-.87ZM85.49,64.94l-.87.87.87.87.87-.87-.87-.87ZM83.67,63.13l-.87.87.87.87.87-.87-.87-.87ZM81.86,61.31l-.87.87.87.87.87-.87-.87-.87ZM80.05,59.5l-.87.87.87.87.87-.87-.87-.87ZM78.23,57.68l-.87.87.87.87.87-.87-.87-.87ZM76.42,55.87l-.87.87.87.87.87-.87-.87-.87ZM74.6,54.06l-.87.87.87.87.87-.87-.87-.87ZM72.79,52.24l-.87.87.87.87.87-.87-.87-.87ZM70.97,50.43l-.87.87.87.87.87-.87-.87-.87ZM69.16,48.61l-.87.87.87.87.87-.87-.87-.87ZM67.35,46.8l-.87.87.87.87.87-.87-.87-.87ZM96.37,72.2l-.87.87.87.87.87-.87-.87-.87ZM94.56,70.38l-.87.87.87.87.87-.87-.87-.87ZM92.74,68.57l-.87.87.87.87.87-.87-.87-.87ZM90.93,66.75l-.87.87.87.87.87-.87-.87-.87ZM89.12,64.94l-.87.87.87.87.87-.87-.87-.87ZM87.3,63.13l-.87.87.87.87.87-.87-.87-.87ZM85.49,61.31l-.87.87.87.87.87-.87-.87-.87ZM83.67,59.5l-.87.87.87.87.87-.87-.87-.87ZM81.86,57.68l-.87.87.87.87.87-.87-.87-.87ZM80.05,55.87l-.87.87.87.87.87-.87-.87-.87ZM78.23,54.06l-.87.87.87.87.87-.87-.87-.87ZM76.42,52.24l-.87.87.87.87.87-.87-.87-.87ZM74.6,50.43l-.87.87.87.87.87-.87-.87-.87ZM72.79,48.61l-.87.87.87.87.87-.87-.87-.87ZM70.98,46.8l-.87.87.87.87.87-.87-.87-.87ZM69.16,44.99l-.87.87.87.87.87-.87-.87-.87ZM67.35,43.17l-.87.87.87.87.87-.87-.87-.87ZM96.37,68.57l-.87.87.87.87.87-.87-.87-.87ZM94.56,66.75l-.87.87.87.87.87-.87-.87-.87ZM92.74,64.94l-.87.87.87.87.87-.87-.87-.87ZM90.93,63.13l-.87.87.87.87.87-.87-.87-.87ZM89.12,61.31l-.87.87.87.87.87-.87-.87-.87ZM87.3,59.5l-.87.87.87.87.87-.87-.87-.87ZM85.49,57.68l-.87.87.87.87.87-.87-.87-.87ZM83.67,55.87l-.87.87.87.87.87-.87-.87-.87ZM81.86,54.06l-.87.87.87.87.87-.87-.87-.87ZM80.05,52.24l-.87.87.87.87.87-.87-.87-.87ZM78.23,50.43l-.87.87.87.87.87-.87-.87-.87ZM76.42,48.61l-.87.87.87.87.87-.87-.87-.87ZM74.6,46.8l-.87.87.87.87.87-.87-.87-.87ZM72.79,44.99l-.87.87.87.87.87-.87-.87-.87ZM70.98,43.17l-.87.87.87.87.87-.87-.87-.87ZM69.16,41.36l-.87.87.87.87.87-.87-.87-.87ZM67.35,39.54l-.87.87.87.87.87-.87-.87-.87ZM96.37,64.94l-.87.87.87.87.87-.87-.87-.87ZM94.56,63.13l-.87.87.87.87.87-.87-.87-.87ZM92.74,61.31l-.87.87.87.87.87-.87-.87-.87ZM90.93,59.5l-.87.87.87.87.87-.87-.87-.87ZM89.12,57.68l-.87.87.87.87.87-.87-.87-.87ZM87.3,55.87l-.87.87.87.87.87-.87-.87-.87ZM85.49,54.06l-.87.87.87.87.87-.87-.87-.87ZM83.67,52.24l-.87.87.87.87.87-.87-.87-.87ZM81.86,50.43l-.87.87.87.87.87-.87-.87-.87ZM80.05,48.61l-.87.87.87.87.87-.87-.87-.87ZM78.23,46.8l-.87.87.87.87.87-.87-.87-.87ZM76.42,44.99l-.87.87.87.87.87-.87-.87-.87ZM74.6,43.17l-.87.87.87.87.87-.87-.87-.87ZM72.79,41.36l-.87.87.87.87.87-.87-.87-.87ZM70.98,39.54l-.87.87.87.87.87-.87-.87-.87ZM69.16,37.73l-.87.87.87.87.87-.87-.87-.87ZM67.35,35.91l-.87.87.87.87.87-.87-.87-.87ZM96.37,61.31l-.87.87.87.87.87-.87-.87-.87ZM94.56,59.5l-.87.87.87.87.87-.87-.87-.87ZM92.74,57.68l-.87.87.87.87.87-.87-.87-.87ZM90.93,55.87l-.87.87.87.87.87-.87-.87-.87ZM89.12,54.06l-.87.87.87.87.87-.87-.87-.87ZM87.3,52.24l-.87.87.87.87.87-.87-.87-.87ZM85.49,50.43l-.87.87.87.87.87-.87-.87-.87ZM83.67,48.61l-.87.87.87.87.87-.87-.87-.87ZM81.86,46.8l-.87.87.87.87.87-.87-.87-.87ZM80.05,44.99l-.87.87.87.87.87-.87-.87-.87ZM78.23,43.17l-.87.87.87.87.87-.87-.87-.87ZM76.42,41.36l-.87.87.87.87.87-.87-.87-.87ZM74.6,39.54l-.87.87.87.87.87-.87-.87-.87ZM72.79,37.73l-.87.87.87.87.87-.87-.87-.87ZM70.97,35.92l-.87.87.87.87.87-.87-.87-.87ZM69.16,34.1l-.87.87.87.87.87-.87-.87-.87ZM67.35,32.29l-.87.87.87.87.87-.87-.87-.87ZM96.37,57.68l-.87.87.87.87.87-.87-.87-.87ZM94.56,55.87l-.87.87.87.87.87-.87-.87-.87ZM92.74,54.06l-.87.87.87.87.87-.87-.87-.87ZM90.93,52.24l-.87.87.87.87.87-.87-.87-.87ZM89.12,50.43l-.87.87.87.87.87-.87-.87-.87ZM87.3,48.61l-.87.87.87.87.87-.87-.87-.87ZM85.49,46.8l-.87.87.87.87.87-.87-.87-.87ZM83.67,44.99l-.87.87.87.87.87-.87-.87-.87ZM81.86,43.17l-.87.87.87.87.87-.87-.87-.87ZM80.05,41.36l-.87.87.87.87.87-.87-.87-.87ZM78.23,39.54l-.87.87.87.87.87-.87-.87-.87ZM76.42,37.73l-.87.87.87.87.87-.87-.87-.87ZM74.6,35.92l-.87.87.87.87.87-.87-.87-.87ZM72.79,34.1l-.87.87.87.87.87-.87-.87-.87ZM70.97,32.29l-.87.87.87.87.87-.87-.87-.87ZM96.37,54.06l-.87.87.87.87.87-.87-.87-.87ZM94.56,52.24l-.87.87.87.87.87-.87-.87-.87ZM92.74,50.43l-.87.87.87.87.87-.87-.87-.87ZM90.93,48.61l-.87.87.87.87.87-.87-.87-.87ZM89.12,46.8l-.87.87.87.87.87-.87-.87-.87ZM87.3,44.99l-.87.87.87.87.87-.87-.87-.87ZM85.49,43.17l-.87.87.87.87.87-.87-.87-.87ZM83.67,41.36l-.87.87.87.87.87-.87-.87-.87ZM81.86,39.54l-.87.87.87.87.87-.87-.87-.87ZM80.05,37.73l-.87.87.87.87.87-.87-.87-.87ZM78.23,35.92l-.87.87.87.87.87-.87-.87-.87ZM76.42,34.1l-.87.87.87.87.87-.87-.87-.87ZM74.6,32.29l-.87.87.87.87.87-.87-.87-.87ZM96.37,50.43l-.87.87.87.87.87-.87-.87-.87ZM94.56,48.61l-.87.87.87.87.87-.87-.87-.87ZM92.74,46.8l-.87.87.87.87.87-.87-.87-.87ZM90.93,44.99l-.87.87.87.87.87-.87-.87-.87ZM89.12,43.17l-.87.87.87.87.87-.87-.87-.87ZM87.3,41.36l-.87.87.87.87.87-.87-.87-.87ZM85.49,39.54l-.87.87.87.87.87-.87-.87-.87ZM83.67,37.73l-.87.87.87.87.87-.87-.87-.87ZM81.86,35.92l-.87.87.87.87.87-.87-.87-.87ZM80.05,34.1l-.87.87.87.87.87-.87-.87-.87ZM78.23,32.29l-.87.87.87.87.87-.87-.87-.87ZM94.56,44.99l-.87.87.87.87.87-.87-.87-.87ZM92.74,43.17l-.87.87.87.87.87-.87-.87-.87ZM90.93,41.36l-.87.87.87.87.87-.87-.87-.87ZM89.12,39.54l-.87.87.87.87.87-.87-.87-.87ZM87.3,37.73l-.87.87.87.87.87-.87-.87-.87ZM85.49,35.91l-.87.87.87.87.87-.87-.87-.87ZM83.67,34.1l-.87.87.87.87.87-.87-.87-.87ZM81.86,32.29l-.87.87.87.87.87-.87-.87-.87ZM94.56,41.36l-.87.87.87.87.87-.87-.87-.87ZM92.74,39.54l-.87.87.87.87.87-.87-.87-.87ZM90.93,37.73l-.87.87.87.87.87-.87-.87-.87ZM89.12,35.92l-.87.87.87.87.87-.87-.87-.87ZM87.3,34.1l-.87.87.87.87.87-.87-.87-.87ZM85.49,32.29l-.87.87.87.87.87-.87-.87-.87ZM94.56,37.73l-.87.87.87.87.87-.87-.87-.87ZM92.74,35.92l-.87.87.87.87.87-.87-.87-.87ZM90.93,34.1l-.87.87.87.87.87-.87-.87-.87ZM89.12,32.29l-.87.87.87.87.87-.87-.87-.87ZM94.56,34.1l-.87.87.87.87.87-.87-.87-.87ZM92.74,32.29l-.87.87.87.87.87-.87-.87-.87ZM98.35,77.8l-.06-2.15-.1.1-.87-.87.87-.87.05.05-.06-1.94-.87-.87.82-.82c-.02-.68-.04-1.37-.07-2.06l-.75-.75.7-.7c-.03-.77-.05-1.54-.08-2.31l-.62-.62.57-.57c-.03-.86-.07-1.72-.1-2.59l-.47-.47.43-.43c-.04-.97-.09-1.94-.13-2.9l-.3-.3.27-.27c-.06-1.09-.11-2.19-.18-3.27l-.09-.09.08-.08c-.1-1.75-.22-3.48-.34-5.17l-.68.68-.87-.87.87-.87.65.65c-.08-.99-.16-1.97-.24-2.94l-.41.41-.87-.87.87-.87.31.31c-.07-.77-.15-1.54-.23-2.28l-.09.09-.87-.87.78-.78c-.09-.81-.19-1.59-.3-2.36l-.49-.49.37-.37c-.25-1.69-.52-3.27-.82-4.69l-.49.49-.87-.87h-1.88l-.87.87-.87-.87h-1.88l-.87.87-.87-.87h0s-1.88,0-1.88,0h0s-.87.87-.87.87l-.87-.87h-1.88l-.87.87-.87-.87h-1.88l-.87.87-.87-.87h-1.88l-.87.87-.87-.87h-1.88l-.87.87-.87-.87h-1.88,0s-.87.87-.87.87h0s0,1.89,0,1.89h0s.87.87.87.87l-.87.87h0s0,1.89,0,1.89h0s.87.87.87.87l-.87.87h0s0,1.89,0,1.89h0s.87.87.87.87l-.87.87h0s0,1.89,0,1.89h0s.87.87.87.87l-.87.87h0s0,1.89,0,1.89h0s.87.87.87.87l-.87.87h0s0,1.89,0,1.89h0s.87.87.87.87l-.87.87h0s0,1.89,0,1.89h0s.87.87.87.87l-.87.87h0s0,1.89,0,1.89h0s.87.87.87.87l-.87.87h0s0,1.89,0,1.89h0s.87.87.87.87l-.87.87h0s0,1.89,0,1.89h0s.87.87.87.87l-.87.87h0s0,1.89,0,1.89h0s.87.87.87.87l-.87.87h0s0,1.89,0,1.89h0s.87.87.87.87l-.87.87h0s0,1.89,0,1.89h0s.85.84.85.84h1.93l.85-.85.85.85h1.93l.85-.85.85.85h1.93l.85-.85.85.85h1.93l.85-.85.85.85h1.93l.85-.85.85.85h1.93l.85-.85.85.85h1.93l.85-.85.85.85h1.93l.85-.85.85.85h1.93l.85-.85.16.16Z" data-part="mesh"></path>
      <path class="cls-7" d="M54.63,3.77v.72c.88-.07,1.98-.51,2.89-.72v-.72c-.88.07-1.98.51-2.89.72" data-part="mesh"></path>
      <rect class="cls-10" x="94.67" y="52.01" width=".72" height="3.14" data-part="crown"></rect>
      <path class="cls-7" d="M33.89,22.82c1.18-.1,1.68-1.58,1.93-2.65-1.18.1-1.68,1.58-1.93,2.65" data-part="mesh"></path>
      <path class="cls-7" d="M26.66,84.81c1.06-.28.72-.05.72-3.14-1.06.28-.72.05-.72,3.14" data-part="mesh"></path>
      <polygon class="cls-7" points="34.09 38.01 34.86 38.02 35.14 35.13 34.37 35.12 34.09 38.01" data-part="mesh"></polygon>
      <path class="cls-7" d="M28.1,55.38v.96h.72v-1.21c0-1.41.84-1.57-.48-1.93-.02,1.09-.24.96-.24,2.17" data-part="mesh"></path>
      <path class="cls-7" d="M95.15,71.54c0,.67.19.58.72.72v-3.14h-.72v2.41Z" data-part="brim"></path>
      <path class="cls-7" d="M100.46,66.72c0,.67.19.58.72.72v-3.14h-.72v2.41Z" data-part="crown"></path>
      <path class="cls-7" d="M101.18,78.78h.72v-2.41c0-.67-.19-.58-.72-.72v3.14Z" data-part="brim"></path>
      <path class="cls-7" d="M31.96,81.19v2.41h.72v-3.14c-.54.14-.72.06-.72.72" data-part="mesh"></path>
      <path class="cls-7" d="M27.38,73.47c.54-.14.72-.06.72-.72v-2.41h-.72v3.14Z" data-part="mesh"></path>
      <path class="cls-7" d="M93.95,22.58h.72c-.08-1.01-.2-.84-.62-1.55-.55-.93-.14-1-1.31-1.1.28,1.21.89,1.32,1.21,2.65" data-part="crown"></path>
      <path class="cls-7" d="M33.41,43.8c1.06-.28.62-.07.75-1.18.09-.78.22-1.05.22-1.95h-.72c0,1.2-.24,1.67-.24,3.14" data-part="mesh"></path>
      <path class="cls-7" d="M83.09,9.56c.92,0,.09.07.72-.24-.18-.25-2-1.9-2.39-1.77-1.04.36,1.66,2.01,1.66,2.01" data-part="mesh"></path>
      <path class="cls-7" d="M60.66,4.49c.65-.15,1.03-.31,1.66-.51,1.01-.32.97.02,1.23-.94-.65-.27-.8-.01-1.62.31-1.07.42-1.16.08-1.28,1.14" data-part="mesh"></path>
      <path class="cls-7" d="M91.78,26.92c-.27-1.16-.7-1.74-.96-2.89-1.18.31-.68.49-.29,1.48.63,1.56.4,1.32,1.25,1.41" data-part="crown"></path>
      <path class="cls-7" d="M92.5,32.47h.72c-.03-1.21-.46-1.69-.48-2.89h-.72c.02,1.1.4,1.86.48,2.89" data-part="crown"></path>
      <path class="cls-7" d="M99.98,55.38c0,.68.1.45.48.72.17-.29.24-.26.24-.72v-2.41h-.72v2.41Z" data-part="crown"></path>
      <path class="cls-7" d="M95.39,81.19c0,1.33-.18,2.05.72,2.41.2-.49,0-1.74,0-3.14-.54.14-.72.06-.72.72" data-part="brim"></path>
      <path class="cls-7" d="M32.68,54.18v.96h.72v-1.69c0-1.19.87-1.09-.48-1.45-.02,1.09-.24.96-.24,2.17" data-part="mesh"></path>
      <path class="cls-7" d="M71.03,3.29c1.12.26,1.96.93,2.89.48-.5-.68-1.9-1.12-2.89-1.21v.72Z" data-part="mesh"></path>
      <path class="cls-7" d="M47.88,10.76c-2.65,1.53-2.41,3.48-.03.91.1-.11.67-.54.34-.9-.57-.64-.15-.1-.31,0" data-part="mesh"></path>
      <path class="cls-7" d="M89.36,15.34c.08.31,1.58,2.86,2.2,2.24.37-.37.43.13-.71-1.32-.5-.64-.58-.84-1.49-.92" data-part="crown"></path>
      <path class="cls-7" d="M29.07,45.01c.97-.39.72-1.62.72-3.14-1.01.27-.7.17-.74,1.44-.03,1.04-.19,1.2.01,1.69" data-part="mesh"></path>
      <path class="cls-7" d="M75.13,8.11c1.37.32,1.36,1.1,2.65,1.21-.28-1.03-1.62-1.84-2.65-1.93v.72Z" data-part="mesh"></path>
      <path class="cls-7" d="M101.66,84.32h.72c0-1.21-.24-1.48-.24-2.89h-.72c0,1.41.24,1.69.24,2.89" data-part="brim"></path>
      <path class="cls-7" d="M26.9,79.02h.72c0-1.41.24-1.69.24-2.89h-.72c0,1.21-.24,1.48-.24,2.89" data-part="mesh"></path>
      <rect class="cls-10" x="94.43" y="46.46" width=".72" height="2.89" data-part="crown"></rect>
      <path class="cls-7" d="M93.46,38.02h.72c-.08-.92-.41-1.97-.48-2.89h-.72c.08.92.41,1.97.48,2.89" data-part="crown"></path>
      <rect class="cls-10" x="100.22" y="58.76" width=".72" height="2.89" data-part="crown"></rect>
      <rect class="cls-10" x="32.44" y="63.58" width=".72" height="2.89" data-part="mesh"></rect>
      <rect class="cls-10" x="32.68" y="57.79" width=".72" height="2.89" data-part="mesh"></rect>
      <rect class="cls-10" x="27.62" y="64.79" width=".72" height="2.89" data-part="mesh"></rect>
      <rect class="cls-10" x="32.2" y="74.92" width=".72" height="2.89" data-part="mesh"></rect>
      <rect class="cls-10" x="94.91" y="57.79" width=".72" height="2.89" data-part="crown"></rect>
      <rect class="cls-10" x="95.39" y="74.92" width=".72" height="2.89" data-part="brim"></rect>
      <path class="cls-7" d="M67.66,3.77c-.6-.05-2.41-.73-2.89-.96.1,1.18.23.83,1.37,1.29.89.36,1.24.73,1.52-.33" data-part="mesh"></path>
      <path class="cls-7" d="M99.01,38.98c0-1.4-.15-1.86-.24-2.89h-.72c.26,3.18.15,2.68.96,2.89" data-part="crown"></path>
      <path class="cls-7" d="M94.91,64.79c0,1.17.04,1.41.72,1.69.22-.54,0-2.02,0-2.89h-.72v1.21Z" data-part="crown"></path>
      <path class="cls-7" d="M99.01,43.8v.72h.72c0-1.83-.22-1.94-.24-2.89h-.72c.02,1.09.24.96.24,2.17" data-part="crown"></path>
      <path class="cls-7" d="M49.33,6.42c1.06-.09,1.69-.68,2.89-.96-.31-1.16-.52-.73-1.45-.25-.85.43-1.21.31-1.45,1.22" data-part="mesh"></path>
      <path class="cls-7" d="M94.19,43.8c1.17-.31.6-.2.51-1.45-.1-1.35.36-1.39-.75-1.69,0,1.46.15,2.04.24,3.14" data-part="crown"></path>
      <path class="cls-7" d="M70.07,5.7c2.07.17,2.09,1.75,2.89.24-1.04-.24-1.79-.87-2.89-.97v.72Z" data-part="mesh"></path>
      <path class="cls-7" d="M79.96,10.52c-.24,1.14-.27.6,1.27,1.89,1.51,1.27,1.66.06-1.27-1.89" data-part="mesh"></path>
      <path class="cls-7" d="M32.2,70.34c0,1.92-.12,1.7.72,1.93v-3.14c-.51.19-.3-.1-.57.39-.23.41-.15.24-.15.81" data-part="mesh"></path>
      <path class="cls-7" d="M55.36,6.42c.66.27,2.48-.63,2.89-1.21-.63-.53-1.19.02-1.87.3-.81.34-.79,0-1.03.9" data-part="mesh"></path>
      <path class="cls-7" d="M97.56,33.43c.94-.25.67-.5.48-1.42-.19-.94-.08-1.25-.72-1.71-.46.96.15,2,.24,3.14" data-part="crown"></path>
      <path class="cls-7" d="M96.12,27.89c1.53-.41.18-.74,0-2.89h-.72c.1,1.22.62,1.67.72,2.89" data-part="crown"></path>
      <path class="cls-7" d="M36.54,26.92c.91-.24.61-.12.94-.99.75-1.91.56-1.38.26-1.91-.65.48-.42.29-.77,1.16-.22.56-.42.84-.44,1.73" data-part="mesh"></path>
      <path class="cls-7" d="M87.43,19.2c.04.44,1.03,3.17,1.71,2.49.32-.31-.18-.92-.45-1.34-.43-.69-.42-.93-1.26-1.15" data-part="crown"></path>
      <path class="cls-7" d="M42.09,17.03c.89-.24,1.94-1.53,2.17-2.41-.92.08-.84.13-1.36.81-.99,1.33-.73.63-.81,1.6" data-part="mesh"></path>
      <path class="cls-7" d="M76.1,5.22c1.17.27,1.72.93,2.89,1.21-.04-.37.07-.13-.08-.4-.4-.78-1.38-.89-2.58-1.52-.11.43-.04.43-.24.72" data-part="mesh"></path>
      <path class="cls-7" d="M31.96,28.13c1.27-.34,1.32-2.62,1.21-2.89-.95.34-1.18,1.91-1.21,2.89" data-part="mesh"></path>
      <path class="cls-7" d="M30.51,33.68c1.24-.45.36-1.12,1.21-2.89-1.05.09-.86.1-1.08,1.09-.19.87-.31,1.35-.13,1.8" data-part="mesh"></path>
      <path class="cls-7" d="M27.86,59.72v2.17h.72v-2.89c-.54.14-.72.06-.72.72" data-part="mesh"></path>
      <path class="cls-7" d="M28.58,50.56c.54-.14.72-.06.72-.72v-2.17h-.72v2.89Z" data-part="mesh"></path>
      <path class="cls-7" d="M99.73,50.32h.72c-.02-1.09-.24-.96-.24-2.17v-.72h-.72c0,1.41.24,1.69.24,2.89" data-part="crown"></path>
      <path class="cls-7" d="M32.93,49.35h.72v-.72c0-1.21.22-1.08.24-2.17h-.72c0,1.21-.24,1.49-.24,2.89" data-part="mesh"></path>
      <path class="cls-7" d="M39.2,21.86c.69-.46,1.48-1.76,1.69-2.65-1.18.1-.75.17-1.31,1.1-.43.72-.73.79-.37,1.55" data-part="mesh"></path>
      <path class="cls-7" d="M35.1,32.47c1.53-.41.26-.92,1.21-2.89-.96.08-.81.02-1.01.92-.14.61-.2,1.12-.2,1.98" data-part="mesh"></path>
      <path class="cls-7" d="M29.55,39.22c1.06-.28.62-.07.75-1.18.09-.75.2-.89.22-1.71h-.72c-.02,1.05-.24,1.51-.24,2.89" data-part="mesh"></path>
      <path class="cls-7" d="M84.06,14.86c-.42.42-.28-.17.76,1.17.29.37.67,1.36,1.19.84.43-.43.26,0-.13-.65l-1.17-1.32c-.44-.29-.21-.48-.66-.03" data-part="mesh"></path>
      <path class="cls-7" d="M87.92,13.42c-.22-.81-.45-.81-1.02-1.39-2.6-2.61-.98,1.22,1.02,1.39" data-part="mesh"></path>
      <polygon class="cls-7" points="100.99 72.98 101.66 72.99 101.38 70.1 100.7 70.09 100.99 72.98" data-part="brim"></polygon>
      <path class="cls-7" d="M50.29,9.07c.73.34,1.8-.37,2.28-.85.5-.49.25.24.37-.83-.89.21-2.19,1-2.65,1.69" data-part="mesh"></path>
      <path class="cls-7" d="M42.81,11.24c-.81.22-.81.45-1.39,1.02-1.54,1.54-1.04,2.01.49.49.65-.65.82-.49.9-1.51" data-part="mesh"></path>
      <path class="cls-7" d="M44.74,9.8l2.04-1.33c.48-.51.25.28.37-.84-.87.07-2.31.92-2.41,2.17" data-part="mesh"></path>
      <path class="cls-7" d="M38.47,15.59c-1.63.94-2.49,4.26-.02.93.28-.38.39-.29.4-.72l-.08-.2c-.38-.42-.04-.16-.31,0" data-part="mesh"></path>
      <rect class="cls-10" x="95.63" y="86.25" width=".72" height="1.69" data-part="brim"></rect>
      <path class="cls-7" d="M31.96,87.94c.54-.14.72-.06.72-.72v-.24c0-.67-.19-.58-.72-.72v1.69Z" data-part="mesh"></path>
      <path class="cls-2" d="M62.63.06h3.48c1.94,0,3.53,1.37,3.53,3.05h0c0,.05,0,.1,0,.15-1.75-.04-3.5-.07-5.26-.07s-3.51.02-5.26.07c0-.05,0-.1,0-.15h0c0-1.68,1.59-3.05,3.53-3.05Z"></path>
      <path class="cls-9" d="M62.63.06h3.48c1.94,0,3.53,1.37,3.53,3.05h0c0,.05,0,.1,0,.15-1.75-.04-3.5-.07-5.26-.07s-3.51.02-5.26.07c0-.05,0-.1,0-.15h0c0-1.68,1.59-3.05,3.53-3.05" data-part="button"></path>
      <g class="cls-6">
        <g>
          <path class="cls-9" d="M13.68,86.99l-11.09-1.25c-1.3-.15-2.38-1.01-2.38-2.24v-10.64c0-1.23,1.08-2.34,2.38-2.24l11.36.8" data-part="mesh"></path>
          <path class="cls-1" d="M13.68,86.99l-11.09-1.25c-1.3-.15-2.38-1.01-2.38-2.24v-10.64c0-1.23,1.08-2.34,2.38-2.24l11.36.8"></path>
          <path class="cls-3" d="M3.17,77.24c.45,0,.82.35.82.77s-.37.77-.82.77-.82-.35-.82-.77.37-.77.82-.77ZM3.17,76.88c.66,0,1.19.5,1.19,1.12s-.53,1.12-1.19,1.12-1.19-.5-1.19-1.12.53-1.12,1.19-1.12Z"></path>
          <path class="cls-8" d="M3.17,77.24c.45,0,.82.35.82.77s-.37.77-.82.77-.82-.35-.82-.77.37-.77.82-.77M3.17,76.88c.66,0,1.19.5,1.19,1.12s-.53,1.12-1.19,1.12-1.19-.5-1.19-1.12.53-1.12,1.19-1.12Z" data-part="mesh"></path>
          <path class="cls-3" d="M10.74,77.24c.45,0,.82.35.82.77s-.37.77-.82.77-.82-.35-.82-.77.37-.77.82-.77ZM10.74,76.88c.66,0,1.19.5,1.19,1.12s-.53,1.12-1.19,1.12-1.19-.5-1.19-1.12.53-1.12,1.19-1.12Z"></path>
          <path class="cls-8" d="M10.74,77.24c.45,0,.82.35.82.77s-.37.77-.82.77-.82-.35-.82-.77.37-.77.82-.77M10.74,76.88c.66,0,1.19.5,1.19,1.12s-.53,1.12-1.19,1.12-1.19-.5-1.19-1.12.53-1.12,1.19-1.12Z" data-part="mesh"></path>
          <path class="cls-8" d="M8.63,75.18v2.07c0,.31-.04.49-.05.75-.01.94-.02,1.93-.12,2.88-.01.13,0,.26,0,.38-.09,1.1-.21,2.82-.96,3.65-.35.39-.72.64-1.22.87-.3.14-1.07.08-1.38-.07-.09-.4-.07-.36.34-.62.4-.26.72-.73.86-1.23.27-.96.46-3.99.45-5.21,0-.96.04-1.8.04-2.79,0-4.26-.82-4.05-3.17-4.45-.1-.02-.28-.06-.39-.08l-.05-.48c.28-.14.84-.06,1.19-.01,1.02.13,2.39.19,3.2.76,1.01.72,1.23,2.12,1.27,3.57M6.23,71.73c1.92.45,1.83,2.67,1.83,4.49l-.22,5.36c-.05,1.08-.21,2.5-.99,3.19-.16.14-.68.49-.93.51.42-.62.64-.69.83-1.83.16-.98.16-1.55.25-2.4l.05-1.26c0-.48.04-.81.04-1.31,0-1.76.26-4.35-.39-5.97-.15-.39-.3-.5-.49-.78Z" data-part="mesh"></path>
        </g>
      </g>
    </g>
  </g>
</svg>