<svg id="Camada_2" data-name="Camada 2" xmlns="http://www.w3.org/2000/svg" viewBox="0 0 153.94 120.71">
  <defs>
    <style>
      .cls-1 {
        opacity: .97;
      }

      .cls-2 {
        stroke-width: .57px;
      }

      .cls-2, .cls-3 {
        stroke: #000;
      }

      .cls-2, .cls-3, .cls-4, .cls-5, .cls-6 {
        fill: none;
        stroke-miterlimit: 22.93;
      }

      .cls-3 {
        stroke-width: .57px;
      }

      .cls-4 {
        stroke-width: .26px;
      }

      .cls-4, .cls-5 {
        stroke: #666;
      }

      .cls-5 {
        stroke-width: .26px;
      }

      .cls-7, .cls-8, .cls-9 {
        fill-rule: evenodd;
      }

      .cls-7, .cls-10 {
        fill: #d1d1d1;
      }

      .cls-6 {
        stroke: #4d4d4d;
        stroke-dasharray: 2.2 1.32;
        stroke-width: .44px;
      }

      .cls-9 {
        fill: #eaeaea;
      }
    
    [data-part="crown"]{fill:var(--c-crown,#d7dade) !important}
    [data-part="brim"]{fill:var(--c-brim,#c7cace) !important}
    [data-part="button"]{fill:var(--c-button,#d7dade) !important}
    [data-part="mesh"]{fill:var(--c-mesh,#eef0f2) !important}
  </style>
  </defs>
  <g id="_1.1_Trucker" data-name="1.1 Trucker">
    <g>
      <path class="cls-8" d="M3.5,91.08c-.31-.32-.58-.62-.83-.92.26.31.54.62.83.92ZM9.1,82.53c.01-1,.02-2.18.02-3.49-.05-24.59,2.53-75.28,67.81-74.92,70.31.39,67.32,59.83,67.82,76.97.01.45.02.87.03,1.26,2.89,1.15,5.79,2.37,8.7,3.66v2.91s.12,8.88.12,8.88c.09,13.95-16.43,16.13-26.59,18.39-7.69,1.71-11.42,1.8-11.44,2.07-.22-10.99-.32-17.04-.32-17.04,13.46-.94,23.41-3.06,29.85-6.36-3.68-1.62-7.37-3.11-11.06-4.47-55.9-26.95-84.88-11.74-119.54.27-2.58.94-5.15,1.94-7.73,3,6.28,3.98,16.93,6.5,31.96,7.56,0,0-.11,6.06-.32,17.04-.02-.27-3.75-.35-11.44-2.07-10.16-2.26-26.68-4.44-26.59-18.39,0,0,.05-3.83.16-11.49.25.78.59,1.54,1.02,2.26-.47-.84-.66-1.59-.58-2.26,2.7-1.34,5.42-2.6,8.14-3.78Z" data-part="mesh"></path>
      <path class="cls-4" d="M3.5,91.08c-.31-.32-.58-.62-.83-.92.26.31.54.62.83.92ZM9.1,82.53c.01-1,.02-2.18.02-3.49-.05-24.59,2.53-75.28,67.81-74.92,70.31.39,67.32,59.83,67.82,76.97.01.45.02.87.03,1.26,2.89,1.15,5.79,2.37,8.7,3.66v2.91s.12,8.88.12,8.88c.09,13.95-16.43,16.13-26.59,18.39-7.69,1.71-11.42,1.8-11.44,2.07-.22-10.99-.32-17.04-.32-17.04,13.46-.94,23.41-3.06,29.85-6.36-3.68-1.62-7.37-3.11-11.06-4.47-55.9-26.95-84.88-11.74-119.54.27-2.58.94-5.15,1.94-7.73,3,6.28,3.98,16.93,6.5,31.96,7.56,0,0-.11,6.06-.32,17.04-.02-.27-3.75-.35-11.44-2.07-10.16-2.26-26.68-4.44-26.59-18.39,0,0,.05-3.83.16-11.49.25.78.59,1.54,1.02,2.26-.47-.84-.66-1.59-.58-2.26,2.7-1.34,5.42-2.6,8.14-3.78Z"></path>
      <path class="cls-8" d="M3.5,91.08c-.31-.32-.58-.62-.83-.92.26.31.54.62.83.92ZM9.1,82.53c.01-1,.02-2.18.02-3.49-.05-24.59,2.53-75.28,67.81-74.92,70.31.39,67.32,59.83,67.82,76.97.01.45.02.87.03,1.26,2.89,1.15,5.79,2.37,8.7,3.66v2.91s.12,8.88.12,8.88c.09,13.95-16.43,16.13-26.59,18.39-7.69,1.71-11.42,1.8-11.44,2.07-.22-10.99-.32-17.04-.32-17.04,13.46-.94,23.41-3.06,29.85-6.36-3.68-1.62-7.37-3.11-11.06-4.47-55.9-26.95-84.88-11.74-119.54.27-2.58.94-5.15,1.94-7.73,3,6.28,3.98,16.93,6.5,31.96,7.56,0,0-.11,6.06-.32,17.04-.02-.27-3.75-.35-11.44-2.07-10.16-2.26-26.68-4.44-26.59-18.39,0,0,.05-3.83.16-11.49.25.78.59,1.54,1.02,2.26-.47-.84-.66-1.59-.58-2.26,2.7-1.34,5.42-2.6,8.14-3.78Z" data-part="mesh"></path>
      <path class="cls-4" d="M3.5,91.08c-.31-.32-.58-.62-.83-.92.26.31.54.62.83.92ZM9.1,82.53c.01-1,.02-2.18.02-3.49-.05-24.59,2.53-75.28,67.81-74.92,70.31.39,67.32,59.83,67.82,76.97.01.45.02.87.03,1.26,2.89,1.15,5.79,2.37,8.7,3.66v2.91s.12,8.88.12,8.88c.09,13.95-16.43,16.13-26.59,18.39-7.69,1.71-11.42,1.8-11.44,2.07-.22-10.99-.32-17.04-.32-17.04,13.46-.94,23.41-3.06,29.85-6.36-3.68-1.62-7.37-3.11-11.06-4.47-55.9-26.95-84.88-11.74-119.54.27-2.58.94-5.15,1.94-7.73,3,6.28,3.98,16.93,6.5,31.96,7.56,0,0-.11,6.06-.32,17.04-.02-.27-3.75-.35-11.44-2.07-10.16-2.26-26.68-4.44-26.59-18.39,0,0,.05-3.83.16-11.49.25.78.59,1.54,1.02,2.26-.47-.84-.66-1.59-.58-2.26,2.7-1.34,5.42-2.6,8.14-3.78Z"></path>
      <path class="cls-6" d="M8.52,82.04c22.91-8.36,45.66-17.76,68.23-17.76,22.84,0,45.51,9.51,68.02,18.08"></path>
      <path class="cls-6" d="M8.52,85.65c22.91-8.36,45.66-17.76,68.23-17.76,22.84,0,45.51,9.51,68.02,18.08"></path>
      <path class="cls-6" d="M8.52,89.26c22.91-8.36,45.66-17.76,68.23-17.76,22.84,0,45.51,9.51,68.02,18.08"></path>
      <path class="cls-6" d="M8.52,93.28c22.91-8.36,45.66-17.76,68.23-17.76,22.84,0,45.51,9.51,68.02,18.08"></path>
      <path class="cls-9" d="M21.01,88.07c1.23-.45,3.46-1.23,8.12-2.8,4.66-1.57,11.74-3.93,17.37-5.55,5.64-1.62,9.84-2.49,14.01-3.09,4.17-.6,8.32-.92,11.72-1.08,3.4-.16,6.07-.15,8.84-.04,2.77.11,5.65.31,9.29.82,3.64.51,8.04,1.31,12.15,2.3,4.11.99,7.92,2.16,11.55,3.34,3.63,1.18,7.08,2.37,10.28,3.52,3.2,1.15,6.15,2.25,7.7,2.87,1.55.62,1.7.77,1.79,1,.09.23.14.53.02,1.14-.12.61-.39,1.53-.71,2.63-.32,1.1-.67,2.4-1.54,3.42-.87,1.02-2.26,1.78-3.75,2.12-1.49.34-3.09.26-4.96-.18-1.87-.44-4.02-1.23-6.1-2.15-2.07-.92-4.07-1.97-6.37-3.19-2.3-1.23-4.89-2.63-7.25-3.83-2.35-1.19-4.47-2.17-6.55-2.98-2.08-.81-4.13-1.44-5.65-1.86-1.52-.42-2.52-.64-4.2-.9-1.67-.26-4.02-.58-6.53-.78-2.51-.2-5.19-.28-7.67-.25-2.48.02-4.78.15-7.34.69-2.57.54-5.41,1.5-7.74,2.41-2.33.91-4.16,1.77-6.04,2.71-1.89.95-3.83,1.98-5.81,3.05-1.98,1.07-4,2.17-5.85,3.15-1.85.98-3.53,1.84-5.22,2.5-1.68.66-3.37,1.12-4.73,1.34-1.37.22-2.42.2-3.55-.18-1.14-.38-2.36-1.11-3.35-2.26-.99-1.14-1.76-2.69-2.32-3.96-.56-1.27-.92-2.26-1.1-2.76q-.18-.5-.07-.55c.11-.06.33-.18,1.56-.62Z" data-part="mesh"></path>
      <path class="cls-2" d="M21.01,88.07c1.23-.45,3.46-1.23,8.12-2.8,4.66-1.57,11.74-3.93,17.37-5.55,5.64-1.62,9.84-2.49,14.01-3.09,4.17-.6,8.32-.92,11.72-1.08,3.4-.16,6.07-.15,8.84-.04,2.77.11,5.65.31,9.29.82,3.64.51,8.04,1.31,12.15,2.3,4.11.99,7.92,2.16,11.55,3.34,3.63,1.18,7.08,2.37,10.28,3.52,3.2,1.15,6.15,2.25,7.7,2.87,1.55.62,1.7.77,1.79,1,.09.23.14.53.02,1.14-.12.61-.39,1.53-.71,2.63-.32,1.1-.67,2.4-1.54,3.42-.87,1.02-2.26,1.78-3.75,2.12-1.49.34-3.09.26-4.96-.18-1.87-.44-4.02-1.23-6.1-2.15-2.07-.92-4.07-1.97-6.37-3.19-2.3-1.23-4.89-2.63-7.25-3.83-2.35-1.19-4.47-2.17-6.55-2.98-2.08-.81-4.13-1.44-5.65-1.86-1.52-.42-2.52-.64-4.2-.9-1.67-.26-4.02-.58-6.53-.78-2.51-.2-5.19-.28-7.67-.25-2.48.02-4.78.15-7.34.69-2.57.54-5.41,1.5-7.74,2.41-2.33.91-4.16,1.77-6.04,2.71-1.89.95-3.83,1.98-5.81,3.05-1.98,1.07-4,2.17-5.85,3.15-1.85.98-3.53,1.84-5.22,2.5-1.68.66-3.37,1.12-4.73,1.34-1.37.22-2.42.2-3.55-.18-1.14-.38-2.36-1.11-3.35-2.26-.99-1.14-1.76-2.69-2.32-3.96-.56-1.27-.92-2.26-1.1-2.76q-.18-.5-.07-.55c.11-.06.33-.18,1.56-.62Z"></path>
      <path class="cls-2" d="M38.42,118.13q-.07.42-1.66.12c-1.59-.3-4.76-.91-8.38-1.73-3.62-.82-7.68-1.84-11.11-2.75-3.43-.91-6.23-1.7-8.5-2.85-2.26-1.14-3.99-2.64-5.32-4.41-1.33-1.77-2.27-3.83-2.73-6.07-.47-2.24-.47-4.67-.37-8.38.09-3.71.28-8.71.7-15.46.42-6.75,1.07-15.25,1.63-20.9.56-5.65,1.03-8.45,2.36-12,1.33-3.55,3.53-7.85,5.91-11.63,2.38-3.78,4.95-7.05,7.47-9.85,2.52-2.8,5-5.14,8.45-7.28,3.46-2.15,7.89-4.11,13.24-5.88,5.35-1.77,11.6-3.36,17.16-4.3,5.56-.93,10.41-1.21,16.62-1.26,6.21-.05,13.78.14,19.75.82,5.98.68,10.37,1.84,14.76,3.13,4.39,1.28,8.78,2.69,12.79,4.62,4.02,1.94,7.66,4.41,10.95,7.21,3.29,2.8,6.23,5.93,8.64,8.94,2.4,3.01,4.27,5.91,5.91,9.32,1.63,3.41,3.04,7.33,3.99,12.61.96,5.28,1.47,11.91,1.94,19.33.47,7.42.89,15.64,1,21.01.12,5.37-.07,7.89-.42,9.99-.35,2.1-.86,3.78-1.68,5.28-.82,1.49-1.94,2.8-3.46,3.85-1.52,1.05-3.43,1.84-6.68,2.87-3.25,1.03-7.82,2.29-12.3,3.34-4.48,1.05-8.87,1.89-11.07,2.31q-2.19.42-2.29-2.05c-.09-2.47-.28-7.42-.51-12.21-.23-4.79-.51-9.41-1.17-13.31-.65-3.9-1.68-7.07-3.22-10.06-1.54-2.99-3.6-5.79-5.84-8.17-2.24-2.38-4.67-4.34-7.49-5.91-2.83-1.56-6.05-2.73-9.81-3.46-3.76-.72-8.05-1-12.21-.91-4.16.09-8.17.56-11.67,1.54-3.5.98-6.49,2.47-9.13,4.16-2.64,1.68-4.93,3.55-7.05,6.05-2.12,2.5-4.09,5.63-5.42,8.59-1.33,2.97-2.03,5.77-2.43,8.15-.4,2.38-.49,4.34-.61,7.77-.12,3.43-.26,8.34-.33,11.53-.07,3.2-.07,4.69-.14,5.86-.07,1.17-.21,2.01-.28,2.43Z"></path>
      <path class="cls-9" d="M10.34,108.74l-.88.88.88.88.88-.88-.88-.88ZM8.51,106.91l-.88.88.88.88.88-.88-.88-.88ZM6.68,105.08l-.88.88.88.88.88-.88-.88-.88ZM4.85,103.25l-.88.88.88.88.88-.88-.88-.88ZM3.02,101.42l-.88.88.88.88.88-.88-.88-.88ZM15.83,110.57l-.88.88.88.88.88-.88-.88-.88ZM14,108.74l-.88.88.88.88.88-.88-.88-.88ZM12.17,106.91l-.88.88.88.88.88-.88-.88-.88ZM10.34,105.08l-.88.88.88.88.88-.88-.88-.88ZM8.51,103.25l-.88.88.88.88.88-.88-.88-.88ZM6.68,101.42l-.88.88.88.88.88-.88-.88-.88ZM4.85,99.59l-.88.88.88.88.88-.88-.88-.88ZM3.02,97.76l-.88.88.88.88.88-.88-.88-.88ZM21.33,112.4l-.88.88.88.88.88-.88-.88-.88ZM19.5,110.57l-.88.88.88.88.88-.88-.88-.88ZM17.66,108.74l-.88.88.88.88.88-.88-.88-.88ZM15.83,106.91l-.88.88.88.88.88-.88-.88-.88ZM14,105.08l-.88.88.88.88.88-.88-.88-.88ZM12.17,103.25l-.88.88.88.88.88-.88-.88-.88ZM10.34,101.42l-.88.88.88.88.88-.88-.88-.88ZM8.51,99.59l-.88.88.88.88.88-.88-.88-.88ZM6.68,97.76l-.88.88.88.88.88-.88-.88-.88ZM4.85,95.93l-.88.88.88.88.88-.88-.88-.88ZM3.02,94.09l-.88.88.88.88.88-.88-.88-.88ZM26.82,114.24l-.88.88.88.88.88-.88-.88-.88ZM24.99,112.4l-.88.88.88.88.88-.88-.88-.88ZM23.16,110.57l-.88.88.88.88.88-.88-.88-.88ZM21.33,108.74l-.88.88.88.88.88-.88-.88-.88ZM19.5,106.91l-.88.88.88.88.88-.88-.88-.88ZM17.66,105.08l-.88.88.88.88.88-.88-.88-.88ZM15.83,103.25l-.88.88.88.88.88-.88-.88-.88ZM14,101.42l-.88.88.88.88.88-.88-.88-.88ZM12.17,99.59l-.88.88.88.88.88-.88-.88-.88ZM10.34,97.76l-.88.88.88.88.88-.88-.88-.88ZM8.51,95.93l-.88.88.88.88.88-.88-.88-.88ZM6.68,94.09l-.88.88.88.88.88-.88-.88-.88ZM4.85,92.26l-.88.88.88.88.88-.88-.88-.88ZM3.02,90.43l-.88.88.88.88.88-.88-.88-.88ZM30.48,114.24l-.88.88.88.88.88-.88-.88-.88ZM28.65,112.4l-.88.88.88.88.88-.88-.88-.88ZM26.82,110.57l-.88.88.88.88.88-.88-.88-.88ZM24.99,108.74l-.88.88.88.88.88-.88-.88-.88ZM23.16,106.91l-.88.88.88.88.88-.88-.88-.88ZM21.33,105.08l-.88.88.88.88.88-.88-.88-.88ZM19.5,103.25l-.88.88.88.88.88-.88-.88-.88ZM17.66,101.42l-.88.88.88.88.88-.88-.88-.88ZM15.83,99.59l-.88.88.88.88.88-.88-.88-.88ZM14,97.76l-.88.88.88.88.88-.88-.88-.88ZM12.17,95.93l-.88.88.88.88.88-.88-.88-.88ZM10.34,94.09l-.88.88.88.88.88-.88-.88-.88ZM8.51,92.26l-.88.88.88.88.88-.88-.88-.88ZM6.68,90.43l-.88.88.88.88.88-.88-.88-.88ZM4.85,88.6l-.88.88.88.88.88-.88-.88-.88ZM3.02,86.77l-.88.88.88.88.88-.88-.88-.88ZM35.97,116.07l-.88.88.88.88.88-.88-.88-.88ZM34.14,114.24l-.88.88.88.88.88-.88-.88-.88ZM32.31,112.4l-.88.88.88.88.88-.88-.88-.88ZM30.48,110.57l-.88.88.88.88.88-.88-.88-.88ZM28.65,108.74l-.88.88.88.88.88-.88-.88-.88ZM26.82,106.91l-.88.88.88.88.88-.88-.88-.88ZM24.99,105.08l-.88.88.88.88.88-.88-.88-.88ZM23.16,103.25l-.88.88.88.88.88-.88-.88-.88ZM21.33,101.42l-.88.88.88.88.88-.88-.88-.88ZM19.5,99.59l-.88.88.88.88.88-.88-.88-.88ZM17.66,97.76l-.88.88.88.88.88-.88-.88-.88ZM15.83,95.93l-.88.88.88.88.88-.88-.88-.88ZM14,94.09l-.88.88.88.88.88-.88-.88-.88ZM12.17,92.26l-.88.88.88.88.88-.88-.88-.88ZM10.34,90.43l-.88.88.88.88.88-.88-.88-.88ZM8.51,88.6l-.88.88.88.88.88-.88-.88-.88ZM6.68,86.77l-.88.88.88.88.88-.88-.88-.88ZM4.85,84.94l-.88.88.88.88.88-.88-.88-.88ZM3.02,83.11l-.88.88.88.88.88-.88-.88-.88ZM37.81,114.24l-.88.88.88.88.88-.88-.88-.88ZM35.97,112.4l-.88.88.88.88.88-.88-.88-.88ZM34.14,110.57l-.88.88.88.88.88-.88-.88-.88ZM32.31,108.74l-.88.88.88.88.88-.88-.88-.88ZM30.48,106.91l-.88.88.88.88.88-.88-.88-.88ZM28.65,105.08l-.88.88.88.88.88-.88-.88-.88ZM26.82,103.25l-.88.88.88.88.88-.88-.88-.88ZM24.99,101.42l-.88.88.88.88.88-.88-.88-.88ZM23.16,99.59l-.88.88.88.88.88-.88-.88-.88ZM21.33,97.76l-.88.88.88.88.88-.88-.88-.88ZM19.5,95.93l-.88.88.88.88.88-.88-.88-.88ZM17.66,94.09l-.88.88.88.88.88-.88-.88-.88ZM15.83,92.26l-.88.88.88.88.88-.88-.88-.88ZM14,90.43l-.88.88.88.88.88-.88-.88-.88ZM12.17,88.6l-.88.88.88.88.88-.88-.88-.88ZM10.34,86.77l-.88.88.88.88.88-.88-.88-.88ZM8.51,84.94l-.88.88.88.88.88-.88-.88-.88ZM6.68,83.11l-.88.88.88.88.88-.88-.88-.88ZM4.85,81.28l-.88.88.88.88.88-.88-.88-.88ZM3.02,79.45l-.88.88.88.88.88-.88-.88-.88ZM37.81,110.57l-.88.88.88.88.88-.88-.88-.88ZM35.97,108.74l-.88.88.88.88.88-.88-.88-.88ZM34.14,106.91l-.88.88.88.88.88-.88-.88-.88ZM32.31,105.08l-.88.88.88.88.88-.88-.88-.88ZM30.48,103.25l-.88.88.88.88.88-.88-.88-.88ZM28.65,101.42l-.88.88.88.88.88-.88-.88-.88ZM26.82,99.59l-.88.88.88.88.88-.88-.88-.88ZM24.99,97.76l-.88.88.88.88.88-.88-.88-.88ZM23.16,95.93l-.88.88.88.88.88-.88-.88-.88ZM21.33,94.09l-.88.88.88.88.88-.88-.88-.88ZM19.5,92.26l-.88.88.88.88.88-.88-.88-.88ZM17.66,90.43l-.88.88.88.88.88-.88-.88-.88ZM15.83,88.6l-.88.88.88.88.88-.88-.88-.88ZM14,86.77l-.88.88.88.88.88-.88-.88-.88ZM12.17,84.94l-.88.88.88.88.88-.88-.88-.88ZM10.34,83.11l-.88.88.88.88.88-.88-.88-.88ZM8.51,81.28l-.88.88.88.88.88-.88-.88-.88ZM6.68,79.45l-.88.88.88.88.88-.88-.88-.88ZM4.85,77.62l-.88.88.88.88.88-.88-.88-.88ZM3.02,75.78l-.88.88.88.88.88-.88-.88-.88ZM37.81,106.91l-.88.88.88.88.88-.88-.88-.88ZM35.97,105.08l-.88.88.88.88.88-.88-.88-.88ZM34.14,103.25l-.88.88.88.88.88-.88-.88-.88ZM32.31,101.42l-.88.88.88.88.88-.88-.88-.88ZM30.48,99.59l-.88.88.88.88.88-.88-.88-.88ZM28.65,97.76l-.88.88.88.88.88-.88-.88-.88ZM26.82,95.93l-.88.88.88.88.88-.88-.88-.88ZM24.99,94.09l-.88.88.88.88.88-.88-.88-.88ZM23.16,92.26l-.88.88.88.88.88-.88-.88-.88ZM21.33,90.43l-.88.88.88.88.88-.88-.88-.88ZM19.5,88.6l-.88.88.88.88.88-.88-.88-.88ZM17.66,86.77l-.88.88.88.88.88-.88-.88-.88ZM15.83,84.94l-.88.88.88.88.88-.88-.88-.88ZM14,83.11l-.88.88.88.88.88-.88-.88-.88ZM12.17,81.28l-.88.88.88.88.88-.88-.88-.88ZM10.34,79.45l-.88.88.88.88.88-.88-.88-.88ZM8.51,77.62l-.88.88.88.88.88-.88-.88-.88ZM6.68,75.78l-.88.88.88.88.88-.88-.88-.88ZM4.85,73.95l-.88.88.88.88.88-.88-.88-.88ZM3.02,72.12l-.88.88.88.88.88-.88-.88-.88ZM37.81,103.25l-.88.88.88.88.88-.88-.88-.88ZM35.97,101.42l-.88.88.88.88.88-.88-.88-.88ZM34.14,99.59l-.88.88.88.88.88-.88-.88-.88ZM32.31,97.76l-.88.88.88.88.88-.88-.88-.88ZM30.48,95.93l-.88.88.88.88.88-.88-.88-.88ZM28.65,94.09l-.88.88.88.88.88-.88-.88-.88ZM26.82,92.26l-.88.88.88.88.88-.88-.88-.88ZM24.99,90.43l-.88.88.88.88.88-.88-.88-.88ZM23.16,88.6l-.88.88.88.88.88-.88-.88-.88ZM21.33,86.77l-.88.88.88.88.88-.88-.88-.88ZM19.5,84.94l-.88.88.88.88.88-.88-.88-.88ZM17.66,83.11l-.88.88.88.88.88-.88-.88-.88ZM15.83,81.28l-.88.88.88.88.88-.88-.88-.88ZM14,79.45l-.88.88.88.88.88-.88-.88-.88ZM12.17,77.62l-.88.88.88.88.88-.88-.88-.88ZM10.34,75.78l-.88.88.88.88.88-.88-.88-.88ZM8.51,73.95l-.88.88.88.88.88-.88-.88-.88ZM6.68,72.12l-.88.88.88.88.88-.88-.88-.88ZM4.85,70.29l-.88.88.88.88.88-.88-.88-.88ZM3.02,68.46l-.88.88.88.88.88-.88-.88-.88ZM37.81,99.59l-.88.88.88.88.88-.88-.88-.88ZM35.97,97.76l-.88.88.88.88.88-.88-.88-.88ZM34.14,95.93l-.88.88.88.88.88-.88-.88-.88ZM32.31,94.09l-.88.88.88.88.88-.88-.88-.88ZM30.48,92.26l-.88.88.88.88.88-.88-.88-.88ZM28.65,90.43l-.88.88.88.88.88-.88-.88-.88ZM26.82,88.6l-.88.88.88.88.88-.88-.88-.88ZM24.99,86.77l-.88.88.88.88.88-.88-.88-.88ZM23.16,84.94l-.88.88.88.88.88-.88-.88-.88ZM21.33,83.11l-.88.88.88.88.88-.88-.88-.88ZM19.5,81.28l-.88.88.88.88.88-.88-.88-.88ZM17.66,79.45l-.88.88.88.88.88-.88-.88-.88ZM15.83,77.62l-.88.88.88.88.88-.88-.88-.88ZM14,75.78l-.88.88.88.88.88-.88-.88-.88ZM12.17,73.95l-.88.88.88.88.88-.88-.88-.88ZM10.34,72.12l-.88.88.88.88.88-.88-.88-.88ZM8.51,70.29l-.88.88.88.88.88-.88-.88-.88ZM6.68,68.46l-.88.88.88.88.88-.88-.88-.88ZM4.85,66.63l-.88.88.88.88.88-.88-.88-.88ZM3.02,64.8l-.88.88.88.88.88-.88-.88-.88ZM37.81,95.93l-.88.88.88.88.88-.88-.88-.88ZM35.97,94.09l-.88.88.88.88.88-.88-.88-.88ZM34.14,92.26l-.88.88.88.88.88-.88-.88-.88ZM32.31,90.43l-.88.88.88.88.88-.88-.88-.88ZM30.48,88.6l-.88.88.88.88.88-.88-.88-.88ZM28.65,86.77l-.88.88.88.88.88-.88-.88-.88ZM26.82,84.94l-.88.88.88.88.88-.88-.88-.88ZM24.99,83.11l-.88.88.88.88.88-.88-.88-.88ZM23.16,81.28l-.88.88.88.88.88-.88-.88-.88ZM21.33,79.45l-.88.88.88.88.88-.88-.88-.88ZM19.5,77.62l-.88.88.88.88.88-.88-.88-.88ZM17.66,75.78l-.88.88.88.88.88-.88-.88-.88ZM15.83,73.95l-.88.88.88.88.88-.88-.88-.88ZM14,72.12l-.88.88.88.88.88-.88-.88-.88ZM12.17,70.29l-.88.88.88.88.88-.88-.88-.88ZM10.34,68.46l-.88.88.88.88.88-.88-.88-.88ZM8.51,66.63l-.88.88.88.88.88-.88-.88-.88ZM6.68,64.8l-.88.88.88.88.88-.88-.88-.88ZM4.85,62.97l-.88.88.88.88.88-.88-.88-.88ZM3.02,61.14l-.88.88.88.88.88-.88-.88-.88ZM37.81,92.26l-.88.88.88.88.88-.88-.88-.88ZM35.97,90.43l-.88.88.88.88.88-.88-.88-.88ZM34.14,88.6l-.88.88.88.88.88-.88-.88-.88ZM32.31,86.77l-.88.88.88.88.88-.88-.88-.88ZM30.48,84.94l-.88.88.88.88.88-.88-.88-.88ZM28.65,83.11l-.88.88.88.88.88-.88-.88-.88ZM26.82,81.28l-.88.88.88.88.88-.88-.88-.88ZM24.99,79.45l-.88.88.88.88.88-.88-.88-.88ZM23.16,77.62l-.88.88.88.88.88-.88-.88-.88ZM21.33,75.78l-.88.88.88.88.88-.88-.88-.88ZM19.5,73.95l-.88.88.88.88.88-.88-.88-.88ZM17.66,72.12l-.88.88.88.88.88-.88-.88-.88ZM15.83,70.29l-.88.88.88.88.88-.88-.88-.88ZM14,68.46l-.88.88.88.88.88-.88-.88-.88ZM12.17,66.63l-.88.88.88.88.88-.88-.88-.88ZM10.34,64.8l-.88.88.88.88.88-.88-.88-.88ZM8.51,62.97l-.88.88.88.88.88-.88-.88-.88ZM6.68,61.14l-.88.88.88.88.88-.88-.88-.88ZM4.85,59.31l-.88.88.88.88.88-.88-.88-.88ZM37.81,88.6l-.88.88.88.88.88-.88-.88-.88ZM35.97,86.77l-.88.88.88.88.88-.88-.88-.88ZM34.14,84.94l-.88.88.88.88.88-.88-.88-.88ZM32.31,83.11l-.88.88.88.88.88-.88-.88-.88ZM30.48,81.28l-.88.88.88.88.88-.88-.88-.88ZM28.65,79.45l-.88.88.88.88.88-.88-.88-.88ZM26.82,77.62l-.88.88.88.88.88-.88-.88-.88ZM24.99,75.78l-.88.88.88.88.88-.88-.88-.88ZM23.16,73.95l-.88.88.88.88.88-.88-.88-.88ZM21.33,72.12l-.88.88.88.88.88-.88-.88-.88ZM19.5,70.29l-.88.88.88.88.88-.88-.88-.88ZM17.66,68.46l-.88.88.88.88.88-.88-.88-.88ZM15.83,66.63l-.88.88.88.88.88-.88-.88-.88ZM14,64.8l-.88.88.88.88.88-.88-.88-.88ZM12.17,62.97l-.88.88.88.88.88-.88-.88-.88ZM10.34,61.14l-.88.88.88.88.88-.88-.88-.88ZM8.51,59.31l-.88.88.88.88.88-.88-.88-.88ZM6.68,57.47l-.88.88.88.88.88-.88-.88-.88ZM4.85,55.64l-.88.88.88.88.88-.88-.88-.88ZM37.81,84.94l-.88.88.88.88.88-.88-.88-.88ZM35.97,83.11l-.88.88.88.88.88-.88-.88-.88ZM34.14,81.28l-.88.88.88.88.88-.88-.88-.88ZM32.31,79.45l-.88.88.88.88.88-.88-.88-.88ZM30.48,77.62l-.88.88.88.88.88-.88-.88-.88ZM28.65,75.78l-.88.88.88.88.88-.88-.88-.88ZM26.82,73.95l-.88.88.88.88.88-.88-.88-.88ZM24.99,72.12l-.88.88.88.88.88-.88-.88-.88ZM23.16,70.29l-.88.88.88.88.88-.88-.88-.88ZM21.33,68.46l-.88.88.88.88.88-.88-.88-.88ZM19.5,66.63l-.88.88.88.88.88-.88-.88-.88ZM17.66,64.8l-.88.88.88.88.88-.88-.88-.88ZM15.83,62.97l-.88.88.88.88.88-.88-.88-.88ZM14,61.14l-.88.88.88.88.88-.88-.88-.88ZM12.17,59.31l-.88.88.88.88.88-.88-.88-.88ZM10.34,57.47l-.88.88.88.88.88-.88-.88-.88ZM8.51,55.64l-.88.88.88.88.88-.88-.88-.88ZM6.68,53.81l-.88.88.88.88.88-.88-.88-.88ZM4.85,51.98l-.88.88.88.88.88-.88-.88-.88ZM39.64,83.11l-.88.88.88.88.88-.88-.88-.88ZM37.81,81.28l-.88.88.88.88.88-.88-.88-.88ZM35.97,79.45l-.88.88.88.88.88-.88-.88-.88ZM34.14,77.62l-.88.88.88.88.88-.88-.88-.88ZM32.31,75.78l-.88.88.88.88.88-.88-.88-.88ZM30.48,73.95l-.88.88.88.88.88-.88-.88-.88ZM28.65,72.12l-.88.88.88.88.88-.88-.88-.88ZM26.82,70.29l-.88.88.88.88.88-.88-.88-.88ZM24.99,68.46l-.88.88.88.88.88-.88-.88-.88ZM23.16,66.63l-.88.88.88.88.88-.88-.88-.88ZM21.33,64.8l-.88.88.88.88.88-.88-.88-.88ZM19.5,62.97l-.88.88.88.88.88-.88-.88-.88ZM17.66,61.14l-.88.88.88.88.88-.88-.88-.88ZM15.83,59.31l-.88.88.88.88.88-.88-.88-.88ZM14,57.47l-.88.88.88.88.88-.88-.88-.88ZM12.17,55.64l-.88.88.88.88.88-.88-.88-.88ZM10.34,53.81l-.88.88.88.88.88-.88-.88-.88ZM8.51,51.98l-.88.88.88.88.88-.88-.88-.88ZM6.68,50.15l-.88.88.88.88.88-.88-.88-.88ZM4.85,48.32l-.88.88.88.88.88-.88-.88-.88ZM39.64,79.45l-.88.88.88.88.88-.88-.88-.88ZM37.81,77.62l-.88.88.88.88.88-.88-.88-.88ZM35.97,75.78l-.88.88.88.88.88-.88-.88-.88ZM34.14,73.95l-.88.88.88.88.88-.88-.88-.88ZM32.31,72.12l-.88.88.88.88.88-.88-.88-.88ZM30.48,70.29l-.88.88.88.88.88-.88-.88-.88ZM28.65,68.46l-.88.88.88.88.88-.88-.88-.88ZM26.82,66.63l-.88.88.88.88.88-.88-.88-.88ZM24.99,64.8l-.88.88.88.88.88-.88-.88-.88ZM23.16,62.97l-.88.88.88.88.88-.88-.88-.88ZM21.33,61.14l-.88.88.88.88.88-.88-.88-.88ZM19.5,59.31l-.88.88.88.88.88-.88-.88-.88ZM17.66,57.47l-.88.88.88.88.88-.88-.88-.88ZM15.83,55.64l-.88.88.88.88.88-.88-.88-.88ZM14,53.81l-.88.88.88.88.88-.88-.88-.88ZM12.17,51.98l-.88.88.88.88.88-.88-.88-.88ZM10.34,50.15l-.88.88.88.88.88-.88-.88-.88ZM8.51,48.32l-.88.88.88.88.88-.88-.88-.88ZM6.68,46.49l-.88.88.88.88.88-.88-.88-.88ZM41.47,77.62l-.88.88.88.88.88-.88-.88-.88ZM39.64,75.78l-.88.88.88.88.88-.88-.88-.88ZM37.81,73.95l-.88.88.88.88.88-.88-.88-.88ZM35.97,72.12l-.88.88.88.88.88-.88-.88-.88ZM34.14,70.29l-.88.88.88.88.88-.88-.88-.88ZM32.31,68.46l-.88.88.88.88.88-.88-.88-.88ZM30.48,66.63l-.88.88.88.88.88-.88-.88-.88ZM28.65,64.8l-.88.88.88.88.88-.88-.88-.88ZM26.82,62.97l-.88.88.88.88.88-.88-.88-.88ZM24.99,61.14l-.88.88.88.88.88-.88-.88-.88ZM23.16,59.31l-.88.88.88.88.88-.88-.88-.88ZM21.33,57.47l-.88.88.88.88.88-.88-.88-.88ZM19.5,55.64l-.88.88.88.88.88-.88-.88-.88ZM17.66,53.81l-.88.88.88.88.88-.88-.88-.88ZM15.83,51.98l-.88.88.88.88.88-.88-.88-.88ZM14,50.15l-.88.88.88.88.88-.88-.88-.88ZM12.17,48.32l-.88.88.88.88.88-.88-.88-.88ZM10.34,46.49l-.88.88.88.88.88-.88-.88-.88ZM8.51,44.66l-.88.88.88.88.88-.88-.88-.88ZM6.68,42.83l-.88.88.88.88.88-.88-.88-.88ZM43.3,75.78l-.88.88.88.88.88-.88-.88-.88ZM41.47,73.95l-.88.88.88.88.88-.88-.88-.88ZM39.64,72.12l-.88.88.88.88.88-.88-.88-.88ZM37.81,70.29l-.88.88.88.88.88-.88-.88-.88ZM35.97,68.46l-.88.88.88.88.88-.88-.88-.88ZM34.14,66.63l-.88.88.88.88.88-.88-.88-.88ZM32.31,64.8l-.88.88.88.88.88-.88-.88-.88ZM30.48,62.97l-.88.88.88.88.88-.88-.88-.88ZM28.65,61.14l-.88.88.88.88.88-.88-.88-.88ZM26.82,59.31l-.88.88.88.88.88-.88-.88-.88ZM24.99,57.47l-.88.88.88.88.88-.88-.88-.88ZM23.16,55.64l-.88.88.88.88.88-.88-.88-.88ZM21.33,53.81l-.88.88.88.88.88-.88-.88-.88ZM19.5,51.98l-.88.88.88.88.88-.88-.88-.88ZM17.66,50.15l-.88.88.88.88.88-.88-.88-.88ZM15.83,48.32l-.88.88.88.88.88-.88-.88-.88ZM14,46.49l-.88.88.88.88.88-.88-.88-.88ZM12.17,44.66l-.88.88.88.88.88-.88-.88-.88ZM10.34,42.83l-.88.88.88.88.88-.88-.88-.88ZM8.51,41l-.88.88.88.88.88-.88-.88-.88ZM45.13,73.95l-.88.88.88.88.88-.88-.88-.88ZM43.3,72.12l-.88.88.88.88.88-.88-.88-.88ZM41.47,70.29l-.88.88.88.88.88-.88-.88-.88ZM39.64,68.46l-.88.88.88.88.88-.88-.88-.88ZM37.81,66.63l-.88.88.88.88.88-.88-.88-.88ZM35.97,64.8l-.88.88.88.88.88-.88-.88-.88ZM34.14,62.97l-.88.88.88.88.88-.88-.88-.88ZM32.31,61.14l-.88.88.88.88.88-.88-.88-.88ZM30.48,59.31l-.88.88.88.88.88-.88-.88-.88ZM28.65,57.47l-.88.88.88.88.88-.88-.88-.88ZM26.82,55.64l-.88.88.88.88.88-.88-.88-.88ZM24.99,53.81l-.88.88.88.88.88-.88-.88-.88ZM23.16,51.98l-.88.88.88.88.88-.88-.88-.88ZM21.33,50.15l-.88.88.88.88.88-.88-.88-.88ZM19.5,48.32l-.88.88.88.88.88-.88-.88-.88ZM17.66,46.49l-.88.88.88.88.88-.88-.88-.88ZM15.83,44.66l-.88.88.88.88.88-.88-.88-.88ZM14,42.83l-.88.88.88.88.88-.88-.88-.88ZM12.17,41l-.88.88.88.88.88-.88-.88-.88ZM10.34,39.16l-.88.88.88.88.88-.88-.88-.88ZM8.51,37.33l-.88.88.88.88.88-.88-.88-.88ZM46.96,72.12l-.88.88.88.88.88-.88-.88-.88ZM45.13,70.29l-.88.88.88.88.88-.88-.88-.88ZM43.3,68.46l-.88.88.88.88.88-.88-.88-.88ZM41.47,66.63l-.88.88.88.88.88-.88-.88-.88ZM39.64,64.8l-.88.88.88.88.88-.88-.88-.88ZM37.81,62.97l-.88.88.88.88.88-.88-.88-.88ZM35.97,61.14l-.88.88.88.88.88-.88-.88-.88ZM34.14,59.31l-.88.88.88.88.88-.88-.88-.88ZM32.31,57.47l-.88.88.88.88.88-.88-.88-.88ZM30.48,55.64l-.88.88.88.88.88-.88-.88-.88ZM28.65,53.81l-.88.88.88.88.88-.88-.88-.88ZM26.82,51.98l-.88.88.88.88.88-.88-.88-.88ZM24.99,50.15l-.88.88.88.88.88-.88-.88-.88ZM23.16,48.32l-.88.88.88.88.88-.88-.88-.88ZM21.33,46.49l-.88.88.88.88.88-.88-.88-.88ZM19.5,44.66l-.88.88.88.88.88-.88-.88-.88ZM17.66,42.83l-.88.88.88.88.88-.88-.88-.88ZM15.83,41l-.88.88.88.88.88-.88-.88-.88ZM14,39.16l-.88.88.88.88.88-.88-.88-.88ZM12.17,37.33l-.88.88.88.88.88-.88-.88-.88ZM10.34,35.5l-.88.88.88.88.88-.88-.88-.88ZM48.79,70.29l-.88.88.88.88.88-.88-.88-.88ZM46.96,68.46l-.88.88.88.88.88-.88-.88-.88ZM45.13,66.63l-.88.88.88.88.88-.88-.88-.88ZM43.3,64.8l-.88.88.88.88.88-.88-.88-.88ZM41.47,62.97l-.88.88.88.88.88-.88-.88-.88ZM39.64,61.14l-.88.88.88.88.88-.88-.88-.88ZM37.81,59.31l-.88.88.88.88.88-.88-.88-.88ZM35.97,57.47l-.88.88.88.88.88-.88-.88-.88ZM34.14,55.64l-.88.88.88.88.88-.88-.88-.88ZM32.31,53.81l-.88.88.88.88.88-.88-.88-.88ZM30.48,51.98l-.88.88.88.88.88-.88-.88-.88ZM28.65,50.15l-.88.88.88.88.88-.88-.88-.88ZM26.82,48.32l-.88.88.88.88.88-.88-.88-.88ZM24.99,46.49l-.88.88.88.88.88-.88-.88-.88ZM23.16,44.66l-.88.88.88.88.88-.88-.88-.88ZM21.33,42.83l-.88.88.88.88.88-.88-.88-.88ZM19.5,41l-.88.88.88.88.88-.88-.88-.88ZM17.66,39.16l-.88.88.88.88.88-.88-.88-.88ZM15.83,37.33l-.88.88.88.88.88-.88-.88-.88ZM14,35.5l-.88.88.88.88.88-.88-.88-.88ZM12.17,33.67l-.88.88.88.88.88-.88-.88-.88ZM50.62,68.46l-.88.88.88.88.88-.88-.88-.88ZM48.79,66.63l-.88.88.88.88.88-.88-.88-.88ZM46.96,64.8l-.88.88.88.88.88-.88-.88-.88ZM45.13,62.97l-.88.88.88.88.88-.88-.88-.88ZM43.3,61.14l-.88.88.88.88.88-.88-.88-.88ZM41.47,59.31l-.88.88.88.88.88-.88-.88-.88ZM39.64,57.47l-.88.88.88.88.88-.88-.88-.88ZM37.81,55.64l-.88.88.88.88.88-.88-.88-.88ZM35.97,53.81l-.88.88.88.88.88-.88-.88-.88ZM34.14,51.98l-.88.88.88.88.88-.88-.88-.88ZM32.31,50.15l-.88.88.88.88.88-.88-.88-.88ZM30.48,48.32l-.88.88.88.88.88-.88-.88-.88ZM28.65,46.49l-.88.88.88.88.88-.88-.88-.88ZM26.82,44.66l-.88.88.88.88.88-.88-.88-.88ZM24.99,42.83l-.88.88.88.88.88-.88-.88-.88ZM23.16,41l-.88.88.88.88.88-.88-.88-.88ZM21.33,39.16l-.88.88.88.88.88-.88-.88-.88ZM19.5,37.33l-.88.88.88.88.88-.88-.88-.88ZM17.66,35.5l-.88.88.88.88.88-.88-.88-.88ZM15.83,33.67l-.88.88.88.88.88-.88-.88-.88ZM14,31.84l-.88.88.88.88.88-.88-.88-.88ZM52.45,66.63l-.88.88.88.88.88-.88-.88-.88ZM50.62,64.8l-.88.88.88.88.88-.88-.88-.88ZM48.79,62.97l-.88.88.88.88.88-.88-.88-.88ZM46.96,61.14l-.88.88.88.88.88-.88-.88-.88ZM45.13,59.31l-.88.88.88.88.88-.88-.88-.88ZM43.3,57.47l-.88.88.88.88.88-.88-.88-.88ZM41.47,55.64l-.88.88.88.88.88-.88-.88-.88ZM39.64,53.81l-.88.88.88.88.88-.88-.88-.88ZM37.81,51.98l-.88.88.88.88.88-.88-.88-.88ZM35.97,50.15l-.88.88.88.88.88-.88-.88-.88ZM34.14,48.32l-.88.88.88.88.88-.88-.88-.88ZM32.31,46.49l-.88.88.88.88.88-.88-.88-.88ZM30.48,44.66l-.88.88.88.88.88-.88-.88-.88ZM28.65,42.83l-.88.88.88.88.88-.88-.88-.88ZM26.82,41l-.88.88.88.88.88-.88-.88-.88ZM24.99,39.16l-.88.88.88.88.88-.88-.88-.88ZM23.16,37.33l-.88.88.88.88.88-.88-.88-.88ZM21.33,35.5l-.88.88.88.88.88-.88-.88-.88ZM19.5,33.67l-.88.88.88.88.88-.88-.88-.88ZM17.66,31.84l-.88.88.88.88.88-.88-.88-.88ZM15.83,30.01l-.88.88.88.88.88-.88-.88-.88ZM14,28.18l-.88.88.88.88.88-.88-.88-.88ZM54.28,64.8l-.88.88.88.88.88-.88-.88-.88ZM52.45,62.97l-.88.88.88.88.88-.88-.88-.88ZM50.62,61.14l-.88.88.88.88.88-.88-.88-.88ZM48.79,59.31l-.88.88.88.88.88-.88-.88-.88ZM46.96,57.47l-.88.88.88.88.88-.88-.88-.88ZM45.13,55.64l-.88.88.88.88.88-.88-.88-.88ZM43.3,53.81l-.88.88.88.88.88-.88-.88-.88ZM41.47,51.98l-.88.88.88.88.88-.88-.88-.88ZM39.64,50.15l-.88.88.88.88.88-.88-.88-.88ZM37.81,48.32l-.88.88.88.88.88-.88-.88-.88ZM35.97,46.49l-.88.88.88.88.88-.88-.88-.88ZM34.14,44.66l-.88.88.88.88.88-.88-.88-.88ZM32.31,42.83l-.88.88.88.88.88-.88-.88-.88ZM30.48,41l-.88.88.88.88.88-.88-.88-.88ZM28.65,39.16l-.88.88.88.88.88-.88-.88-.88ZM26.82,37.33l-.88.88.88.88.88-.88-.88-.88ZM24.99,35.5l-.88.88.88.88.88-.88-.88-.88ZM23.16,33.67l-.88.88.88.88.88-.88-.88-.88ZM21.33,31.84l-.88.88.88.88.88-.88-.88-.88ZM19.5,30.01l-.88.88.88.88.88-.88-.88-.88ZM17.66,28.18l-.88.88.88.88.88-.88-.88-.88ZM15.83,26.35l-.88.88.88.88.88-.88-.88-.88ZM56.12,62.97l-.88.88.88.88.88-.88-.88-.88ZM54.28,61.14l-.88.88.88.88.88-.88-.88-.88ZM52.45,59.31l-.88.88.88.88.88-.88-.88-.88ZM50.62,57.47l-.88.88.88.88.88-.88-.88-.88ZM48.79,55.64l-.88.88.88.88.88-.88-.88-.88ZM46.96,53.81l-.88.88.88.88.88-.88-.88-.88ZM45.13,51.98l-.88.88.88.88.88-.88-.88-.88ZM43.3,50.15l-.88.88.88.88.88-.88-.88-.88ZM41.47,48.32l-.88.88.88.88.88-.88-.88-.88ZM39.64,46.49l-.88.88.88.88.88-.88-.88-.88ZM37.81,44.66l-.88.88.88.88.88-.88-.88-.88ZM35.97,42.83l-.88.88.88.88.88-.88-.88-.88ZM34.14,41l-.88.88.88.88.88-.88-.88-.88ZM32.31,39.16l-.88.88.88.88.88-.88-.88-.88ZM30.48,37.33l-.88.88.88.88.88-.88-.88-.88ZM28.65,35.5l-.88.88.88.88.88-.88-.88-.88ZM26.82,33.67l-.88.88.88.88.88-.88-.88-.88ZM24.99,31.84l-.88.88.88.88.88-.88-.88-.88ZM23.16,30.01l-.88.88.88.88.88-.88-.88-.88ZM21.33,28.18l-.88.88.88.88.88-.88-.88-.88ZM19.5,26.35l-.88.88.88.88.88-.88-.88-.88ZM17.66,24.52l-.88.88.88.88.88-.88-.88-.88ZM59.78,62.97l-.88.88.88.88.88-.88-.88-.88ZM57.95,61.14l-.88.88.88.88.88-.88-.88-.88ZM56.12,59.31l-.88.88.88.88.88-.88-.88-.88ZM54.28,57.47l-.88.88.88.88.88-.88-.88-.88ZM52.45,55.64l-.88.88.88.88.88-.88-.88-.88ZM50.62,53.81l-.88.88.88.88.88-.88-.88-.88ZM48.79,51.98l-.88.88.88.88.88-.88-.88-.88ZM46.96,50.15l-.88.88.88.88.88-.88-.88-.88ZM45.13,48.32l-.88.88.88.88.88-.88-.88-.88ZM43.3,46.49l-.88.88.88.88.88-.88-.88-.88ZM41.47,44.66l-.88.88.88.88.88-.88-.88-.88ZM39.64,42.83l-.88.88.88.88.88-.88-.88-.88ZM37.81,41l-.88.88.88.88.88-.88-.88-.88ZM35.97,39.16l-.88.88.88.88.88-.88-.88-.88ZM34.14,37.33l-.88.88.88.88.88-.88-.88-.88ZM32.31,35.5l-.88.88.88.88.88-.88-.88-.88ZM30.48,33.67l-.88.88.88.88.88-.88-.88-.88ZM28.65,31.84l-.88.88.88.88.88-.88-.88-.88ZM26.82,30.01l-.88.88.88.88.88-.88-.88-.88ZM24.99,28.18l-.88.88.88.88.88-.88-.88-.88ZM23.16,26.35l-.88.88.88.88.88-.88-.88-.88ZM21.33,24.52l-.88.88.88.88.88-.88-.88-.88ZM19.5,22.69l-.88.88.88.88.88-.88-.88-.88ZM61.61,61.14l-.88.88.88.88.88-.88-.88-.88ZM59.78,59.31l-.88.88.88.88.88-.88-.88-.88ZM57.95,57.47l-.88.88.88.88.88-.88-.88-.88ZM56.12,55.64l-.88.88.88.88.88-.88-.88-.88ZM54.28,53.81l-.88.88.88.88.88-.88-.88-.88ZM52.45,51.98l-.88.88.88.88.88-.88-.88-.88ZM50.62,50.15l-.88.88.88.88.88-.88-.88-.88ZM48.79,48.32l-.88.88.88.88.88-.88-.88-.88ZM46.96,46.49l-.88.88.88.88.88-.88-.88-.88ZM45.13,44.66l-.88.88.88.88.88-.88-.88-.88ZM43.3,42.83l-.88.88.88.88.88-.88-.88-.88ZM41.47,41l-.88.88.88.88.88-.88-.88-.88ZM39.64,39.16l-.88.88.88.88.88-.88-.88-.88ZM37.81,37.33l-.88.88.88.88.88-.88-.88-.88ZM35.97,35.5l-.88.88.88.88.88-.88-.88-.88ZM34.14,33.67l-.88.88.88.88.88-.88-.88-.88ZM32.31,31.84l-.88.88.88.88.88-.88-.88-.88ZM30.48,30.01l-.88.88.88.88.88-.88-.88-.88ZM28.65,28.18l-.88.88.88.88.88-.88-.88-.88ZM26.82,26.35l-.88.88.88.88.88-.88-.88-.88ZM24.99,24.52l-.88.88.88.88.88-.88-.88-.88ZM23.16,22.69l-.88.88.88.88.88-.88-.88-.88ZM21.33,20.85l-.88.88.88.88.88-.88-.88-.88ZM118.37,114.24l-.88.88.88.88.88-.88-.88-.88ZM116.54,112.4l-.88.88.88.88.88-.88-.88-.88ZM65.27,61.14l-.88.88.88.88.88-.88-.88-.88ZM63.44,59.31l-.88.88.88.88.88-.88-.88-.88ZM61.61,57.47l-.88.88.88.88.88-.88-.88-.88ZM59.78,55.64l-.88.88.88.88.88-.88-.88-.88ZM57.95,53.81l-.88.88.88.88.88-.88-.88-.88ZM56.12,51.98l-.88.88.88.88.88-.88-.88-.88ZM54.28,50.15l-.88.88.88.88.88-.88-.88-.88ZM52.45,48.32l-.88.88.88.88.88-.88-.88-.88ZM50.62,46.49l-.88.88.88.88.88-.88-.88-.88ZM48.79,44.66l-.88.88.88.88.88-.88-.88-.88ZM46.96,42.83l-.88.88.88.88.88-.88-.88-.88ZM45.13,41l-.88.88.88.88.88-.88-.88-.88ZM43.3,39.16l-.88.88.88.88.88-.88-.88-.88ZM41.47,37.33l-.88.88.88.88.88-.88-.88-.88ZM39.64,35.5l-.88.88.88.88.88-.88-.88-.88ZM37.81,33.67l-.88.88.88.88.88-.88-.88-.88ZM35.97,31.84l-.88.88.88.88.88-.88-.88-.88ZM34.14,30.01l-.88.88.88.88.88-.88-.88-.88ZM32.31,28.18l-.88.88.88.88.88-.88-.88-.88ZM30.48,26.35l-.88.88.88.88.88-.88-.88-.88ZM28.65,24.52l-.88.88.88.88.88-.88-.88-.88ZM26.82,22.69l-.88.88.88.88.88-.88-.88-.88ZM24.99,20.85l-.88.88.88.88.88-.88-.88-.88ZM23.16,19.02l-.88.88.88.88.88-.88-.88-.88ZM122.03,114.24l-.88.88.88.88.88-.88-.88-.88ZM120.2,112.4l-.88.88.88.88.88-.88-.88-.88ZM118.37,110.57l-.88.88.88.88.88-.88-.88-.88ZM116.54,108.74l-.88.88.88.88.88-.88-.88-.88ZM67.1,59.31l-.88.88.88.88.88-.88-.88-.88ZM65.27,57.47l-.88.88.88.88.88-.88-.88-.88ZM63.44,55.64l-.88.88.88.88.88-.88-.88-.88ZM61.61,53.81l-.88.88.88.88.88-.88-.88-.88ZM59.78,51.98l-.88.88.88.88.88-.88-.88-.88ZM57.95,50.15l-.88.88.88.88.88-.88-.88-.88ZM56.12,48.32l-.88.88.88.88.88-.88-.88-.88ZM54.28,46.49l-.88.88.88.88.88-.88-.88-.88ZM52.45,44.66l-.88.88.88.88.88-.88-.88-.88ZM50.62,42.83l-.88.88.88.88.88-.88-.88-.88ZM48.79,41l-.88.88.88.88.88-.88-.88-.88ZM46.96,39.16l-.88.88.88.88.88-.88-.88-.88ZM45.13,37.33l-.88.88.88.88.88-.88-.88-.88ZM43.3,35.5l-.88.88.88.88.88-.88-.88-.88ZM41.47,33.67l-.88.88.88.88.88-.88-.88-.88ZM39.64,31.84l-.88.88.88.88.88-.88-.88-.88ZM37.81,30.01l-.88.88.88.88.88-.88-.88-.88ZM35.97,28.18l-.88.88.88.88.88-.88-.88-.88ZM34.14,26.35l-.88.88.88.88.88-.88-.88-.88ZM32.31,24.52l-.88.88.88.88.88-.88-.88-.88ZM30.48,22.69l-.88.88.88.88.88-.88-.88-.88ZM28.65,20.85l-.88.88.88.88.88-.88-.88-.88ZM26.82,19.02l-.88.88.88.88.88-.88-.88-.88ZM24.99,17.19l-.88.88.88.88.88-.88-.88-.88ZM125.69,114.24l-.88.88.88.88.88-.88-.88-.88ZM123.86,112.4l-.88.88.88.88.88-.88-.88-.88ZM122.03,110.57l-.88.88.88.88.88-.88-.88-.88ZM120.2,108.74l-.88.88.88.88.88-.88-.88-.88ZM118.37,106.91l-.88.88.88.88.88-.88-.88-.88ZM116.54,105.08l-.88.88.88.88.88-.88-.88-.88ZM70.76,59.31l-.88.88.88.88.88-.88-.88-.88ZM68.93,57.47l-.88.88.88.88.88-.88-.88-.88ZM67.1,55.64l-.88.88.88.88.88-.88-.88-.88ZM65.27,53.81l-.88.88.88.88.88-.88-.88-.88ZM63.44,51.98l-.88.88.88.88.88-.88-.88-.88ZM61.61,50.15l-.88.88.88.88.88-.88-.88-.88ZM59.78,48.32l-.88.88.88.88.88-.88-.88-.88ZM57.95,46.49l-.88.88.88.88.88-.88-.88-.88ZM56.12,44.66l-.88.88.88.88.88-.88-.88-.88ZM54.28,42.83l-.88.88.88.88.88-.88-.88-.88ZM52.45,41l-.88.88.88.88.88-.88-.88-.88ZM50.62,39.16l-.88.88.88.88.88-.88-.88-.88ZM48.79,37.33l-.88.88.88.88.88-.88-.88-.88ZM46.96,35.5l-.88.88.88.88.88-.88-.88-.88ZM45.13,33.67l-.88.88.88.88.88-.88-.88-.88ZM43.3,31.84l-.88.88.88.88.88-.88-.88-.88ZM41.47,30.01l-.88.88.88.88.88-.88-.88-.88ZM39.64,28.18l-.88.88.88.88.88-.88-.88-.88ZM37.81,26.35l-.88.88.88.88.88-.88-.88-.88ZM35.97,24.52l-.88.88.88.88.88-.88-.88-.88ZM34.14,22.69l-.88.88.88.88.88-.88-.88-.88ZM32.31,20.85l-.88.88.88.88.88-.88-.88-.88ZM30.48,19.02l-.88.88.88.88.88-.88-.88-.88ZM28.65,17.19l-.88.88.88.88.88-.88-.88-.88ZM26.82,15.36l-.88.88.88.88.88-.88-.88-.88ZM127.52,112.4l-.88.88.88.88.88-.88-.88-.88ZM125.69,110.57l-.88.88.88.88.88-.88-.88-.88ZM123.86,108.74l-.88.88.88.88.88-.88-.88-.88ZM122.03,106.91l-.88.88.88.88.88-.88-.88-.88ZM120.2,105.08l-.88.88.88.88.88-.88-.88-.88ZM118.37,103.25l-.88.88.88.88.88-.88-.88-.88ZM116.54,101.42l-.88.88.88.88.88-.88-.88-.88ZM74.43,59.31l-.88.88.88.88.88-.88-.88-.88ZM72.59,57.47l-.88.88.88.88.88-.88-.88-.88ZM70.76,55.64l-.88.88.88.88.88-.88-.88-.88ZM68.93,53.81l-.88.88.88.88.88-.88-.88-.88ZM67.1,51.98l-.88.88.88.88.88-.88-.88-.88ZM65.27,50.15l-.88.88.88.88.88-.88-.88-.88ZM63.44,48.32l-.88.88.88.88.88-.88-.88-.88ZM61.61,46.49l-.88.88.88.88.88-.88-.88-.88ZM59.78,44.66l-.88.88.88.88.88-.88-.88-.88ZM57.95,42.83l-.88.88.88.88.88-.88-.88-.88ZM56.12,41l-.88.88.88.88.88-.88-.88-.88ZM54.28,39.16l-.88.88.88.88.88-.88-.88-.88ZM52.45,37.33l-.88.88.88.88.88-.88-.88-.88ZM50.62,35.5l-.88.88.88.88.88-.88-.88-.88ZM48.79,33.67l-.88.88.88.88.88-.88-.88-.88ZM46.96,31.84l-.88.88.88.88.88-.88-.88-.88ZM45.13,30.01l-.88.88.88.88.88-.88-.88-.88ZM43.3,28.18l-.88.88.88.88.88-.88-.88-.88ZM41.47,26.35l-.88.88.88.88.88-.88-.88-.88ZM39.64,24.52l-.88.88.88.88.88-.88-.88-.88ZM37.81,22.69l-.88.88.88.88.88-.88-.88-.88ZM35.97,20.85l-.88.88.88.88.88-.88-.88-.88ZM34.14,19.02l-.88.88.88.88.88-.88-.88-.88ZM32.31,17.19l-.88.88.88.88.88-.88-.88-.88ZM30.48,15.36l-.88.88.88.88.88-.88-.88-.88ZM131.19,112.4l-.88.88.88.88.88-.88-.88-.88ZM129.36,110.57l-.88.88.88.88.88-.88-.88-.88ZM127.52,108.74l-.88.88.88.88.88-.88-.88-.88ZM125.69,106.91l-.88.88.88.88.88-.88-.88-.88ZM123.86,105.08l-.88.88.88.88.88-.88-.88-.88ZM122.03,103.25l-.88.88.88.88.88-.88-.88-.88ZM120.2,101.42l-.88.88.88.88.88-.88-.88-.88ZM118.37,99.59l-.88.88.88.88.88-.88-.88-.88ZM116.54,97.76l-.88.88.88.88.88-.88-.88-.88ZM78.09,59.31l-.88.88.88.88.88-.88-.88-.88ZM76.26,57.47l-.88.88.88.88.88-.88-.88-.88ZM74.43,55.64l-.88.88.88.88.88-.88-.88-.88ZM72.59,53.81l-.88.88.88.88.88-.88-.88-.88ZM70.76,51.98l-.88.88.88.88.88-.88-.88-.88ZM68.93,50.15l-.88.88.88.88.88-.88-.88-.88ZM67.1,48.32l-.88.88.88.88.88-.88-.88-.88ZM65.27,46.49l-.88.88.88.88.88-.88-.88-.88ZM63.44,44.66l-.88.88.88.88.88-.88-.88-.88ZM61.61,42.83l-.88.88.88.88.88-.88-.88-.88ZM59.78,41l-.88.88.88.88.88-.88-.88-.88ZM57.95,39.16l-.88.88.88.88.88-.88-.88-.88ZM56.12,37.33l-.88.88.88.88.88-.88-.88-.88ZM54.28,35.5l-.88.88.88.88.88-.88-.88-.88ZM52.45,33.67l-.88.88.88.88.88-.88-.88-.88ZM50.62,31.84l-.88.88.88.88.88-.88-.88-.88ZM48.79,30.01l-.88.88.88.88.88-.88-.88-.88ZM46.96,28.18l-.88.88.88.88.88-.88-.88-.88ZM45.13,26.35l-.88.88.88.88.88-.88-.88-.88ZM43.3,24.52l-.88.88.88.88.88-.88-.88-.88ZM41.47,22.69l-.88.88.88.88.88-.88-.88-.88ZM39.64,20.85l-.88.88.88.88.88-.88-.88-.88ZM37.81,19.02l-.88.88.88.88.88-.88-.88-.88ZM35.97,17.19l-.88.88.88.88.88-.88-.88-.88ZM34.14,15.36l-.88.88.88.88.88-.88-.88-.88ZM32.31,13.53l-.88.88.88.88.88-.88-.88-.88ZM134.85,112.4l-.88.88.88.88.88-.88-.88-.88ZM133.02,110.57l-.88.88.88.88.88-.88-.88-.88ZM131.19,108.74l-.88.88.88.88.88-.88-.88-.88ZM129.36,106.91l-.88.88.88.88.88-.88-.88-.88ZM127.52,105.08l-.88.88.88.88.88-.88-.88-.88ZM125.69,103.25l-.88.88.88.88.88-.88-.88-.88ZM123.86,101.42l-.88.88.88.88.88-.88-.88-.88ZM122.03,99.59l-.88.88.88.88.88-.88-.88-.88ZM120.2,97.76l-.88.88.88.88.88-.88-.88-.88ZM118.37,95.93l-.88.88.88.88.88-.88-.88-.88ZM116.54,94.09l-.88.88.88.88.88-.88-.88-.88ZM81.75,59.31l-.88.88.88.88.88-.88-.88-.88ZM79.92,57.47l-.88.88.88.88.88-.88-.88-.88ZM78.09,55.64l-.88.88.88.88.88-.88-.88-.88ZM76.26,53.81l-.88.88.88.88.88-.88-.88-.88ZM74.43,51.98l-.88.88.88.88.88-.88-.88-.88ZM72.59,50.15l-.88.88.88.88.88-.88-.88-.88ZM70.76,48.32l-.88.88.88.88.88-.88-.88-.88ZM68.93,46.49l-.88.88.88.88.88-.88-.88-.88ZM67.1,44.66l-.88.88.88.88.88-.88-.88-.88ZM65.27,42.83l-.88.88.88.88.88-.88-.88-.88ZM63.44,41l-.88.88.88.88.88-.88-.88-.88ZM61.61,39.16l-.88.88.88.88.88-.88-.88-.88ZM59.78,37.33l-.88.88.88.88.88-.88-.88-.88ZM57.95,35.5l-.88.88.88.88.88-.88-.88-.88ZM56.12,33.67l-.88.88.88.88.88-.88-.88-.88ZM54.28,31.84l-.88.88.88.88.88-.88-.88-.88ZM52.45,30.01l-.88.88.88.88.88-.88-.88-.88ZM50.62,28.18l-.88.88.88.88.88-.88-.88-.88ZM48.79,26.35l-.88.88.88.88.88-.88-.88-.88ZM46.96,24.52l-.88.88.88.88.88-.88-.88-.88ZM45.13,22.69l-.88.88.88.88.88-.88-.88-.88ZM43.3,20.85l-.88.88.88.88.88-.88-.88-.88ZM41.47,19.02l-.88.88.88.88.88-.88-.88-.88ZM39.64,17.19l-.88.88.88.88.88-.88-.88-.88ZM37.81,15.36l-.88.88.88.88.88-.88-.88-.88ZM35.97,13.53l-.88.88.88.88.88-.88-.88-.88ZM34.14,11.7l-.88.88.88.88.88-.88-.88-.88ZM136.68,110.57l-.88.88.88.88.88-.88-.88-.88ZM134.85,108.74l-.88.88.88.88.88-.88-.88-.88ZM133.02,106.91l-.88.88.88.88.88-.88-.88-.88ZM131.19,105.08l-.88.88.88.88.88-.88-.88-.88ZM129.36,103.25l-.88.88.88.88.88-.88-.88-.88ZM127.52,101.42l-.88.88.88.88.88-.88-.88-.88ZM125.69,99.59l-.88.88.88.88.88-.88-.88-.88ZM123.86,97.76l-.88.88.88.88.88-.88-.88-.88ZM122.03,95.93l-.88.88.88.88.88-.88-.88-.88ZM120.2,94.09l-.88.88.88.88.88-.88-.88-.88ZM118.37,92.26l-.88.88.88.88.88-.88-.88-.88ZM116.54,90.43l-.88.88.88.88.88-.88-.88-.88ZM85.41,59.31l-.88.88.88.88.88-.88-.88-.88ZM83.58,57.47l-.88.88.88.88.88-.88-.88-.88ZM81.75,55.64l-.88.88.88.88.88-.88-.88-.88ZM79.92,53.81l-.88.88.88.88.88-.88-.88-.88ZM78.09,51.98l-.88.88.88.88.88-.88-.88-.88ZM76.26,50.15l-.88.88.88.88.88-.88-.88-.88ZM74.43,48.32l-.88.88.88.88.88-.88-.88-.88ZM72.59,46.49l-.88.88.88.88.88-.88-.88-.88ZM70.76,44.66l-.88.88.88.88.88-.88-.88-.88ZM68.93,42.83l-.88.88.88.88.88-.88-.88-.88ZM67.1,41l-.88.88.88.88.88-.88-.88-.88ZM65.27,39.16l-.88.88.88.88.88-.88-.88-.88ZM63.44,37.33l-.88.88.88.88.88-.88-.88-.88ZM61.61,35.5l-.88.88.88.88.88-.88-.88-.88ZM59.78,33.67l-.88.88.88.88.88-.88-.88-.88ZM57.95,31.84l-.88.88.88.88.88-.88-.88-.88ZM56.12,30.01l-.88.88.88.88.88-.88-.88-.88ZM54.28,28.18l-.88.88.88.88.88-.88-.88-.88ZM52.45,26.35l-.88.88.88.88.88-.88-.88-.88ZM50.62,24.52l-.88.88.88.88.88-.88-.88-.88ZM48.79,22.69l-.88.88.88.88.88-.88-.88-.88ZM46.96,20.85l-.88.88.88.88.88-.88-.88-.88ZM45.13,19.02l-.88.88.88.88.88-.88-.88-.88ZM43.3,17.19l-.88.88.88.88.88-.88-.88-.88ZM41.47,15.36l-.88.88.88.88.88-.88-.88-.88ZM39.64,13.53l-.88.88.88.88.88-.88-.88-.88ZM37.81,11.7l-.88.88.88.88.88-.88-.88-.88ZM140.34,110.57l-.88.88.88.88.88-.88-.88-.88ZM138.51,108.74l-.88.88.88.88.88-.88-.88-.88ZM136.68,106.91l-.88.88.88.88.88-.88-.88-.88ZM134.85,105.08l-.88.88.88.88.88-.88-.88-.88ZM133.02,103.25l-.88.88.88.88.88-.88-.88-.88ZM131.19,101.42l-.88.88.88.88.88-.88-.88-.88ZM129.36,99.59l-.88.88.88.88.88-.88-.88-.88ZM127.52,97.76l-.88.88.88.88.88-.88-.88-.88ZM125.69,95.93l-.88.88.88.88.88-.88-.88-.88ZM123.86,94.09l-.88.88.88.88.88-.88-.88-.88ZM122.03,92.26l-.88.88.88.88.88-.88-.88-.88ZM120.2,90.43l-.88.88.88.88.88-.88-.88-.88ZM118.37,88.6l-.88.88.88.88.88-.88-.88-.88ZM116.54,86.77l-.88.88.88.88.88-.88-.88-.88ZM114.71,84.94l-.88.88.88.88.88-.88-.88-.88ZM90.9,61.14l-.88.88.88.88.88-.88-.88-.88ZM89.07,59.31l-.88.88.88.88.88-.88-.88-.88ZM87.24,57.47l-.88.88.88.88.88-.88-.88-.88ZM85.41,55.64l-.88.88.88.88.88-.88-.88-.88ZM83.58,53.81l-.88.88.88.88.88-.88-.88-.88ZM81.75,51.98l-.88.88.88.88.88-.88-.88-.88ZM79.92,50.15l-.88.88.88.88.88-.88-.88-.88ZM78.09,48.32l-.88.88.88.88.88-.88-.88-.88ZM76.26,46.49l-.88.88.88.88.88-.88-.88-.88ZM74.43,44.66l-.88.88.88.88.88-.88-.88-.88ZM72.59,42.83l-.88.88.88.88.88-.88-.88-.88ZM70.76,41l-.88.88.88.88.88-.88-.88-.88ZM68.93,39.16l-.88.88.88.88.88-.88-.88-.88ZM67.1,37.33l-.88.88.88.88.88-.88-.88-.88ZM65.27,35.5l-.88.88.88.88.88-.88-.88-.88ZM63.44,33.67l-.88.88.88.88.88-.88-.88-.88ZM61.61,31.84l-.88.88.88.88.88-.88-.88-.88ZM59.78,30.01l-.88.88.88.88.88-.88-.88-.88ZM57.95,28.18l-.88.88.88.88.88-.88-.88-.88ZM56.12,26.35l-.88.88.88.88.88-.88-.88-.88ZM54.28,24.52l-.88.88.88.88.88-.88-.88-.88ZM52.45,22.69l-.88.88.88.88.88-.88-.88-.88ZM50.62,20.85l-.88.88.88.88.88-.88-.88-.88ZM48.79,19.02l-.88.88.88.88.88-.88-.88-.88ZM46.96,17.19l-.88.88.88.88.88-.88-.88-.88ZM45.13,15.36l-.88.88.88.88.88-.88-.88-.88ZM43.3,13.53l-.88.88.88.88.88-.88-.88-.88ZM41.47,11.7l-.88.88.88.88.88-.88-.88-.88ZM39.64,9.87l-.88.88.88.88.88-.88-.88-.88ZM142.17,108.74l-.88.88.88.88.88-.88-.88-.88ZM140.34,106.91l-.88.88.88.88.88-.88-.88-.88ZM138.51,105.08l-.88.88.88.88.88-.88-.88-.88ZM136.68,103.25l-.88.88.88.88.88-.88-.88-.88ZM134.85,101.42l-.88.88.88.88.88-.88-.88-.88ZM133.02,99.59l-.88.88.88.88.88-.88-.88-.88ZM131.19,97.76l-.88.88.88.88.88-.88-.88-.88ZM129.36,95.93l-.88.88.88.88.88-.88-.88-.88ZM127.52,94.09l-.88.88.88.88.88-.88-.88-.88ZM125.69,92.26l-.88.88.88.88.88-.88-.88-.88ZM123.86,90.43l-.88.88.88.88.88-.88-.88-.88ZM122.03,88.6l-.88.88.88.88.88-.88-.88-.88ZM120.2,86.77l-.88.88.88.88.88-.88-.88-.88ZM118.37,84.94l-.88.88.88.88.88-.88-.88-.88ZM116.54,83.11l-.88.88.88.88.88-.88-.88-.88ZM114.71,81.28l-.88.88.88.88.88-.88-.88-.88ZM112.88,79.45l-.88.88.88.88.88-.88-.88-.88ZM111.05,77.62l-.88.88.88.88.88-.88-.88-.88ZM98.23,64.8l-.88.88.88.88.88-.88-.88-.88ZM96.4,62.97l-.88.88.88.88.88-.88-.88-.88ZM94.57,61.14l-.88.88.88.88.88-.88-.88-.88ZM92.74,59.31l-.88.88.88.88.88-.88-.88-.88ZM90.9,57.47l-.88.88.88.88.88-.88-.88-.88ZM89.07,55.64l-.88.88.88.88.88-.88-.88-.88ZM87.24,53.81l-.88.88.88.88.88-.88-.88-.88ZM85.41,51.98l-.88.88.88.88.88-.88-.88-.88ZM83.58,50.15l-.88.88.88.88.88-.88-.88-.88ZM81.75,48.32l-.88.88.88.88.88-.88-.88-.88ZM79.92,46.49l-.88.88.88.88.88-.88-.88-.88ZM78.09,44.66l-.88.88.88.88.88-.88-.88-.88ZM76.26,42.83l-.88.88.88.88.88-.88-.88-.88ZM74.43,41l-.88.88.88.88.88-.88-.88-.88ZM72.59,39.16l-.88.88.88.88.88-.88-.88-.88ZM70.76,37.33l-.88.88.88.88.88-.88-.88-.88ZM68.93,35.5l-.88.88.88.88.88-.88-.88-.88ZM67.1,33.67l-.88.88.88.88.88-.88-.88-.88ZM65.27,31.84l-.88.88.88.88.88-.88-.88-.88ZM63.44,30.01l-.88.88.88.88.88-.88-.88-.88ZM61.61,28.18l-.88.88.88.88.88-.88-.88-.88ZM59.78,26.35l-.88.88.88.88.88-.88-.88-.88ZM57.95,24.52l-.88.88.88.88.88-.88-.88-.88ZM56.12,22.69l-.88.88.88.88.88-.88-.88-.88ZM54.28,20.85l-.88.88.88.88.88-.88-.88-.88ZM52.45,19.02l-.88.88.88.88.88-.88-.88-.88ZM50.62,17.19l-.88.88.88.88.88-.88-.88-.88ZM48.79,15.36l-.88.88.88.88.88-.88-.88-.88ZM46.96,13.53l-.88.88.88.88.88-.88-.88-.88ZM45.13,11.7l-.88.88.88.88.88-.88-.88-.88ZM43.3,9.87l-.88.88.88.88.88-.88-.88-.88ZM145.83,108.74l-.88.88.88.88.88-.88-.88-.88ZM144,106.91l-.88.88.88.88.88-.88-.88-.88ZM142.17,105.08l-.88.88.88.88.88-.88-.88-.88ZM140.34,103.25l-.88.88.88.88.88-.88-.88-.88ZM138.51,101.42l-.88.88.88.88.88-.88-.88-.88ZM136.68,99.59l-.88.88.88.88.88-.88-.88-.88ZM134.85,97.76l-.88.88.88.88.88-.88-.88-.88ZM133.02,95.93l-.88.88.88.88.88-.88-.88-.88ZM131.19,94.09l-.88.88.88.88.88-.88-.88-.88ZM129.36,92.26l-.88.88.88.88.88-.88-.88-.88ZM127.52,90.43l-.88.88.88.88.88-.88-.88-.88ZM125.69,88.6l-.88.88.88.88.88-.88-.88-.88ZM123.86,86.77l-.88.88.88.88.88-.88-.88-.88ZM122.03,84.94l-.88.88.88.88.88-.88-.88-.88ZM120.2,83.11l-.88.88.88.88.88-.88-.88-.88ZM118.37,81.28l-.88.88.88.88.88-.88-.88-.88ZM116.54,79.45l-.88.88.88.88.88-.88-.88-.88ZM114.71,77.62l-.88.88.88.88.88-.88-.88-.88ZM112.88,75.78l-.88.88.88.88.88-.88-.88-.88ZM111.05,73.95l-.88.88.88.88.88-.88-.88-.88ZM109.21,72.12l-.88.88.88.88.88-.88-.88-.88ZM107.38,70.29l-.88.88.88.88.88-.88-.88-.88ZM105.55,68.46l-.88.88.88.88.88-.88-.88-.88ZM103.72,66.63l-.88.88.88.88.88-.88-.88-.88ZM101.89,64.8l-.88.88.88.88.88-.88-.88-.88ZM100.06,62.97l-.88.88.88.88.88-.88-.88-.88ZM98.23,61.14l-.88.88.88.88.88-.88-.88-.88ZM96.4,59.31l-.88.88.88.88.88-.88-.88-.88ZM94.57,57.47l-.88.88.88.88.88-.88-.88-.88ZM92.74,55.64l-.88.88.88.88.88-.88-.88-.88ZM90.9,53.81l-.88.88.88.88.88-.88-.88-.88ZM89.07,51.98l-.88.88.88.88.88-.88-.88-.88ZM87.24,50.15l-.88.88.88.88.88-.88-.88-.88ZM85.41,48.32l-.88.88.88.88.88-.88-.88-.88ZM83.58,46.49l-.88.88.88.88.88-.88-.88-.88ZM81.75,44.66l-.88.88.88.88.88-.88-.88-.88ZM79.92,42.83l-.88.88.88.88.88-.88-.88-.88ZM78.09,41l-.88.88.88.88.88-.88-.88-.88ZM76.26,39.16l-.88.88.88.88.88-.88-.88-.88ZM74.43,37.33l-.88.88.88.88.88-.88-.88-.88ZM72.59,35.5l-.88.88.88.88.88-.88-.88-.88ZM70.76,33.67l-.88.88.88.88.88-.88-.88-.88ZM68.93,31.84l-.88.88.88.88.88-.88-.88-.88ZM67.1,30.01l-.88.88.88.88.88-.88-.88-.88ZM65.27,28.18l-.88.88.88.88.88-.88-.88-.88ZM63.44,26.35l-.88.88.88.88.88-.88-.88-.88ZM61.61,24.52l-.88.88.88.88.88-.88-.88-.88ZM59.78,22.69l-.88.88.88.88.88-.88-.88-.88ZM57.95,20.85l-.88.88.88.88.88-.88-.88-.88ZM56.12,19.02l-.88.88.88.88.88-.88-.88-.88ZM54.28,17.19l-.88.88.88.88.88-.88-.88-.88ZM52.45,15.36l-.88.88.88.88.88-.88-.88-.88ZM50.62,13.53l-.88.88.88.88.88-.88-.88-.88ZM48.79,11.7l-.88.88.88.88.88-.88-.88-.88ZM46.96,9.87l-.88.88.88.88.88-.88-.88-.88ZM45.13,8.04l-.88.88.88.88.88-.88-.88-.88ZM147.67,106.91l-.88.88.88.88.88-.88-.88-.88ZM145.83,105.08l-.88.88.88.88.88-.88-.88-.88ZM144,103.25l-.88.88.88.88.88-.88-.88-.88ZM142.17,101.42l-.88.88.88.88.88-.88-.88-.88ZM140.34,99.59l-.88.88.88.88.88-.88-.88-.88ZM138.51,97.76l-.88.88.88.88.88-.88-.88-.88ZM136.68,95.93l-.88.88.88.88.88-.88-.88-.88ZM134.85,94.09l-.88.88.88.88.88-.88-.88-.88ZM133.02,92.26l-.88.88.88.88.88-.88-.88-.88ZM131.19,90.43l-.88.88.88.88.88-.88-.88-.88ZM129.36,88.6l-.88.88.88.88.88-.88-.88-.88ZM127.52,86.77l-.88.88.88.88.88-.88-.88-.88ZM125.69,84.94l-.88.88.88.88.88-.88-.88-.88ZM123.86,83.11l-.88.88.88.88.88-.88-.88-.88ZM122.03,81.28l-.88.88.88.88.88-.88-.88-.88ZM120.2,79.45l-.88.88.88.88.88-.88-.88-.88ZM118.37,77.62l-.88.88.88.88.88-.88-.88-.88ZM116.54,75.78l-.88.88.88.88.88-.88-.88-.88ZM114.71,73.95l-.88.88.88.88.88-.88-.88-.88ZM112.88,72.12l-.88.88.88.88.88-.88-.88-.88ZM111.05,70.29l-.88.88.88.88.88-.88-.88-.88ZM109.21,68.46l-.88.88.88.88.88-.88-.88-.88ZM107.38,66.63l-.88.88.88.88.88-.88-.88-.88ZM105.55,64.8l-.88.88.88.88.88-.88-.88-.88ZM103.72,62.97l-.88.88.88.88.88-.88-.88-.88ZM101.89,61.14l-.88.88.88.88.88-.88-.88-.88ZM100.06,59.31l-.88.88.88.88.88-.88-.88-.88ZM98.23,57.47l-.88.88.88.88.88-.88-.88-.88ZM96.4,55.64l-.88.88.88.88.88-.88-.88-.88ZM94.57,53.81l-.88.88.88.88.88-.88-.88-.88ZM92.74,51.98l-.88.88.88.88.88-.88-.88-.88ZM90.9,50.15l-.88.88.88.88.88-.88-.88-.88ZM89.07,48.32l-.88.88.88.88.88-.88-.88-.88ZM87.24,46.49l-.88.88.88.88.88-.88-.88-.88ZM85.41,44.66l-.88.88.88.88.88-.88-.88-.88ZM83.58,42.83l-.88.88.88.88.88-.88-.88-.88ZM81.75,41l-.88.88.88.88.88-.88-.88-.88ZM79.92,39.16l-.88.88.88.88.88-.88-.88-.88ZM78.09,37.33l-.88.88.88.88.88-.88-.88-.88ZM76.26,35.5l-.88.88.88.88.88-.88-.88-.88ZM74.43,33.67l-.88.88.88.88.88-.88-.88-.88ZM72.59,31.84l-.88.88.88.88.88-.88-.88-.88ZM70.76,30.01l-.88.88.88.88.88-.88-.88-.88ZM68.93,28.18l-.88.88.88.88.88-.88-.88-.88ZM67.1,26.35l-.88.88.88.88.88-.88-.88-.88ZM65.27,24.52l-.88.88.88.88.88-.88-.88-.88ZM63.44,22.69l-.88.88.88.88.88-.88-.88-.88ZM61.61,20.85l-.88.88.88.88.88-.88-.88-.88ZM59.78,19.02l-.88.88.88.88.88-.88-.88-.88ZM57.95,17.19l-.88.88.88.88.88-.88-.88-.88ZM56.12,15.36l-.88.88.88.88.88-.88-.88-.88ZM54.28,13.53l-.88.88.88.88.88-.88-.88-.88ZM52.45,11.7l-.88.88.88.88.88-.88-.88-.88ZM50.62,9.87l-.88.88.88.88.88-.88-.88-.88ZM48.79,8.04l-.88.88.88.88.88-.88-.88-.88ZM149.5,105.08l-.88.88.88.88.88-.88-.88-.88ZM147.67,103.25l-.88.88.88.88.88-.88-.88-.88ZM145.83,101.42l-.88.88.88.88.88-.88-.88-.88ZM144,99.59l-.88.88.88.88.88-.88-.88-.88ZM142.17,97.76l-.88.88.88.88.88-.88-.88-.88ZM140.34,95.93l-.88.88.88.88.88-.88-.88-.88ZM138.51,94.09l-.88.88.88.88.88-.88-.88-.88ZM136.68,92.26l-.88.88.88.88.88-.88-.88-.88ZM134.85,90.43l-.88.88.88.88.88-.88-.88-.88ZM133.02,88.6l-.88.88.88.88.88-.88-.88-.88ZM131.19,86.77l-.88.88.88.88.88-.88-.88-.88ZM129.36,84.94l-.88.88.88.88.88-.88-.88-.88ZM127.52,83.11l-.88.88.88.88.88-.88-.88-.88ZM125.69,81.28l-.88.88.88.88.88-.88-.88-.88ZM123.86,79.45l-.88.88.88.88.88-.88-.88-.88ZM122.03,77.62l-.88.88.88.88.88-.88-.88-.88ZM120.2,75.78l-.88.88.88.88.88-.88-.88-.88ZM118.37,73.95l-.88.88.88.88.88-.88-.88-.88ZM116.54,72.12l-.88.88.88.88.88-.88-.88-.88ZM114.71,70.29l-.88.88.88.88.88-.88-.88-.88ZM112.88,68.46l-.88.88.88.88.88-.88-.88-.88ZM111.05,66.63l-.88.88.88.88.88-.88-.88-.88ZM109.21,64.8l-.88.88.88.88.88-.88-.88-.88ZM107.38,62.97l-.88.88.88.88.88-.88-.88-.88ZM105.55,61.14l-.88.88.88.88.88-.88-.88-.88ZM103.72,59.31l-.88.88.88.88.88-.88-.88-.88ZM101.89,57.47l-.88.88.88.88.88-.88-.88-.88ZM100.06,55.64l-.88.88.88.88.88-.88-.88-.88ZM98.23,53.81l-.88.88.88.88.88-.88-.88-.88ZM96.4,51.98l-.88.88.88.88.88-.88-.88-.88ZM94.57,50.15l-.88.88.88.88.88-.88-.88-.88ZM92.74,48.32l-.88.88.88.88.88-.88-.88-.88ZM90.9,46.49l-.88.88.88.88.88-.88-.88-.88ZM89.07,44.66l-.88.88.88.88.88-.88-.88-.88ZM87.24,42.83l-.88.88.88.88.88-.88-.88-.88ZM85.41,41l-.88.88.88.88.88-.88-.88-.88ZM83.58,39.16l-.88.88.88.88.88-.88-.88-.88ZM81.75,37.33l-.88.88.88.88.88-.88-.88-.88ZM79.92,35.5l-.88.88.88.88.88-.88-.88-.88ZM78.09,33.67l-.88.88.88.88.88-.88-.88-.88ZM76.26,31.84l-.88.88.88.88.88-.88-.88-.88ZM74.43,30.01l-.88.88.88.88.88-.88-.88-.88ZM72.59,28.18l-.88.88.88.88.88-.88-.88-.88ZM70.76,26.35l-.88.88.88.88.88-.88-.88-.88ZM68.93,24.52l-.88.88.88.88.88-.88-.88-.88ZM67.1,22.69l-.88.88.88.88.88-.88-.88-.88ZM65.27,20.85l-.88.88.88.88.88-.88-.88-.88ZM63.44,19.02l-.88.88.88.88.88-.88-.88-.88ZM61.61,17.19l-.88.88.88.88.88-.88-.88-.88ZM59.78,15.36l-.88.88.88.88.88-.88-.88-.88ZM57.95,13.53l-.88.88.88.88.88-.88-.88-.88ZM56.12,11.7l-.88.88.88.88.88-.88-.88-.88ZM54.28,9.87l-.88.88.88.88.88-.88-.88-.88ZM52.45,8.04l-.88.88.88.88.88-.88-.88-.88ZM50.62,6.21l-.88.88.88.88.88-.88-.88-.88ZM151.33,103.25l-.88.88.88.88.88-.88-.88-.88ZM149.5,101.42l-.88.88.88.88.88-.88-.88-.88ZM147.67,99.59l-.88.88.88.88.88-.88-.88-.88ZM145.83,97.76l-.88.88.88.88.88-.88-.88-.88ZM144,95.93l-.88.88.88.88.88-.88-.88-.88ZM142.17,94.09l-.88.88.88.88.88-.88-.88-.88ZM140.34,92.26l-.88.88.88.88.88-.88-.88-.88ZM138.51,90.43l-.88.88.88.88.88-.88-.88-.88ZM136.68,88.6l-.88.88.88.88.88-.88-.88-.88ZM134.85,86.77l-.88.88.88.88.88-.88-.88-.88ZM133.02,84.94l-.88.88.88.88.88-.88-.88-.88ZM131.19,83.11l-.88.88.88.88.88-.88-.88-.88ZM129.36,81.28l-.88.88.88.88.88-.88-.88-.88ZM127.52,79.45l-.88.88.88.88.88-.88-.88-.88ZM125.69,77.62l-.88.88.88.88.88-.88-.88-.88ZM123.86,75.78l-.88.88.88.88.88-.88-.88-.88ZM122.03,73.95l-.88.88.88.88.88-.88-.88-.88ZM120.2,72.12l-.88.88.88.88.88-.88-.88-.88ZM118.37,70.29l-.88.88.88.88.88-.88-.88-.88ZM116.54,68.46l-.88.88.88.88.88-.88-.88-.88ZM114.71,66.63l-.88.88.88.88.88-.88-.88-.88ZM112.88,64.8l-.88.88.88.88.88-.88-.88-.88ZM111.05,62.97l-.88.88.88.88.88-.88-.88-.88ZM109.21,61.14l-.88.88.88.88.88-.88-.88-.88ZM107.38,59.31l-.88.88.88.88.88-.88-.88-.88ZM105.55,57.47l-.88.88.88.88.88-.88-.88-.88ZM103.72,55.64l-.88.88.88.88.88-.88-.88-.88ZM101.89,53.81l-.88.88.88.88.88-.88-.88-.88ZM100.06,51.98l-.88.88.88.88.88-.88-.88-.88ZM98.23,50.15l-.88.88.88.88.88-.88-.88-.88ZM96.4,48.32l-.88.88.88.88.88-.88-.88-.88ZM94.57,46.49l-.88.88.88.88.88-.88-.88-.88ZM92.74,44.66l-.88.88.88.88.88-.88-.88-.88ZM90.9,42.83l-.88.88.88.88.88-.88-.88-.88ZM89.07,41l-.88.88.88.88.88-.88-.88-.88ZM87.24,39.16l-.88.88.88.88.88-.88-.88-.88ZM85.41,37.33l-.88.88.88.88.88-.88-.88-.88ZM83.58,35.5l-.88.88.88.88.88-.88-.88-.88ZM81.75,33.67l-.88.88.88.88.88-.88-.88-.88ZM79.92,31.84l-.88.88.88.88.88-.88-.88-.88ZM78.09,30.01l-.88.88.88.88.88-.88-.88-.88ZM76.26,28.18l-.88.88.88.88.88-.88-.88-.88ZM74.43,26.35l-.88.88.88.88.88-.88-.88-.88ZM72.59,24.52l-.88.88.88.88.88-.88-.88-.88ZM70.76,22.69l-.88.88.88.88.88-.88-.88-.88ZM68.93,20.85l-.88.88.88.88.88-.88-.88-.88ZM67.1,19.02l-.88.88.88.88.88-.88-.88-.88ZM65.27,17.19l-.88.88.88.88.88-.88-.88-.88ZM63.44,15.36l-.88.88.88.88.88-.88-.88-.88ZM61.61,13.53l-.88.88.88.88.88-.88-.88-.88ZM59.78,11.7l-.88.88.88.88.88-.88-.88-.88ZM57.95,9.87l-.88.88.88.88.88-.88-.88-.88ZM56.12,8.04l-.88.88.88.88.88-.88-.88-.88ZM54.28,6.21l-.88.88.88.88.88-.88-.88-.88ZM151.33,99.59l-.88.88.88.88.88-.88-.88-.88ZM149.5,97.76l-.88.88.88.88.88-.88-.88-.88ZM147.67,95.93l-.88.88.88.88.88-.88-.88-.88ZM145.83,94.09l-.88.88.88.88.88-.88-.88-.88ZM144,92.26l-.88.88.88.88.88-.88-.88-.88ZM142.17,90.43l-.88.88.88.88.88-.88-.88-.88ZM140.34,88.6l-.88.88.88.88.88-.88-.88-.88ZM138.51,86.77l-.88.88.88.88.88-.88-.88-.88ZM136.68,84.94l-.88.88.88.88.88-.88-.88-.88ZM134.85,83.11l-.88.88.88.88.88-.88-.88-.88ZM133.02,81.28l-.88.88.88.88.88-.88-.88-.88ZM131.19,79.45l-.88.88.88.88.88-.88-.88-.88ZM129.36,77.62l-.88.88.88.88.88-.88-.88-.88ZM127.52,75.78l-.88.88.88.88.88-.88-.88-.88ZM125.69,73.95l-.88.88.88.88.88-.88-.88-.88ZM123.86,72.12l-.88.88.88.88.88-.88-.88-.88ZM122.03,70.29l-.88.88.88.88.88-.88-.88-.88ZM120.2,68.46l-.88.88.88.88.88-.88-.88-.88ZM118.37,66.63l-.88.88.88.88.88-.88-.88-.88ZM116.54,64.8l-.88.88.88.88.88-.88-.88-.88ZM114.71,62.97l-.88.88.88.88.88-.88-.88-.88ZM112.88,61.14l-.88.88.88.88.88-.88-.88-.88ZM111.05,59.31l-.88.88.88.88.88-.88-.88-.88ZM109.21,57.47l-.88.88.88.88.88-.88-.88-.88ZM107.38,55.64l-.88.88.88.88.88-.88-.88-.88ZM105.55,53.81l-.88.88.88.88.88-.88-.88-.88ZM103.72,51.98l-.88.88.88.88.88-.88-.88-.88ZM101.89,50.15l-.88.88.88.88.88-.88-.88-.88ZM100.06,48.32l-.88.88.88.88.88-.88-.88-.88ZM98.23,46.49l-.88.88.88.88.88-.88-.88-.88ZM96.4,44.66l-.88.88.88.88.88-.88-.88-.88ZM94.57,42.83l-.88.88.88.88.88-.88-.88-.88ZM92.74,41l-.88.88.88.88.88-.88-.88-.88ZM90.9,39.16l-.88.88.88.88.88-.88-.88-.88ZM89.07,37.33l-.88.88.88.88.88-.88-.88-.88ZM87.24,35.5l-.88.88.88.88.88-.88-.88-.88ZM85.41,33.67l-.88.88.88.88.88-.88-.88-.88ZM83.58,31.84l-.88.88.88.88.88-.88-.88-.88ZM81.75,30.01l-.88.88.88.88.88-.88-.88-.88ZM79.92,28.18l-.88.88.88.88.88-.88-.88-.88ZM78.09,26.35l-.88.88.88.88.88-.88-.88-.88ZM76.26,24.52l-.88.88.88.88.88-.88-.88-.88ZM74.43,22.69l-.88.88.88.88.88-.88-.88-.88ZM72.59,20.85l-.88.88.88.88.88-.88-.88-.88ZM70.76,19.02l-.88.88.88.88.88-.88-.88-.88ZM68.93,17.19l-.88.88.88.88.88-.88-.88-.88ZM67.1,15.36l-.88.88.88.88.88-.88-.88-.88ZM65.27,13.53l-.88.88.88.88.88-.88-.88-.88ZM63.44,11.7l-.88.88.88.88.88-.88-.88-.88ZM61.61,9.87l-.88.88.88.88.88-.88-.88-.88ZM59.78,8.04l-.88.88.88.88.88-.88-.88-.88ZM57.95,6.21l-.88.88.88.88.88-.88-.88-.88ZM151.33,95.93l-.88.88.88.88.88-.88-.88-.88ZM149.5,94.09l-.88.88.88.88.88-.88-.88-.88ZM147.67,92.26l-.88.88.88.88.88-.88-.88-.88ZM145.83,90.43l-.88.88.88.88.88-.88-.88-.88ZM144,88.6l-.88.88.88.88.88-.88-.88-.88ZM142.17,86.77l-.88.88.88.88.88-.88-.88-.88ZM140.34,84.94l-.88.88.88.88.88-.88-.88-.88ZM138.51,83.11l-.88.88.88.88.88-.88-.88-.88ZM136.68,81.28l-.88.88.88.88.88-.88-.88-.88ZM134.85,79.45l-.88.88.88.88.88-.88-.88-.88ZM133.02,77.62l-.88.88.88.88.88-.88-.88-.88ZM131.19,75.78l-.88.88.88.88.88-.88-.88-.88ZM129.36,73.95l-.88.88.88.88.88-.88-.88-.88ZM127.52,72.12l-.88.88.88.88.88-.88-.88-.88ZM125.69,70.29l-.88.88.88.88.88-.88-.88-.88ZM123.86,68.46l-.88.88.88.88.88-.88-.88-.88ZM122.03,66.63l-.88.88.88.88.88-.88-.88-.88ZM120.2,64.8l-.88.88.88.88.88-.88-.88-.88ZM118.37,62.97l-.88.88.88.88.88-.88-.88-.88ZM116.54,61.14l-.88.88.88.88.88-.88-.88-.88ZM114.71,59.31l-.88.88.88.88.88-.88-.88-.88ZM112.88,57.47l-.88.88.88.88.88-.88-.88-.88ZM111.05,55.64l-.88.88.88.88.88-.88-.88-.88ZM109.21,53.81l-.88.88.88.88.88-.88-.88-.88ZM107.38,51.98l-.88.88.88.88.88-.88-.88-.88ZM105.55,50.15l-.88.88.88.88.88-.88-.88-.88ZM103.72,48.32l-.88.88.88.88.88-.88-.88-.88ZM101.89,46.49l-.88.88.88.88.88-.88-.88-.88ZM100.06,44.66l-.88.88.88.88.88-.88-.88-.88ZM98.23,42.83l-.88.88.88.88.88-.88-.88-.88ZM96.4,41l-.88.88.88.88.88-.88-.88-.88ZM94.57,39.16l-.88.88.88.88.88-.88-.88-.88ZM92.74,37.33l-.88.88.88.88.88-.88-.88-.88ZM90.9,35.5l-.88.88.88.88.88-.88-.88-.88ZM89.07,33.67l-.88.88.88.88.88-.88-.88-.88ZM87.24,31.84l-.88.88.88.88.88-.88-.88-.88ZM85.41,30.01l-.88.88.88.88.88-.88-.88-.88ZM83.58,28.18l-.88.88.88.88.88-.88-.88-.88ZM81.75,26.35l-.88.88.88.88.88-.88-.88-.88ZM79.92,24.52l-.88.88.88.88.88-.88-.88-.88ZM78.09,22.69l-.88.88.88.88.88-.88-.88-.88ZM76.26,20.85l-.88.88.88.88.88-.88-.88-.88ZM74.43,19.02l-.88.88.88.88.88-.88-.88-.88ZM72.59,17.19l-.88.88.88.88.88-.88-.88-.88ZM70.76,15.36l-.88.88.88.88.88-.88-.88-.88ZM68.93,13.53l-.88.88.88.88.88-.88-.88-.88ZM67.1,11.7l-.88.88.88.88.88-.88-.88-.88ZM65.27,9.87l-.88.88.88.88.88-.88-.88-.88ZM63.44,8.04l-.88.88.88.88.88-.88-.88-.88ZM61.61,6.21l-.88.88.88.88.88-.88-.88-.88ZM59.78,4.38l-.88.88.88.88.88-.88-.88-.88ZM151.33,92.26l-.88.88.88.88.88-.88-.88-.88ZM149.5,90.43l-.88.88.88.88.88-.88-.88-.88ZM147.67,88.6l-.88.88.88.88.88-.88-.88-.88ZM145.83,86.77l-.88.88.88.88.88-.88-.88-.88ZM144,84.94l-.88.88.88.88.88-.88-.88-.88ZM142.17,83.11l-.88.88.88.88.88-.88-.88-.88ZM140.34,81.28l-.88.88.88.88.88-.88-.88-.88ZM138.51,79.45l-.88.88.88.88.88-.88-.88-.88ZM136.68,77.62l-.88.88.88.88.88-.88-.88-.88ZM134.85,75.78l-.88.88.88.88.88-.88-.88-.88ZM133.02,73.95l-.88.88.88.88.88-.88-.88-.88ZM131.19,72.12l-.88.88.88.88.88-.88-.88-.88ZM129.36,70.29l-.88.88.88.88.88-.88-.88-.88ZM127.52,68.46l-.88.88.88.88.88-.88-.88-.88ZM125.69,66.63l-.88.88.88.88.88-.88-.88-.88ZM123.86,64.8l-.88.88.88.88.88-.88-.88-.88ZM122.03,62.97l-.88.88.88.88.88-.88-.88-.88ZM120.2,61.14l-.88.88.88.88.88-.88-.88-.88ZM118.37,59.31l-.88.88.88.88.88-.88-.88-.88ZM116.54,57.47l-.88.88.88.88.88-.88-.88-.88ZM114.71,55.64l-.88.88.88.88.88-.88-.88-.88ZM112.88,53.81l-.88.88.88.88.88-.88-.88-.88ZM111.05,51.98l-.88.88.88.88.88-.88-.88-.88ZM109.21,50.15l-.88.88.88.88.88-.88-.88-.88ZM107.38,48.32l-.88.88.88.88.88-.88-.88-.88ZM105.55,46.49l-.88.88.88.88.88-.88-.88-.88ZM103.72,44.66l-.88.88.88.88.88-.88-.88-.88ZM101.89,42.83l-.88.88.88.88.88-.88-.88-.88ZM100.06,41l-.88.88.88.88.88-.88-.88-.88ZM98.23,39.16l-.88.88.88.88.88-.88-.88-.88ZM96.4,37.33l-.88.88.88.88.88-.88-.88-.88ZM94.57,35.5l-.88.88.88.88.88-.88-.88-.88ZM92.74,33.67l-.88.88.88.88.88-.88-.88-.88ZM90.9,31.84l-.88.88.88.88.88-.88-.88-.88ZM89.07,30.01l-.88.88.88.88.88-.88-.88-.88ZM87.24,28.18l-.88.88.88.88.88-.88-.88-.88ZM85.41,26.35l-.88.88.88.88.88-.88-.88-.88ZM83.58,24.52l-.88.88.88.88.88-.88-.88-.88ZM81.75,22.69l-.88.88.88.88.88-.88-.88-.88ZM79.92,20.85l-.88.88.88.88.88-.88-.88-.88ZM78.09,19.02l-.88.88.88.88.88-.88-.88-.88ZM76.26,17.19l-.88.88.88.88.88-.88-.88-.88ZM74.43,15.36l-.88.88.88.88.88-.88-.88-.88ZM72.59,13.53l-.88.88.88.88.88-.88-.88-.88ZM70.76,11.7l-.88.88.88.88.88-.88-.88-.88ZM68.93,9.87l-.88.88.88.88.88-.88-.88-.88ZM67.1,8.04l-.88.88.88.88.88-.88-.88-.88ZM65.27,6.21l-.88.88.88.88.88-.88-.88-.88ZM63.44,4.38l-.88.88.88.88.88-.88-.88-.88ZM151.33,88.6l-.88.88.88.88.88-.88-.88-.88ZM149.5,86.77l-.88.88.88.88.88-.88-.88-.88ZM147.67,84.94l-.88.88.88.88.88-.88-.88-.88ZM145.83,83.11l-.88.88.88.88.88-.88-.88-.88ZM144,81.28l-.88.88.88.88.88-.88-.88-.88ZM142.17,79.45l-.88.88.88.88.88-.88-.88-.88ZM140.34,77.62l-.88.88.88.88.88-.88-.88-.88ZM138.51,75.78l-.88.88.88.88.88-.88-.88-.88ZM136.68,73.95l-.88.88.88.88.88-.88-.88-.88ZM134.85,72.12l-.88.88.88.88.88-.88-.88-.88ZM133.02,70.29l-.88.88.88.88.88-.88-.88-.88ZM131.19,68.46l-.88.88.88.88.88-.88-.88-.88ZM129.36,66.63l-.88.88.88.88.88-.88-.88-.88ZM127.52,64.8l-.88.88.88.88.88-.88-.88-.88ZM125.69,62.97l-.88.88.88.88.88-.88-.88-.88ZM123.86,61.14l-.88.88.88.88.88-.88-.88-.88ZM122.03,59.31l-.88.88.88.88.88-.88-.88-.88ZM120.2,57.47l-.88.88.88.88.88-.88-.88-.88ZM118.37,55.64l-.88.88.88.88.88-.88-.88-.88ZM116.54,53.81l-.88.88.88.88.88-.88-.88-.88ZM114.71,51.98l-.88.88.88.88.88-.88-.88-.88ZM112.88,50.15l-.88.88.88.88.88-.88-.88-.88ZM111.05,48.32l-.88.88.88.88.88-.88-.88-.88ZM109.21,46.49l-.88.88.88.88.88-.88-.88-.88ZM107.38,44.66l-.88.88.88.88.88-.88-.88-.88ZM105.55,42.83l-.88.88.88.88.88-.88-.88-.88ZM103.72,41l-.88.88.88.88.88-.88-.88-.88ZM101.89,39.16l-.88.88.88.88.88-.88-.88-.88ZM100.06,37.33l-.88.88.88.88.88-.88-.88-.88ZM98.23,35.5l-.88.88.88.88.88-.88-.88-.88ZM96.4,33.67l-.88.88.88.88.88-.88-.88-.88ZM94.57,31.84l-.88.88.88.88.88-.88-.88-.88ZM92.74,30.01l-.88.88.88.88.88-.88-.88-.88ZM90.9,28.18l-.88.88.88.88.88-.88-.88-.88ZM89.07,26.35l-.88.88.88.88.88-.88-.88-.88ZM87.24,24.52l-.88.88.88.88.88-.88-.88-.88ZM85.41,22.69l-.88.88.88.88.88-.88-.88-.88ZM83.58,20.85l-.88.88.88.88.88-.88-.88-.88ZM81.75,19.02l-.88.88.88.88.88-.88-.88-.88ZM79.92,17.19l-.88.88.88.88.88-.88-.88-.88ZM78.09,15.36l-.88.88.88.88.88-.88-.88-.88ZM76.26,13.53l-.88.88.88.88.88-.88-.88-.88ZM74.43,11.7l-.88.88.88.88.88-.88-.88-.88ZM72.59,9.87l-.88.88.88.88.88-.88-.88-.88ZM70.76,8.04l-.88.88.88.88.88-.88-.88-.88ZM68.93,6.21l-.88.88.88.88.88-.88-.88-.88ZM67.1,4.38l-.88.88.88.88.88-.88-.88-.88ZM151.33,84.94l-.88.88.88.88.88-.88-.88-.88ZM149.5,83.11l-.88.88.88.88.88-.88-.88-.88ZM147.67,81.28l-.88.88.88.88.88-.88-.88-.88ZM145.83,79.45l-.88.88.88.88.88-.88-.88-.88ZM144,77.62l-.88.88.88.88.88-.88-.88-.88ZM142.17,75.78l-.88.88.88.88.88-.88-.88-.88ZM140.34,73.95l-.88.88.88.88.88-.88-.88-.88ZM138.51,72.12l-.88.88.88.88.88-.88-.88-.88ZM136.68,70.29l-.88.88.88.88.88-.88-.88-.88ZM134.85,68.46l-.88.88.88.88.88-.88-.88-.88ZM133.02,66.63l-.88.88.88.88.88-.88-.88-.88ZM131.19,64.8l-.88.88.88.88.88-.88-.88-.88ZM129.36,62.97l-.88.88.88.88.88-.88-.88-.88ZM127.52,61.14l-.88.88.88.88.88-.88-.88-.88ZM125.69,59.31l-.88.88.88.88.88-.88-.88-.88ZM123.86,57.47l-.88.88.88.88.88-.88-.88-.88ZM122.03,55.64l-.88.88.88.88.88-.88-.88-.88ZM120.2,53.81l-.88.88.88.88.88-.88-.88-.88ZM118.37,51.98l-.88.88.88.88.88-.88-.88-.88ZM116.54,50.15l-.88.88.88.88.88-.88-.88-.88ZM114.71,48.32l-.88.88.88.88.88-.88-.88-.88ZM112.88,46.49l-.88.88.88.88.88-.88-.88-.88ZM111.05,44.66l-.88.88.88.88.88-.88-.88-.88ZM109.21,42.83l-.88.88.88.88.88-.88-.88-.88ZM107.38,41l-.88.88.88.88.88-.88-.88-.88ZM105.55,39.16l-.88.88.88.88.88-.88-.88-.88ZM103.72,37.33l-.88.88.88.88.88-.88-.88-.88ZM101.89,35.5l-.88.88.88.88.88-.88-.88-.88ZM100.06,33.67l-.88.88.88.88.88-.88-.88-.88ZM98.23,31.84l-.88.88.88.88.88-.88-.88-.88ZM96.4,30.01l-.88.88.88.88.88-.88-.88-.88ZM94.57,28.18l-.88.88.88.88.88-.88-.88-.88ZM92.74,26.35l-.88.88.88.88.88-.88-.88-.88ZM90.9,24.52l-.88.88.88.88.88-.88-.88-.88ZM89.07,22.69l-.88.88.88.88.88-.88-.88-.88ZM87.24,20.85l-.88.88.88.88.88-.88-.88-.88ZM85.41,19.02l-.88.88.88.88.88-.88-.88-.88ZM83.58,17.19l-.88.88.88.88.88-.88-.88-.88ZM81.75,15.36l-.88.88.88.88.88-.88-.88-.88ZM79.92,13.53l-.88.88.88.88.88-.88-.88-.88ZM78.09,11.7l-.88.88.88.88.88-.88-.88-.88ZM76.26,9.87l-.88.88.88.88.88-.88-.88-.88ZM74.43,8.04l-.88.88.88.88.88-.88-.88-.88ZM72.59,6.21l-.88.88.88.88.88-.88-.88-.88ZM70.76,4.38l-.88.88.88.88.88-.88-.88-.88ZM151.33,81.28l-.88.88.88.88.88-.88-.88-.88ZM149.5,79.45l-.88.88.88.88.88-.88-.88-.88ZM147.67,77.62l-.88.88.88.88.88-.88-.88-.88ZM145.83,75.78l-.88.88.88.88.88-.88-.88-.88ZM144,73.95l-.88.88.88.88.88-.88-.88-.88ZM142.17,72.12l-.88.88.88.88.88-.88-.88-.88ZM140.34,70.29l-.88.88.88.88.88-.88-.88-.88ZM138.51,68.46l-.88.88.88.88.88-.88-.88-.88ZM136.68,66.63l-.88.88.88.88.88-.88-.88-.88ZM134.85,64.8l-.88.88.88.88.88-.88-.88-.88ZM133.02,62.97l-.88.88.88.88.88-.88-.88-.88ZM131.19,61.14l-.88.88.88.88.88-.88-.88-.88ZM129.36,59.31l-.88.88.88.88.88-.88-.88-.88ZM127.52,57.47l-.88.88.88.88.88-.88-.88-.88ZM125.69,55.64l-.88.88.88.88.88-.88-.88-.88ZM123.86,53.81l-.88.88.88.88.88-.88-.88-.88ZM122.03,51.98l-.88.88.88.88.88-.88-.88-.88ZM120.2,50.15l-.88.88.88.88.88-.88-.88-.88ZM118.37,48.32l-.88.88.88.88.88-.88-.88-.88ZM116.54,46.49l-.88.88.88.88.88-.88-.88-.88ZM114.71,44.66l-.88.88.88.88.88-.88-.88-.88ZM112.88,42.83l-.88.88.88.88.88-.88-.88-.88ZM111.05,41l-.88.88.88.88.88-.88-.88-.88ZM109.21,39.16l-.88.88.88.88.88-.88-.88-.88ZM107.38,37.33l-.88.88.88.88.88-.88-.88-.88ZM105.55,35.5l-.88.88.88.88.88-.88-.88-.88ZM103.72,33.67l-.88.88.88.88.88-.88-.88-.88ZM101.89,31.84l-.88.88.88.88.88-.88-.88-.88ZM100.06,30.01l-.88.88.88.88.88-.88-.88-.88ZM98.23,28.18l-.88.88.88.88.88-.88-.88-.88ZM96.4,26.35l-.88.88.88.88.88-.88-.88-.88ZM94.57,24.52l-.88.88.88.88.88-.88-.88-.88ZM92.74,22.69l-.88.88.88.88.88-.88-.88-.88ZM90.9,20.85l-.88.88.88.88.88-.88-.88-.88ZM89.07,19.02l-.88.88.88.88.88-.88-.88-.88ZM87.24,17.19l-.88.88.88.88.88-.88-.88-.88ZM85.41,15.36l-.88.88.88.88.88-.88-.88-.88ZM83.58,13.53l-.88.88.88.88.88-.88-.88-.88ZM81.75,11.7l-.88.88.88.88.88-.88-.88-.88ZM79.92,9.87l-.88.88.88.88.88-.88-.88-.88ZM78.09,8.04l-.88.88.88.88.88-.88-.88-.88ZM76.26,6.21l-.88.88.88.88.88-.88-.88-.88ZM74.43,4.38l-.88.88.88.88.88-.88-.88-.88ZM151.33,77.62l-.88.88.88.88.88-.88-.88-.88ZM149.5,75.78l-.88.88.88.88.88-.88-.88-.88ZM147.67,73.95l-.88.88.88.88.88-.88-.88-.88ZM145.83,72.12l-.88.88.88.88.88-.88-.88-.88ZM144,70.29l-.88.88.88.88.88-.88-.88-.88ZM142.17,68.46l-.88.88.88.88.88-.88-.88-.88ZM140.34,66.63l-.88.88.88.88.88-.88-.88-.88ZM138.51,64.8l-.88.88.88.88.88-.88-.88-.88ZM136.68,62.97l-.88.88.88.88.88-.88-.88-.88ZM134.85,61.14l-.88.88.88.88.88-.88-.88-.88ZM133.02,59.31l-.88.88.88.88.88-.88-.88-.88ZM131.19,57.47l-.88.88.88.88.88-.88-.88-.88ZM129.36,55.64l-.88.88.88.88.88-.88-.88-.88ZM127.52,53.81l-.88.88.88.88.88-.88-.88-.88ZM125.69,51.98l-.88.88.88.88.88-.88-.88-.88ZM123.86,50.15l-.88.88.88.88.88-.88-.88-.88ZM122.03,48.32l-.88.88.88.88.88-.88-.88-.88ZM120.2,46.49l-.88.88.88.88.88-.88-.88-.88ZM118.37,44.66l-.88.88.88.88.88-.88-.88-.88ZM116.54,42.83l-.88.88.88.88.88-.88-.88-.88ZM114.71,41l-.88.88.88.88.88-.88-.88-.88ZM112.88,39.16l-.88.88.88.88.88-.88-.88-.88ZM111.05,37.33l-.88.88.88.88.88-.88-.88-.88ZM109.21,35.5l-.88.88.88.88.88-.88-.88-.88ZM107.38,33.67l-.88.88.88.88.88-.88-.88-.88ZM105.55,31.84l-.88.88.88.88.88-.88-.88-.88ZM103.72,30.01l-.88.88.88.88.88-.88-.88-.88ZM101.89,28.18l-.88.88.88.88.88-.88-.88-.88ZM100.06,26.35l-.88.88.88.88.88-.88-.88-.88ZM98.23,24.52l-.88.88.88.88.88-.88-.88-.88ZM96.4,22.69l-.88.88.88.88.88-.88-.88-.88ZM94.57,20.85l-.88.88.88.88.88-.88-.88-.88ZM92.74,19.02l-.88.88.88.88.88-.88-.88-.88ZM90.9,17.19l-.88.88.88.88.88-.88-.88-.88ZM89.07,15.36l-.88.88.88.88.88-.88-.88-.88ZM87.24,13.53l-.88.88.88.88.88-.88-.88-.88ZM85.41,11.7l-.88.88.88.88.88-.88-.88-.88ZM83.58,9.87l-.88.88.88.88.88-.88-.88-.88ZM81.75,8.04l-.88.88.88.88.88-.88-.88-.88ZM79.92,6.21l-.88.88.88.88.88-.88-.88-.88ZM78.09,4.38l-.88.88.88.88.88-.88-.88-.88ZM151.33,73.95l-.88.88.88.88.88-.88-.88-.88ZM149.5,72.12l-.88.88.88.88.88-.88-.88-.88ZM147.67,70.29l-.88.88.88.88.88-.88-.88-.88ZM145.83,68.46l-.88.88.88.88.88-.88-.88-.88ZM144,66.63l-.88.88.88.88.88-.88-.88-.88ZM142.17,64.8l-.88.88.88.88.88-.88-.88-.88ZM140.34,62.97l-.88.88.88.88.88-.88-.88-.88ZM138.51,61.14l-.88.88.88.88.88-.88-.88-.88ZM136.68,59.31l-.88.88.88.88.88-.88-.88-.88ZM134.85,57.47l-.88.88.88.88.88-.88-.88-.88ZM133.02,55.64l-.88.88.88.88.88-.88-.88-.88ZM131.19,53.81l-.88.88.88.88.88-.88-.88-.88ZM129.36,51.98l-.88.88.88.88.88-.88-.88-.88ZM127.52,50.15l-.88.88.88.88.88-.88-.88-.88ZM125.69,48.32l-.88.88.88.88.88-.88-.88-.88ZM123.86,46.49l-.88.88.88.88.88-.88-.88-.88ZM122.03,44.66l-.88.88.88.88.88-.88-.88-.88ZM120.2,42.83l-.88.88.88.88.88-.88-.88-.88ZM118.37,41l-.88.88.88.88.88-.88-.88-.88ZM116.54,39.16l-.88.88.88.88.88-.88-.88-.88ZM114.71,37.33l-.88.88.88.88.88-.88-.88-.88ZM112.88,35.5l-.88.88.88.88.88-.88-.88-.88ZM111.05,33.67l-.88.88.88.88.88-.88-.88-.88ZM109.21,31.84l-.88.88.88.88.88-.88-.88-.88ZM107.38,30.01l-.88.88.88.88.88-.88-.88-.88ZM105.55,28.18l-.88.88.88.88.88-.88-.88-.88ZM103.72,26.35l-.88.88.88.88.88-.88-.88-.88ZM101.89,24.52l-.88.88.88.88.88-.88-.88-.88ZM100.06,22.69l-.88.88.88.88.88-.88-.88-.88ZM98.23,20.85l-.88.88.88.88.88-.88-.88-.88ZM96.4,19.02l-.88.88.88.88.88-.88-.88-.88ZM94.57,17.19l-.88.88.88.88.88-.88-.88-.88ZM92.74,15.36l-.88.88.88.88.88-.88-.88-.88ZM90.9,13.53l-.88.88.88.88.88-.88-.88-.88ZM89.07,11.7l-.88.88.88.88.88-.88-.88-.88ZM87.24,9.87l-.88.88.88.88.88-.88-.88-.88ZM85.41,8.04l-.88.88.88.88.88-.88-.88-.88ZM83.58,6.21l-.88.88.88.88.88-.88-.88-.88ZM81.75,4.38l-.88.88.88.88.88-.88-.88-.88ZM151.33,70.29l-.88.88.88.88.88-.88-.88-.88ZM149.5,68.46l-.88.88.88.88.88-.88-.88-.88ZM147.67,66.63l-.88.88.88.88.88-.88-.88-.88ZM145.83,64.8l-.88.88.88.88.88-.88-.88-.88ZM144,62.97l-.88.88.88.88.88-.88-.88-.88ZM142.17,61.14l-.88.88.88.88.88-.88-.88-.88ZM140.34,59.31l-.88.88.88.88.88-.88-.88-.88ZM138.51,57.47l-.88.88.88.88.88-.88-.88-.88ZM136.68,55.64l-.88.88.88.88.88-.88-.88-.88ZM134.85,53.81l-.88.88.88.88.88-.88-.88-.88ZM133.02,51.98l-.88.88.88.88.88-.88-.88-.88ZM131.19,50.15l-.88.88.88.88.88-.88-.88-.88ZM129.36,48.32l-.88.88.88.88.88-.88-.88-.88ZM127.52,46.49l-.88.88.88.88.88-.88-.88-.88ZM125.69,44.66l-.88.88.88.88.88-.88-.88-.88ZM123.86,42.83l-.88.88.88.88.88-.88-.88-.88ZM122.03,41l-.88.88.88.88.88-.88-.88-.88ZM120.2,39.16l-.88.88.88.88.88-.88-.88-.88ZM118.37,37.33l-.88.88.88.88.88-.88-.88-.88ZM116.54,35.5l-.88.88.88.88.88-.88-.88-.88ZM114.71,33.67l-.88.88.88.88.88-.88-.88-.88ZM112.88,31.84l-.88.88.88.88.88-.88-.88-.88ZM111.05,30.01l-.88.88.88.88.88-.88-.88-.88ZM109.21,28.18l-.88.88.88.88.88-.88-.88-.88ZM107.38,26.35l-.88.88.88.88.88-.88-.88-.88ZM105.55,24.52l-.88.88.88.88.88-.88-.88-.88ZM103.72,22.69l-.88.88.88.88.88-.88-.88-.88ZM101.89,20.85l-.88.88.88.88.88-.88-.88-.88ZM100.06,19.02l-.88.88.88.88.88-.88-.88-.88ZM98.23,17.19l-.88.88.88.88.88-.88-.88-.88ZM96.4,15.36l-.88.88.88.88.88-.88-.88-.88ZM94.57,13.53l-.88.88.88.88.88-.88-.88-.88ZM92.74,11.7l-.88.88.88.88.88-.88-.88-.88ZM90.9,9.87l-.88.88.88.88.88-.88-.88-.88ZM89.07,8.04l-.88.88.88.88.88-.88-.88-.88ZM87.24,6.21l-.88.88.88.88.88-.88-.88-.88ZM85.41,4.38l-.88.88.88.88.88-.88-.88-.88ZM151.33,66.63l-.88.88.88.88.88-.88-.88-.88ZM149.5,64.8l-.88.88.88.88.88-.88-.88-.88ZM147.67,62.97l-.88.88.88.88.88-.88-.88-.88ZM145.83,61.14l-.88.88.88.88.88-.88-.88-.88ZM144,59.31l-.88.88.88.88.88-.88-.88-.88ZM142.17,57.47l-.88.88.88.88.88-.88-.88-.88ZM140.34,55.64l-.88.88.88.88.88-.88-.88-.88ZM138.51,53.81l-.88.88.88.88.88-.88-.88-.88ZM136.68,51.98l-.88.88.88.88.88-.88-.88-.88ZM134.85,50.15l-.88.88.88.88.88-.88-.88-.88ZM133.02,48.32l-.88.88.88.88.88-.88-.88-.88ZM131.19,46.49l-.88.88.88.88.88-.88-.88-.88ZM129.36,44.66l-.88.88.88.88.88-.88-.88-.88ZM127.52,42.83l-.88.88.88.88.88-.88-.88-.88ZM125.69,41l-.88.88.88.88.88-.88-.88-.88ZM123.86,39.16l-.88.88.88.88.88-.88-.88-.88ZM122.03,37.33l-.88.88.88.88.88-.88-.88-.88ZM120.2,35.5l-.88.88.88.88.88-.88-.88-.88ZM118.37,33.67l-.88.88.88.88.88-.88-.88-.88ZM116.54,31.84l-.88.88.88.88.88-.88-.88-.88ZM114.71,30.01l-.88.88.88.88.88-.88-.88-.88ZM112.88,28.18l-.88.88.88.88.88-.88-.88-.88ZM111.05,26.35l-.88.88.88.88.88-.88-.88-.88ZM109.21,24.52l-.88.88.88.88.88-.88-.88-.88ZM107.38,22.69l-.88.88.88.88.88-.88-.88-.88ZM105.55,20.85l-.88.88.88.88.88-.88-.88-.88ZM103.72,19.02l-.88.88.88.88.88-.88-.88-.88ZM101.89,17.19l-.88.88.88.88.88-.88-.88-.88ZM100.06,15.36l-.88.88.88.88.88-.88-.88-.88ZM98.23,13.53l-.88.88.88.88.88-.88-.88-.88ZM96.4,11.7l-.88.88.88.88.88-.88-.88-.88ZM94.57,9.87l-.88.88.88.88.88-.88-.88-.88ZM92.74,8.04l-.88.88.88.88.88-.88-.88-.88ZM90.9,6.21l-.88.88.88.88.88-.88-.88-.88ZM89.07,4.38l-.88.88.88.88.88-.88-.88-.88ZM151.33,62.97l-.88.88.88.88.88-.88-.88-.88ZM149.5,61.14l-.88.88.88.88.88-.88-.88-.88ZM147.67,59.31l-.88.88.88.88.88-.88-.88-.88ZM145.83,57.47l-.88.88.88.88.88-.88-.88-.88ZM144,55.64l-.88.88.88.88.88-.88-.88-.88ZM142.17,53.81l-.88.88.88.88.88-.88-.88-.88ZM140.34,51.98l-.88.88.88.88.88-.88-.88-.88ZM138.51,50.15l-.88.88.88.88.88-.88-.88-.88ZM136.68,48.32l-.88.88.88.88.88-.88-.88-.88ZM134.85,46.49l-.88.88.88.88.88-.88-.88-.88ZM133.02,44.66l-.88.88.88.88.88-.88-.88-.88ZM131.19,42.83l-.88.88.88.88.88-.88-.88-.88ZM129.36,41l-.88.88.88.88.88-.88-.88-.88ZM127.52,39.16l-.88.88.88.88.88-.88-.88-.88ZM125.69,37.33l-.88.88.88.88.88-.88-.88-.88ZM123.86,35.5l-.88.88.88.88.88-.88-.88-.88ZM122.03,33.67l-.88.88.88.88.88-.88-.88-.88ZM120.2,31.84l-.88.88.88.88.88-.88-.88-.88ZM118.37,30.01l-.88.88.88.88.88-.88-.88-.88ZM116.54,28.18l-.88.88.88.88.88-.88-.88-.88ZM114.71,26.35l-.88.88.88.88.88-.88-.88-.88ZM112.88,24.52l-.88.88.88.88.88-.88-.88-.88ZM111.05,22.69l-.88.88.88.88.88-.88-.88-.88ZM109.21,20.85l-.88.88.88.88.88-.88-.88-.88ZM107.38,19.02l-.88.88.88.88.88-.88-.88-.88ZM105.55,17.19l-.88.88.88.88.88-.88-.88-.88ZM103.72,15.36l-.88.88.88.88.88-.88-.88-.88ZM101.89,13.53l-.88.88.88.88.88-.88-.88-.88ZM100.06,11.7l-.88.88.88.88.88-.88-.88-.88ZM98.23,9.87l-.88.88.88.88.88-.88-.88-.88ZM96.4,8.04l-.88.88.88.88.88-.88-.88-.88ZM94.57,6.21l-.88.88.88.88.88-.88-.88-.88ZM92.74,4.38l-.88.88.88.88.88-.88-.88-.88ZM149.5,57.47l-.88.88.88.88.88-.88-.88-.88ZM147.67,55.64l-.88.88.88.88.88-.88-.88-.88ZM145.83,53.81l-.88.88.88.88.88-.88-.88-.88ZM144,51.98l-.88.88.88.88.88-.88-.88-.88ZM142.17,50.15l-.88.88.88.88.88-.88-.88-.88ZM140.34,48.32l-.88.88.88.88.88-.88-.88-.88ZM138.51,46.49l-.88.88.88.88.88-.88-.88-.88ZM136.68,44.66l-.88.88.88.88.88-.88-.88-.88ZM134.85,42.83l-.88.88.88.88.88-.88-.88-.88ZM133.02,41l-.88.88.88.88.88-.88-.88-.88ZM131.19,39.16l-.88.88.88.88.88-.88-.88-.88ZM129.36,37.33l-.88.88.88.88.88-.88-.88-.88ZM127.52,35.5l-.88.88.88.88.88-.88-.88-.88ZM125.69,33.67l-.88.88.88.88.88-.88-.88-.88ZM123.86,31.84l-.88.88.88.88.88-.88-.88-.88ZM122.03,30.01l-.88.88.88.88.88-.88-.88-.88ZM120.2,28.18l-.88.88.88.88.88-.88-.88-.88ZM118.37,26.35l-.88.88.88.88.88-.88-.88-.88ZM116.54,24.52l-.88.88.88.88.88-.88-.88-.88ZM114.71,22.69l-.88.88.88.88.88-.88-.88-.88ZM112.88,20.85l-.88.88.88.88.88-.88-.88-.88ZM111.05,19.02l-.88.88.88.88.88-.88-.88-.88ZM109.21,17.19l-.88.88.88.88.88-.88-.88-.88ZM107.38,15.36l-.88.88.88.88.88-.88-.88-.88ZM105.55,13.53l-.88.88.88.88.88-.88-.88-.88ZM103.72,11.7l-.88.88.88.88.88-.88-.88-.88ZM101.89,9.87l-.88.88.88.88.88-.88-.88-.88ZM100.06,8.04l-.88.88.88.88.88-.88-.88-.88ZM98.23,6.21l-.88.88.88.88.88-.88-.88-.88ZM149.5,53.81l-.88.88.88.88.88-.88-.88-.88ZM147.67,51.98l-.88.88.88.88.88-.88-.88-.88ZM145.83,50.15l-.88.88.88.88.88-.88-.88-.88ZM144,48.32l-.88.88.88.88.88-.88-.88-.88ZM142.17,46.49l-.88.88.88.88.88-.88-.88-.88ZM140.34,44.66l-.88.88.88.88.88-.88-.88-.88ZM138.51,42.83l-.88.88.88.88.88-.88-.88-.88ZM136.68,41l-.88.88.88.88.88-.88-.88-.88ZM134.85,39.16l-.88.88.88.88.88-.88-.88-.88ZM133.02,37.33l-.88.88.88.88.88-.88-.88-.88ZM131.19,35.5l-.88.88.88.88.88-.88-.88-.88ZM129.36,33.67l-.88.88.88.88.88-.88-.88-.88ZM127.52,31.84l-.88.88.88.88.88-.88-.88-.88ZM125.69,30.01l-.88.88.88.88.88-.88-.88-.88ZM123.86,28.18l-.88.88.88.88.88-.88-.88-.88ZM122.03,26.35l-.88.88.88.88.88-.88-.88-.88ZM120.2,24.52l-.88.88.88.88.88-.88-.88-.88ZM118.37,22.69l-.88.88.88.88.88-.88-.88-.88ZM116.54,20.85l-.88.88.88.88.88-.88-.88-.88ZM114.71,19.02l-.88.88.88.88.88-.88-.88-.88ZM112.88,17.19l-.88.88.88.88.88-.88-.88-.88ZM111.05,15.36l-.88.88.88.88.88-.88-.88-.88ZM109.21,13.53l-.88.88.88.88.88-.88-.88-.88ZM107.38,11.7l-.88.88.88.88.88-.88-.88-.88ZM105.55,9.87l-.88.88.88.88.88-.88-.88-.88ZM103.72,8.04l-.88.88.88.88.88-.88-.88-.88ZM101.89,6.21l-.88.88.88.88.88-.88-.88-.88ZM149.5,50.15l-.88.88.88.88.88-.88-.88-.88ZM147.67,48.32l-.88.88.88.88.88-.88-.88-.88ZM145.83,46.49l-.88.88.88.88.88-.88-.88-.88ZM144,44.66l-.88.88.88.88.88-.88-.88-.88ZM142.17,42.83l-.88.88.88.88.88-.88-.88-.88ZM140.34,41l-.88.88.88.88.88-.88-.88-.88ZM138.51,39.16l-.88.88.88.88.88-.88-.88-.88ZM136.68,37.33l-.88.88.88.88.88-.88-.88-.88ZM134.85,35.5l-.88.88.88.88.88-.88-.88-.88ZM133.02,33.67l-.88.88.88.88.88-.88-.88-.88ZM131.19,31.84l-.88.88.88.88.88-.88-.88-.88ZM129.36,30.01l-.88.88.88.88.88-.88-.88-.88ZM127.52,28.18l-.88.88.88.88.88-.88-.88-.88ZM125.69,26.35l-.88.88.88.88.88-.88-.88-.88ZM123.86,24.52l-.88.88.88.88.88-.88-.88-.88ZM122.03,22.69l-.88.88.88.88.88-.88-.88-.88ZM120.2,20.85l-.88.88.88.88.88-.88-.88-.88ZM118.37,19.02l-.88.88.88.88.88-.88-.88-.88ZM116.54,17.19l-.88.88.88.88.88-.88-.88-.88ZM114.71,15.36l-.88.88.88.88.88-.88-.88-.88ZM112.88,13.53l-.88.88.88.88.88-.88-.88-.88ZM111.05,11.7l-.88.88.88.88.88-.88-.88-.88ZM109.21,9.87l-.88.88.88.88.88-.88-.88-.88ZM107.38,8.04l-.88.88.88.88.88-.88-.88-.88ZM147.67,44.66l-.88.88.88.88.88-.88-.88-.88ZM145.83,42.83l-.88.88.88.88.88-.88-.88-.88ZM144,41l-.88.88.88.88.88-.88-.88-.88ZM142.17,39.16l-.88.88.88.88.88-.88-.88-.88ZM140.34,37.33l-.88.88.88.88.88-.88-.88-.88ZM138.51,35.5l-.88.88.88.88.88-.88-.88-.88ZM136.68,33.67l-.88.88.88.88.88-.88-.88-.88ZM134.85,31.84l-.88.88.88.88.88-.88-.88-.88ZM133.02,30.01l-.88.88.88.88.88-.88-.88-.88ZM131.19,28.18l-.88.88.88.88.88-.88-.88-.88ZM129.36,26.35l-.88.88.88.88.88-.88-.88-.88ZM127.52,24.52l-.88.88.88.88.88-.88-.88-.88ZM125.69,22.69l-.88.88.88.88.88-.88-.88-.88ZM123.86,20.85l-.88.88.88.88.88-.88-.88-.88ZM122.03,19.02l-.88.88.88.88.88-.88-.88-.88ZM120.2,17.19l-.88.88.88.88.88-.88-.88-.88ZM118.37,15.36l-.88.88.88.88.88-.88-.88-.88ZM116.54,13.53l-.88.88.88.88.88-.88-.88-.88ZM114.71,11.7l-.88.88.88.88.88-.88-.88-.88ZM112.88,9.87l-.88.88.88.88.88-.88-.88-.88ZM145.83,39.16l-.88.88.88.88.88-.88-.88-.88ZM144,37.33l-.88.88.88.88.88-.88-.88-.88ZM142.17,35.5l-.88.88.88.88.88-.88-.88-.88ZM140.34,33.67l-.88.88.88.88.88-.88-.88-.88ZM138.51,31.84l-.88.88.88.88.88-.88-.88-.88ZM136.68,30.01l-.88.88.88.88.88-.88-.88-.88ZM134.85,28.18l-.88.88.88.88.88-.88-.88-.88ZM133.02,26.35l-.88.88.88.88.88-.88-.88-.88ZM131.19,24.52l-.88.88.88.88.88-.88-.88-.88ZM129.36,22.69l-.88.88.88.88.88-.88-.88-.88ZM127.52,20.85l-.88.88.88.88.88-.88-.88-.88ZM125.69,19.02l-.88.88.88.88.88-.88-.88-.88ZM123.86,17.19l-.88.88.88.88.88-.88-.88-.88ZM122.03,15.36l-.88.88.88.88.88-.88-.88-.88ZM120.2,13.53l-.88.88.88.88.88-.88-.88-.88ZM118.37,11.7l-.88.88.88.88.88-.88-.88-.88ZM144,33.67l-.88.88.88.88.88-.88-.88-.88ZM142.17,31.84l-.88.88.88.88.88-.88-.88-.88ZM140.34,30.01l-.88.88.88.88.88-.88-.88-.88ZM138.51,28.18l-.88.88.88.88.88-.88-.88-.88ZM136.68,26.35l-.88.88.88.88.88-.88-.88-.88ZM134.85,24.52l-.88.88.88.88.88-.88-.88-.88ZM133.02,22.69l-.88.88.88.88.88-.88-.88-.88ZM131.19,20.85l-.88.88.88.88.88-.88-.88-.88ZM129.36,19.02l-.88.88.88.88.88-.88-.88-.88ZM127.52,17.19l-.88.88.88.88.88-.88-.88-.88ZM125.69,15.36l-.88.88.88.88.88-.88-.88-.88ZM123.86,13.53l-.88.88.88.88.88-.88-.88-.88ZM38.42,118.13c-.02.13-.04.22-.1.28l-.51-.51-.46.46c-.17-.03-.36-.07-.58-.11-.91-.17-2.33-.45-4.07-.8l.5-.5-.88-.88-.88.88.3.3c-.76-.16-1.58-.33-2.42-.52l-.67-.67-.42.42c-1.45-.33-2.97-.69-4.5-1.07l.31-.31-.88-.88-.84.84c-.9-.23-1.8-.45-2.67-.68l-.16-.16-.09.09c-.51-.13-1.01-.26-1.51-.39l.65-.65-.88-.88-.88.88.48.48h0c-.91-.24-1.78-.48-2.61-.71l-.65-.65-.36.36c-.5-.15-.98-.3-1.44-.45l.85-.85-.88-.88-.88.88.82.82c-1.16-.39-2.21-.8-3.17-1.27l-.44-.44-.14.14c-.42-.22-.81-.46-1.19-.71l.38-.38-.88-.88-.53.53c-.36-.28-.7-.57-1.02-.88l.6-.6-.88-.88-.59.59c-.29-.32-.56-.65-.82-1l-.04-.05.49-.49-.88-.88-.33.33c-.25-.4-.47-.8-.68-1.22l.06-.06-.17-.17c-.45-.94-.8-1.93-1.06-2.96l.35.35.88-.88-.88-.88-.54.54c-.19-1.02-.29-2.09-.33-3.31l.87.87.88-.88-.88-.88-.87.87c-.04-1.08-.03-2.27,0-3.65l.87.88.88-.88-.88-.88-.87.87c0-.35.02-.71.03-1.08.02-.77.04-1.59.07-2.47l.78.78.88-.88-.88-.88-.77.77c.03-1.03.07-2.13.12-3.32l.65.65.88-.88-.88-.88-.63.63c.04-.95.09-1.95.14-3.01l.49.49.88-.88-.88-.88-.44.44c.04-.85.09-1.72.14-2.64l.3.3.88-.88-.88-.88-.23.23.08-1.24.06-.97.09.09.88-.88-.86-.86c.05-.68.09-1.38.14-2.08l.72-.72-.63-.63c.06-.86.13-1.73.19-2.6l.43-.43-.37-.37c.08-1.06.16-2.12.25-3.16l.13-.13-.11-.11c.14-1.79.29-3.52.44-5.12l.62.62.88-.88-.88-.88-.57.57c.08-.82.15-1.61.22-2.34l.04-.43.3.3.88-.88-.88-.88-.17.17c.08-.77.17-1.48.25-2.15l.8-.79-.6-.6c.17-1.11.36-2.1.59-3.06h0s0-.01,0-.01c.12-.51.26-1,.4-1.5l.55.55.88-.88-.88-.88-.25.25c.13-.4.27-.8.43-1.2.37-.99.81-2.04,1.3-3.12l.35.35.88-.88-.67-.67c.95-1.98,2.06-4.03,3.23-5.99l.21.21.88-.88-.43-.43.14-.22c.2-.32.4-.63.6-.94l.64.64.88-.88-.81-.81c2-2.95,4.1-5.56,6.17-7.86,2.52-2.8,5-5.14,8.45-7.28.32-.2.64-.39.97-.58l-.06.06.88.88.88-.88-.65-.65c.4-.22.82-.44,1.24-.65l.36.36.88-.88-.06-.06c1.21-.58,2.5-1.14,3.87-1.69l.79.79.88-.88-.41-.41c1.16-.44,2.38-.87,3.65-1.29l.53-.17-.04.04.88.88.88-.88-.45-.45c1.4-.44,2.84-.86,4.3-1.26l.76.76.88-.88-.24-.24c1.49-.39,2.99-.75,4.48-1.08l.37.37.58-.58c.8-.17,1.59-.33,2.37-.48l-.17.17.88.88.88-.88-.39-.39c.22-.04.44-.08.65-.11,1.43-.24,2.82-.44,4.2-.6l.15.15.19-.19c1-.11,1.99-.21,2.99-.28l.48.48.55-.55c.8-.05,1.61-.1,2.43-.13l.68.68.74-.74c.7-.02,1.41-.04,2.14-.05l.79.79.81-.81h.48c.51,0,1.03-.01,1.55-.01l.82.82.82-.82c.68,0,1.36.01,2.05.02l.8.8.77-.77c.73.02,1.45.03,2.18.06l.71.71.66-.66c.82.03,1.64.07,2.45.11l.55.55.49-.49c.98.06,1.94.13,2.88.2l.29.29.24-.24c.85.07,1.68.16,2.49.25.87.1,1.7.21,2.5.32l-.62.62.88.88.88-.88-.53-.53c.87.13,1.71.28,2.52.44l-.09.09.88.88.68-.68c1.57.33,3.04.7,4.48,1.08l-.55.55.88.88.88-.88-.29-.29c.76.21,1.5.43,2.25.64l.41.12.41.41.22-.22c.49.14.97.29,1.46.44l-.73.73.88.88.88-.88-.6-.6c.94.29,1.88.59,2.81.91l.57.57.28-.28c.47.16.93.33,1.39.5l-.72.72.88.88.88-.88-.53-.53c1.1.42,2.19.87,3.25,1.35l.06.06.02-.02c.32.15.65.3.96.45l.32.16-.36.36.88.88.65-.65c2.26,1.19,4.39,2.55,6.41,4.04l.27.27.04-.04c.36.27.72.55,1.07.83l-.16.16.88.88.26-.26c.23.19.46.38.69.58l.34.29-.34.34.88.88.39-.39c.33.3.66.6.99.91l-.43.43.88.88.45-.45c.32.31.64.63.95.95l-.45.45.88.88.44-.44c.31.33.61.66.91.99l-.4.4.88.88.35-.35c.3.34.59.68.88,1.02l-.28.28.88.88.19-.19.24.3c.2.25.4.51.6.76l-.08.08.6.6c1.45,1.94,2.7,3.87,3.82,5.96l-.76.76.88.88.48-.48c.12.25.25.5.37.75.08.18.17.35.25.53l-.15.15.4.4c.45,1.01.88,2.06,1.29,3.19l-.81-.81-.88.88.88.88.85-.85c.17.46.33.93.48,1.42l-.38.38.72.72c.24.82.47,1.68.69,2.59l-.52-.52-.88.88.88.88.66-.66c.12.51.23,1.03.33,1.57l-.04.04.06.06c.06.29.11.58.17.88.13.69.24,1.4.35,2.14l-.58.58.78.78c.1.71.19,1.43.27,2.17l-.17-.17-.88.88.88.88.31-.31c.1.91.19,1.84.27,2.79l-.58-.58-.88.88.88.88.63-.63c.14,1.66.28,3.38.4,5.16l-.08.08.09.09c.07,1.07.15,2.16.22,3.26l-.31.31.35.35c.06.92.11,1.85.17,2.79l-.52.52.58.59c.05.79.09,1.57.13,2.36l-.72.72.8.8c.04.67.07,1.34.1,2l-.02-.02-.88.88.88.88.1-.1c.04.75.07,1.49.1,2.21l-.21-.21-.88.88.88.88.26-.26c.04.87.07,1.72.1,2.52l-.36-.36-.88.88.88.88.39-.39c.03.83.05,1.62.06,2.35v.41s-.46-.47-.46-.47l-.88.88.88.88.48-.48c.01,1.07.02,2.02,0,2.87l-.49-.49-.88.88.88.88.47-.47c-.03,1.05-.07,1.93-.14,2.7l-.33-.33-.88.88.88.88.21-.21c-.05.41-.11.8-.17,1.17-.06.38-.13.75-.21,1.11l-.71.71.44.44c-.31,1.12-.69,2.1-1.2,3.02-.82,1.49-1.94,2.8-3.46,3.85-.9.62-1.94,1.16-3.32,1.7l-.74-.74-.88.88.34.34c-.63.22-1.32.45-2.08.69-.66.21-1.38.43-2.14.65l-.73-.73-.88.88.25.25c-1.37.39-2.85.8-4.37,1.19l-.49-.49-.83.83c-.83.21-1.68.42-2.52.62l.57-.57-.88-.88-.88.88.69.69-.08.02c-.49.11-.98.23-1.46.34l-.09-.09-.15.15c-.95.21-1.88.41-2.77.6l-.75-.75-.88.88.17.17c-1.02.21-1.96.4-2.8.56l.73-.73-.88-.88-.88.88.78.78c-.59.12-1.13.22-1.59.31l-.14-.14-.21.21-.15.03c-1.85.36-2.14.41-2.24-1.07l.77.77.88-.88-.88-.88-.78.78c-.01-.23-.02-.48-.03-.77-.04-1.11-.1-2.71-.18-4.58l.04-.04-.05-.05c-.04-1.07-.09-2.23-.14-3.42l.19-.19-.21-.21c-.04-1.02-.09-2.06-.14-3.1l.35-.35-.39-.39c-.04-.92-.09-1.84-.14-2.75l.53-.53-.6-.6c-.05-.78-.1-1.55-.16-2.31l.75-.75-.88-.88h0c-.06-.72-.13-1.42-.21-2.12l.22.22.88-.88-.88-.88-.36.36c-.09-.71-.19-1.4-.3-2.07-.06-.36-.12-.7-.19-1.05l.85.85.88-.88-.88-.88-.86.86c-.1-.53-.21-1.06-.33-1.57l.25-.25-.41-.41c-.24-.94-.5-1.83-.8-2.7l.33.33.88-.88-.88-.88-.62.62c-.17-.46-.35-.91-.55-1.35l.22-.22-.57-.57c-.17-.37-.35-.73-.54-1.09-.58-1.13-1.23-2.23-1.94-3.29l.34.34.88-.88-.88-.88-.78.78c-.26-.37-.53-.74-.8-1.1l.63-.63-.88-.88-.52.52c-.28-.35-.57-.7-.87-1.03l.44-.44-.88-.88-.39.39-.18-.19c-.25-.26-.5-.52-.75-.78l.37-.37-.88-.88-.39.39c-.33-.31-.66-.61-1-.9l.44-.44-.88-.88-.53.53c-.36-.28-.72-.55-1.09-.81l.67-.67-.88-.88-.83.83c-.56-.37-1.14-.71-1.74-1.04-.82-.45-1.67-.87-2.56-1.26l-.36-.36-.15.15c-.45-.18-.9-.36-1.37-.53l.57-.57-.88-.88-.88.88.24.24c-.85-.28-1.73-.52-2.64-.74l-.38-.38-.23.23c-.38-.09-.77-.17-1.16-.24-.14-.03-.28-.05-.42-.08l.86-.86-.88-.88-.88.88.86.86c-1.02-.18-2.07-.34-3.15-.46l.4-.4-.88-.88-.88.88.29.29c-.76-.07-1.53-.13-2.3-.17l.12-.12-.88-.88-.88.88.05.05c-.65-.02-1.31-.03-1.96-.03l.02-.02-.88-.88-.88.88.04.03c-.69.02-1.37.04-2.05.08l.11-.11-.88-.88-.88.88.21.21c-.88.07-1.74.16-2.59.27l.48-.48-.88-.88-.88.88.57.57c-1.61.23-3.16.54-4.62.94l-.57-.57-.88.88.09.09c-1.41.45-2.73.99-3.98,1.58l-.72-.72-.88.88.43.43c-.42.22-.83.44-1.23.67l-.15-.15-.58.58c-.29.18-.58.36-.87.54-2.64,1.68-4.93,3.55-7.05,6.05-1.2,1.41-2.35,3.02-3.36,4.69h0s0,.01,0,.01c-.24.4-.47.8-.7,1.2l-.25-.25-.88.88.52.52c-.22.43-.43.85-.62,1.28l-.85-.85-.88.88.88.88.8-.8-.07.14c-.46,1.02-.84,2.01-1.16,2.98l-.45.45.23.23c-.15.5-.29,1-.42,1.48l-.77-.77-.88.88.88.88.69-.69c-.23.94-.41,1.84-.55,2.69v.03s-.13-.13-.13-.13l-.88.88.79.79c-.09.74-.15,1.48-.21,2.29l-.58.58.52.52c-.04.81-.07,1.71-.11,2.73l-.41.41.39.39c-.03.93-.06,1.94-.09,2.99l-.29.29.27.27c-.03,1.07-.06,2.15-.09,3.2l-.18.18.17.17c-.03,1.22-.06,2.39-.08,3.4l-.09.09.09.09v.14c-.03,1.45-.05,2.55-.07,3.42l-.02.02.02.02c-.02,1.04-.04,1.77-.07,2.4-.07,1.17-.21,2.01-.28,2.43Z" data-part="mesh"></path>
      <path class="cls-7" d="M74.42,58.02c0,2.02-.15,1.85.58,1.85.49,0,.29-.83.29-2.14-.63,0-.88-.09-.88.29" data-part="mesh"></path>
      <path class="cls-7" d="M79.2,25.56c0,2.12-.21,1.85.88,1.85,0-2.33.17-2.14-.58-2.14-.22,0-.29.07-.29.29" data-part="mesh"></path>
      <path class="cls-7" d="M74.61,25.56v1.85c1.09,0,.88.27.88-1.85,0-.43-.88-.43-.88,0" data-part="mesh"></path>
      <path class="cls-7" d="M79.1,46.81c.41,0,.88.31.88-.19v-1.85h-.88v2.05Z" data-part="mesh"></path>
      <path class="cls-7" d="M74.52,38.72c0,1.9-.2,1.66.88,1.66v-2.05l-.78-.1c-.05.22-.1.22-.1.49" data-part="mesh"></path>
      <path class="cls-7" d="M79.29,14.15c0,.37.23.29.78.29.01-.59.39-2.14-.19-2.14h-.58v1.85Z" data-part="mesh"></path>
      <rect class="cls-10" x="79.2" y="28.58" width=".88" height="2.05" data-part="mesh"></rect>
      <rect class="cls-10" x="74.52" y="41.55" width=".88" height="2.05" data-part="mesh"></rect>
      <rect class="cls-10" x="74.71" y="5.87" width=".88" height="2.05" data-part="button"></rect>
      <rect class="cls-10" x="79.29" y="9.08" width=".88" height="2.05" data-part="mesh"></rect>
      <path class="cls-7" d="M79.1,41.84v1.75h.88v-2.05h-.58c-.22,0-.29.07-.29.29" data-part="mesh"></path>
      <path class="cls-7" d="M74.61,22.34v1.75h.88v-2.05h-.58c-.22,0-.29.07-.29.29" data-part="mesh"></path>
      <path class="cls-7" d="M79.1,50.13h.78c0-.74.1-1.09.1-1.85,0-.22-.07-.29-.29-.29h-.58v2.14Z" data-part="mesh"></path>
      <path class="cls-7" d="M74.71,11.13h.78c.05-.22.1-.22.1-.49v-1.56h-.88v2.05Z" data-part="mesh"></path>
      <path class="cls-7" d="M79.29,6.55v1.36h.88v-2.05h-.78c-.03.31-.1.35-.1.68" data-part="button"></path>
      <path class="cls-7" d="M79.1,58.12c0,1.74-.57,1.75.78,1.75v-2.14h-.78v.39Z" data-part="mesh"></path>
      <path class="cls-7" d="M74.52,46.81l.78.11c0-2.14.56-2.16-.78-2.16v2.05Z" data-part="mesh"></path>
      <rect class="cls-10" x="79.2" y="35.02" width=".78" height="2.14" data-part="mesh"></rect>
      <rect class="cls-10" x="74.52" y="47.98" width=".78" height="2.14" data-part="mesh"></rect>
      <rect class="cls-10" x="74.61" y="35.02" width=".78" height="2.14" data-part="mesh"></rect>
      <rect class="cls-10" x="74.71" y="12.3" width=".78" height="2.14" data-part="mesh"></rect>
      <path class="cls-7" d="M79.29,15.81v1.85h.78c0-2.19.17-2.14-.49-2.14-.22,0-.29.07-.29.29" data-part="mesh"></path>
      <path class="cls-7" d="M74.71,17.66h.78v-1.85c0-.22-.07-.29-.29-.29h-.49v2.14Z" data-part="mesh"></path>
      <path class="cls-7" d="M74.52,55.29c0,.59-.1.71-.1,1.27h.88v-2.05h-.78v.78Z" data-part="mesh"></path>
      <path class="cls-7" d="M79.29,23.41c0,.34-.07.38-.1.68h.88v-2.05h-.78v1.36Z" data-part="mesh"></path>
      <path class="cls-7" d="M79.2,40.38h.78v-2.05h-.29c-.26,0-.27-.05-.49-.1v2.14Z" data-part="mesh"></path>
      <rect class="cls-10" x="79.2" y="31.8" width=".78" height="2.05" data-part="mesh"></rect>
      <rect class="cls-10" x="74.52" y="51.3" width=".78" height="2.05" data-part="mesh"></rect>
      <rect class="cls-10" x="79.1" y="51.3" width=".78" height="2.05" data-part="mesh"></rect>
      <rect class="cls-10" x="74.61" y="28.58" width=".78" height="2.05" data-part="mesh"></rect>
      <rect class="cls-10" x="79.29" y="18.83" width=".78" height="2.05" data-part="mesh"></rect>
      <rect class="cls-10" x="74.61" y="31.8" width=".78" height="2.05" data-part="mesh"></rect>
      <rect class="cls-10" x="74.71" y="18.83" width=".78" height="2.05" data-part="mesh"></rect>
      <rect class="cls-10" x="79.1" y="54.51" width=".78" height="2.05" data-part="mesh"></rect>
      <path class="cls-7" d="M74.71,4.4c0,.22.07.29.29.29h.58v-1.07h-.88v.78Z" data-part="button"></path>
      <path class="cls-7" d="M74.42,61.82c0,.43.88.43.88,0v-.78h-.88v.78Z" data-part="mesh"></path>
      <path class="cls-7" d="M79,61.82c0,.43.88.43.88,0v-.78h-.88v.78Z" data-part="mesh"></path>
      <rect class="cls-10" x="79.39" y="3.62" width=".78" height="1.07" data-part="button"></rect>
      <path class="cls-9" d="M75.84.13h4.41c2.46,0,4.47,1.51,4.47,3.36h0c0,.06,0,.11,0,.16-2.22-.05-4.44-.07-6.67-.07s-4.46.03-6.67.07c0-.05,0-.11,0-.16h0c0-1.85,2.01-3.36,4.47-3.36Z" data-part="button"></path>
      <path class="cls-5" d="M75.84.13h4.41c2.46,0,4.47,1.51,4.47,3.36h0c0,.06,0,.11,0,.16-2.22-.05-4.44-.07-6.67-.07s-4.46.03-6.67.07c0-.05,0-.11,0-.16h0c0-1.85,2.01-3.36,4.47-3.36Z"></path>
      <g class="cls-1">
        <g>
          <path class="cls-9" d="M39.29,101.4c-.14,3.32-.56,8.85-.64,16.57,19.71,1.95,45.46,1.95,77.26.02-.25-6.09-.56-11.45-1.01-16.59-25.55,1.15-41.05,1.05-75.6,0Z"></path>
          <path class="cls-3" d="M114.89,101.4c-25.55,1.15-41.05,1.05-75.6,0"></path>
          <path class="cls-3" d="M38.65,117.97c19.71,1.95,45.46,1.95,77.26.02"></path>
          <path class="cls-9" d="M97.37,107.59c3.51,0,3.25,6.25-.28,6.25-16.97.73-33.25.6-52.46-.4.05-4.13.07-6.19.07-6.19,19.82.86,37.37.97,52.66.34Z"></path>
          <path class="cls-3" d="M97.37,107.59c3.51,0,3.25,6.25-.28,6.25-16.97.73-33.25.6-52.46-.4.05-4.13.07-6.19.07-6.19,19.82.86,37.37.97,52.66.34Z"></path>
          <path class="cls-8" d="M47.97,109.24c.95,0,1.72.62,1.72,1.39s-.77,1.39-1.72,1.39-1.72-.62-1.72-1.39.77-1.39,1.72-1.39Z"></path>
          <path class="cls-3" d="M47.97,109.24c.95,0,1.72.62,1.72,1.39s-.77,1.39-1.72,1.39-1.72-.62-1.72-1.39.77-1.39,1.72-1.39Z"></path>
          <path class="cls-8" d="M55.75,109.49c.95,0,1.72.62,1.72,1.39s-.77,1.39-1.72,1.39-1.72-.62-1.72-1.39.77-1.39,1.72-1.39Z"></path>
          <path class="cls-3" d="M55.75,109.49c.95,0,1.72.62,1.72,1.39s-.77,1.39-1.72,1.39-1.72-.62-1.72-1.39.77-1.39,1.72-1.39Z"></path>
          <path class="cls-8" d="M63.82,109.74c.95,0,1.72.62,1.72,1.39s-.77,1.39-1.72,1.39-1.72-.62-1.72-1.39.77-1.39,1.72-1.39Z"></path>
          <path class="cls-3" d="M63.82,109.74c.95,0,1.72.62,1.72,1.39s-.77,1.39-1.72,1.39-1.72-.62-1.72-1.39.77-1.39,1.72-1.39Z"></path>
          <ellipse cx="72.05" cy="111.31" rx="1.72" ry="1.39"></ellipse>
          <ellipse class="cls-3" cx="72.05" cy="111.31" rx="1.72" ry="1.39"></ellipse>
          <path class="cls-8" d="M80.83,109.95c.95,0,1.72.62,1.72,1.39s-.77,1.39-1.72,1.39-1.72-.62-1.72-1.39.77-1.39,1.72-1.39Z"></path>
          <path class="cls-3" d="M80.83,109.95c.95,0,1.72.62,1.72,1.39s-.77,1.39-1.72,1.39-1.72-.62-1.72-1.39.77-1.39,1.72-1.39Z"></path>
          <path class="cls-8" d="M89.41,109.89c.95,0,1.72.62,1.72,1.39s-.77,1.39-1.72,1.39-1.72-.62-1.72-1.39.77-1.39,1.72-1.39Z"></path>
          <path class="cls-3" d="M89.41,109.89c.95,0,1.72.62,1.72,1.39s-.77,1.39-1.72,1.39-1.72-.62-1.72-1.39.77-1.39,1.72-1.39Z"></path>
          <path class="cls-8" d="M96.32,109.58c.95,0,1.72.62,1.72,1.39s-.77,1.39-1.72,1.39-1.72-.62-1.72-1.39.77-1.39,1.72-1.39Z"></path>
          <path class="cls-3" d="M96.32,109.58c.95,0,1.72.62,1.72,1.39s-.77,1.39-1.72,1.39-1.72-.62-1.72-1.39.77-1.39,1.72-1.39Z"></path>
          <path class="cls-8" d="M108.9,109.03c.95,0,1.72.62,1.72,1.39s-.77,1.39-1.72,1.39-1.72-.62-1.72-1.39.77-1.39,1.72-1.39Z"></path>
          <path class="cls-3" d="M108.9,109.03c.95,0,1.72.62,1.72,1.39s-.77,1.39-1.72,1.39-1.72-.62-1.72-1.39.77-1.39,1.72-1.39Z"></path>
          <path class="cls-3" d="M90.99,102.1c3.94-.22,7.71,1.36,9.76,4.09,2.05,2.73,2.05,6.17,0,8.9-2.05,2.73-5.67,4.12-9.77,4.05"></path>
          <path class="cls-3" d="M93.83,102.1c3.94-.22,6.44,1.36,8.49,4.09,2.05,2.73,2.05,6.17,0,8.9-2.05,2.73-4.28,3.8-8.46,3.96"></path>
        </g>
      </g>
    </g>
  </g>
</svg>